<svg width="31" height="31" viewBox="0 0 31 31" fill="none" xmlns="http://www.w3.org/2000/svg">
    <g clip-path="url(#clip0_768_1762)">
        <path d="M16.7847 21.2947C16.4309 20.5512 15.4558 20.1852 14.6979 20.5156C13.4362 21.0616 13.0939 23.0585 11.7462 23.2796C10.9183 23.4149 10.1461 22.7298 9.94032 21.9129C9.73453 21.0959 9.96963 20.2438 10.327 19.4804C10.8985 18.2774 11.7563 17.2195 12.6182 16.1941C13.3819 15.2749 14.317 14.259 15.5045 14.2783C16.4812 14.2874 17.2848 15.0143 17.9186 15.7451C18.768 16.7366 19.4774 17.8665 20.0251 19.0652C20.321 19.7111 20.5703 20.403 20.5395 21.1077C20.504 21.8262 20.1104 22.5616 19.4547 22.8183C18.8681 23.0521 18.1883 22.8497 17.7185 22.4395C17.2351 22.0247 16.8683 21.4945 16.7847 21.2947Z" fill="url(#paint0_linear_768_1762)"/>
        <path d="M13.246 13.4665C13.9289 13.2238 14.0891 11.8572 13.6037 10.4142C13.1184 8.97128 12.1713 7.99833 11.4884 8.2411C10.8055 8.48386 10.6454 9.85042 11.1308 11.2934C11.6161 12.7363 12.5631 13.7093 13.246 13.4665Z" fill="url(#paint1_linear_768_1762)"/>
        <path d="M10.2594 15.921C10.7363 15.3681 10.2024 14.1117 9.067 13.1147C7.93156 12.1178 6.62452 11.7578 6.14764 12.3107C5.67077 12.8636 6.20463 14.12 7.34007 15.1169C8.47551 16.1139 9.78255 16.4739 10.2594 15.921Z" fill="url(#paint2_linear_768_1762)"/>
        <path d="M17.5213 13.2186C18.2402 13.2628 18.9136 12.0602 19.0254 10.5326C19.1371 9.00506 18.6448 7.73095 17.9258 7.68683C17.2069 7.6427 16.5335 8.84527 16.4217 10.3728C16.31 11.9004 16.8023 13.1745 17.5213 13.2186Z" fill="url(#paint3_linear_768_1762)"/>
        <path d="M22.7049 14.7932C23.7822 13.7035 24.2448 12.4054 23.7383 11.8937C23.2317 11.382 21.9478 11.8505 20.8705 12.9401C19.7932 14.0298 19.3306 15.3279 19.8371 15.8396C20.3437 16.3513 21.6276 15.8828 22.7049 14.7932Z" fill="url(#paint4_linear_768_1762)"/>
    </g>
    <defs>
        <linearGradient id="paint0_linear_768_1762" x1="18.6953" y1="25.8335" x2="9.44054" y2="21.0631" gradientUnits="userSpaceOnUse">
            <stop offset="0.0208784" stop-color="#9D3C27"/>
            <stop offset="1" stop-color="#E28800"/>
        </linearGradient>
        <linearGradient id="paint1_linear_768_1762" x1="14.4153" y1="13.0509" x2="11.8335" y2="13.7348" gradientUnits="userSpaceOnUse">
            <stop offset="0.0208784" stop-color="#9D3C27"/>
            <stop offset="1" stop-color="#E28800"/>
        </linearGradient>
        <linearGradient id="paint2_linear_768_1762" x1="11.076" y1="14.9743" x2="9.16907" y2="16.8748" gradientUnits="userSpaceOnUse">
            <stop offset="0.0208784" stop-color="#9D3C27"/>
            <stop offset="1" stop-color="#E28800"/>
        </linearGradient>
        <linearGradient id="paint3_linear_768_1762" x1="18.7523" y1="13.2942" x2="16.1217" y2="12.9295" gradientUnits="userSpaceOnUse">
            <stop offset="0.0208784" stop-color="#9D3C27"/>
            <stop offset="1" stop-color="#E28800"/>
        </linearGradient>
        <linearGradient id="paint4_linear_768_1762" x1="24.5495" y1="12.9274" x2="19.7813" y2="15.505" gradientUnits="userSpaceOnUse">
            <stop offset="0.0208784" stop-color="#9D3C27"/>
            <stop offset="1" stop-color="#E28800"/>
        </linearGradient>
        <clipPath id="clip0_768_1762">
            <rect width="24.2225" height="23.5011" fill="white" transform="matrix(0.945744 0.324912 -0.32849 0.944507 7.90625 0.457031)"/>
        </clipPath>
    </defs>
</svg>
