<svg width="864" height="1740" viewBox="0 0 864 1740" fill="none" xmlns="http://www.w3.org/2000/svg">
<path d="M1008.87 0C959.007 180.87 996.417 378.34 938.737 556.87C913.977 633.5 872.577 703.54 830.167 771.99C796.037 827.08 759.417 883.29 705.167 918.73C602.417 985.86 467.897 961.59 346.107 976.8C327.487 979.12 308.477 982.62 292.527 992.5C263.787 1010.3 250.857 1044.51 234.237 1073.95C214.077 1109.68 186.067 1140.96 152.767 1164.93C118.627 1189.5 79.1367 1206.44 47.2267 1233.84C15.3167 1261.24 -8.71326 1304.28 3.02674 1344.67C22.0967 1410.26 112.817 1420.44 158.027 1471.64C202.027 1521.47 194.757 1600.52 233.827 1654.3C276.357 1712.84 362.717 1723.21 431.307 1700.15C499.897 1677.09 556.087 1628.23 613.877 1584.69C671.677 1541.15 737.037 1500.6 809.387 1499.04C858.767 1497.98 907.597 1515.37 956.787 1510.83C1058.43 1501.46 1127.72 1404.54 1170.17 1311.72C1241.76 1155.15 1278.2 982.63 1276.05 810.49" fill="#FFE999"/>
<path d="M775.855 1616.98C753.485 1627.21 730.495 1638.75 715.845 1658.51C701.195 1678.27 697.864 1708.62 714.914 1726.35C728.584 1740.56 751.805 1742.56 769.845 1734.59C787.885 1726.62 801.165 1710.4 810.015 1692.78C823.925 1665.08 824.915 1625.13 775.855 1616.98Z" fill="#FFE999"/>
</svg>
