<svg width="708" height="644" viewBox="0 0 708 644" fill="none" xmlns="http://www.w3.org/2000/svg">
<path d="M291.55 84.6573C261.778 52.2902 226.94 22.9269 185.268 8.87626C143.596 -5.17438 94.0409 -1.57516 60.2251 26.5528C33.4214 48.8419 19.6729 83.0221 10.5191 116.651C-0.678741 157.799 -6.1177 203.497 12.8476 241.694C28.6579 273.528 60.2252 297.568 67.5749 332.343C75.6978 370.807 51.5601 408.044 44.5481 446.721C37.5539 485.265 48.3616 521.335 90.701 546.451C119.709 572.784 147.42 570.484 181.121 550.506C190.674 544.845 205.362 554.318 215.786 550.506C229.837 545.369 256.665 532.988 270.823 537.84C329.318 557.872 365.639 590.295 427.263 585.203C464.607 582.119 490.746 564.853 508.165 531.677C525.584 498.502 535.885 491.69 540.124 454.462C541.235 444.722 542.355 434.697 546.976 426.059C562.191 397.593 603.321 399.299 631.182 383.018C644.14 375.446 654.271 363.724 662.146 350.935C687.003 310.543 689.785 257.442 669.273 214.677C654.974 184.851 628.41 159.523 595.927 153.266C553.304 145.046 512.263 169.681 472.964 188.104C433.656 206.527 382.368 217.689 350.481 188.237C320.3 160.358 317.856 113.265 291.559 84.6751L291.55 84.6573Z" fill="#FFE999"/>
<path d="M633.402 529.009C658.312 526.09 688.785 525.63 702.275 546.771C709.9 558.73 709.148 574.626 703.398 587.594C697.649 600.562 687.556 611.08 677.012 620.553C667.361 629.222 656.852 637.44 644.495 641.42C621.752 648.736 595.18 639.439 580.469 620.615C565.759 601.792 562.857 574.971 571.411 552.671C577.568 536.607 592.535 533.812 633.402 529.018V529.009Z" fill="#FFE999"/>
</svg>
