<svg width="864" height="1037" viewBox="0 0 864 1037" fill="none" xmlns="http://www.w3.org/2000/svg">
<path d="M-13.5598 56.9528C-44.6098 84.2428 -34.8799 136.063 -11.5099 170.163C25.3001 223.873 95.7701 257.683 157.72 237.613C215.61 218.853 250.55 162.103 288.54 114.573C327.3 66.0728 376.24 22.4128 436.21 6.35282C496.18 -9.70718 568.27 8.39278 601.34 60.9328C618.43 88.0828 624.77 122.643 648.79 143.903C688.02 178.633 750.76 159.793 799.6 178.773C832.14 191.413 856.97 222.133 862.51 256.603C868.05 291.073 854.09 328.023 827.14 350.213C791.06 379.933 734.08 385.413 712.15 426.693C688.78 470.693 721.29 522.333 728.14 571.683C738.2 644.223 681.11 719.353 608.52 729.073C521.15 740.783 445.62 670.613 390.51 601.803C379.98 588.653 369.26 575.003 354.62 566.663C328.4 551.743 294.17 557.373 268.87 573.823C243.57 590.273 225.7 615.823 210.41 641.843C162.76 722.933 134.21 814.083 86.6701 895.233C64.3101 933.393 37.2401 969.743 1.30014 995.503C-65.0799 1043.06 -157.04 1048.12 -232.19 1016.18C-307.34 984.253 -365.56 918.713 -397.41 843.523" fill="#FFE999"/>
<path d="M329.686 639.549C322.096 631.499 311.366 626.198 300.296 626.188C289.226 626.178 278.076 631.809 272.396 641.309C266.716 650.799 267.276 663.929 274.516 672.299C278.946 677.419 285.376 680.488 291.996 681.938C303.796 684.508 317.126 681.779 325.526 673.109C333.926 664.439 337.736 648.109 329.676 639.559L329.686 639.549Z" fill="#FFE999"/>
</svg>
