<svg width="828" height="705" viewBox="0 0 828 705" fill="none" xmlns="http://www.w3.org/2000/svg">
<path d="M687.962 186.294C650.982 166.334 631.222 125.734 605.542 92.484C572.882 50.194 526.822 17.284 474.712 5.46401C422.602 -6.35599 364.682 4.43404 323.512 38.494C302.712 55.704 286.672 78.034 266.152 95.574C205.822 147.164 115.222 151.084 55.132 202.954C20.062 233.224 -1.4081 279.284 0.0718981 325.574C1.5519 371.864 26.7119 417.244 66.3219 441.274C99.0219 461.114 139.522 466.454 170.072 489.464C206.522 516.904 221.642 563.564 246.902 601.554C287.242 662.224 357.632 701.804 430.422 704.774C503.222 707.734 576.582 674.004 621.732 616.824C651.842 578.684 670.952 530.114 711.232 502.934C730.982 489.604 754.462 482.524 774.032 468.924C817.902 438.434 834.522 378.594 824.762 326.064C815.002 273.544 779.222 235.564 687.972 186.304L687.962 186.294Z" fill="#FFE999"/>
</svg>
