<svg width="824" height="1317" viewBox="0 0 824 1317" fill="none" xmlns="http://www.w3.org/2000/svg">
<path d="M-70.6934 0C-91.2234 99.73 -101.903 203.61 -80.0034 303.05C-58.1034 402.49 0.236549 497.56 90.3365 545.01C171.917 587.98 268.507 588 360.707 586.68C452.897 585.35 549.327 584.6 631.547 626.33C713.767 668.05 774.877 767.13 741.877 853.22C729.167 886.39 703.747 915.69 701.847 951.16C698.607 1011.61 762.367 1052.73 785.277 1108.76C820.937 1195.99 740.387 1296.94 647.557 1313.11C554.727 1329.28 461.997 1284.66 385.127 1230.16C308.257 1175.66 238.217 1109.34 151.747 1071.88C120.007 1058.13 84.6566 1048.44 50.9666 1056.28C19.2066 1063.67 -6.84342 1085.5 -33.0034 1104.96C-112.523 1164.1 -209.053 1207.52 -307.893 1200.42C-470.173 1188.77 -596.663 1041.33 -637.223 883.76C-677.783 726.2 -651.153 560.04 -623.463 399.72" fill="#FFE999"/>
<path d="M130.127 1216.14C100.717 1215.59 70.9065 1245.62 81.7365 1272.97C86.0265 1283.8 95.5566 1291.89 106.067 1296.9C126.357 1306.55 152.177 1305.24 169.787 1291.29C187.397 1277.34 194.347 1250.47 183.397 1230.85C172.447 1211.23 143.477 1203.51 130.117 1216.14H130.127Z" fill="#FFE999"/>
<path d="M752.357 521.47C727.687 518.9 697.297 519.04 684.867 540.5C677.377 553.43 679.917 570.53 688.407 582.83C696.897 595.13 710.397 603.16 724.437 608.28C746.897 616.47 772.967 617.72 793.977 606.33C814.987 594.94 828.707 568.93 821.357 546.18C814.007 523.43 782.567 510.82 752.357 521.46V521.47Z" fill="#FFE999"/>
</svg>
