<svg width="745" height="629" viewBox="0 0 745 629" fill="none" xmlns="http://www.w3.org/2000/svg">
<path d="M555.944 581.004C548.206 574.9 537.178 573.261 528.003 576.854C518.828 580.446 511.838 589.134 510.306 598.872C509.653 602.999 509.944 607.322 511.512 611.194C514.636 618.896 522.522 623.902 530.682 625.517C538.835 627.132 547.28 625.844 555.392 624.027C559.513 623.106 563.795 621.948 566.871 619.056C569.686 616.414 571.153 612.596 571.688 608.777C573.374 596.64 563.623 587.055 555.95 580.998L555.944 581.004Z" fill="#FFE999"/>
<path d="M792.957 339.359C763.2 347.64 743.83 376.122 731.085 404.272C718.34 432.423 709.014 463.124 688.086 485.85C659.126 517.303 626.211 548.41 583.972 554.956C552.144 559.886 505.519 542.178 477.282 526.671C440.749 506.609 426.943 462.223 412.576 423.081C378.407 330.023 317.063 239.563 224.062 205.348C180.628 189.368 133.603 186.829 88.1229 178.262C42.6427 169.695 -4.24712 153.248 -33.3249 117.225C-57.7003 87.0275 -66.3555 45.9731 -61.4954 7.46366C-56.6353 -31.0457 -39.227 -67.1571 -16.4608 -98.586C17.4799 -145.437 68.9025 -185.021 126.729 -184.35C163.366 -183.924 198.483 -167.472 235.123 -167.605C289.581 -167.81 336.291 -203.685 385.241 -227.555C460.324 -264.168 549.224 -273.382 629.019 -248.683C708.814 -223.984 778.099 -164.581 810.805 -87.684C828.481 -46.1194 835.985 0.264929 861.456 37.5644C888.561 77.2576 934.983 105.18 947.525 151.58C962.533 207.089 921.666 262.386 876.131 297.473C849.543 317.96 819.748 331.898 792.952 339.359L792.957 339.359Z" fill="#FFE999"/>
</svg>
