<svg width="639" height="581" viewBox="0 0 639 581" fill="none" xmlns="http://www.w3.org/2000/svg">
<path d="M361.883 486.301C387.69 514.297 417.888 539.696 454.01 551.849C490.132 564.003 533.087 560.889 562.4 536.559C585.634 517.28 597.551 487.715 605.486 458.627C615.192 423.035 619.907 383.507 603.467 350.468C589.763 322.932 562.4 302.138 556.029 272.059C548.988 238.789 569.911 206.579 575.989 173.125C582.052 139.785 572.683 108.586 535.983 86.861C510.838 64.0836 486.817 66.0731 457.605 83.3535C449.324 88.2501 436.199 91.0119 427.163 94.3092C414.983 98.7526 392.122 98.5061 379.849 94.3092C329.145 76.9821 297.661 48.937 244.244 53.3415C211.874 56.0091 189.216 70.9437 174.117 99.6401C159.018 128.336 150.088 134.228 146.414 166.429C145.451 174.854 144.48 183.525 140.475 190.997C127.286 215.619 91.6336 214.144 67.4832 228.226C56.2509 234.776 47.4692 244.915 40.643 255.977C19.0965 290.915 16.685 336.846 34.4652 373.837C46.8598 399.636 69.886 421.544 98.0429 426.956C134.989 434.066 170.564 412.757 204.63 396.822C238.703 380.886 283.16 371.232 310.8 396.707C336.962 420.821 339.08 461.556 361.875 486.285L361.883 486.301Z" fill="#FFE999"/>
<path d="M83.676 151.753C66.1151 153.807 44.6325 154.13 35.1224 139.258C29.747 130.846 30.2771 119.663 34.3307 110.541C38.3836 101.418 45.4989 94.0188 52.9321 87.3548C59.7358 81.2564 67.1444 75.4753 75.8557 72.6755C91.8889 67.5289 110.621 74.0691 120.992 87.3112C131.362 100.553 133.408 119.42 127.378 135.108C123.037 146.408 112.486 148.375 83.676 151.747L83.676 151.753Z" fill="#FFE999"/>
</svg>
