<svg width="453" height="785" viewBox="0 0 453 785" fill="none" xmlns="http://www.w3.org/2000/svg">
<path d="M-196.352 60.4498C-219.317 80.6328 -212.12 118.958 -194.836 144.177C-167.612 183.9 -115.493 208.905 -69.6752 194.062C-26.8603 180.187 -1.01895 138.216 27.0781 103.064C55.7447 67.1947 91.9402 34.9048 136.294 23.0272C180.647 11.1496 233.964 24.5359 258.422 63.3933C271.062 83.4728 275.751 109.033 293.516 124.756C322.53 150.442 368.932 136.508 405.054 150.545C429.12 159.893 447.484 182.613 451.581 208.106C455.679 233.6 445.354 260.927 425.422 277.338C398.738 299.318 356.596 303.371 340.376 333.901C323.092 366.442 347.136 404.634 352.203 441.132C359.643 494.781 317.42 550.346 263.733 557.534C199.115 566.195 143.253 514.299 102.494 463.408C94.7064 453.683 86.778 443.588 75.9503 437.42C56.5582 426.385 31.242 430.549 12.5304 442.715C-6.1813 454.881 -19.3978 473.777 -30.7062 493.021C-65.9477 552.993 -87.063 620.406 -122.223 680.422C-138.76 708.645 -158.781 735.528 -185.362 754.58C-234.456 789.752 -302.469 793.494 -358.049 769.872C-413.63 746.259 -456.689 697.788 -480.245 642.179" fill="#FFE999"/>
<path d="M443.894 467.793C437.871 461.405 429.355 457.198 420.57 457.19C411.785 457.182 402.936 461.651 398.428 469.19C393.921 476.721 394.365 487.141 400.111 493.783C403.627 497.846 408.729 500.282 413.983 501.432C423.348 503.472 433.926 501.306 440.593 494.426C447.259 487.545 450.283 474.586 443.886 467.801L443.894 467.793Z" fill="#FFE999"/>
</svg>
