<svg width="744" height="71" viewBox="0 0 744 71" fill="none" xmlns="http://www.w3.org/2000/svg">
<g opacity="0.2">
<g clip-path="url(#clip0_377_2052)">
<path d="M-1.82363 21.4783C-0.639699 20.9848 0.00473595 19.4959 -0.451154 18.2912C-1.20389 16.2863 -4.28452 15.6003 -4.52506 13.4865C-4.67209 12.188 -3.54687 11.039 -2.25992 10.7816C-0.972967 10.5241 0.334741 10.9553 1.49513 11.57C3.32292 12.5515 4.90307 13.9675 6.43238 15.3873C7.80399 16.6461 9.31274 18.179 9.19156 20.0252C9.10247 21.5442 7.9097 22.7387 6.72394 23.6687C5.11612 24.9142 3.3036 25.9312 1.39643 26.6912C0.368852 27.1021 -0.726959 27.4368 -1.82094 27.3349C-2.93617 27.2244 -4.05024 26.5556 -4.39926 25.5156C-4.71802 24.585 -4.35083 23.5428 -3.6766 22.8434C-2.99402 22.123 -2.14085 21.5931 -1.82363 21.4783Z" fill="#D66A1C"/>
<path d="M10.6279 16.5734C10.9532 17.6546 13.0671 18.0087 15.3495 17.3643C17.6319 16.7199 19.2185 15.3211 18.8932 14.24C18.5679 13.1588 16.454 12.8047 14.1716 13.4491C11.8892 14.0934 10.3026 15.4923 10.6279 16.5734Z" fill="#D66A1C"/>
<path d="M7.03821 11.7385C7.86185 12.5229 9.85771 11.7887 11.4961 10.0986C13.1345 8.40853 13.795 6.40253 12.9713 5.6181C12.1477 4.83366 10.1518 5.56784 8.51343 7.25794C6.87505 8.94803 6.21458 10.954 7.03821 11.7385Z" fill="#D66A1C"/>
<path d="M10.6851 23.2442C10.5613 24.3595 12.3807 25.4996 14.7488 25.7907C17.117 26.0818 19.1372 25.4137 19.2611 24.2984C19.3849 23.1832 17.5656 22.0431 15.1974 21.7519C12.8292 21.4608 10.809 22.1289 10.6851 23.2442Z" fill="#D66A1C"/>
<path d="M7.83737 31.1892C9.45004 32.949 11.4343 33.7686 12.2694 33.0197C13.1045 32.2708 12.4741 30.2372 10.8614 28.4773C9.24874 26.7175 7.26445 25.898 6.42939 26.6468C5.59432 27.3957 6.2247 29.4294 7.83737 31.1892Z" fill="#D66A1C"/>
</g>
<g clip-path="url(#clip1_377_2052)">
<path d="M69.7979 60.837C70.9819 60.3435 71.6263 58.8545 71.1704 57.6499C70.4177 55.6449 67.3371 54.9589 67.0965 52.8451C66.9495 51.5466 68.0747 50.3977 69.3617 50.1402C70.6486 49.8827 71.9563 50.314 73.1167 50.9286C74.9445 51.9102 76.5247 53.3262 78.054 54.7459C79.4256 56.0047 80.9343 57.5376 80.8131 59.3838C80.7241 60.9028 79.5313 62.0973 78.3455 63.0274C76.7377 64.2728 74.9252 65.2898 73.018 66.0499C71.9904 66.4607 70.8946 66.7954 69.8006 66.6935C68.6854 66.583 67.5713 65.9142 67.2223 64.8742C66.9036 63.9436 67.2708 62.9014 67.945 62.202C68.6276 61.4817 69.4807 60.9517 69.7979 60.837Z" fill="#D66A1C"/>
<path d="M82.2495 55.9321C82.5748 57.0132 84.6887 57.3673 86.9711 56.7229C89.2535 56.0786 90.8401 54.6798 90.5148 53.5986C90.1895 52.5174 88.0755 52.1634 85.7931 52.8077C83.5108 53.4521 81.9242 54.8509 82.2495 55.9321Z" fill="#D66A1C"/>
<path d="M78.6598 51.0971C79.4834 51.8815 81.4793 51.1474 83.1177 49.4573C84.7561 47.7672 85.4165 45.7612 84.5929 44.9767C83.7693 44.1923 81.7734 44.9265 80.135 46.6166C78.4966 48.3067 77.8362 50.3127 78.6598 51.0971Z" fill="#D66A1C"/>
<path d="M82.3067 62.6028C82.1829 63.7181 84.0022 64.8582 86.3704 65.1493C88.7386 65.4404 90.7588 64.7723 90.8827 63.6571C91.0065 62.5418 89.1871 61.4017 86.819 61.1106C84.4508 60.8195 82.4306 61.4876 82.3067 62.6028Z" fill="#D66A1C"/>
<path d="M79.459 70.5478C81.0716 72.3076 83.0559 73.1272 83.891 72.3783C84.726 71.6295 84.0957 69.5958 82.483 67.836C80.8703 66.0762 78.886 65.2566 78.051 66.0055C77.2159 66.7543 77.8463 68.788 79.459 70.5478Z" fill="#D66A1C"/>
</g>
<g clip-path="url(#clip2_377_2052)">
<path d="M265.113 21.4783C266.297 20.9848 266.941 19.4959 266.485 18.2912C265.733 16.2863 262.652 15.6003 262.411 13.4865C262.264 12.188 263.39 11.039 264.677 10.7816C265.964 10.5241 267.271 10.9553 268.432 11.57C270.259 12.5515 271.84 13.9675 273.369 15.3873C274.741 16.6461 276.249 18.179 276.128 20.0252C276.039 21.5442 274.846 22.7387 273.66 23.6687C272.053 24.9142 270.24 25.9312 268.333 26.6912C267.305 27.1021 266.21 27.4368 265.116 27.3349C264 27.2244 262.886 26.5556 262.537 25.5156C262.218 24.585 262.586 23.5428 263.26 22.8434C263.943 22.123 264.796 21.5931 265.113 21.4783Z" fill="#D66A1C"/>
<path d="M277.564 16.5734C277.89 17.6546 280.004 18.0087 282.286 17.3643C284.568 16.7199 286.155 15.3211 285.83 14.24C285.504 13.1588 283.39 12.8047 281.108 13.4491C278.826 14.0934 277.239 15.4923 277.564 16.5734Z" fill="#D66A1C"/>
<path d="M273.975 11.7385C274.798 12.5229 276.794 11.7887 278.433 10.0986C280.071 8.40853 280.731 6.40253 279.908 5.6181C279.084 4.83366 277.088 5.56784 275.45 7.25794C273.812 8.94803 273.151 10.954 273.975 11.7385Z" fill="#D66A1C"/>
<path d="M277.622 23.2442C277.498 24.3595 279.317 25.4996 281.685 25.7907C284.054 26.0818 286.074 25.4137 286.198 24.2984C286.321 23.1832 284.502 22.0431 282.134 21.7519C279.766 21.4608 277.746 22.1289 277.622 23.2442Z" fill="#D66A1C"/>
<path d="M274.774 31.1892C276.387 32.949 278.371 33.7686 279.206 33.0197C280.041 32.2708 279.411 30.2372 277.798 28.4773C276.185 26.7175 274.201 25.898 273.366 26.6468C272.531 27.3957 273.161 29.4294 274.774 31.1892Z" fill="#D66A1C"/>
</g>
<g clip-path="url(#clip3_377_2052)">
<path d="M121.87 22.7353C123.054 22.2418 123.698 20.7528 123.242 19.5482C122.489 17.5432 119.409 16.8573 119.168 14.7434C119.021 13.4449 120.146 12.296 121.433 12.0385C122.72 11.7811 124.028 12.2123 125.188 12.827C127.016 13.8085 128.596 15.2245 130.126 16.6442C131.497 17.903 133.006 19.436 132.885 21.2821C132.796 22.8011 131.603 23.9956 130.417 24.9257C128.809 26.1711 126.997 27.1881 125.09 27.9482C124.062 28.359 122.966 28.6937 121.872 28.5918C120.757 28.4814 119.643 27.8125 119.294 26.7725C118.975 25.8419 119.343 24.7998 120.017 24.1003C120.699 23.38 121.553 22.8501 121.87 22.7353Z" fill="#D66A1C"/>
<path d="M134.321 17.8304C134.647 18.9115 136.761 19.2656 139.043 18.6212C141.325 17.9769 142.912 16.5781 142.587 15.4969C142.261 14.4158 140.147 14.0617 137.865 14.706C135.583 15.3504 133.996 16.7492 134.321 17.8304Z" fill="#D66A1C"/>
<path d="M130.732 12.9954C131.555 13.7799 133.551 13.0457 135.189 11.3556C136.828 9.66549 137.488 7.65949 136.665 6.87505C135.841 6.09062 133.845 6.8248 132.207 8.51489C130.568 10.205 129.908 12.211 130.732 12.9954Z" fill="#D66A1C"/>
<path d="M134.378 24.5011C134.255 25.6164 136.074 26.7565 138.442 27.0476C140.81 27.3388 142.831 26.6707 142.954 25.5554C143.078 24.4401 141.259 23.3 138.891 23.0089C136.523 22.7178 134.502 23.3859 134.378 24.5011Z" fill="#D66A1C"/>
<path d="M131.531 32.4461C133.143 34.206 135.128 35.0255 135.963 34.2767C136.798 33.5278 136.167 31.4941 134.555 29.7343C132.942 27.9745 130.958 27.1549 130.123 27.9038C129.288 28.6526 129.918 30.6863 131.531 32.4461Z" fill="#D66A1C"/>
</g>
<g clip-path="url(#clip4_377_2052)">
<path d="M186.528 56.4706C187.712 55.9771 188.356 54.4882 187.9 53.2835C187.148 51.2786 184.067 50.5926 183.827 48.4788C183.679 47.1803 184.805 46.0314 186.092 45.7739C187.379 45.5164 188.686 45.9476 189.847 46.5623C191.674 47.5438 193.255 48.9598 194.784 50.3796C196.156 51.6384 197.664 53.1713 197.543 55.0175C197.454 56.5365 196.261 57.731 195.076 58.661C193.468 59.9065 191.655 60.9235 189.748 61.6835C188.72 62.0944 187.625 62.4291 186.531 62.3272C185.415 62.2167 184.301 61.5479 183.952 60.5079C183.634 59.5773 184.001 58.5351 184.675 57.8357C185.358 57.1153 186.211 56.5854 186.528 56.4706Z" fill="#D66A1C"/>
<path d="M198.979 51.5657C199.305 52.6469 201.419 53.001 203.701 52.3566C205.983 51.7122 207.57 50.3134 207.245 49.2323C206.919 48.1511 204.806 47.797 202.523 48.4414C200.241 49.0858 198.654 50.4846 198.979 51.5657Z" fill="#D66A1C"/>
<path d="M195.39 46.7308C196.213 47.5152 198.209 46.781 199.848 45.0909C201.486 43.4008 202.147 41.3948 201.323 40.6104C200.499 39.826 198.503 40.5602 196.865 42.2502C195.227 43.9403 194.566 45.9463 195.39 46.7308Z" fill="#D66A1C"/>
<path d="M199.037 58.2365C198.913 59.3518 200.732 60.4919 203.1 60.783C205.469 61.0741 207.489 60.406 207.613 59.2907C207.737 58.1755 205.917 57.0354 203.549 56.7442C201.181 56.4531 199.161 57.1212 199.037 58.2365Z" fill="#D66A1C"/>
<path d="M196.189 66.1815C197.802 67.9413 199.786 68.7609 200.621 68.012C201.456 67.2631 200.826 65.2295 199.213 63.4696C197.6 61.7098 195.616 60.8903 194.781 61.6391C193.946 62.388 194.576 64.4217 196.189 66.1815Z" fill="#D66A1C"/>
</g>
<g clip-path="url(#clip5_377_2052)">
<path d="M336.734 60.837C337.918 60.3435 338.563 58.8545 338.107 57.6499C337.354 55.6449 334.274 54.9589 334.033 52.8451C333.886 51.5466 335.011 50.3977 336.298 50.1402C337.585 49.8827 338.893 50.314 340.053 50.9286C341.881 51.9102 343.461 53.3262 344.99 54.7459C346.362 56.0047 347.871 57.5376 347.75 59.3838C347.661 60.9028 346.468 62.0973 345.282 63.0274C343.674 64.2728 341.862 65.2898 339.955 66.0499C338.927 66.4607 337.831 66.7954 336.737 66.6935C335.622 66.583 334.508 65.9142 334.159 64.8742C333.84 63.9436 334.207 62.9014 334.882 62.202C335.564 61.4817 336.417 60.9517 336.734 60.837Z" fill="#D66A1C"/>
<path d="M349.186 55.9321C349.511 57.0132 351.625 57.3673 353.908 56.7229C356.19 56.0786 357.777 54.6798 357.451 53.5986C357.126 52.5174 355.012 52.1634 352.73 52.8077C350.447 53.4521 348.861 54.8509 349.186 55.9321Z" fill="#D66A1C"/>
<path d="M345.596 51.0971C346.42 51.8815 348.416 51.1474 350.054 49.4573C351.693 47.7672 352.353 45.7612 351.529 44.9767C350.706 44.1923 348.71 44.9265 347.072 46.6166C345.433 48.3067 344.773 50.3127 345.596 51.0971Z" fill="#D66A1C"/>
<path d="M349.243 62.6028C349.119 63.7181 350.939 64.8582 353.307 65.1493C355.675 65.4404 357.695 64.7723 357.819 63.6571C357.943 62.5418 356.124 61.4017 353.755 61.1106C351.387 60.8195 349.367 61.4876 349.243 62.6028Z" fill="#D66A1C"/>
<path d="M346.395 70.5478C348.008 72.3076 349.992 73.1272 350.827 72.3783C351.663 71.6295 351.032 69.5958 349.42 67.836C347.807 66.0762 345.823 65.2566 344.987 66.0055C344.152 66.7543 344.783 68.788 346.395 70.5478Z" fill="#D66A1C"/>
</g>
<g clip-path="url(#clip6_377_2052)">
<path d="M530.539 21.4783C531.723 20.9848 532.368 19.4959 531.912 18.2912C531.159 16.2863 528.078 15.6003 527.838 13.4865C527.691 12.188 528.816 11.039 530.103 10.7816C531.39 10.5241 532.698 10.9553 533.858 11.57C535.686 12.5515 537.266 13.9675 538.795 15.3873C540.167 16.6461 541.676 18.179 541.554 20.0252C541.465 21.5442 540.272 22.7387 539.087 23.6687C537.479 24.9142 535.666 25.9312 533.759 26.6912C532.732 27.1021 531.636 27.4368 530.542 27.3349C529.427 27.2244 528.313 26.5556 527.964 25.5156C527.645 24.585 528.012 23.5428 528.686 22.8434C529.369 22.123 530.222 21.5931 530.539 21.4783Z" fill="#D66A1C"/>
<path d="M542.991 16.5734C543.316 17.6546 545.43 18.0087 547.712 17.3643C549.995 16.7199 551.581 15.3211 551.256 14.24C550.931 13.1588 548.817 12.8047 546.534 13.4491C544.252 14.0934 542.665 15.4923 542.991 16.5734Z" fill="#D66A1C"/>
<path d="M539.401 11.7385C540.225 12.5229 542.221 11.7887 543.859 10.0986C545.497 8.40853 546.158 6.40253 545.334 5.6181C544.51 4.83366 542.515 5.56784 540.876 7.25794C539.238 8.94803 538.577 10.954 539.401 11.7385Z" fill="#D66A1C"/>
<path d="M543.048 23.2442C542.924 24.3595 544.743 25.4996 547.112 25.7907C549.48 26.0818 551.5 25.4137 551.624 24.2984C551.748 23.1832 549.928 22.0431 547.56 21.7519C545.192 21.4608 543.172 22.1289 543.048 23.2442Z" fill="#D66A1C"/>
<path d="M540.2 31.1892C541.813 32.949 543.797 33.7686 544.632 33.0197C545.467 32.2708 544.837 30.2372 543.224 28.4773C541.612 26.7175 539.627 25.898 538.792 26.6468C537.957 27.3957 538.587 29.4294 540.2 31.1892Z" fill="#D66A1C"/>
</g>
<g clip-path="url(#clip7_377_2052)">
<path d="M387.296 22.7353C388.48 22.2418 389.124 20.7528 388.668 19.5482C387.916 17.5432 384.835 16.8573 384.595 14.7434C384.448 13.4449 385.573 12.296 386.86 12.0385C388.147 11.7811 389.454 12.2123 390.615 12.827C392.443 13.8085 394.023 15.2245 395.552 16.6442C396.924 17.903 398.432 19.436 398.311 21.2821C398.222 22.8011 397.029 23.9956 395.844 24.9257C394.236 26.1711 392.423 27.1881 390.516 27.9482C389.488 28.359 388.393 28.6937 387.299 28.5918C386.183 28.4814 385.069 27.8125 384.72 26.7725C384.402 25.8419 384.769 24.7998 385.443 24.1003C386.126 23.38 386.979 22.8501 387.296 22.7353Z" fill="#D66A1C"/>
<path d="M399.748 17.8304C400.073 18.9115 402.187 19.2656 404.469 18.6212C406.752 17.9769 408.338 16.5781 408.013 15.4969C407.688 14.4158 405.574 14.0617 403.291 14.706C401.009 15.3504 399.422 16.7492 399.748 17.8304Z" fill="#D66A1C"/>
<path d="M396.158 12.9954C396.981 13.7799 398.977 13.0457 400.616 11.3556C402.254 9.66549 402.915 7.65949 402.091 6.87505C401.267 6.09062 399.271 6.8248 397.633 8.51489C395.995 10.205 395.334 12.211 396.158 12.9954Z" fill="#D66A1C"/>
<path d="M399.805 24.5011C399.681 25.6164 401.5 26.7565 403.868 27.0476C406.237 27.3388 408.257 26.6707 408.381 25.5554C408.505 24.4401 406.685 23.3 404.317 23.0089C401.949 22.7178 399.929 23.3859 399.805 24.5011Z" fill="#D66A1C"/>
<path d="M396.957 32.4461C398.57 34.206 400.554 35.0255 401.389 34.2767C402.224 33.5278 401.594 31.4941 399.981 29.7343C398.368 27.9745 396.384 27.1549 395.549 27.9038C394.714 28.6526 395.344 30.6863 396.957 32.4461Z" fill="#D66A1C"/>
</g>
<g clip-path="url(#clip8_377_2052)">
<path d="M451.954 56.4706C453.138 55.9771 453.783 54.4882 453.327 53.2835C452.574 51.2786 449.493 50.5926 449.253 48.4788C449.106 47.1803 450.231 46.0314 451.518 45.7739C452.805 45.5164 454.113 45.9476 455.273 46.5623C457.101 47.5438 458.681 48.9598 460.21 50.3796C461.582 51.6384 463.091 53.1713 462.969 55.0175C462.88 56.5365 461.688 57.731 460.502 58.661C458.894 59.9065 457.081 60.9235 455.174 61.6835C454.147 62.0944 453.051 62.4291 451.957 62.3272C450.842 62.2167 449.728 61.5479 449.379 60.5079C449.06 59.5773 449.427 58.5351 450.101 57.8357C450.784 57.1153 451.637 56.5854 451.954 56.4706Z" fill="#D66A1C"/>
<path d="M464.406 51.5657C464.731 52.6469 466.845 53.001 469.127 52.3566C471.41 51.7122 472.996 50.3134 472.671 49.2323C472.346 48.1511 470.232 47.797 467.949 48.4414C465.667 49.0858 464.08 50.4846 464.406 51.5657Z" fill="#D66A1C"/>
<path d="M460.816 46.7308C461.64 47.5152 463.636 46.781 465.274 45.0909C466.912 43.4008 467.573 41.3948 466.749 40.6104C465.926 39.826 463.93 40.5602 462.291 42.2502C460.653 43.9403 459.992 45.9463 460.816 46.7308Z" fill="#D66A1C"/>
<path d="M464.463 58.2365C464.339 59.3518 466.158 60.4919 468.527 60.783C470.895 61.0741 472.915 60.406 473.039 59.2907C473.163 58.1755 471.343 57.0354 468.975 56.7442C466.607 56.4531 464.587 57.1212 464.463 58.2365Z" fill="#D66A1C"/>
<path d="M461.615 66.1815C463.228 67.9413 465.212 68.7609 466.047 68.012C466.882 67.2631 466.252 65.2295 464.639 63.4696C463.027 61.7098 461.042 60.8903 460.207 61.6391C459.372 62.388 460.003 64.4217 461.615 66.1815Z" fill="#D66A1C"/>
</g>
<g clip-path="url(#clip9_377_2052)">
<path d="M602.161 60.837C603.345 60.3435 603.989 58.8545 603.533 57.6499C602.78 55.6449 599.7 54.9589 599.459 52.8451C599.312 51.5466 600.438 50.3977 601.724 50.1402C603.011 49.8827 604.319 50.314 605.48 50.9286C607.307 51.9102 608.887 53.3262 610.417 54.7459C611.788 56.0047 613.297 57.5376 613.176 59.3838C613.087 60.9028 611.894 62.0973 610.708 63.0274C609.1 64.2728 607.288 65.2898 605.381 66.0499C604.353 66.4607 603.257 66.7954 602.163 66.6935C601.048 66.583 599.934 65.9142 599.585 64.8742C599.266 63.9436 599.634 62.9014 600.308 62.202C600.99 61.4817 601.844 60.9517 602.161 60.837Z" fill="#D66A1C"/>
<path d="M614.612 55.9321C614.938 57.0132 617.052 57.3673 619.334 56.7229C621.616 56.0786 623.203 54.6798 622.878 53.5986C622.552 52.5174 620.438 52.1634 618.156 52.8077C615.874 53.4521 614.287 54.8509 614.612 55.9321Z" fill="#D66A1C"/>
<path d="M611.023 51.0971C611.846 51.8815 613.842 51.1474 615.48 49.4573C617.119 47.7672 617.779 45.7612 616.956 44.9767C616.132 44.1923 614.136 44.9265 612.498 46.6166C610.859 48.3067 610.199 50.3127 611.023 51.0971Z" fill="#D66A1C"/>
<path d="M614.67 62.6028C614.546 63.7181 616.365 64.8582 618.733 65.1493C621.101 65.4404 623.122 64.7723 623.245 63.6571C623.369 62.5418 621.55 61.4017 619.182 61.1106C616.814 60.8195 614.793 61.4876 614.67 62.6028Z" fill="#D66A1C"/>
<path d="M611.822 70.5478C613.434 72.3076 615.419 73.1272 616.254 72.3783C617.089 71.6295 616.458 69.5958 614.846 67.836C613.233 66.0762 611.249 65.2566 610.414 66.0055C609.579 66.7543 610.209 68.788 611.822 70.5478Z" fill="#D66A1C"/>
</g>
<g clip-path="url(#clip10_377_2052)">
<path d="M658.749 22.7353C659.933 22.2418 660.577 20.7528 660.121 19.5482C659.368 17.5432 656.288 16.8573 656.047 14.7434C655.9 13.4449 657.025 12.296 658.312 12.0385C659.599 11.7811 660.907 12.2123 662.067 12.827C663.895 13.8085 665.475 15.2245 667.005 16.6442C668.376 17.903 669.885 19.436 669.764 21.2821C669.675 22.8011 668.482 23.9956 667.296 24.9257C665.688 26.1711 663.876 27.1881 661.969 27.9482C660.941 28.359 659.845 28.6937 658.751 28.5918C657.636 28.4814 656.522 27.8125 656.173 26.7725C655.854 25.8419 656.221 24.7998 656.896 24.1003C657.578 23.38 658.431 22.8501 658.749 22.7353Z" fill="#D66A1C"/>
<path d="M671.2 17.8304C671.525 18.9115 673.639 19.2656 675.922 18.6212C678.204 17.9769 679.791 16.5781 679.465 15.4969C679.14 14.4158 677.026 14.0617 674.744 14.706C672.461 15.3504 670.875 16.7492 671.2 17.8304Z" fill="#D66A1C"/>
<path d="M667.61 12.9954C668.434 13.7799 670.43 13.0457 672.068 11.3556C673.707 9.66549 674.367 7.65949 673.544 6.87505C672.72 6.09062 670.724 6.8248 669.086 8.51489C667.447 10.205 666.787 12.211 667.61 12.9954Z" fill="#D66A1C"/>
<path d="M671.257 24.5011C671.134 25.6164 672.953 26.7565 675.321 27.0476C677.689 27.3388 679.709 26.6707 679.833 25.5554C679.957 24.4401 678.138 23.3 675.77 23.0089C673.401 22.7178 671.381 23.3859 671.257 24.5011Z" fill="#D66A1C"/>
<path d="M668.41 32.4461C670.022 34.206 672.007 35.0255 672.842 34.2767C673.677 33.5278 673.046 31.4941 671.434 29.7343C669.821 27.9745 667.837 27.1549 667.002 27.9038C666.167 28.6526 666.797 30.6863 668.41 32.4461Z" fill="#D66A1C"/>
</g>
<g clip-path="url(#clip11_377_2052)">
<path d="M723.407 56.4706C724.591 55.9771 725.235 54.4882 724.779 53.2835C724.027 51.2786 720.946 50.5926 720.705 48.4788C720.558 47.1803 721.684 46.0314 722.971 45.7739C724.258 45.5164 725.565 45.9476 726.726 46.5623C728.553 47.5438 730.134 48.9598 731.663 50.3796C733.034 51.6384 734.543 53.1713 734.422 55.0175C734.333 56.5365 733.14 57.731 731.954 58.661C730.347 59.9065 728.534 60.9235 726.627 61.6835C725.599 62.0944 724.504 62.4291 723.41 62.3272C722.294 62.2167 721.18 61.5479 720.831 60.5079C720.512 59.5773 720.88 58.5351 721.554 57.8357C722.236 57.1153 723.09 56.5854 723.407 56.4706Z" fill="#D66A1C"/>
<path d="M735.858 51.5657C736.184 52.6469 738.298 53.001 740.58 52.3566C742.862 51.7122 744.449 50.3134 744.124 49.2323C743.798 48.1511 741.684 47.797 739.402 48.4414C737.12 49.0858 735.533 50.4846 735.858 51.5657Z" fill="#D66A1C"/>
<path d="M732.269 46.7308C733.092 47.5152 735.088 46.781 736.727 45.0909C738.365 43.4008 739.025 41.3948 738.202 40.6104C737.378 39.826 735.382 40.5602 733.744 42.2502C732.106 43.9403 731.445 45.9463 732.269 46.7308Z" fill="#D66A1C"/>
<path d="M735.916 58.2365C735.792 59.3518 737.611 60.4919 739.979 60.783C742.347 61.0741 744.368 60.406 744.492 59.2907C744.615 58.1755 742.796 57.0354 740.428 56.7442C738.06 56.4531 736.039 57.1212 735.916 58.2365Z" fill="#D66A1C"/>
<path d="M733.068 66.1815C734.681 67.9413 736.665 68.7609 737.5 68.012C738.335 67.2631 737.705 65.2295 736.092 63.4696C734.479 61.7098 732.495 60.8903 731.66 61.6391C730.825 62.388 731.455 64.4217 733.068 66.1815Z" fill="#D66A1C"/>
</g>
</g>
<defs>
<clipPath id="clip0_377_2052">
<rect width="26.4853" height="26.3809" fill="white" transform="matrix(-0.371132 0.92858 -0.927168 -0.374644 24.874 10.3506)"/>
</clipPath>
<clipPath id="clip1_377_2052">
<rect width="26.4853" height="26.3809" fill="white" transform="matrix(-0.371132 0.92858 -0.927168 -0.374644 96.4956 49.7092)"/>
</clipPath>
<clipPath id="clip2_377_2052">
<rect width="26.4853" height="26.3809" fill="white" transform="matrix(-0.371132 0.92858 -0.927168 -0.374644 291.811 10.3506)"/>
</clipPath>
<clipPath id="clip3_377_2052">
<rect width="26.4853" height="26.3809" fill="white" transform="matrix(-0.371132 0.92858 -0.927168 -0.374644 148.567 11.6075)"/>
</clipPath>
<clipPath id="clip4_377_2052">
<rect width="26.4853" height="26.3809" fill="white" transform="matrix(-0.371132 0.92858 -0.927168 -0.374644 213.226 45.3429)"/>
</clipPath>
<clipPath id="clip5_377_2052">
<rect width="26.4853" height="26.3809" fill="white" transform="matrix(-0.371132 0.92858 -0.927168 -0.374644 363.432 49.7092)"/>
</clipPath>
<clipPath id="clip6_377_2052">
<rect width="26.4853" height="26.3809" fill="white" transform="matrix(-0.371132 0.92858 -0.927168 -0.374644 557.237 10.3506)"/>
</clipPath>
<clipPath id="clip7_377_2052">
<rect width="26.4853" height="26.3809" fill="white" transform="matrix(-0.371132 0.92858 -0.927168 -0.374644 413.994 11.6075)"/>
</clipPath>
<clipPath id="clip8_377_2052">
<rect width="26.4853" height="26.3809" fill="white" transform="matrix(-0.371132 0.92858 -0.927168 -0.374644 478.652 45.3429)"/>
</clipPath>
<clipPath id="clip9_377_2052">
<rect width="26.4853" height="26.3809" fill="white" transform="matrix(-0.371132 0.92858 -0.927168 -0.374644 628.858 49.7092)"/>
</clipPath>
<clipPath id="clip10_377_2052">
<rect width="26.4853" height="26.3809" fill="white" transform="matrix(-0.371132 0.92858 -0.927168 -0.374644 685.446 11.6075)"/>
</clipPath>
<clipPath id="clip11_377_2052">
<rect width="26.4853" height="26.3809" fill="white" transform="matrix(-0.371132 0.92858 -0.927168 -0.374644 750.104 45.3429)"/>
</clipPath>
</defs>
</svg>
