<svg width="701" height="2189" viewBox="0 0 701 2189" fill="none" xmlns="http://www.w3.org/2000/svg">
<g opacity="0.3">
<g clip-path="url(#clip0_352_7332)">
<path d="M-6.58407 223.255C-6.96736 225.017 -4.27799 227.161 -0.577195 228.044C3.1236 228.927 6.43441 228.215 6.81771 226.453C7.201 224.692 4.51163 222.547 0.810831 221.664C-2.88997 220.781 -6.20078 221.493 -6.58407 223.255Z" fill="#F08200"/>
<path d="M-7.86353 213.71C-7.31763 215.447 -3.94889 215.981 -0.339237 214.903C3.27041 213.825 5.75407 211.543 5.20817 209.806C4.66227 208.069 1.29353 207.535 -2.31612 208.613C-5.92577 209.691 -8.40943 211.973 -7.86353 213.71Z" fill="#F08200"/>
<path d="M-11.6833 232.603C-12.7229 234.061 -11.0568 237.072 -7.96206 239.327C-4.86729 241.581 -1.51572 242.227 -0.476117 240.768C0.563486 239.309 -1.10255 236.299 -4.19732 234.044C-7.29209 231.789 -10.6437 231.144 -11.6833 232.603Z" fill="#F08200"/>
</g>
<g clip-path="url(#clip1_352_7332)">
<path d="M118.262 259.637C120.19 260.354 122.566 259.318 123.339 257.412C124.634 254.245 121.758 250.077 123.773 247.343C125.011 245.664 127.583 245.551 129.375 246.656C131.168 247.762 132.236 249.695 132.932 251.681C134.014 254.826 134.332 258.208 134.586 261.539C134.83 264.51 134.938 267.95 132.789 269.976C131.033 271.654 128.333 271.747 125.928 271.539C122.685 271.238 119.449 270.446 116.382 269.25C114.727 268.608 113.075 267.801 111.9 266.487C110.71 265.139 110.127 263.139 110.847 261.542C111.484 260.106 113.048 259.289 114.601 259.208C116.186 259.112 117.765 259.425 118.262 259.637Z" fill="#F08200"/>
<path d="M138.229 267.511C137.436 269.13 139.536 271.854 142.919 273.595C146.302 275.336 149.687 275.435 150.48 273.815C151.272 272.196 149.173 269.472 145.789 267.731C142.406 265.99 139.021 265.892 138.229 267.511Z" fill="#F08200"/>
<path d="M139.264 257.936C139.38 259.753 142.524 261.076 146.286 260.891C150.049 260.705 153.005 259.082 152.89 257.265C152.774 255.448 149.63 254.125 145.868 254.311C142.105 254.496 139.149 256.119 139.264 257.936Z" fill="#F08200"/>
<path d="M131.046 275.371C129.689 276.54 130.588 279.861 133.055 282.789C135.522 285.717 138.623 287.144 139.981 285.976C141.338 284.807 140.439 281.486 137.972 278.558C135.505 275.63 132.404 274.203 131.046 275.371Z" fill="#F08200"/>
<path d="M119.064 281.547C119.047 285.367 120.488 288.493 122.284 288.53C124.079 288.567 125.549 285.501 125.566 281.682C125.583 277.862 124.141 274.736 122.346 274.698C120.55 274.661 119.081 277.727 119.064 281.547Z" fill="#F08200"/>
</g>
<g clip-path="url(#clip2_352_7332)">
<path d="M84.6002 357.359C86.5281 358.076 88.9038 357.04 89.6772 355.133C90.9715 351.967 88.0961 347.799 90.1107 345.065C91.3492 343.386 93.9205 343.273 95.713 344.378C97.5055 345.483 98.5739 347.417 99.2698 349.403C100.351 352.548 100.67 355.93 100.924 359.261C101.168 362.231 101.276 365.672 99.1268 367.698C97.3712 369.376 94.6709 369.469 92.2664 369.26C89.0229 368.959 85.7872 368.167 82.7195 366.972C81.0651 366.329 79.4133 365.523 78.2382 364.208C77.0474 362.86 76.4649 360.861 77.1849 359.264C77.8217 357.828 79.3859 357.011 80.9386 356.93C82.5238 356.834 84.1026 357.147 84.6002 357.359Z" fill="#F08200"/>
<path d="M104.567 365.233C103.774 366.852 105.874 369.576 109.257 371.317C112.64 373.058 116.025 373.156 116.818 371.537C117.61 369.918 115.51 367.194 112.127 365.453C108.744 363.712 105.359 363.613 104.567 365.233Z" fill="#F08200"/>
<path d="M105.602 355.658C105.718 357.475 108.862 358.798 112.624 358.612C116.387 358.427 119.343 356.804 119.228 354.987C119.112 353.17 115.968 351.847 112.206 352.032C108.443 352.218 105.487 353.841 105.602 355.658Z" fill="#F08200"/>
<path d="M97.3841 373.093C96.0264 374.262 96.9258 377.583 99.393 380.511C101.86 383.439 104.961 384.866 106.319 383.697C107.676 382.529 106.777 379.208 104.31 376.28C101.842 373.351 98.7418 371.925 97.3841 373.093Z" fill="#F08200"/>
<path d="M85.4018 379.269C85.3847 383.088 86.8263 386.215 88.6217 386.252C90.4172 386.289 91.8865 383.223 91.9036 379.403C91.9207 375.584 90.4791 372.457 88.6837 372.42C86.8882 372.383 85.4189 375.449 85.4018 379.269Z" fill="#F08200"/>
</g>
<g clip-path="url(#clip3_352_7332)">
<path d="M213.142 433.619C214.935 434.627 217.443 433.973 218.503 432.211C220.275 429.284 218.083 424.719 220.499 422.332C221.984 420.867 224.541 421.155 226.14 422.526C227.739 423.897 228.493 425.973 228.871 428.044C229.45 431.319 229.238 434.709 228.971 438.039C228.749 441.011 228.32 444.427 225.882 446.093C223.886 447.478 221.205 447.149 218.862 446.569C215.705 445.766 212.632 444.48 209.787 442.822C208.253 441.929 206.747 440.876 205.791 439.394C204.825 437.877 204.56 435.812 205.52 434.346C206.373 433.027 208.045 432.463 209.592 432.625C211.172 432.777 212.683 433.332 213.142 433.619Z" fill="#F08200"/>
<path d="M231.639 444.505C230.604 445.981 232.254 448.998 235.325 451.245C238.395 453.491 241.724 454.116 242.759 452.639C243.794 451.163 242.144 448.146 239.073 445.899C236.002 443.653 232.674 443.028 231.639 444.505Z" fill="#F08200"/>
<path d="M234.153 435.208C233.984 437.021 236.883 438.817 240.629 439.22C244.375 439.623 247.548 438.479 247.716 436.667C247.885 434.854 244.986 433.058 241.24 432.655C237.494 432.252 234.321 433.395 234.153 435.208Z" fill="#F08200"/>
<path d="M223.32 451.151C221.797 452.094 222.168 455.515 224.15 458.791C226.131 462.068 228.972 463.96 230.495 463.017C232.018 462.074 231.646 458.654 229.665 455.377C227.684 452.101 224.843 450.209 223.32 451.151Z" fill="#F08200"/>
<path d="M210.522 455.386C209.911 459.157 210.848 462.469 212.616 462.786C214.384 463.102 216.313 460.302 216.924 456.531C217.536 452.761 216.598 449.448 214.83 449.132C213.063 448.816 211.134 451.616 210.522 455.386Z" fill="#F08200"/>
</g>
<g clip-path="url(#clip4_352_7332)">
<path d="M255.183 319.193C256.976 320.202 259.484 319.548 260.545 317.785C262.316 314.859 260.125 310.293 262.541 307.907C264.025 306.441 266.583 306.729 268.181 308.1C269.78 309.471 270.534 311.547 270.913 313.618C271.491 316.893 271.279 320.283 271.012 323.613C270.791 326.585 270.361 330.001 267.923 331.667C265.928 333.052 263.246 332.723 260.903 332.143C257.746 331.341 254.673 330.055 251.829 328.396C250.295 327.504 248.789 326.45 247.833 324.969C246.866 323.452 246.602 321.386 247.562 319.92C248.414 318.601 250.087 318.037 251.633 318.199C253.214 318.351 254.725 318.906 255.183 319.193Z" fill="#F08200"/>
<path d="M273.68 330.079C272.645 331.555 274.295 334.573 277.366 336.819C280.437 339.065 283.765 339.69 284.801 338.214C285.836 336.737 284.185 333.72 281.115 331.473C278.044 329.227 274.715 328.603 273.68 330.079Z" fill="#F08200"/>
<path d="M276.194 320.782C276.025 322.595 278.925 324.391 282.67 324.794C286.416 325.197 289.589 324.054 289.758 322.241C289.927 320.428 287.027 318.632 283.282 318.229C279.536 317.826 276.363 318.969 276.194 320.782Z" fill="#F08200"/>
<path d="M265.362 336.726C263.839 337.668 264.21 341.089 266.191 344.365C268.172 347.642 271.013 349.534 272.536 348.591C274.059 347.649 273.688 344.228 271.707 340.951C269.725 337.675 266.885 335.783 265.362 336.726Z" fill="#F08200"/>
<path d="M252.564 340.96C251.952 344.731 252.89 348.044 254.657 348.36C256.425 348.676 258.354 345.876 258.966 342.106C259.577 338.335 258.64 335.022 256.872 334.706C255.104 334.39 253.175 337.19 252.564 340.96Z" fill="#F08200"/>
</g>
<g clip-path="url(#clip5_352_7332)">
<path d="M340.803 422.785C342.596 423.793 345.104 423.139 346.165 421.376C347.936 418.45 345.745 413.885 348.16 411.498C349.645 410.032 352.203 410.321 353.801 411.692C355.4 413.063 356.154 415.139 356.532 417.209C357.111 420.484 356.899 423.875 356.632 427.204C356.411 430.177 355.981 433.592 353.543 435.259C351.547 436.643 348.866 436.315 346.523 435.734C343.366 434.932 340.293 433.646 337.449 431.987C335.914 431.095 334.408 430.041 333.452 428.56C332.486 427.043 332.222 424.977 333.182 423.512C334.034 422.192 335.706 421.629 337.253 421.791C338.834 421.942 340.344 422.497 340.803 422.785Z" fill="#F08200"/>
<path d="M359.3 433.67C358.265 435.146 359.915 438.164 362.986 440.41C366.057 442.657 369.385 443.281 370.42 441.805C371.455 440.329 369.805 437.311 366.734 435.065C363.664 432.818 360.335 432.194 359.3 433.67Z" fill="#F08200"/>
<path d="M361.814 424.374C361.645 426.187 364.545 427.983 368.29 428.385C372.036 428.788 375.209 427.645 375.378 425.832C375.546 424.019 372.647 422.223 368.901 421.82C365.156 421.418 361.982 422.561 361.814 424.374Z" fill="#F08200"/>
<path d="M350.981 440.317C349.458 441.26 349.83 444.68 351.811 447.957C353.792 451.233 356.633 453.125 358.156 452.183C359.679 451.24 359.307 447.819 357.326 444.543C355.345 441.266 352.504 439.374 350.981 440.317Z" fill="#F08200"/>
<path d="M338.184 444.552C337.572 448.322 338.509 451.635 340.277 451.951C342.045 452.267 343.974 449.467 344.585 445.697C345.197 441.927 344.259 438.614 342.492 438.298C340.724 437.981 338.795 440.781 338.184 444.552Z" fill="#F08200"/>
</g>
<g clip-path="url(#clip6_352_7332)">
<path d="M297.094 532.204C298.887 533.213 301.395 532.559 302.456 530.796C304.227 527.87 302.036 523.304 304.451 520.918C305.936 519.452 308.494 519.74 310.092 521.111C311.691 522.482 312.445 524.558 312.823 526.629C313.402 529.904 313.19 533.294 312.923 536.624C312.702 539.596 312.272 543.012 309.834 544.678C307.838 546.063 305.157 545.734 302.814 545.154C299.657 544.352 296.584 543.066 293.74 541.407C292.205 540.515 290.699 539.461 289.743 537.98C288.777 536.463 288.513 534.397 289.473 532.931C290.325 531.612 291.997 531.048 293.544 531.21C295.125 531.362 296.635 531.917 297.094 532.204Z" fill="#F08200"/>
<path d="M315.591 543.09C314.556 544.566 316.206 547.584 319.277 549.83C322.348 552.076 325.676 552.701 326.711 551.225C327.746 549.748 326.096 546.731 323.025 544.484C319.955 542.238 316.626 541.614 315.591 543.09Z" fill="#F08200"/>
<path d="M318.105 533.793C317.936 535.606 320.836 537.402 324.581 537.805C328.327 538.208 331.5 537.065 331.669 535.252C331.837 533.439 328.938 531.643 325.192 531.24C321.447 530.837 318.273 531.98 318.105 533.793Z" fill="#F08200"/>
<path d="M307.272 549.737C305.749 550.679 306.121 554.1 308.102 557.376C310.083 560.653 312.924 562.545 314.447 561.602C315.97 560.66 315.598 557.239 313.617 553.962C311.636 550.686 308.795 548.794 307.272 549.737Z" fill="#F08200"/>
<path d="M294.475 553.971C293.863 557.742 294.8 561.055 296.568 561.371C298.336 561.687 300.265 558.887 300.876 555.117C301.488 551.346 300.55 548.033 298.783 547.717C297.015 547.401 295.086 550.201 294.475 553.971Z" fill="#F08200"/>
</g>
<g clip-path="url(#clip7_352_7332)">
<path d="M453.649 515.499C455.301 516.724 457.872 516.389 459.145 514.773C461.268 512.092 459.666 507.288 462.361 505.222C464.018 503.954 466.519 504.56 467.933 506.121C469.348 507.681 469.836 509.835 469.952 511.937C470.117 515.258 469.482 518.595 468.8 521.866C468.209 524.787 467.355 528.122 464.727 529.47C462.574 530.594 459.955 529.932 457.703 529.063C454.671 527.872 451.783 526.211 449.169 524.21C447.759 523.132 446.396 521.899 445.633 520.309C444.864 518.683 444.861 516.601 445.996 515.267C447.007 514.064 448.737 513.715 450.251 514.069C451.801 514.417 453.23 515.157 453.649 515.499Z" fill="#F08200"/>
<path d="M470.638 528.615C469.426 529.95 470.686 533.15 473.451 535.763C476.217 538.376 479.441 539.412 480.653 538.077C481.864 536.742 480.605 533.542 477.839 530.929C475.074 528.316 471.85 527.28 470.638 528.615Z" fill="#F08200"/>
<path d="M474.296 519.706C473.902 521.483 476.554 523.628 480.219 524.497C483.885 525.365 487.176 524.628 487.571 522.851C487.965 521.073 485.313 518.928 481.647 518.06C477.982 517.191 474.69 517.928 474.296 519.706Z" fill="#F08200"/>
<path d="M461.553 534.168C459.924 534.912 459.864 538.353 461.42 541.851C462.975 545.35 465.557 547.583 467.186 546.838C468.815 546.093 468.875 542.653 467.319 539.154C465.764 535.656 463.182 533.423 461.553 534.168Z" fill="#F08200"/>
<path d="M448.326 536.767C447.247 540.432 447.763 543.836 449.477 544.371C451.191 544.906 453.455 542.369 454.534 538.705C455.612 535.041 455.097 531.637 453.383 531.102C451.669 530.567 449.405 533.103 448.326 536.767Z" fill="#F08200"/>
</g>
<g clip-path="url(#clip8_352_7332)">
<path d="M577.749 593.718C579.402 594.943 581.972 594.608 583.245 592.992C585.369 590.31 583.766 585.507 586.461 583.441C588.118 582.173 590.619 582.779 592.033 584.339C593.448 585.9 593.937 588.054 594.053 590.155C594.217 593.477 593.582 596.814 592.9 600.084C592.309 603.006 591.455 606.34 588.827 607.689C586.674 608.813 584.055 608.151 581.803 607.282C578.771 606.091 575.883 604.43 573.269 602.428C571.859 601.351 570.496 600.117 569.733 598.528C568.964 596.902 568.961 594.819 570.097 593.486C571.108 592.283 572.837 591.933 574.351 592.287C575.901 592.636 577.33 593.375 577.749 593.718Z" fill="#F08200"/>
<path d="M594.738 606.833C593.526 608.168 594.786 611.369 597.551 613.982C600.317 616.595 603.541 617.631 604.753 616.296C605.964 614.961 604.705 611.761 601.939 609.148C599.174 606.534 595.95 605.498 594.738 606.833Z" fill="#F08200"/>
<path d="M598.396 597.925C598.002 599.702 600.654 601.847 604.319 602.715C607.985 603.584 611.276 602.847 611.671 601.069C612.065 599.292 609.413 597.147 605.747 596.278C602.082 595.41 598.79 596.147 598.396 597.925Z" fill="#F08200"/>
<path d="M585.653 612.387C584.024 613.131 583.964 616.571 585.52 620.07C587.075 623.569 589.657 625.802 591.286 625.057C592.915 624.312 592.975 620.872 591.419 617.373C589.864 613.874 587.282 611.642 585.653 612.387Z" fill="#F08200"/>
<path d="M572.426 614.986C571.347 618.65 571.863 622.054 573.577 622.589C575.291 623.124 577.555 620.588 578.634 616.924C579.713 613.26 579.197 609.855 577.483 609.321C575.769 608.786 573.505 611.322 572.426 614.986Z" fill="#F08200"/>
</g>
<g clip-path="url(#clip9_352_7332)">
<path d="M644.002 688.095C644.933 689.929 647.382 690.778 649.243 689.901C652.341 688.45 653.054 683.437 656.388 682.793C658.436 682.399 660.404 684.059 660.972 686.086C661.54 688.114 661.015 690.26 660.179 692.192C658.843 695.237 656.784 697.939 654.713 700.56C652.878 702.909 650.624 705.511 647.671 705.543C645.243 705.587 643.195 703.824 641.569 702.041C639.389 699.621 637.547 696.845 636.103 693.886C635.322 692.292 634.654 690.579 634.682 688.816C634.72 687.018 635.648 685.154 637.26 684.468C638.701 683.844 640.405 684.304 641.601 685.297C642.832 686.301 643.78 687.601 644.002 688.095Z" fill="#F08200"/>
<path d="M653.342 707.419C651.661 708.072 651.358 711.498 652.665 715.071C653.971 718.645 656.393 721.012 658.073 720.359C659.754 719.706 660.057 716.28 658.75 712.707C657.444 709.133 655.022 706.766 653.342 707.419Z" fill="#F08200"/>
<path d="M660.594 701.083C659.447 702.497 660.862 705.601 663.753 708.015C666.645 710.43 669.918 711.241 671.065 709.827C672.212 708.413 670.798 705.309 667.907 702.895C665.015 700.48 661.741 699.669 660.594 701.083Z" fill="#F08200"/>
<path d="M642.732 708.328C640.942 708.266 639.352 711.317 639.18 715.142C639.008 718.968 640.321 722.118 642.111 722.18C643.901 722.242 645.491 719.191 645.663 715.365C645.834 711.54 644.522 708.389 642.732 708.328Z" fill="#F08200"/>
<path d="M629.737 704.744C627.135 707.54 626.076 710.816 627.37 712.06C628.665 713.305 631.824 712.047 634.426 709.251C637.028 706.455 638.088 703.179 636.793 701.934C635.498 700.69 632.34 701.948 629.737 704.744Z" fill="#F08200"/>
</g>
<g clip-path="url(#clip10_352_7332)">
<path d="M660.062 838.461C660.433 840.484 662.54 841.995 664.573 841.683C667.956 841.174 670.065 836.57 673.444 836.901C675.521 837.105 676.934 839.256 676.902 841.362C676.87 843.467 675.757 845.375 674.407 846.99C672.259 849.529 669.517 851.534 666.786 853.458C664.359 855.188 661.458 857.042 658.618 856.233C656.277 855.584 654.815 853.312 653.763 851.139C652.362 848.199 651.385 845.014 650.842 841.767C650.547 840.017 650.394 838.185 650.922 836.503C651.47 834.79 652.889 833.266 654.63 833.067C656.189 832.878 657.692 833.804 658.556 835.096C659.45 836.409 659.99 837.925 660.062 838.461Z" fill="#F08200"/>
<path d="M663.52 859.643C661.723 859.792 660.458 862.99 660.695 866.787C660.931 870.585 662.58 873.543 664.376 873.395C666.173 873.247 667.438 870.048 667.202 866.251C666.965 862.454 665.317 859.495 663.52 859.643Z" fill="#F08200"/>
<path d="M672.275 855.631C670.774 856.661 671.247 860.039 673.332 863.176C675.418 866.313 678.326 868.022 679.827 866.993C681.329 865.963 680.856 862.585 678.77 859.448C676.685 856.311 673.777 854.602 672.275 855.631Z" fill="#F08200"/>
<path d="M653.091 857.498C651.392 856.929 649 859.402 647.747 863.021C646.495 866.639 646.857 870.033 648.556 870.601C650.254 871.169 652.647 868.697 653.899 865.078C655.151 861.46 654.79 858.066 653.091 857.498Z" fill="#F08200"/>
<path d="M641.652 850.366C638.362 852.307 636.414 855.146 637.301 856.707C638.189 858.269 641.575 857.961 644.865 856.02C648.154 854.08 650.102 851.241 649.215 849.679C648.328 848.118 644.941 848.426 641.652 850.366Z" fill="#F08200"/>
</g>
<g clip-path="url(#clip11_352_7332)">
<path d="M577.345 965.547C577.064 967.585 578.591 969.679 580.62 970.019C583.992 970.595 587.436 966.883 590.543 968.255C592.45 969.1 593.12 971.585 592.43 973.575C591.74 975.565 590.085 977.027 588.297 978.138C585.463 979.877 582.23 980.923 579.034 981.895C576.188 982.778 572.853 983.63 570.408 981.973C568.389 980.624 567.712 978.008 567.393 975.615C566.982 972.384 567.052 969.054 567.553 965.799C567.821 964.045 568.249 962.257 569.277 960.825C570.334 959.37 572.159 958.367 573.875 958.723C575.415 959.032 576.552 960.382 576.968 961.88C577.407 963.406 577.444 965.015 577.345 965.547Z" fill="#F08200"/>
<path d="M573.997 986.747C572.244 986.325 570.041 988.966 569.076 992.647C568.112 996.327 568.751 999.653 570.504 1000.07C572.257 1000.5 574.46 997.856 575.424 994.175C576.389 990.495 575.75 987.169 573.997 986.747Z" fill="#F08200"/>
<path d="M583.567 985.678C581.819 986.186 581.21 989.542 582.209 993.174C583.207 996.807 585.433 999.34 587.182 998.833C588.931 998.325 589.539 994.969 588.541 991.337C587.543 987.704 585.316 985.171 583.567 985.678Z" fill="#F08200"/>
<path d="M564.763 981.443C563.328 980.372 560.282 981.971 557.959 985.015C555.637 988.06 554.918 991.396 556.353 992.468C557.789 993.539 560.835 991.94 563.157 988.896C565.48 985.851 566.199 982.515 564.763 981.443Z" fill="#F08200"/>
<path d="M556.132 971.089C552.4 971.902 549.662 973.988 550.015 975.749C550.369 977.509 553.681 978.277 557.413 977.464C561.145 976.651 563.884 974.565 563.53 972.805C563.177 971.044 559.864 970.276 556.132 971.089Z" fill="#F08200"/>
</g>
<g clip-path="url(#clip12_352_7332)">
<path d="M462.451 897.623C462.17 899.661 463.697 901.755 465.726 902.095C469.098 902.671 472.542 898.959 475.649 900.331C477.556 901.176 478.225 903.661 477.536 905.651C476.846 907.641 475.191 909.103 473.403 910.214C470.569 911.953 467.336 912.998 464.14 913.97C461.294 914.854 457.959 915.706 455.514 914.049C453.495 912.699 452.818 910.084 452.499 907.691C452.088 904.46 452.158 901.13 452.659 897.875C452.927 896.121 453.355 894.333 454.383 892.901C455.44 891.446 457.265 890.443 458.981 890.799C460.521 891.108 461.658 892.458 462.074 893.956C462.512 895.482 462.55 897.091 462.451 897.623Z" fill="#F08200"/>
<path d="M459.103 918.823C457.35 918.401 455.147 921.042 454.182 924.723C453.218 928.403 453.857 931.729 455.61 932.151C457.363 932.573 459.566 929.931 460.53 926.251C461.495 922.571 460.855 919.245 459.103 918.823Z" fill="#F08200"/>
<path d="M468.673 917.754C466.925 918.262 466.316 921.618 467.315 925.25C468.313 928.883 470.539 931.416 472.288 930.909C474.037 930.401 474.645 927.045 473.647 923.412C472.649 919.78 470.422 917.247 468.673 917.754Z" fill="#F08200"/>
<path d="M449.869 913.519C448.434 912.448 445.388 914.047 443.065 917.091C440.743 920.136 440.024 923.472 441.459 924.544C442.894 925.615 445.941 924.016 448.263 920.972C450.586 917.927 451.305 914.591 449.869 913.519Z" fill="#F08200"/>
<path d="M441.238 903.165C437.506 903.978 434.768 906.064 435.121 907.825C435.475 909.585 438.787 910.353 442.519 909.54C446.251 908.727 448.99 906.641 448.636 904.88C448.283 903.12 444.97 902.352 441.238 903.165Z" fill="#F08200"/>
</g>
<g clip-path="url(#clip13_352_7332)">
<path d="M342.351 953.946C341.557 955.843 342.496 958.259 344.37 959.108C347.481 960.529 351.762 957.824 354.413 959.948C356.04 961.253 356.05 963.827 354.873 965.573C353.696 967.32 351.721 968.309 349.708 968.924C346.522 969.878 343.13 970.06 339.792 970.18C336.814 970.304 333.372 970.272 331.434 968.043C329.828 966.221 329.844 963.52 330.15 961.125C330.581 957.897 331.503 954.696 332.822 951.679C333.531 950.051 334.403 948.434 335.764 947.312C337.159 946.177 339.18 945.676 340.747 946.46C342.156 947.154 342.909 948.75 342.927 950.304C342.959 951.892 342.583 953.457 342.351 953.946Z" fill="#F08200"/>
<path d="M333.678 973.578C332.092 972.721 329.286 974.709 327.41 978.019C325.534 981.329 325.299 984.707 326.885 985.565C328.471 986.422 331.277 984.434 333.153 981.124C335.029 977.814 335.264 974.435 333.678 973.578Z" fill="#F08200"/>
<path d="M343.203 974.999C341.383 975.041 339.934 978.129 339.968 981.896C340.001 985.663 341.504 988.683 343.324 988.641C345.144 988.599 346.593 985.511 346.559 981.744C346.526 977.977 345.023 974.957 343.203 974.999Z" fill="#F08200"/>
<path d="M326.114 966.084C325.001 964.68 321.647 965.445 318.621 967.792C315.596 970.139 314.045 973.18 315.158 974.583C316.27 975.987 319.625 975.222 322.65 972.875C325.676 970.528 327.226 967.488 326.114 966.084Z" fill="#F08200"/>
<path d="M320.427 953.863C316.611 953.691 313.429 955.006 313.319 956.798C313.21 958.591 316.214 960.182 320.03 960.354C323.846 960.525 327.028 959.21 327.137 957.418C327.247 955.626 324.242 954.034 320.427 953.863Z" fill="#F08200"/>
</g>
<g clip-path="url(#clip14_352_7332)">
<path d="M467.652 1023.69C466.857 1025.59 467.797 1028 469.671 1028.85C472.782 1030.27 477.063 1027.57 479.714 1029.69C481.341 1031 481.351 1033.57 480.174 1035.32C478.997 1037.06 477.022 1038.05 475.009 1038.67C471.823 1039.62 468.431 1039.8 465.093 1039.92C462.115 1040.05 458.673 1040.01 456.735 1037.79C455.129 1035.96 455.145 1033.26 455.451 1030.87C455.882 1027.64 456.804 1024.44 458.122 1021.42C458.831 1019.79 459.704 1018.18 461.065 1017.06C462.459 1015.92 464.481 1015.42 466.047 1016.2C467.457 1016.9 468.21 1018.49 468.228 1020.05C468.26 1021.63 467.884 1023.2 467.652 1023.69Z" fill="#F08200"/>
<path d="M458.979 1043.32C457.393 1042.46 454.586 1044.45 452.71 1047.76C450.834 1051.07 450.599 1054.45 452.185 1055.31C453.771 1056.16 456.578 1054.18 458.454 1050.87C460.33 1047.56 460.565 1044.18 458.979 1043.32Z" fill="#F08200"/>
<path d="M468.504 1044.74C466.684 1044.78 465.235 1047.87 465.268 1051.64C465.302 1055.41 466.804 1058.43 468.625 1058.38C470.445 1058.34 471.893 1055.25 471.86 1051.49C471.827 1047.72 470.324 1044.7 468.504 1044.74Z" fill="#F08200"/>
<path d="M451.415 1035.83C450.302 1034.42 446.947 1035.19 443.922 1037.53C440.896 1039.88 439.346 1042.92 440.458 1044.33C441.571 1045.73 444.926 1044.97 447.951 1042.62C450.977 1040.27 452.527 1037.23 451.415 1035.83Z" fill="#F08200"/>
<path d="M445.727 1023.61C441.912 1023.43 438.73 1024.75 438.62 1026.54C438.511 1028.33 441.515 1029.93 445.331 1030.1C449.146 1030.27 452.329 1028.95 452.438 1027.16C452.548 1025.37 449.543 1023.78 445.727 1023.61Z" fill="#F08200"/>
</g>
<g clip-path="url(#clip15_352_7332)">
<path d="M350.459 1087.42C349.389 1089.18 349.955 1091.71 351.68 1092.83C354.544 1094.7 359.182 1092.67 361.484 1095.17C362.897 1096.7 362.52 1099.25 361.095 1100.8C359.669 1102.35 357.568 1103.03 355.486 1103.34C352.193 1103.8 348.812 1103.47 345.493 1103.09C342.53 1102.76 339.132 1102.22 337.551 1099.72C336.236 1097.68 336.657 1095.01 337.319 1092.69C338.23 1089.56 339.621 1086.54 341.377 1083.75C342.322 1082.25 343.427 1080.78 344.941 1079.88C346.491 1078.96 348.564 1078.77 349.996 1079.78C351.285 1080.68 351.79 1082.37 351.575 1083.91C351.368 1085.48 350.762 1086.97 350.459 1087.42Z" fill="#F08200"/>
<path d="M338.939 1105.53C337.499 1104.45 334.426 1105.99 332.075 1108.98C329.724 1111.97 328.984 1115.28 330.424 1116.36C331.863 1117.45 334.936 1115.9 337.288 1112.91C339.639 1109.92 340.378 1106.62 338.939 1105.53Z" fill="#F08200"/>
<path d="M348.143 1108.37C346.337 1108.13 344.442 1110.97 343.909 1114.7C343.377 1118.43 344.41 1121.64 346.216 1121.87C348.022 1122.1 349.917 1119.27 350.449 1115.54C350.982 1111.81 349.949 1108.6 348.143 1108.37Z" fill="#F08200"/>
<path d="M332.584 1096.99C331.695 1095.43 328.264 1095.69 324.92 1097.55C321.577 1099.42 319.588 1102.19 320.477 1103.75C321.367 1105.3 324.798 1105.05 328.141 1103.18C331.485 1101.32 333.474 1098.54 332.584 1096.99Z" fill="#F08200"/>
<path d="M328.795 1084.05C325.048 1083.31 321.705 1084.13 321.328 1085.89C320.951 1087.64 323.682 1089.67 327.429 1090.41C331.176 1091.15 334.519 1090.33 334.896 1088.57C335.274 1086.82 332.542 1084.79 328.795 1084.05Z" fill="#F08200"/>
</g>
<g clip-path="url(#clip16_352_7332)">
<path d="M222.821 1005.3C221.751 1007.06 222.318 1009.59 224.043 1010.71C226.906 1012.58 231.544 1010.55 233.846 1013.05C235.259 1014.58 234.883 1017.13 233.457 1018.68C232.032 1020.23 229.931 1020.91 227.848 1021.22C224.555 1021.68 221.174 1021.35 217.856 1020.97C214.893 1020.65 211.494 1020.1 209.913 1017.61C208.598 1015.56 209.02 1012.89 209.681 1010.57C210.592 1007.45 211.984 1004.42 213.74 1001.63C214.685 1000.13 215.79 998.663 217.304 997.758C218.853 996.845 220.926 996.653 222.358 997.663C223.647 998.56 224.152 1000.25 223.937 1001.79C223.731 1003.37 223.124 1004.86 222.821 1005.3Z" fill="#F08200"/>
<path d="M211.301 1023.41C209.862 1022.33 206.789 1023.87 204.437 1026.86C202.086 1029.86 201.347 1033.16 202.786 1034.25C204.226 1035.33 207.299 1033.79 209.65 1030.8C212.001 1027.8 212.741 1024.5 211.301 1023.41Z" fill="#F08200"/>
<path d="M220.505 1026.25C218.699 1026.02 216.804 1028.85 216.272 1032.58C215.74 1036.31 216.772 1039.52 218.578 1039.75C220.384 1039.98 222.28 1037.15 222.812 1033.42C223.344 1029.69 222.311 1026.48 220.505 1026.25Z" fill="#F08200"/>
<path d="M204.947 1014.87C204.057 1013.32 200.626 1013.57 197.283 1015.43C193.939 1017.3 191.95 1020.07 192.84 1021.63C193.729 1023.18 197.16 1022.93 200.504 1021.06C203.847 1019.2 205.836 1016.42 204.947 1014.87Z" fill="#F08200"/>
<path d="M201.157 1001.93C197.411 1001.19 194.067 1002.01 193.69 1003.77C193.313 1005.53 196.044 1007.55 199.791 1008.29C203.538 1009.03 206.881 1008.21 207.259 1006.46C207.636 1004.7 204.904 1002.68 201.157 1001.93Z" fill="#F08200"/>
</g>
<g clip-path="url(#clip17_352_7332)">
<path d="M198.85 1147.43C197.78 1149.19 198.347 1151.72 200.072 1152.84C202.935 1154.71 207.574 1152.68 209.875 1155.18C211.288 1156.71 210.912 1159.26 209.486 1160.81C208.061 1162.36 205.96 1163.04 203.877 1163.35C200.585 1163.81 197.204 1163.48 193.885 1163.1C190.922 1162.78 187.524 1162.23 185.942 1159.73C184.628 1157.69 185.049 1155.02 185.71 1152.7C186.621 1149.58 188.013 1146.55 189.769 1143.76C190.714 1142.26 191.819 1140.79 193.333 1139.89C194.882 1138.97 196.956 1138.78 198.387 1139.79C199.676 1140.69 200.182 1142.38 199.966 1143.92C199.76 1145.5 199.153 1146.99 198.85 1147.43Z" fill="#F08200"/>
<path d="M187.33 1165.54C185.891 1164.46 182.818 1166 180.467 1168.99C178.115 1171.99 177.376 1175.29 178.815 1176.38C180.255 1177.46 183.328 1175.92 185.679 1172.93C188.031 1169.93 188.77 1166.63 187.33 1165.54Z" fill="#F08200"/>
<path d="M196.535 1168.38C194.729 1168.15 192.833 1170.98 192.301 1174.71C191.769 1178.44 192.801 1181.65 194.607 1181.88C196.413 1182.11 198.309 1179.28 198.841 1175.55C199.373 1171.82 198.341 1168.61 196.535 1168.38Z" fill="#F08200"/>
<path d="M180.976 1157C180.087 1155.44 176.655 1155.7 173.312 1157.56C169.969 1159.43 167.979 1162.2 168.869 1163.76C169.758 1165.31 173.19 1165.06 176.533 1163.19C179.876 1161.33 181.866 1158.55 180.976 1157Z" fill="#F08200"/>
<path d="M177.187 1144.06C173.44 1143.32 170.097 1144.14 169.719 1145.9C169.342 1147.66 172.074 1149.68 175.821 1150.42C179.568 1151.16 182.911 1150.34 183.288 1148.59C183.665 1146.83 180.934 1144.8 177.187 1144.06Z" fill="#F08200"/>
</g>
<g clip-path="url(#clip18_352_7332)">
<path d="M64.5147 1073.37C63.7227 1075.26 64.6649 1077.68 66.5395 1078.53C69.6526 1079.94 73.9307 1077.23 76.5834 1079.35C78.2121 1080.66 78.2245 1083.23 77.0496 1084.98C75.8747 1086.73 73.9011 1087.72 71.8887 1088.34C68.7038 1089.29 65.3119 1089.48 61.9736 1089.6C58.9958 1089.73 55.5535 1089.7 53.6137 1087.48C52.0056 1085.66 52.0188 1082.95 52.3216 1080.56C52.7498 1077.33 53.6681 1074.13 54.9833 1071.11C55.6903 1069.48 56.5608 1067.86 57.9205 1066.74C59.3141 1065.6 61.3348 1065.1 62.9024 1065.88C64.3125 1066.57 65.0675 1068.17 65.0873 1069.72C65.1212 1071.31 64.7466 1072.88 64.5147 1073.37Z" fill="#F08200"/>
<path d="M55.8637 1093.01C54.2767 1092.15 51.4723 1094.14 49.5999 1097.46C47.7275 1100.77 47.4961 1104.15 49.0831 1105C50.6701 1105.86 53.4744 1103.87 55.3468 1100.55C57.2192 1097.24 57.4506 1093.86 55.8637 1093.01Z" fill="#F08200"/>
<path d="M65.39 1094.42C63.5698 1094.46 62.1246 1097.55 62.162 1101.32C62.1994 1105.09 63.7053 1108.1 65.5255 1108.06C67.3457 1108.02 68.7909 1104.93 68.7535 1101.16C68.7161 1097.39 67.2102 1094.37 65.39 1094.42Z" fill="#F08200"/>
<path d="M48.2907 1085.52C47.1765 1084.12 43.8228 1084.89 40.7999 1087.24C37.777 1089.59 36.2297 1092.63 37.3439 1094.03C38.4581 1095.44 41.8118 1094.67 44.8347 1092.32C47.8576 1089.97 49.4049 1086.92 48.2907 1085.52Z" fill="#F08200"/>
<path d="M42.5902 1073.31C38.7743 1073.14 35.5936 1074.46 35.486 1076.25C35.3784 1078.04 38.3846 1079.63 42.2005 1079.8C46.0164 1079.97 49.1971 1078.65 49.3047 1076.85C49.4123 1075.06 46.4061 1073.47 42.5902 1073.31Z" fill="#F08200"/>
</g>
<g clip-path="url(#clip19_352_7332)">
<path d="M62.7887 1187.92C61.9966 1189.82 62.9389 1192.23 64.8135 1193.08C67.9265 1194.5 72.2046 1191.79 74.8573 1193.91C76.486 1195.21 76.4984 1197.79 75.3235 1199.53C74.1486 1201.28 72.175 1202.27 70.1626 1202.89C66.9778 1203.85 63.5858 1204.03 60.2475 1204.16C57.2697 1204.28 53.8275 1204.26 51.8876 1202.03C50.2795 1200.21 50.2927 1197.51 50.5955 1195.11C51.0237 1191.88 51.942 1188.68 53.2572 1185.66C53.9643 1184.04 54.8347 1182.42 56.1945 1181.29C57.588 1180.16 59.6087 1179.65 61.1764 1180.44C62.5865 1181.13 63.3414 1182.72 63.3612 1184.28C63.3951 1185.87 63.0205 1187.43 62.7887 1187.92Z" fill="#F08200"/>
<path d="M54.1376 1207.56C52.5506 1206.71 49.7462 1208.7 47.8738 1212.01C46.0014 1215.32 45.77 1218.7 47.357 1219.56C48.944 1220.41 51.7484 1218.42 53.6208 1215.11C55.4932 1211.8 55.7246 1208.42 54.1376 1207.56Z" fill="#F08200"/>
<path d="M63.6639 1208.97C61.8437 1209.02 60.3985 1212.11 60.4359 1215.87C60.4733 1219.64 61.9792 1222.66 63.7994 1222.61C65.6196 1222.57 67.0649 1219.48 67.0275 1215.71C66.99 1211.95 65.4841 1208.93 63.6639 1208.97Z" fill="#F08200"/>
<path d="M46.5646 1200.08C45.4504 1198.67 42.0967 1199.44 39.0738 1201.79C36.0509 1204.14 34.5037 1207.18 35.6178 1208.59C36.732 1209.99 40.0858 1209.22 43.1086 1206.87C46.1315 1204.52 47.6788 1201.48 46.5646 1200.08Z" fill="#F08200"/>
<path d="M40.8641 1187.86C37.0482 1187.69 33.8676 1189.01 33.7599 1190.8C33.6523 1192.6 36.6585 1194.18 40.4744 1194.35C44.2904 1194.52 47.471 1193.2 47.5786 1191.41C47.6862 1189.62 44.6801 1188.03 40.8641 1187.86Z" fill="#F08200"/>
</g>
<g clip-path="url(#clip20_352_7332)">
<path d="M-12.3892 1358.75C-13.2303 1360.35 -11.2134 1363.13 -7.88431 1364.97C-4.55524 1366.82 -1.17463 1367.02 -0.333518 1365.42C0.507595 1363.83 -1.5093 1361.04 -4.83837 1359.2C-8.16745 1357.36 -11.5481 1357.16 -12.3892 1358.75Z" fill="#F08200"/>
<path d="M-11.0658 1349.21C-11.005 1351.03 -7.90238 1352.45 -4.1359 1352.38C-0.369412 1352.3 2.63466 1350.77 2.5739 1348.95C2.51313 1347.13 -0.589471 1345.72 -4.35596 1345.79C-8.12244 1345.86 -11.1265 1347.39 -11.0658 1349.21Z" fill="#F08200"/>
</g>
<g clip-path="url(#clip21_352_7332)">
<path d="M57.6877 1405.65C59.7381 1405.48 61.4547 1403.54 61.3515 1401.49C61.1889 1398.07 56.8231 1395.51 57.4961 1392.18C57.9106 1390.13 60.1939 1388.94 62.2855 1389.19C64.377 1389.44 66.1614 1390.74 67.6305 1392.25C69.9381 1394.64 71.6537 1397.57 73.29 1400.48C74.7646 1403.07 76.3137 1406.15 75.2202 1408.89C74.3367 1411.15 71.9278 1412.38 69.6598 1413.2C66.5922 1414.3 63.3245 1414.95 60.0387 1415.16C58.2676 1415.27 56.4299 1415.24 54.8098 1414.54C53.1615 1413.82 51.7897 1412.26 51.7686 1410.5C51.7399 1408.93 52.8134 1407.53 54.1869 1406.8C55.5836 1406.05 57.1469 1405.67 57.6877 1405.65Z" fill="#F08200"/>
<path d="M79.112 1404.36C79.0766 1406.16 82.1298 1407.75 85.9315 1407.9C89.7332 1408.05 92.8439 1406.71 92.8793 1404.91C92.9147 1403.11 89.8614 1401.52 86.0597 1401.37C82.258 1401.22 79.1474 1402.56 79.112 1404.36Z" fill="#F08200"/>
<path d="M76.0107 1395.24C76.8822 1396.84 80.2906 1396.72 83.6237 1394.96C86.9568 1393.2 88.9523 1390.49 88.0809 1388.89C87.2094 1387.29 83.8009 1387.42 80.4678 1389.17C77.1348 1390.93 75.1392 1393.65 76.0107 1395.24Z" fill="#F08200"/>
<path d="M75.9165 1414.52C75.1786 1416.15 77.3953 1418.78 80.8676 1420.4C84.34 1422.01 87.7531 1422 88.491 1420.36C89.2289 1418.73 87.0122 1416.1 83.5399 1414.49C80.0675 1412.87 76.6544 1412.89 75.9165 1414.52Z" fill="#F08200"/>
<path d="M67.6593 1425.17C69.2555 1428.64 71.8817 1430.87 73.5251 1430.15C75.1685 1429.42 75.2069 1426.02 73.6108 1422.55C72.0146 1419.08 69.3884 1416.86 67.745 1417.58C66.1015 1418.3 66.0632 1421.7 67.6593 1425.17Z" fill="#F08200"/>
</g>
<g clip-path="url(#clip22_352_7332)">
<path d="M-12.5127 1468.21C-10.5056 1468.65 -8.2917 1467.31 -7.78297 1465.31C-6.92844 1462 -10.3408 1458.26 -8.714 1455.28C-7.71371 1453.45 -5.18136 1452.99 -3.25592 1453.84C-1.33048 1454.69 -0.0106508 1456.47 0.947294 1458.34C2.44395 1461.31 3.21639 1464.62 3.91867 1467.88C4.56187 1470.79 5.13317 1474.19 3.27768 1476.49C1.76497 1478.39 -0.897929 1478.84 -3.30864 1478.96C-6.56302 1479.1 -9.87606 1478.75 -13.0772 1477.98C-14.8033 1477.57 -16.5489 1476.99 -17.8908 1475.85C-19.2528 1474.68 -20.1002 1472.77 -19.6025 1471.09C-19.1657 1469.59 -17.7262 1468.56 -16.1987 1468.27C-14.641 1467.97 -13.0345 1468.06 -12.5127 1468.21Z" fill="#F08200"/>
<path d="M8.33448 1473.31C7.76787 1475.02 10.2166 1477.44 13.8039 1478.7C17.3911 1479.97 20.7585 1479.61 21.3251 1477.9C21.8917 1476.19 19.443 1473.77 15.8557 1472.5C12.2685 1471.24 8.90109 1471.6 8.33448 1473.31Z" fill="#F08200"/>
<path d="M8.06661 1463.68C8.42664 1465.47 11.7204 1466.35 15.4235 1465.66C19.1266 1464.97 21.8366 1462.96 21.4766 1461.18C21.1166 1459.39 17.8228 1458.5 14.1197 1459.2C10.4166 1459.89 7.70658 1461.9 8.06661 1463.68Z" fill="#F08200"/>
<path d="M2.27955 1482.07C1.09218 1483.41 2.43208 1486.58 5.27231 1489.15C8.11253 1491.71 11.3775 1492.71 12.5649 1491.37C13.7523 1490.03 12.4124 1486.86 9.57216 1484.29C6.73194 1481.72 3.46692 1480.73 2.27955 1482.07Z" fill="#F08200"/>
</g>
<g clip-path="url(#clip23_352_7332)">
<path d="M200.666 1417.71C202.717 1417.55 204.433 1415.61 204.33 1413.55C204.167 1410.13 199.802 1407.57 200.475 1404.24C200.889 1402.2 203.172 1401.01 205.264 1401.25C207.356 1401.5 209.14 1402.8 210.609 1404.31C212.917 1406.7 214.632 1409.64 216.268 1412.55C217.743 1415.14 219.292 1418.21 218.199 1420.96C217.315 1423.22 214.906 1424.44 212.638 1425.27C209.571 1426.36 206.303 1427.01 203.017 1427.22C201.246 1427.34 199.408 1427.3 197.788 1426.61C196.14 1425.89 194.768 1424.32 194.747 1422.57C194.718 1421 195.792 1419.6 197.165 1418.87C198.562 1418.11 200.125 1417.73 200.666 1417.71Z" fill="#F08200"/>
<path d="M222.091 1416.42C222.055 1418.23 225.108 1419.81 228.91 1419.96C232.712 1420.11 235.822 1418.77 235.858 1416.97C235.893 1415.17 232.84 1413.58 229.038 1413.43C225.237 1413.28 222.126 1414.62 222.091 1416.42Z" fill="#F08200"/>
<path d="M218.989 1407.31C219.861 1408.91 223.269 1408.78 226.602 1407.02C229.935 1405.27 231.931 1402.55 231.059 1400.95C230.188 1399.35 226.779 1399.48 223.446 1401.23C220.113 1402.99 218.118 1405.71 218.989 1407.31Z" fill="#F08200"/>
<path d="M218.895 1426.58C218.157 1428.21 220.374 1430.85 223.846 1432.46C227.318 1434.07 230.732 1434.06 231.47 1432.43C232.207 1430.79 229.991 1428.16 226.518 1426.55C223.046 1424.93 219.633 1424.95 218.895 1426.58Z" fill="#F08200"/>
<path d="M210.638 1437.24C212.234 1440.71 214.86 1442.93 216.504 1442.21C218.147 1441.49 218.185 1438.09 216.589 1434.62C214.993 1431.15 212.367 1428.92 210.723 1429.64C209.08 1430.37 209.042 1433.77 210.638 1437.24Z" fill="#F08200"/>
</g>
<g clip-path="url(#clip24_352_7332)">
<path d="M115.312 1486.8C117.366 1486.69 119.133 1484.79 119.084 1482.74C119.011 1479.32 114.714 1476.64 115.474 1473.33C115.942 1471.29 118.255 1470.17 120.34 1470.47C122.424 1470.77 124.174 1472.11 125.603 1473.66C127.847 1476.11 129.485 1479.09 131.045 1482.04C132.451 1484.67 133.919 1487.79 132.754 1490.5C131.812 1492.74 129.371 1493.9 127.083 1494.66C123.987 1495.68 120.704 1496.24 117.414 1496.37C115.64 1496.43 113.804 1496.35 112.203 1495.61C110.574 1494.85 109.243 1493.25 109.268 1491.5C109.281 1489.93 110.39 1488.55 111.783 1487.86C113.199 1487.14 114.771 1486.8 115.312 1486.8Z" fill="#F08200"/>
<path d="M136.763 1486.07C136.68 1487.87 139.691 1489.54 143.487 1489.79C147.284 1490.04 150.428 1488.78 150.511 1486.98C150.594 1485.18 147.583 1483.52 143.787 1483.27C139.99 1483.02 136.845 1484.27 136.763 1486.07Z" fill="#F08200"/>
<path d="M133.902 1476.88C134.731 1478.5 138.142 1478.46 141.52 1476.79C144.898 1475.13 146.964 1472.46 146.134 1470.84C145.305 1469.22 141.894 1469.26 138.517 1470.92C135.139 1472.59 133.073 1475.26 133.902 1476.88Z" fill="#F08200"/>
<path d="M133.303 1496.14C132.523 1497.76 134.67 1500.44 138.099 1502.15C141.527 1503.85 144.94 1503.93 145.72 1502.31C146.501 1500.7 144.354 1498.01 140.925 1496.31C137.496 1494.61 134.084 1494.53 133.303 1496.14Z" fill="#F08200"/>
<path d="M124.769 1506.58C126.274 1510.09 128.841 1512.38 130.503 1511.7C132.165 1511.02 132.292 1507.62 130.787 1504.11C129.283 1500.6 126.716 1498.31 125.054 1498.99C123.392 1499.67 123.265 1503.07 124.769 1506.58Z" fill="#F08200"/>
</g>
<g clip-path="url(#clip25_352_7332)">
<path d="M264.693 1494.43C266.701 1494.87 268.912 1493.52 269.416 1491.52C270.263 1488.21 266.842 1484.48 268.462 1481.49C269.458 1479.66 271.989 1479.19 273.917 1480.04C275.844 1480.89 277.168 1482.66 278.13 1484.53C279.634 1487.5 280.414 1490.8 281.124 1494.07C281.774 1496.98 282.353 1500.37 280.503 1502.67C278.994 1504.58 276.332 1505.04 273.922 1505.16C270.668 1505.31 267.354 1504.97 264.151 1504.21C262.424 1503.8 260.677 1503.23 259.333 1502.09C257.968 1500.91 257.116 1499.01 257.61 1497.33C258.043 1495.82 259.48 1494.8 261.007 1494.5C262.564 1494.19 264.171 1494.28 264.693 1494.43Z" fill="#F08200"/>
<path d="M285.552 1499.48C284.989 1501.19 287.443 1503.6 291.034 1504.86C294.624 1506.12 297.99 1505.76 298.553 1504.04C299.116 1502.33 296.661 1499.92 293.071 1498.66C289.481 1497.4 286.114 1497.77 285.552 1499.48Z" fill="#F08200"/>
<path d="M285.262 1489.86C285.626 1491.64 288.922 1492.52 292.623 1491.82C296.325 1491.12 299.03 1489.1 298.666 1487.32C298.302 1485.54 295.006 1484.66 291.305 1485.36C287.603 1486.06 284.898 1488.07 285.262 1489.86Z" fill="#F08200"/>
<path d="M279.517 1508.26C278.333 1509.6 279.68 1512.76 282.526 1515.33C285.372 1517.89 288.64 1518.87 289.824 1517.53C291.008 1516.19 289.661 1513.02 286.815 1510.46C283.969 1507.9 280.701 1506.91 279.517 1508.26Z" fill="#F08200"/>
<path d="M268.498 1516.02C269.006 1519.8 270.863 1522.7 272.647 1522.49C274.43 1522.28 275.464 1519.04 274.956 1515.26C274.448 1511.47 272.591 1508.57 270.807 1508.78C269.024 1508.99 267.99 1512.23 268.498 1516.02Z" fill="#F08200"/>
</g>
<g clip-path="url(#clip26_352_7332)">
<path d="M357.793 1440.46C359.801 1440.91 362.012 1439.56 362.516 1437.56C363.363 1434.25 359.942 1430.51 361.562 1427.53C362.558 1425.7 365.089 1425.23 367.017 1426.08C368.944 1426.93 370.268 1428.69 371.23 1430.57C372.734 1433.53 373.514 1436.84 374.224 1440.1C374.874 1443.01 375.453 1446.41 373.603 1448.71C372.094 1450.61 369.432 1451.07 367.022 1451.2C363.768 1451.35 360.454 1451.01 357.251 1450.24C355.524 1449.83 353.777 1449.26 352.433 1448.12C351.068 1446.95 350.216 1445.05 350.71 1443.37C351.143 1441.86 352.581 1440.83 354.107 1440.54C355.664 1440.23 357.271 1440.32 357.793 1440.46Z" fill="#F08200"/>
<path d="M378.652 1445.52C378.089 1447.23 380.544 1449.64 384.134 1450.9C387.724 1452.16 391.09 1451.79 391.653 1450.08C392.216 1448.37 389.761 1445.96 386.171 1444.7C382.581 1443.44 379.215 1443.81 378.652 1445.52Z" fill="#F08200"/>
<path d="M378.362 1435.89C378.726 1437.68 382.022 1438.55 385.724 1437.85C389.425 1437.15 392.13 1435.14 391.766 1433.36C391.402 1431.57 388.106 1430.69 384.405 1431.39C380.703 1432.09 377.998 1434.11 378.362 1435.89Z" fill="#F08200"/>
<path d="M372.617 1454.29C371.433 1455.64 372.78 1458.8 375.626 1461.36C378.472 1463.92 381.74 1464.91 382.924 1463.57C384.108 1462.22 382.761 1459.06 379.915 1456.5C377.069 1453.93 373.802 1452.95 372.617 1454.29Z" fill="#F08200"/>
<path d="M361.598 1462.05C362.106 1465.84 363.963 1468.74 365.747 1468.53C367.53 1468.32 368.564 1465.08 368.056 1461.29C367.548 1457.51 365.691 1454.61 363.907 1454.82C362.124 1455.03 361.09 1458.27 361.598 1462.05Z" fill="#F08200"/>
</g>
<g clip-path="url(#clip27_352_7332)">
<path d="M492.762 1467.91C494.505 1469 497.041 1468.47 498.186 1466.76C500.096 1463.92 498.126 1459.26 500.654 1456.99C502.207 1455.6 504.748 1456.01 506.279 1457.46C507.81 1458.9 508.463 1461.01 508.742 1463.1C509.162 1466.4 508.788 1469.77 508.361 1473.09C507.997 1476.04 507.403 1479.44 504.888 1480.98C502.828 1482.27 500.165 1481.81 497.853 1481.12C494.738 1480.17 491.731 1478.73 488.97 1476.94C487.48 1475.98 486.026 1474.85 485.143 1473.33C484.25 1471.76 484.086 1469.69 485.115 1468.27C486.03 1466.99 487.727 1466.51 489.264 1466.75C490.836 1466.97 492.318 1467.6 492.762 1467.91Z" fill="#F08200"/>
<path d="M510.715 1479.67C509.61 1481.1 511.114 1484.19 514.073 1486.58C517.032 1488.97 520.327 1489.76 521.432 1488.33C522.536 1486.91 521.033 1483.81 518.074 1481.42C515.115 1479.03 511.82 1478.25 510.715 1479.67Z" fill="#F08200"/>
<path d="M513.673 1470.51C513.417 1472.31 516.227 1474.24 519.949 1474.83C523.671 1475.41 526.895 1474.42 527.151 1472.62C527.407 1470.81 524.597 1468.88 520.875 1468.3C517.153 1467.72 513.928 1468.7 513.673 1470.51Z" fill="#F08200"/>
<path d="M502.086 1485.91C500.52 1486.78 500.726 1490.21 502.548 1493.58C504.369 1496.95 507.116 1498.98 508.682 1498.11C510.249 1497.24 510.042 1493.81 508.221 1490.44C506.4 1487.07 503.653 1485.04 502.086 1485.91Z" fill="#F08200"/>
<path d="M489.1 1489.53C488.308 1493.26 489.085 1496.62 490.835 1497.02C492.586 1497.42 494.647 1494.71 495.439 1490.98C496.231 1487.24 495.454 1483.89 493.703 1483.49C491.953 1483.09 489.892 1485.79 489.1 1489.53Z" fill="#F08200"/>
</g>
<g clip-path="url(#clip28_352_7332)">
<path d="M411.835 1519.21C413.577 1520.3 416.114 1519.77 417.258 1518.06C419.168 1515.22 417.198 1510.55 419.726 1508.29C421.279 1506.89 423.82 1507.3 425.351 1508.75C426.882 1510.2 427.536 1512.31 427.814 1514.39C428.235 1517.69 427.86 1521.07 427.433 1524.38C427.069 1527.34 426.476 1530.73 423.96 1532.28C421.901 1533.56 419.238 1533.11 416.926 1532.42C413.811 1531.46 410.803 1530.03 408.042 1528.24C406.552 1527.27 405.099 1526.15 404.215 1524.62C403.322 1523.06 403.158 1520.98 404.187 1519.57C405.102 1518.29 406.8 1517.81 408.336 1518.04C409.908 1518.27 411.391 1518.9 411.835 1519.21Z" fill="#F08200"/>
<path d="M429.787 1530.97C428.683 1532.39 430.186 1535.49 433.145 1537.88C436.104 1540.27 439.399 1541.05 440.504 1539.63C441.609 1538.2 440.105 1535.11 437.146 1532.72C434.187 1530.33 430.892 1529.54 429.787 1530.97Z" fill="#F08200"/>
<path d="M432.745 1521.8C432.489 1523.61 435.299 1525.54 439.021 1526.12C442.743 1526.7 445.967 1525.71 446.223 1523.91C446.479 1522.11 443.669 1520.18 439.947 1519.59C436.225 1519.01 433.001 1520 432.745 1521.8Z" fill="#F08200"/>
<path d="M421.159 1537.21C419.592 1538.08 419.799 1541.51 421.62 1544.88C423.442 1548.25 426.188 1550.27 427.755 1549.4C429.321 1548.54 429.115 1545.1 427.293 1541.73C425.472 1538.36 422.725 1536.34 421.159 1537.21Z" fill="#F08200"/>
<path d="M408.172 1540.82C407.38 1544.56 408.157 1547.91 409.908 1548.31C411.658 1548.71 413.719 1546.01 414.511 1542.27C415.303 1538.54 414.526 1535.18 412.776 1534.78C411.025 1534.38 408.964 1537.09 408.172 1540.82Z" fill="#F08200"/>
</g>
<g clip-path="url(#clip29_352_7332)">
<path d="M495.557 1578.87C497.177 1580.14 499.755 1579.87 501.07 1578.29C503.262 1575.66 501.785 1570.82 504.534 1568.82C506.223 1567.6 508.707 1568.27 510.081 1569.87C511.454 1571.46 511.886 1573.63 511.947 1575.73C512.025 1579.06 511.304 1582.38 510.537 1585.63C509.87 1588.54 508.929 1591.85 506.267 1593.13C504.086 1594.19 501.484 1593.46 499.256 1592.54C496.256 1591.27 493.413 1589.53 490.852 1587.46C489.47 1586.35 488.14 1585.08 487.418 1583.47C486.692 1581.83 486.743 1579.74 487.913 1578.44C488.955 1577.26 490.693 1576.96 492.197 1577.35C493.737 1577.74 495.147 1578.52 495.557 1578.87Z" fill="#F08200"/>
<path d="M512.199 1592.43C510.953 1593.73 512.128 1596.96 514.825 1599.64C517.521 1602.33 520.717 1603.45 521.963 1602.15C523.21 1600.84 522.034 1597.61 519.337 1594.93C516.641 1592.24 513.445 1591.12 512.199 1592.43Z" fill="#F08200"/>
<path d="M516.087 1583.61C515.646 1585.38 518.242 1587.59 521.883 1588.56C525.525 1589.52 528.835 1588.87 529.275 1587.1C529.716 1585.34 527.12 1583.12 523.479 1582.16C519.837 1581.2 516.527 1581.85 516.087 1583.61Z" fill="#F08200"/>
<path d="M502.972 1597.74C501.324 1598.44 501.175 1601.88 502.639 1605.42C504.103 1608.96 506.625 1611.25 508.273 1610.55C509.921 1609.85 510.07 1606.41 508.606 1602.87C507.142 1599.34 504.62 1597.04 502.972 1597.74Z" fill="#F08200"/>
<path d="M489.681 1599.99C488.508 1603.63 488.934 1607.05 490.634 1607.62C492.334 1608.2 494.663 1605.73 495.837 1602.09C497.01 1598.46 496.584 1595.04 494.884 1594.46C493.184 1593.88 490.855 1596.36 489.681 1599.99Z" fill="#F08200"/>
</g>
<g clip-path="url(#clip30_352_7332)">
<path d="M561.524 1763.61C561.207 1765.65 562.698 1767.77 564.72 1768.14C568.081 1768.78 571.591 1765.13 574.672 1766.55C576.565 1767.43 577.19 1769.93 576.465 1771.91C575.74 1773.88 574.06 1775.32 572.253 1776.4C569.388 1778.08 566.137 1779.07 562.925 1779.99C560.063 1780.82 556.713 1781.61 554.299 1779.91C552.303 1778.53 551.672 1775.9 551.396 1773.5C551.042 1770.27 551.171 1766.94 551.73 1763.69C552.028 1761.94 552.488 1760.16 553.541 1758.75C554.624 1757.31 556.466 1756.34 558.175 1756.73C559.71 1757.07 560.823 1758.43 561.213 1759.94C561.624 1761.47 561.633 1763.08 561.524 1763.61Z" fill="#F08200"/>
<path d="M557.802 1784.75C556.057 1784.3 553.807 1786.9 552.778 1790.56C551.749 1794.23 552.329 1797.56 554.074 1798.02C555.819 1798.47 558.068 1795.87 559.098 1792.2C560.127 1788.54 559.547 1785.2 557.802 1784.75Z" fill="#F08200"/>
<path d="M567.391 1783.85C565.633 1784.33 564.966 1787.67 565.9 1791.32C566.833 1794.97 569.015 1797.54 570.772 1797.07C572.53 1796.59 573.197 1793.25 572.263 1789.6C571.329 1785.95 569.148 1783.37 567.391 1783.85Z" fill="#F08200"/>
<path d="M548.664 1779.28C547.248 1778.19 544.174 1779.73 541.798 1782.74C539.422 1785.74 538.644 1789.06 540.06 1790.16C541.476 1791.26 544.551 1789.71 546.926 1786.71C549.302 1783.7 550.08 1780.38 548.664 1779.28Z" fill="#F08200"/>
<path d="M540.217 1768.78C536.472 1769.53 533.696 1771.56 534.019 1773.33C534.342 1775.1 537.64 1775.92 541.386 1775.18C545.131 1774.43 547.906 1772.39 547.584 1770.63C547.261 1768.86 543.963 1768.03 540.217 1768.78Z" fill="#F08200"/>
</g>
<g clip-path="url(#clip31_352_7332)">
<path d="M502.127 1841.78C501.456 1843.72 502.547 1846.07 504.471 1846.8C507.667 1848.02 511.767 1845.05 514.547 1847C516.254 1848.2 516.427 1850.77 515.364 1852.58C514.301 1854.4 512.393 1855.52 510.423 1856.26C507.304 1857.41 503.931 1857.81 500.607 1858.14C497.643 1858.45 494.205 1858.64 492.13 1856.54C490.411 1854.83 490.256 1852.13 490.408 1849.72C490.633 1846.47 491.35 1843.22 492.473 1840.12C493.077 1838.45 493.845 1836.78 495.132 1835.58C496.451 1834.35 498.437 1833.73 500.05 1834.41C501.501 1835.01 502.354 1836.56 502.471 1838.11C502.604 1839.69 502.328 1841.27 502.127 1841.78Z" fill="#F08200"/>
<path d="M494.722 1861.92C493.084 1861.17 490.41 1863.33 488.749 1866.75C487.087 1870.18 487.067 1873.56 488.705 1874.32C490.342 1875.07 493.016 1872.91 494.678 1869.49C496.34 1866.06 496.359 1862.68 494.722 1861.92Z" fill="#F08200"/>
<path d="M504.318 1862.73C502.504 1862.89 501.255 1866.07 501.528 1869.82C501.801 1873.58 503.493 1876.5 505.307 1876.34C507.12 1876.18 508.37 1873.01 508.097 1869.25C507.824 1865.49 506.132 1862.58 504.318 1862.73Z" fill="#F08200"/>
<path d="M486.696 1854.92C485.496 1853.59 482.197 1854.57 479.327 1857.11C476.457 1859.64 475.103 1862.77 476.303 1864.1C477.503 1865.43 480.802 1864.46 483.672 1861.92C486.542 1859.39 487.896 1856.25 486.696 1854.92Z" fill="#F08200"/>
<path d="M480.242 1843.09C476.424 1843.16 473.332 1844.68 473.336 1846.47C473.341 1848.27 476.441 1849.66 480.26 1849.59C484.078 1849.52 487.17 1848.01 487.166 1846.21C487.161 1844.42 484.061 1843.02 480.242 1843.09Z" fill="#F08200"/>
</g>
<g clip-path="url(#clip32_352_7332)">
<path d="M595.068 1883.04C594.396 1884.98 595.487 1887.33 597.411 1888.06C600.607 1889.28 604.707 1886.31 607.487 1888.26C609.194 1889.46 609.368 1892.03 608.305 1893.85C607.241 1895.66 605.333 1896.78 603.364 1897.52C600.245 1898.67 596.871 1899.07 593.547 1899.4C590.583 1899.72 587.146 1899.9 585.071 1897.8C583.352 1896.09 583.196 1893.39 583.348 1890.98C583.574 1887.73 584.29 1884.48 585.414 1881.38C586.018 1879.71 586.785 1878.04 588.072 1876.84C589.392 1875.62 591.377 1874.99 592.991 1875.67C594.441 1876.27 595.294 1877.82 595.411 1879.37C595.545 1880.95 595.269 1882.54 595.068 1883.04Z" fill="#F08200"/>
<path d="M587.662 1903.18C586.025 1902.43 583.351 1904.59 581.689 1908.01C580.027 1911.44 580.008 1914.82 581.645 1915.58C583.283 1916.33 585.957 1914.17 587.618 1910.75C589.28 1907.33 589.3 1903.94 587.662 1903.18Z" fill="#F08200"/>
<path d="M597.258 1904C595.445 1904.15 594.195 1907.33 594.468 1911.09C594.741 1914.84 596.433 1917.76 598.247 1917.6C600.061 1917.44 601.31 1914.27 601.037 1910.51C600.764 1906.76 599.072 1903.84 597.258 1904Z" fill="#F08200"/>
<path d="M579.636 1896.19C578.437 1894.86 575.137 1895.83 572.267 1898.37C569.397 1900.9 568.044 1904.04 569.243 1905.37C570.443 1906.7 573.742 1905.72 576.612 1903.18C579.482 1900.65 580.836 1897.52 579.636 1896.19Z" fill="#F08200"/>
<path d="M573.183 1884.35C569.364 1884.42 566.272 1885.94 566.277 1887.73C566.281 1889.53 569.381 1890.93 573.2 1890.85C577.019 1890.78 580.111 1889.27 580.106 1887.47C580.101 1885.68 577.002 1884.28 573.183 1884.35Z" fill="#F08200"/>
</g>
<g clip-path="url(#clip33_352_7332)">
<path d="M502.473 1945.85C501.801 1947.8 502.893 1950.15 504.817 1950.88C508.012 1952.1 512.113 1949.12 514.893 1951.07C516.6 1952.27 516.773 1954.84 515.71 1956.66C514.646 1958.48 512.739 1959.59 510.769 1960.33C507.65 1961.49 504.276 1961.88 500.952 1962.22C497.988 1962.53 494.551 1962.72 492.476 1960.62C490.757 1958.9 490.601 1956.2 490.754 1953.79C490.979 1950.54 491.695 1947.29 492.819 1944.2C493.423 1942.53 494.191 1940.86 495.477 1939.65C496.797 1938.43 498.782 1937.8 500.396 1938.48C501.846 1939.09 502.7 1940.63 502.817 1942.18C502.95 1943.76 502.674 1945.35 502.473 1945.85Z" fill="#F08200"/>
<path d="M495.068 1966C493.43 1965.24 490.756 1967.41 489.094 1970.83C487.433 1974.25 487.413 1977.64 489.05 1978.39C490.688 1979.15 493.362 1976.98 495.024 1973.56C496.685 1970.14 496.705 1966.75 495.068 1966Z" fill="#F08200"/>
<path d="M504.664 1966.81C502.85 1966.97 501.601 1970.14 501.874 1973.9C502.147 1977.66 503.838 1980.57 505.652 1980.42C507.466 1980.26 508.715 1977.08 508.442 1973.33C508.169 1969.57 506.478 1966.65 504.664 1966.81Z" fill="#F08200"/>
<path d="M487.042 1959C485.842 1957.67 482.543 1958.65 479.673 1961.18C476.803 1963.72 475.449 1966.85 476.649 1968.18C477.848 1969.51 481.147 1968.53 484.017 1966C486.887 1963.46 488.241 1960.33 487.042 1959Z" fill="#F08200"/>
<path d="M480.588 1947.16C476.769 1947.24 473.677 1948.75 473.682 1950.55C473.687 1952.34 476.786 1953.74 480.605 1953.67C484.424 1953.6 487.516 1952.08 487.511 1950.29C487.507 1948.49 484.407 1947.09 480.588 1947.16Z" fill="#F08200"/>
</g>
<g clip-path="url(#clip34_352_7332)">
<path d="M406.625 1919.64C405.536 1921.39 406.077 1923.92 407.79 1925.06C410.633 1926.96 415.293 1924.98 417.568 1927.5C418.965 1929.05 418.562 1931.59 417.121 1933.12C415.679 1934.66 413.571 1935.32 411.485 1935.6C408.188 1936.03 404.81 1935.67 401.496 1935.25C398.537 1934.9 395.144 1934.32 393.589 1931.8C392.296 1929.75 392.745 1927.08 393.43 1924.77C394.374 1921.65 395.797 1918.64 397.582 1915.87C398.543 1914.38 399.663 1912.92 401.186 1912.04C402.745 1911.14 404.821 1910.97 406.241 1911.99C407.521 1912.9 408.009 1914.6 407.777 1916.14C407.555 1917.71 406.932 1919.19 406.625 1919.64Z" fill="#F08200"/>
<path d="M394.917 1937.63C393.489 1936.53 390.4 1938.04 388.017 1941.01C385.635 1943.97 384.861 1947.27 386.289 1948.37C387.717 1949.47 390.806 1947.96 393.189 1944.99C395.571 1942.03 396.345 1938.73 394.917 1937.63Z" fill="#F08200"/>
<path d="M404.091 1940.56C402.287 1940.31 400.362 1943.12 399.791 1946.85C399.22 1950.57 400.219 1953.79 402.023 1954.04C403.826 1954.29 405.751 1951.48 406.322 1947.75C406.893 1944.03 405.894 1940.81 404.091 1940.56Z" fill="#F08200"/>
<path d="M388.652 1929.02C387.778 1927.45 384.345 1927.67 380.982 1929.5C377.619 1931.33 375.601 1934.09 376.475 1935.65C377.348 1937.21 380.782 1937 384.144 1935.17C387.507 1933.33 389.525 1930.58 388.652 1929.02Z" fill="#F08200"/>
<path d="M384.997 1916.04C381.258 1915.26 377.907 1916.05 377.511 1917.8C377.116 1919.55 379.826 1921.61 383.565 1922.39C387.304 1923.17 390.656 1922.38 391.051 1920.63C391.447 1918.88 388.736 1916.82 384.997 1916.04Z" fill="#F08200"/>
</g>
<g clip-path="url(#clip35_352_7332)">
<path d="M416.749 2026.95C415.661 2028.7 416.201 2031.23 417.914 2032.37C420.758 2034.27 425.417 2032.29 427.693 2034.81C429.09 2036.36 428.687 2038.9 427.245 2040.44C425.803 2041.97 423.696 2042.63 421.61 2042.92C418.312 2043.35 414.935 2042.98 411.62 2042.57C408.661 2042.21 405.269 2041.63 403.714 2039.12C402.42 2037.06 402.869 2034.4 403.555 2032.08C404.499 2028.96 405.922 2025.95 407.707 2023.19C408.667 2021.69 409.788 2020.24 411.311 2019.35C412.87 2018.45 414.945 2018.28 416.366 2019.31C417.646 2020.22 418.133 2021.91 417.902 2023.45C417.679 2025.02 417.057 2026.51 416.749 2026.95Z" fill="#F08200"/>
<path d="M405.041 2044.94C403.613 2043.84 400.524 2045.35 398.142 2048.32C395.759 2051.28 394.986 2054.58 396.414 2055.68C397.842 2056.78 400.931 2055.27 403.313 2052.3C405.696 2049.34 406.469 2046.04 405.041 2044.94Z" fill="#F08200"/>
<path d="M414.215 2047.87C412.412 2047.62 410.487 2050.44 409.916 2054.16C409.345 2057.88 410.344 2061.1 412.147 2061.35C413.951 2061.6 415.876 2058.79 416.447 2055.06C417.018 2051.34 416.019 2048.12 414.215 2047.87Z" fill="#F08200"/>
<path d="M398.776 2036.33C397.903 2034.77 394.469 2034.98 391.107 2036.81C387.744 2038.65 385.726 2041.4 386.599 2042.96C387.472 2044.53 390.906 2044.31 394.269 2042.48C397.631 2040.65 399.649 2037.89 398.776 2036.33Z" fill="#F08200"/>
<path d="M395.122 2023.35C391.383 2022.57 388.031 2023.36 387.636 2025.11C387.24 2026.86 389.951 2028.92 393.69 2029.7C397.428 2030.48 400.78 2029.69 401.176 2027.94C401.571 2026.19 398.861 2024.14 395.122 2023.35Z" fill="#F08200"/>
</g>
<g clip-path="url(#clip36_352_7332)">
<path d="M296.898 1968.67C295.81 1970.42 296.351 1972.95 298.064 1974.09C300.907 1975.99 305.567 1974.01 307.842 1976.53C309.239 1978.08 308.836 1980.62 307.394 1982.15C305.953 1983.69 303.845 1984.35 301.759 1984.63C298.462 1985.06 295.084 1984.7 291.77 1984.28C288.811 1983.93 285.418 1983.35 283.863 1980.83C282.57 1978.78 283.019 1976.11 283.704 1973.8C284.648 1970.68 286.071 1967.67 287.856 1964.9C288.817 1963.41 289.937 1961.95 291.46 1961.07C293.019 1960.17 295.094 1960 296.515 1961.02C297.795 1961.93 298.283 1963.63 298.051 1965.17C297.829 1966.74 297.206 1968.22 296.898 1968.67Z" fill="#F08200"/>
<path d="M285.191 1986.66C283.763 1985.56 280.674 1987.07 278.291 1990.04C275.909 1993 275.135 1996.3 276.563 1997.4C277.991 1998.5 281.08 1996.99 283.463 1994.02C285.845 1991.06 286.619 1987.76 285.191 1986.66Z" fill="#F08200"/>
<path d="M294.365 1989.59C292.561 1989.34 290.636 1992.15 290.065 1995.88C289.494 1999.6 290.493 2002.82 292.297 2003.07C294.1 2003.32 296.025 2000.51 296.596 1996.78C297.167 1993.06 296.168 1989.84 294.365 1989.59Z" fill="#F08200"/>
<path d="M278.926 1978.05C278.052 1976.48 274.619 1976.7 271.256 1978.53C267.893 1980.36 265.875 1983.12 266.749 1984.68C267.622 1986.24 271.056 1986.03 274.418 1984.2C277.781 1982.36 279.799 1979.61 278.926 1978.05Z" fill="#F08200"/>
<path d="M275.271 1965.07C271.532 1964.29 268.181 1965.08 267.785 1966.83C267.39 1968.58 270.1 1970.64 273.839 1971.42C277.578 1972.2 280.93 1971.41 281.325 1969.66C281.721 1967.91 279.01 1965.85 275.271 1965.07Z" fill="#F08200"/>
</g>
<g clip-path="url(#clip37_352_7332)">
<path d="M289.852 2080.46C288.764 2082.2 289.304 2084.74 291.017 2085.88C293.861 2087.78 298.52 2085.8 300.796 2088.32C302.193 2089.87 301.79 2092.41 300.348 2093.94C298.906 2095.48 296.799 2096.14 294.713 2096.42C291.415 2096.85 288.038 2096.49 284.723 2096.07C281.764 2095.72 278.372 2095.13 276.817 2092.62C275.523 2090.57 275.972 2087.9 276.658 2085.59C277.602 2082.47 279.025 2079.46 280.81 2076.69C281.77 2075.2 282.891 2073.74 284.414 2072.85C285.973 2071.96 288.048 2071.79 289.469 2072.81C290.749 2073.72 291.236 2075.42 291.005 2076.96C290.782 2078.53 290.16 2080.01 289.852 2080.46Z" fill="#F08200"/>
<path d="M278.144 2098.45C276.716 2097.35 273.627 2098.86 271.245 2101.82C268.862 2104.79 268.089 2108.09 269.517 2109.19C270.945 2110.29 274.034 2108.78 276.416 2105.81C278.799 2102.84 279.572 2099.55 278.144 2098.45Z" fill="#F08200"/>
<path d="M287.318 2101.38C285.515 2101.13 283.59 2103.94 283.019 2107.67C282.448 2111.39 283.447 2114.61 285.25 2114.86C287.054 2115.11 288.979 2112.3 289.55 2108.57C290.121 2104.85 289.122 2101.63 287.318 2101.38Z" fill="#F08200"/>
<path d="M271.879 2089.84C271.006 2088.27 267.572 2088.49 264.21 2090.32C260.847 2092.15 258.829 2094.91 259.702 2096.47C260.575 2098.03 264.009 2097.82 267.372 2095.98C270.734 2094.15 272.752 2091.4 271.879 2089.84Z" fill="#F08200"/>
<path d="M268.225 2076.86C264.486 2076.08 261.134 2076.87 260.739 2078.62C260.343 2080.37 263.054 2082.42 266.793 2083.2C270.531 2083.99 273.883 2083.2 274.279 2081.45C274.674 2079.7 271.964 2077.64 268.225 2076.86Z" fill="#F08200"/>
</g>
<g clip-path="url(#clip38_352_7332)">
<path d="M189.136 2026.15C188.048 2027.89 188.588 2030.43 190.302 2031.57C193.145 2033.47 197.804 2031.48 200.08 2034.01C201.477 2035.55 201.074 2038.1 199.632 2039.63C198.191 2041.17 196.083 2041.83 193.997 2042.11C190.7 2042.54 187.322 2042.18 184.008 2041.76C181.048 2041.41 177.656 2040.82 176.101 2038.31C174.808 2036.26 175.257 2033.59 175.942 2031.28C176.886 2028.16 178.309 2025.15 180.094 2022.38C181.055 2020.89 182.175 2019.43 183.698 2018.54C185.257 2017.65 187.332 2017.48 188.753 2018.5C190.033 2019.41 190.521 2021.11 190.289 2022.64C190.066 2024.22 189.444 2025.7 189.136 2026.15Z" fill="#F08200"/>
<path d="M177.429 2044.13C176.001 2043.03 172.912 2044.55 170.529 2047.51C168.147 2050.48 167.373 2053.78 168.801 2054.88C170.229 2055.98 173.318 2054.47 175.701 2051.5C178.083 2048.53 178.857 2045.24 177.429 2044.13Z" fill="#F08200"/>
<path d="M186.602 2047.06C184.799 2046.81 182.874 2049.63 182.303 2053.35C181.732 2057.08 182.731 2060.3 184.534 2060.55C186.338 2060.8 188.263 2057.98 188.834 2054.26C189.405 2050.54 188.406 2047.31 186.602 2047.06Z" fill="#F08200"/>
<path d="M171.163 2035.52C170.29 2033.96 166.856 2034.18 163.494 2036.01C160.131 2037.84 158.113 2040.59 158.986 2042.16C159.86 2043.72 163.293 2043.5 166.656 2041.67C170.018 2039.84 172.037 2037.09 171.163 2035.52Z" fill="#F08200"/>
<path d="M167.509 2022.55C163.77 2021.77 160.419 2022.56 160.023 2024.31C159.627 2026.06 162.338 2028.11 166.077 2028.89C169.816 2029.67 173.167 2028.89 173.563 2027.14C173.958 2025.38 171.248 2023.33 167.509 2022.55Z" fill="#F08200"/>
</g>
<g clip-path="url(#clip39_352_7332)">
<path d="M165.892 2136.21C164.804 2137.96 165.344 2140.49 167.057 2141.63C169.9 2143.53 174.56 2141.55 176.835 2144.07C178.232 2145.62 177.829 2148.16 176.388 2149.7C174.946 2151.23 172.838 2151.89 170.753 2152.18C167.455 2152.61 164.078 2152.24 160.763 2151.83C157.804 2151.47 154.411 2150.89 152.856 2148.38C151.563 2146.32 152.012 2143.66 152.697 2141.34C153.641 2138.23 155.064 2135.21 156.849 2132.45C157.81 2130.95 158.93 2129.5 160.453 2128.61C162.012 2127.71 164.088 2127.54 165.509 2128.57C166.788 2129.48 167.276 2131.17 167.045 2132.71C166.822 2134.28 166.199 2135.77 165.892 2136.21Z" fill="#F08200"/>
<path d="M154.184 2154.2C152.756 2153.1 149.667 2154.61 147.284 2157.58C144.902 2160.55 144.128 2163.84 145.556 2164.94C146.984 2166.04 150.073 2164.53 152.456 2161.56C154.838 2158.6 155.612 2155.3 154.184 2154.2Z" fill="#F08200"/>
<path d="M163.358 2157.13C161.554 2156.88 159.629 2159.7 159.058 2163.42C158.487 2167.14 159.486 2170.36 161.29 2170.61C163.093 2170.87 165.018 2168.05 165.589 2164.33C166.16 2160.6 165.161 2157.38 163.358 2157.13Z" fill="#F08200"/>
<path d="M147.919 2145.59C147.045 2144.03 143.612 2144.24 140.249 2146.08C136.887 2147.91 134.868 2150.66 135.742 2152.22C136.615 2153.79 140.049 2153.57 143.411 2151.74C146.774 2149.91 148.792 2147.15 147.919 2145.59Z" fill="#F08200"/>
<path d="M144.264 2132.62C140.526 2131.83 137.174 2132.62 136.778 2134.37C136.383 2136.13 139.093 2138.18 142.832 2138.96C146.571 2139.74 149.923 2138.95 150.318 2137.2C150.714 2135.45 148.003 2133.4 144.264 2132.62Z" fill="#F08200"/>
</g>
<g clip-path="url(#clip40_352_7332)">
<path d="M46.2033 2154.93C44.5128 2156.1 44.0049 2158.64 45.1268 2160.37C46.9847 2163.24 52.0486 2163.26 53.1398 2166.48C53.809 2168.45 52.4321 2170.63 50.5003 2171.47C48.5686 2172.31 46.3717 2172.08 44.3439 2171.51C41.1454 2170.6 38.1886 2168.93 35.3102 2167.23C32.7335 2165.74 29.8492 2163.86 29.4158 2160.94C29.0425 2158.54 30.51 2156.27 32.0559 2154.41C34.1573 2151.93 36.6569 2149.72 39.3917 2147.89C40.8648 2146.9 42.4706 2146.01 44.2211 2145.79C46.0077 2145.59 47.9811 2146.25 48.8798 2147.76C49.6941 2149.1 49.4701 2150.85 48.6488 2152.17C47.8214 2153.53 46.6621 2154.64 46.2033 2154.93Z" fill="#F08200"/>
<path d="M28.3285 2166.81C27.4531 2165.23 24.0176 2165.4 20.6551 2167.18C17.2926 2168.96 15.2764 2171.68 16.1518 2173.26C17.0272 2174.83 20.4627 2174.67 23.8252 2172.89C27.1877 2171.11 29.2039 2168.38 28.3285 2166.81Z" fill="#F08200"/>
<path d="M35.5919 2173.13C34.035 2172.19 31.1523 2174.01 29.1532 2177.2C27.154 2180.4 26.7955 2183.75 28.3524 2184.7C29.9093 2185.64 32.792 2183.82 34.7911 2180.62C36.7903 2177.43 37.1488 2174.08 35.5919 2173.13Z" fill="#F08200"/>
<path d="M25.9857 2156.42C25.8034 2154.64 22.5644 2153.48 18.7514 2153.83C14.9384 2154.18 11.9952 2155.91 12.1776 2157.69C12.36 2159.47 15.5989 2160.63 19.4119 2160.28C23.2249 2159.93 26.1681 2158.2 25.9857 2156.42Z" fill="#F08200"/>
<path d="M27.7693 2143.06C24.6453 2140.86 21.256 2140.26 20.199 2141.71C19.1421 2143.16 20.8177 2146.12 23.9417 2148.32C27.0657 2150.52 30.455 2151.12 31.5119 2149.67C32.5689 2148.22 30.8932 2145.26 27.7693 2143.06Z" fill="#F08200"/>
</g>
<g clip-path="url(#clip41_352_7332)">
<path d="M93.1798 2056.04C91.4894 2057.22 90.9814 2059.76 92.1034 2061.48C93.9613 2064.35 99.0252 2064.38 100.116 2067.59C100.786 2069.57 99.4086 2071.74 97.4769 2072.58C95.5451 2073.42 93.3483 2073.19 91.3205 2072.63C88.1219 2071.72 85.1651 2070.05 82.2868 2068.35C79.7101 2066.85 76.8258 2064.97 76.3924 2062.05C76.0191 2059.65 77.4866 2057.38 79.0325 2055.53C81.1338 2053.04 83.6334 2050.84 86.3683 2049.01C87.8414 2048.02 89.4472 2047.12 91.1976 2046.91C92.9843 2046.7 94.9577 2047.37 95.8564 2048.87C96.6707 2050.21 96.4467 2051.96 95.6253 2053.29C94.7979 2054.64 93.6387 2055.76 93.1798 2056.04Z" fill="#F08200"/>
<path d="M75.305 2067.92C74.4296 2066.35 70.9941 2066.51 67.6316 2068.29C64.2691 2070.07 62.253 2072.79 63.1283 2074.37C64.0037 2075.95 67.4392 2075.78 70.8017 2074C74.1642 2072.22 76.1804 2069.5 75.305 2067.92Z" fill="#F08200"/>
<path d="M82.5685 2074.25C81.0116 2073.3 78.1289 2075.13 76.1297 2078.32C74.1306 2081.51 73.7721 2084.87 75.329 2085.81C76.8858 2086.75 79.7686 2084.93 81.7677 2081.74C83.7668 2078.55 84.1253 2075.19 82.5685 2074.25Z" fill="#F08200"/>
<path d="M72.9623 2057.54C72.7799 2055.75 69.541 2054.59 65.728 2054.94C61.915 2055.29 58.9718 2057.02 59.1541 2058.8C59.3365 2060.59 62.5754 2061.75 66.3885 2061.4C70.2015 2061.05 73.1447 2059.32 72.9623 2057.54Z" fill="#F08200"/>
<path d="M74.7458 2044.18C71.6218 2041.98 68.2325 2041.37 67.1756 2042.82C66.1186 2044.28 67.7943 2047.24 70.9183 2049.43C74.0422 2051.63 77.4315 2052.24 78.4885 2050.78C79.5454 2049.33 77.8698 2046.37 74.7458 2044.18Z" fill="#F08200"/>
</g>
<g clip-path="url(#clip42_352_7332)">
<path d="M661.586 1786.01C661.269 1788.04 662.759 1790.16 664.782 1790.54C668.143 1791.18 671.652 1787.52 674.734 1788.95C676.626 1789.83 677.251 1792.33 676.527 1794.3C675.802 1796.28 674.121 1797.71 672.314 1798.79C669.449 1800.48 666.199 1801.47 662.986 1802.39C660.124 1803.22 656.775 1804.01 654.36 1802.31C652.365 1800.93 651.734 1798.3 651.457 1795.9C651.104 1792.66 651.233 1789.33 651.791 1786.09C652.09 1784.34 652.55 1782.56 653.603 1781.15C654.685 1779.71 656.528 1778.74 658.237 1779.13C659.771 1779.46 660.884 1780.83 661.274 1782.34C661.685 1783.87 661.694 1785.48 661.586 1786.01Z" fill="#F08200"/>
<path d="M657.863 1807.15C656.118 1806.7 653.869 1809.3 652.84 1812.96C651.81 1816.62 652.39 1819.96 654.136 1820.41C655.881 1820.87 658.13 1818.26 659.159 1814.6C660.189 1810.94 659.608 1807.6 657.863 1807.15Z" fill="#F08200"/>
<path d="M667.452 1806.25C665.695 1806.73 665.027 1810.07 665.961 1813.72C666.895 1817.37 669.077 1819.94 670.834 1819.47C672.591 1818.99 673.259 1815.64 672.325 1811.99C671.391 1808.34 669.209 1805.77 667.452 1806.25Z" fill="#F08200"/>
<path d="M648.725 1801.68C647.309 1800.59 644.235 1802.13 641.859 1805.13C639.483 1808.14 638.705 1811.46 640.122 1812.56C641.538 1813.65 644.612 1812.11 646.988 1809.11C649.364 1806.1 650.142 1802.78 648.725 1801.68Z" fill="#F08200"/>
<path d="M640.279 1791.18C636.533 1791.92 633.758 1793.96 634.081 1795.73C634.403 1797.49 637.701 1798.32 641.447 1797.57C645.193 1796.83 647.968 1794.79 647.645 1793.02C647.323 1791.26 644.025 1790.43 640.279 1791.18Z" fill="#F08200"/>
</g>
<g clip-path="url(#clip43_352_7332)">
<path d="M669.288 1661.79C669.588 1663.83 671.64 1665.41 673.684 1665.17C677.082 1664.78 679.351 1660.26 682.717 1660.7C684.785 1660.98 686.122 1663.18 686.016 1665.28C685.911 1667.39 684.731 1669.25 683.324 1670.82C681.089 1673.28 678.278 1675.19 675.481 1677.02C672.995 1678.66 670.031 1680.41 667.221 1679.5C664.905 1678.77 663.523 1676.45 662.548 1674.24C661.251 1671.26 660.387 1668.04 659.958 1664.77C659.724 1663.01 659.636 1661.18 660.222 1659.52C660.83 1657.82 662.302 1656.35 664.049 1656.21C665.614 1656.08 667.083 1657.06 667.901 1658.38C668.749 1659.72 669.235 1661.26 669.288 1661.79Z" fill="#F08200"/>
<path d="M672.001 1683.08C670.2 1683.17 668.824 1686.32 668.927 1690.13C669.03 1693.93 670.573 1696.94 672.374 1696.86C674.175 1696.77 675.552 1693.62 675.449 1689.82C675.346 1686.01 673.802 1683 672.001 1683.08Z" fill="#F08200"/>
<path d="M680.892 1679.38C679.355 1680.36 679.709 1683.75 681.683 1686.96C683.657 1690.17 686.503 1691.98 688.04 1691C689.577 1690.03 689.223 1686.63 687.249 1683.42C685.275 1680.22 682.429 1678.41 680.892 1679.38Z" fill="#F08200"/>
<path d="M661.653 1680.57C659.976 1679.95 657.498 1682.33 656.119 1685.91C654.741 1689.48 654.983 1692.88 656.661 1693.51C658.339 1694.14 660.816 1691.75 662.195 1688.18C663.574 1684.61 663.331 1681.2 661.653 1680.57Z" fill="#F08200"/>
<path d="M650.472 1673.05C647.116 1674.87 645.07 1677.64 645.901 1679.23C646.733 1680.82 650.128 1680.63 653.484 1678.81C656.84 1676.99 658.886 1674.22 658.054 1672.62C657.222 1671.03 653.827 1671.22 650.472 1673.05Z" fill="#F08200"/>
</g>
<g clip-path="url(#clip44_352_7332)">
<path d="M554.416 1649.34C555.099 1651.28 557.416 1652.44 559.376 1651.82C562.637 1650.78 563.999 1645.9 567.389 1645.7C569.471 1645.58 571.204 1647.48 571.503 1649.57C571.801 1651.65 571 1653.71 569.919 1655.52C568.196 1658.36 565.801 1660.77 563.405 1663.1C561.28 1665.19 558.705 1667.47 555.773 1667.12C553.36 1666.84 551.56 1664.83 550.181 1662.85C548.336 1660.16 546.873 1657.17 545.827 1654.05C545.262 1652.37 544.824 1650.58 545.081 1648.84C545.354 1647.06 546.517 1645.33 548.205 1644.86C549.716 1644.43 551.345 1645.11 552.401 1646.25C553.49 1647.41 554.261 1648.82 554.416 1649.34Z" fill="#F08200"/>
<path d="M561.15 1669.72C559.398 1670.15 558.65 1673.5 559.478 1677.22C560.307 1680.93 562.398 1683.59 564.149 1683.17C565.901 1682.74 566.649 1679.38 565.821 1675.67C564.992 1671.95 562.901 1669.29 561.15 1669.72Z" fill="#F08200"/>
<path d="M569.168 1664.38C567.846 1665.64 568.843 1668.9 571.394 1671.67C573.945 1674.44 577.085 1675.67 578.407 1674.42C579.729 1673.17 578.732 1669.91 576.181 1667.14C573.63 1664.37 570.49 1663.13 569.168 1664.38Z" fill="#F08200"/>
<path d="M550.513 1669.23C548.746 1668.94 546.771 1671.76 546.1 1675.53C545.43 1679.3 546.319 1682.59 548.086 1682.89C549.853 1683.18 551.828 1680.36 552.498 1676.59C553.169 1672.82 552.279 1669.53 550.513 1669.23Z" fill="#F08200"/>
<path d="M538.097 1663.98C535.152 1666.41 533.673 1669.52 534.794 1670.93C535.915 1672.33 539.211 1671.5 542.157 1669.06C545.102 1666.63 546.581 1663.52 545.46 1662.12C544.339 1660.72 541.043 1661.55 538.097 1663.98Z" fill="#F08200"/>
</g>
<g clip-path="url(#clip45_352_7332)">
<path d="M595.161 1561.56C596.781 1562.83 599.359 1562.56 600.674 1560.98C602.867 1558.35 601.39 1553.51 604.138 1551.52C605.827 1550.29 608.312 1550.96 609.685 1552.56C611.058 1554.16 611.491 1556.32 611.552 1558.43C611.63 1561.75 610.908 1565.07 610.142 1568.32C609.474 1571.23 608.534 1574.54 605.872 1575.82C603.69 1576.88 601.089 1576.15 598.861 1575.23C595.861 1573.96 593.017 1572.22 590.456 1570.15C589.074 1569.04 587.744 1567.77 587.023 1566.16C586.297 1564.52 586.347 1562.44 587.517 1561.13C588.559 1559.96 590.298 1559.65 591.802 1560.04C593.342 1560.43 594.751 1561.21 595.161 1561.56Z" fill="#F08200"/>
<path d="M611.803 1575.12C610.557 1576.42 611.733 1579.65 614.429 1582.34C617.126 1585.02 620.322 1586.14 621.568 1584.84C622.814 1583.53 621.638 1580.3 618.942 1577.62C616.245 1574.93 613.049 1573.81 611.803 1575.12Z" fill="#F08200"/>
<path d="M615.691 1566.31C615.251 1568.07 617.846 1570.29 621.488 1571.25C625.13 1572.21 628.439 1571.56 628.88 1569.79C629.32 1568.03 626.725 1565.82 623.083 1564.85C619.441 1563.89 616.132 1564.54 615.691 1566.31Z" fill="#F08200"/>
<path d="M602.576 1580.43C600.929 1581.13 600.779 1584.57 602.243 1588.11C603.707 1591.65 606.23 1593.95 607.878 1593.24C609.525 1592.54 609.675 1589.1 608.211 1585.57C606.747 1582.03 604.224 1579.73 602.576 1580.43Z" fill="#F08200"/>
<path d="M589.286 1582.69C588.112 1586.32 588.539 1589.74 590.238 1590.32C591.938 1590.9 594.268 1588.42 595.441 1584.78C596.615 1581.15 596.188 1577.73 594.489 1577.15C592.789 1576.57 590.46 1579.05 589.286 1582.69Z" fill="#F08200"/>
</g>
<g clip-path="url(#clip46_352_7332)">
<path d="M405.217 635.53C406.87 636.755 409.44 636.42 410.713 634.804C412.837 632.122 411.234 627.318 413.93 625.253C415.586 623.985 418.087 624.591 419.502 626.151C420.916 627.711 421.405 629.865 421.521 631.967C421.685 635.289 421.05 638.626 420.369 641.896C419.777 644.817 418.923 648.152 416.296 649.5C414.143 650.624 411.523 649.963 409.271 649.094C406.24 647.902 403.352 646.242 400.738 644.24C399.327 643.163 397.965 641.929 397.202 640.339C396.433 638.714 396.429 636.631 397.565 635.297C398.576 634.095 400.306 633.745 401.819 634.099C403.369 634.448 404.798 635.187 405.217 635.53Z" fill="#F08200"/>
<path d="M422.206 648.645C420.995 649.98 422.254 653.181 425.02 655.794C427.785 658.407 431.009 659.443 432.221 658.108C433.433 656.773 432.173 653.572 429.408 650.959C426.642 648.346 423.418 647.31 422.206 648.645Z" fill="#F08200"/>
<path d="M425.864 639.736C425.47 641.514 428.122 643.659 431.788 644.527C435.453 645.395 438.745 644.658 439.139 642.881C439.533 641.103 436.881 638.958 433.216 638.09C429.55 637.222 426.259 637.959 425.864 639.736Z" fill="#F08200"/>
<path d="M413.121 654.198C411.492 654.943 411.433 658.383 412.988 661.882C414.544 665.381 417.125 667.614 418.754 666.869C420.383 666.124 420.443 662.684 418.888 659.185C417.332 655.686 414.751 653.454 413.121 654.198Z" fill="#F08200"/>
<path d="M399.894 656.798C398.816 660.462 399.331 663.866 401.045 664.401C402.759 664.936 405.024 662.4 406.102 658.735C407.181 655.071 406.665 651.667 404.951 651.132C403.237 650.597 400.973 653.134 399.894 656.798Z" fill="#F08200"/>
</g>
<g clip-path="url(#clip47_352_7332)">
<path d="M562.079 779.828C562.474 781.846 564.598 783.332 566.628 782.996C570.004 782.447 572.059 777.819 575.443 778.11C577.521 778.291 578.96 780.424 578.953 782.53C578.945 784.636 577.854 786.557 576.523 788.187C574.405 790.751 571.686 792.788 568.978 794.744C566.572 796.503 563.693 798.39 560.844 797.615C558.496 796.993 557.007 794.739 555.93 792.579C554.494 789.655 553.48 786.482 552.899 783.241C552.583 781.494 552.409 779.665 552.917 777.976C553.445 776.257 554.846 774.716 556.584 774.497C558.142 774.29 559.655 775.198 560.534 776.48C561.444 777.782 562.001 779.292 562.079 779.828Z" fill="#F08200"/>
<path d="M565.786 800.968C563.991 801.137 562.763 804.35 563.044 808.144C563.325 811.939 565.008 814.877 566.803 814.708C568.598 814.539 569.825 811.326 569.545 807.532C569.264 803.738 567.581 800.799 565.786 800.968Z" fill="#F08200"/>
<path d="M574.493 796.854C573.004 797.901 573.516 801.273 575.639 804.385C577.761 807.498 580.688 809.172 582.178 808.125C583.667 807.078 583.155 803.706 581.033 800.594C578.911 797.481 575.983 795.807 574.493 796.854Z" fill="#F08200"/>
<path d="M555.332 798.944C553.627 798.396 551.263 800.897 550.053 804.53C548.844 808.163 549.245 811.552 550.95 812.1C552.656 812.648 555.019 810.148 556.229 806.515C557.439 802.882 557.037 799.493 555.332 798.944Z" fill="#F08200"/>
<path d="M543.81 791.948C540.543 793.927 538.629 796.788 539.534 798.339C540.44 799.89 543.822 799.543 547.089 797.564C550.356 795.585 552.27 792.723 551.364 791.172C550.459 789.621 547.077 789.969 543.81 791.948Z" fill="#F08200"/>
</g>
<g clip-path="url(#clip48_352_7332)">
<path d="M510.35 688.125C511.625 689.739 514.193 690.087 515.844 688.86C518.595 686.827 518.303 681.771 521.444 680.481C523.375 679.69 525.631 680.929 526.588 682.805C527.546 684.68 527.455 686.887 527.017 688.946C526.308 692.195 524.824 695.251 523.311 698.229C521.976 700.894 520.281 703.89 517.392 704.505C515.021 705.027 512.665 703.704 510.718 702.277C508.103 700.335 505.75 697.977 503.749 695.362C502.669 693.954 501.677 692.407 501.355 690.673C501.038 688.903 501.579 686.892 503.024 685.901C504.314 685.004 506.075 685.119 507.444 685.856C508.848 686.597 510.035 687.685 510.35 688.125Z" fill="#F08200"/>
<path d="M523.322 705.224C521.803 706.196 522.183 709.614 524.169 712.859C526.156 716.104 528.997 717.947 530.516 716.975C532.034 716.003 531.655 712.584 529.668 709.339C527.682 706.094 524.84 704.252 523.322 705.224Z" fill="#F08200"/>
<path d="M529.18 697.58C528.335 699.193 530.334 701.956 533.645 703.752C536.957 705.549 540.326 705.697 541.171 704.084C542.017 702.472 540.017 699.708 536.706 697.912C533.394 696.116 530.025 695.967 529.18 697.58Z" fill="#F08200"/>
<path d="M513.101 708.21C511.334 708.503 510.377 711.808 510.964 715.592C511.552 719.376 513.46 722.205 515.227 721.912C516.994 721.619 517.951 718.314 517.364 714.53C516.776 710.747 514.868 707.917 513.101 708.21Z" fill="#F08200"/>
<path d="M499.654 707.263C497.655 710.518 497.263 713.939 498.778 714.903C500.293 715.867 503.141 714.01 505.14 710.755C507.139 707.5 507.531 704.08 506.016 703.116C504.501 702.151 501.653 704.008 499.654 707.263Z" fill="#F08200"/>
</g>
</g>
<defs>
<clipPath id="clip0_352_7332">
<rect width="42.307" height="42.307" fill="white" transform="translate(18.2241 225.698) rotate(141)"/>
</clipPath>
<clipPath id="clip1_352_7332">
<rect width="42.307" height="42.307" fill="white" transform="translate(161.737 275.804) rotate(154.808)"/>
</clipPath>
<clipPath id="clip2_352_7332">
<rect width="42.307" height="42.307" fill="white" transform="translate(128.075 373.526) rotate(154.808)"/>
</clipPath>
<clipPath id="clip3_352_7332">
<rect width="42.307" height="42.307" fill="white" transform="translate(253.569 456.357) rotate(163.764)"/>
</clipPath>
<clipPath id="clip4_352_7332">
<rect width="42.307" height="42.307" fill="white" transform="translate(295.611 341.931) rotate(163.764)"/>
</clipPath>
<clipPath id="clip5_352_7332">
<rect width="42.307" height="42.307" fill="white" transform="translate(381.23 445.522) rotate(163.764)"/>
</clipPath>
<clipPath id="clip6_352_7332">
<rect width="42.307" height="42.307" fill="white" transform="translate(337.521 554.942) rotate(163.764)"/>
</clipPath>
<clipPath id="clip7_352_7332">
<rect width="42.307" height="42.307" fill="white" transform="translate(490.913 543.119) rotate(170.955)"/>
</clipPath>
<clipPath id="clip8_352_7332">
<rect width="42.307" height="42.307" fill="white" transform="translate(615.013 621.337) rotate(170.955)"/>
</clipPath>
<clipPath id="clip9_352_7332">
<rect width="42.307" height="42.307" fill="white" transform="translate(665 729.453) rotate(-162.507)"/>
</clipPath>
<clipPath id="clip10_352_7332">
<rect width="42.307" height="42.307" fill="white" transform="translate(668.431 884.083) rotate(-145.985)"/>
</clipPath>
<clipPath id="clip11_352_7332">
<rect width="42.307" height="42.307" fill="white" transform="translate(571.007 1011.5) rotate(-127.738)"/>
</clipPath>
<clipPath id="clip12_352_7332">
<rect width="42.307" height="42.307" fill="white" transform="translate(456.113 943.571) rotate(-127.738)"/>
</clipPath>
<clipPath id="clip13_352_7332">
<rect width="42.307" height="42.307" fill="white" transform="translate(324.443 996.732) rotate(-112.88)"/>
</clipPath>
<clipPath id="clip14_352_7332">
<rect width="42.307" height="42.307" fill="white" transform="translate(449.744 1066.48) rotate(-112.88)"/>
</clipPath>
<clipPath id="clip15_352_7332">
<rect width="42.307" height="42.307" fill="white" transform="translate(326.334 1127.04) rotate(-104.252)"/>
</clipPath>
<clipPath id="clip16_352_7332">
<rect width="42.307" height="42.307" fill="white" transform="translate(198.697 1044.92) rotate(-104.252)"/>
</clipPath>
<clipPath id="clip17_352_7332">
<rect width="42.307" height="42.307" fill="white" transform="translate(174.726 1187.05) rotate(-104.252)"/>
</clipPath>
<clipPath id="clip18_352_7332">
<rect width="42.307" height="42.307" fill="white" transform="translate(46.6533 1116.17) rotate(-112.942)"/>
</clipPath>
<clipPath id="clip19_352_7332">
<rect width="42.307" height="42.307" fill="white" transform="translate(44.9272 1230.73) rotate(-112.942)"/>
</clipPath>
<clipPath id="clip20_352_7332">
<rect width="42.307" height="42.307" fill="white" transform="translate(10.8584 1367.75) rotate(156.534)"/>
</clipPath>
<clipPath id="clip21_352_7332">
<rect width="42.307" height="42.307" fill="white" transform="translate(103.924 1401.96) rotate(129.851)"/>
</clipPath>
<clipPath id="clip22_352_7332">
<rect width="42.307" height="42.307" fill="white" transform="translate(32.7476 1478.35) rotate(147.042)"/>
</clipPath>
<clipPath id="clip23_352_7332">
<rect width="42.307" height="42.307" fill="white" transform="translate(246.903 1414.02) rotate(129.851)"/>
</clipPath>
<clipPath id="clip24_352_7332">
<rect width="42.307" height="42.307" fill="white" transform="translate(161.63 1484.32) rotate(131.351)"/>
</clipPath>
<clipPath id="clip25_352_7332">
<rect width="42.307" height="42.307" fill="white" transform="translate(309.977 1504.47) rotate(146.91)"/>
</clipPath>
<clipPath id="clip26_352_7332">
<rect width="42.307" height="42.307" fill="white" transform="translate(403.077 1450.5) rotate(146.91)"/>
</clipPath>
<clipPath id="clip27_352_7332">
<rect width="42.307" height="42.307" fill="white" transform="translate(532.05 1492.57) rotate(166.519)"/>
</clipPath>
<clipPath id="clip28_352_7332">
<rect width="42.307" height="42.307" fill="white" transform="translate(451.123 1543.86) rotate(166.519)"/>
</clipPath>
<clipPath id="clip29_352_7332">
<rect width="42.307" height="42.307" fill="white" transform="translate(532.088 1607.45) rotate(172.447)"/>
</clipPath>
<clipPath id="clip30_352_7332">
<rect width="42.307" height="42.307" fill="white" transform="translate(554.376 1809.44) rotate(-126.725)"/>
</clipPath>
<clipPath id="clip31_352_7332">
<rect width="42.307" height="42.307" fill="white" transform="translate(486.979 1885.62) rotate(-116.528)"/>
</clipPath>
<clipPath id="clip32_352_7332">
<rect width="42.307" height="42.307" fill="white" transform="translate(579.919 1926.88) rotate(-116.528)"/>
</clipPath>
<clipPath id="clip33_352_7332">
<rect width="42.307" height="42.307" fill="white" transform="translate(487.324 1989.69) rotate(-116.528)"/>
</clipPath>
<clipPath id="clip34_352_7332">
<rect width="42.307" height="42.307" fill="white" transform="translate(382.088 1959) rotate(-103.654)"/>
</clipPath>
<clipPath id="clip35_352_7332">
<rect width="42.307" height="42.307" fill="white" transform="translate(392.213 2066.31) rotate(-103.654)"/>
</clipPath>
<clipPath id="clip36_352_7332">
<rect width="42.307" height="42.307" fill="white" transform="translate(272.362 2008.03) rotate(-103.654)"/>
</clipPath>
<clipPath id="clip37_352_7332">
<rect width="42.307" height="42.307" fill="white" transform="translate(265.316 2119.82) rotate(-103.654)"/>
</clipPath>
<clipPath id="clip38_352_7332">
<rect width="42.307" height="42.307" fill="white" transform="translate(164.6 2065.51) rotate(-103.654)"/>
</clipPath>
<clipPath id="clip39_352_7332">
<rect width="42.307" height="42.307" fill="white" transform="translate(141.355 2175.57) rotate(-103.654)"/>
</clipPath>
<clipPath id="clip40_352_7332">
<rect width="42.307" height="42.307" fill="white" transform="translate(8.08398 2181.35) rotate(-80.3221)"/>
</clipPath>
<clipPath id="clip41_352_7332">
<rect width="42.307" height="42.307" fill="white" transform="translate(55.0605 2082.47) rotate(-80.3221)"/>
</clipPath>
<clipPath id="clip42_352_7332">
<rect width="42.307" height="42.307" fill="white" transform="translate(654.438 1831.84) rotate(-126.725)"/>
</clipPath>
<clipPath id="clip43_352_7332">
<rect width="42.307" height="42.307" fill="white" transform="translate(676.051 1707.68) rotate(-143.974)"/>
</clipPath>
<clipPath id="clip44_352_7332">
<rect width="42.307" height="42.307" fill="white" transform="translate(569.828 1693.09) rotate(-154.998)"/>
</clipPath>
<clipPath id="clip45_352_7332">
<rect width="42.307" height="42.307" fill="white" transform="translate(631.693 1590.14) rotate(172.447)"/>
</clipPath>
<clipPath id="clip46_352_7332">
<rect width="42.307" height="42.307" fill="white" transform="translate(442.481 663.149) rotate(170.955)"/>
</clipPath>
<clipPath id="clip47_352_7332">
<rect width="42.307" height="42.307" fill="white" transform="translate(570.982 825.348) rotate(-146.657)"/>
</clipPath>
<clipPath id="clip48_352_7332">
<rect width="42.307" height="42.307" fill="white" transform="translate(539.102 724.522) rotate(-173.898)"/>
</clipPath>
</defs>
</svg>
