<svg width="744" height="723" viewBox="0 0 744 723" fill="none" xmlns="http://www.w3.org/2000/svg">
<g clip-path="url(#clip0_352_6189)">
<path d="M783.536 897.343C780.167 824.759 769.235 751.051 736.495 686.18C703.755 621.309 646.517 565.912 575.661 549.061C511.504 533.798 444.521 550.887 380.818 568.124C317.124 585.367 250.388 602.96 186.006 588.667C121.627 574.382 61.7598 516.703 69.4462 451.341C72.4044 426.159 84.8595 401.401 79.9156 376.542C71.4913 334.176 20.0185 317.037 -5.7591 282.357C-45.8858 228.365 -7.84943 144.31 53.6686 116.694C115.187 89.0785 187.366 103.508 250.292 127.576C313.218 151.644 373.494 185.093 440.069 195.681C464.506 199.567 490.73 200.007 512.709 188.621C533.428 177.889 547.639 158.184 562.344 140.099C607.046 85.132 666.32 38.0216 736.113 25.4295C850.702 4.75018 964.443 84.2869 1020.38 186.042C1076.32 287.79 1087.19 407.38 1096.29 523.121" fill="#FFE999"/>
<path d="M120.741 682.554C138.302 679.962 159.351 674.485 164.183 657.447C167.094 647.182 162.314 635.81 154.256 628.809C146.197 621.809 135.418 618.647 124.778 617.594C107.758 615.908 89.4588 619.66 76.9002 631.255C64.3415 642.849 59.419 663.261 68.5318 677.688C77.6446 692.114 101.673 695.266 120.743 682.561L120.741 682.554Z" fill="#FFE999"/>
</g>
<defs>
<clipPath id="clip0_352_6189">
<rect width="752" height="723" fill="white" transform="translate(751 723) rotate(-180)"/>
</clipPath>
</defs>
</svg>
