<svg width="65" height="66" viewBox="0 0 65 66" fill="none" xmlns="http://www.w3.org/2000/svg">
<path d="M63.4968 34.0139C63.4968 16.6213 49.5769 2.52954 32.3964 2.52954C15.2159 2.52954 1.29596 16.6213 1.29596 34.0139C1.29596 49.7282 12.6689 62.7536 27.5369 65.1174V43.1152H19.6364V34.0139H27.5369V27.0772C27.5369 19.1871 32.1769 14.8288 39.2836 14.8288C42.6871 14.8288 46.2461 15.4432 46.2461 15.4432V23.1874H42.3234C38.461 23.1874 37.2558 25.6147 37.2558 28.1042V34.0139H45.8812L44.5017 43.1152H37.2558V65.1174C52.1238 62.7536 63.4968 49.7282 63.4968 34.0139Z" fill="url(#paint0_linear_59_256)"/>
<defs>
<linearGradient id="paint0_linear_59_256" x1="61.8066" y1="65.1174" x2="-0.534428" y2="56.5684" gradientUnits="userSpaceOnUse">
<stop offset="0.0208784" stop-color="#9D3C27"/>
<stop offset="1" stop-color="#E28800"/>
</linearGradient>
</defs>
</svg>
