<svg width="96" height="97" viewBox="0 0 96 97" fill="none" xmlns="http://www.w3.org/2000/svg">
<g filter="url(#filter0_d_59_269)">
<path d="M47.7549 29.3351C38.84 29.3351 31.6492 36.5714 31.6492 45.5427C31.6492 54.5141 38.84 61.7504 47.7549 61.7504C56.6699 61.7504 63.8607 54.5141 63.8607 45.5427C63.8607 36.5714 56.6699 29.3351 47.7549 29.3351ZM47.7549 56.0798C41.9939 56.0798 37.2841 51.3544 37.2841 45.5427C37.2841 39.7311 41.9798 35.0056 47.7549 35.0056C53.53 35.0056 58.2258 39.7311 58.2258 45.5427C58.2258 51.3544 53.516 56.0798 47.7549 56.0798ZM68.2761 28.6721C68.2761 30.7739 66.594 32.4525 64.5195 32.4525C62.4309 32.4525 60.7629 30.7598 60.7629 28.6721C60.7629 26.5844 62.4449 24.8917 64.5195 24.8917C66.594 24.8917 68.2761 26.5844 68.2761 28.6721ZM78.9432 32.5089C78.7049 27.4449 77.5555 22.9592 73.8689 19.2634C70.1964 15.5677 65.739 14.411 60.7068 14.1571C55.5204 13.8609 39.9754 13.8609 34.789 14.1571C29.7709 14.3969 25.3134 15.5536 21.6269 19.2493C17.9404 22.9451 16.805 27.4308 16.5527 32.4948C16.2583 37.714 16.2583 53.3574 16.5527 58.5766C16.791 63.6406 17.9404 68.1263 21.6269 71.822C25.3134 75.5178 29.7569 76.6745 34.789 76.9284C39.9754 77.2246 55.5204 77.2246 60.7068 76.9284C65.739 76.6886 70.1964 75.5319 73.8689 71.822C77.5414 68.1263 78.6909 63.6406 78.9432 58.5766C79.2375 53.3574 79.2375 37.7281 78.9432 32.5089ZM72.243 64.1766C71.1496 66.9414 69.033 69.0714 66.2716 70.1857C62.1366 71.8361 52.3245 71.4553 47.7549 71.4553C43.1853 71.4553 33.3593 71.822 29.2382 70.1857C26.4908 69.0855 24.3743 66.9555 23.2669 64.1766C21.6269 60.0154 22.0054 50.1413 22.0054 45.5427C22.0054 40.9442 21.6409 31.056 23.2669 26.9088C24.3602 24.1441 26.4768 22.0141 29.2382 20.8997C33.3733 19.2493 43.1853 19.6302 47.7549 19.6302C52.3245 19.6302 62.1506 19.2634 66.2716 20.8997C69.019 22 71.1356 24.13 72.243 26.9088C73.883 31.0701 73.5045 40.9442 73.5045 45.5427C73.5045 50.1413 73.883 60.0295 72.243 64.1766Z" fill="url(#paint0_linear_59_269)"/>
<path d="M47.7549 27.8351C38.0027 27.8351 30.1492 35.7519 30.1492 45.5427C30.1492 55.3336 38.0027 63.2504 47.7549 63.2504C57.5072 63.2504 65.3607 55.3336 65.3607 45.5427C65.3607 35.7519 57.5072 27.8351 47.7549 27.8351ZM47.7549 54.5798C42.8299 54.5798 38.7841 50.5336 38.7841 45.5427C38.7841 40.5506 42.8172 36.5056 47.7549 36.5056C52.6927 36.5056 56.7258 40.5506 56.7258 45.5427C56.7258 50.5336 52.68 54.5798 47.7549 54.5798ZM64.5195 33.9525C67.4277 33.9525 69.7761 31.597 69.7761 28.6721C69.7761 25.7649 67.4314 23.3917 64.5195 23.3917C61.6076 23.3917 59.2629 25.7649 59.2629 28.6721C59.2629 31.5756 61.5899 33.9525 64.5195 33.9525ZM80.4412 32.4317C80.1933 27.182 78.9853 22.2692 74.9319 18.2051C70.8919 14.1402 66.0065 12.9232 60.7874 12.6593C55.5415 12.3602 39.959 12.3602 34.7105 12.6591C29.5012 12.909 24.6177 14.1271 20.5649 18.19C16.5089 22.2562 15.3166 27.1712 15.0548 32.4152C14.7576 37.6932 14.7576 53.3734 15.0547 58.6541C15.3026 63.9041 16.5108 68.8171 20.5649 72.8814C24.6176 76.9442 29.4867 78.1621 34.7083 78.4262C39.954 78.7253 55.5367 78.7253 60.7853 78.4263C66.0072 78.1766 70.8939 76.9589 74.9339 72.8783C78.9716 68.8146 80.179 63.9033 80.441 58.6566C80.7382 53.3792 80.7382 37.7128 80.4412 32.4317ZM70.8481 63.625C69.9066 66.0058 68.093 67.8322 65.7137 68.7934C63.9257 69.5063 60.6975 69.8282 57.1292 69.9401C54.629 70.0186 52.1252 69.993 50.0447 69.9718C49.2027 69.9632 48.43 69.9553 47.7549 69.9553C47.0938 69.9553 46.338 69.9626 45.5146 69.9705C43.4236 69.9907 40.8965 70.0152 38.3761 69.9349C34.8058 69.8212 31.5764 69.4994 29.794 68.7925C27.4346 67.847 25.6185 66.0238 24.6614 63.624C23.9514 61.8202 23.6316 58.5674 23.5204 54.9772C23.4424 52.4606 23.4679 49.9399 23.489 47.8461C23.4975 46.9989 23.5054 46.2216 23.5054 45.5427C23.5054 44.8779 23.4981 44.1176 23.4902 43.2892C23.4701 41.1848 23.4458 38.6407 23.5256 36.1037C23.6386 32.5109 23.9584 29.2564 24.6626 27.4584C25.6044 25.0784 27.4179 23.2527 29.7968 22.2918C31.5849 21.5791 34.8128 21.2573 38.3807 21.1453C40.8808 21.0669 43.3846 21.0925 45.4651 21.1137C46.3072 21.1223 47.0799 21.1302 47.7549 21.1302C48.4161 21.1302 49.1718 21.1229 49.9952 21.1149C52.0863 21.0947 54.6133 21.0703 57.1337 21.1506C60.704 21.2643 63.9334 21.586 65.7158 22.293C68.0753 23.2384 69.8914 25.0617 70.8485 27.4616C71.5584 29.2654 71.8782 32.5181 71.9894 36.1083C72.0674 38.6249 72.042 41.1456 72.0209 43.2394C72.0123 44.0866 72.0045 44.8639 72.0045 45.5427C72.0045 46.2215 72.0123 46.9989 72.0209 47.8463C72.042 49.9414 72.0674 52.4644 71.9894 54.9825C71.8782 58.5771 71.558 61.8299 70.8481 63.625Z" stroke="white" stroke-width="3" stroke-linecap="round"/>
</g>
<defs>
<filter id="filter0_d_59_269" x="0.331894" y="0.934937" width="94.832" height="95.2156" filterUnits="userSpaceOnUse" color-interpolation-filters="sRGB">
<feFlood flood-opacity="0" result="BackgroundImageFix"/>
<feColorMatrix in="SourceAlpha" type="matrix" values="0 0 0 0 0 0 0 0 0 0 0 0 0 0 0 0 0 0 127 0" result="hardAlpha"/>
<feOffset dy="3"/>
<feGaussianBlur stdDeviation="6.5"/>
<feColorMatrix type="matrix" values="0 0 0 0 1 0 0 0 0 1 0 0 0 0 1 0 0 0 1 0"/>
<feBlend mode="normal" in2="BackgroundImageFix" result="effect1_dropShadow_59_269"/>
<feBlend mode="normal" in="SourceGraphic" in2="effect1_dropShadow_59_269" result="shape"/>
</filter>
<linearGradient id="paint0_linear_59_269" x1="77.4565" y1="77.1505" x2="14.4832" y2="68.5137" gradientUnits="userSpaceOnUse">
<stop stop-color="#E28800"/>
<stop offset="1" stop-color="#FFD828"/>
</linearGradient>
</defs>
</svg>
