<svg width="65" height="67" viewBox="0 0 65 67" fill="none" xmlns="http://www.w3.org/2000/svg">
<g clip-path="url(#clip0_59_258)">
<path d="M32.7549 17.3351C23.84 17.3351 16.6492 24.5714 16.6492 33.5427C16.6492 42.5141 23.84 49.7504 32.7549 49.7504C41.6699 49.7504 48.8607 42.5141 48.8607 33.5427C48.8607 24.5714 41.6699 17.3351 32.7549 17.3351ZM32.7549 44.0798C26.9939 44.0798 22.2841 39.3544 22.2841 33.5427C22.2841 27.7311 26.9798 23.0056 32.7549 23.0056C38.53 23.0056 43.2258 27.7311 43.2258 33.5427C43.2258 39.3544 38.516 44.0798 32.7549 44.0798ZM53.2761 16.6721C53.2761 18.7739 51.594 20.4525 49.5195 20.4525C47.4309 20.4525 45.7629 18.7598 45.7629 16.6721C45.7629 14.5844 47.4449 12.8917 49.5195 12.8917C51.594 12.8917 53.2761 14.5844 53.2761 16.6721ZM63.9432 20.5089C63.7049 15.4449 62.5555 10.9592 58.8689 7.26344C55.1964 3.56769 50.739 2.41101 45.7068 2.1571C40.5204 1.86088 24.9754 1.86088 19.789 2.1571C14.7709 2.3969 10.3134 3.55359 6.62689 7.24934C2.94037 10.9451 1.80497 15.4308 1.55266 20.4948C1.2583 25.714 1.2583 41.3574 1.55266 46.5766C1.79096 51.6406 2.94037 56.1263 6.62689 59.822C10.3134 63.5178 14.7569 64.6745 19.789 64.9284C24.9754 65.2246 40.5204 65.2246 45.7068 64.9284C50.739 64.6886 55.1964 63.5319 58.8689 59.822C62.5414 56.1263 63.6909 51.6406 63.9432 46.5766C64.2375 41.3574 64.2375 25.7281 63.9432 20.5089ZM57.243 52.1766C56.1496 54.9414 54.033 57.0714 51.2716 58.1857C47.1366 59.8361 37.3245 59.4553 32.7549 59.4553C28.1853 59.4553 18.3593 59.822 14.2382 58.1857C11.4908 57.0855 9.37426 54.9555 8.2669 52.1766C6.62689 48.0154 7.00535 38.1413 7.00535 33.5427C7.00535 28.9442 6.6409 19.056 8.2669 14.9088C9.36024 12.1441 11.4768 10.0141 14.2382 8.89973C18.3733 7.24933 28.1853 7.63019 32.7549 7.63019C37.3245 7.63019 47.1506 7.26344 51.2716 8.89973C54.019 9.99999 56.1356 12.13 57.243 14.9088C58.883 19.0701 58.5045 28.9442 58.5045 33.5427C58.5045 38.1413 58.883 48.0295 57.243 52.1766Z" fill="url(#paint0_linear_59_258)"/>
</g>
<defs>
<linearGradient id="paint0_linear_59_258" x1="62.4565" y1="65.1505" x2="-0.516795" y2="56.5137" gradientUnits="userSpaceOnUse">
<stop offset="0.0208784" stop-color="#9D3C27"/>
<stop offset="1" stop-color="#E28800"/>
</linearGradient>
<clipPath id="clip0_59_258">
<rect width="63.3951" height="65" fill="white" transform="translate(1.13989 1.04272)"/>
</clipPath>
</defs>
</svg>
