<svg width="429" height="859" viewBox="0 0 429 859" fill="none" xmlns="http://www.w3.org/2000/svg">
<g clip-path="url(#clip0_378_11212)">
<path d="M578.256 1415C600.381 1307.85 611.89 1196.24 588.289 1089.4C564.688 982.56 501.817 880.416 404.719 829.435C316.802 783.268 212.71 783.246 113.349 784.664C13.9985 786.093 -89.9212 786.899 -178.527 742.064C-267.133 697.239 -332.99 590.787 -297.427 498.291C-283.73 462.653 -256.335 431.172 -254.288 393.063C-250.796 328.115 -319.508 283.935 -344.197 223.736C-382.627 130.015 -295.821 21.5528 -195.781 4.17969C-95.7406 -13.1936 4.19165 34.7466 87.0321 93.302C169.873 151.857 245.353 223.112 338.539 263.36C372.744 278.133 410.84 288.544 447.147 280.121C481.374 272.181 509.447 248.727 537.639 227.819C623.335 164.278 727.362 117.627 833.879 125.255C1008.76 137.772 1145.08 296.183 1188.79 465.478C1232.5 634.763 1203.8 813.287 1173.96 985.536" fill="#FFE999"/>
<path d="M361.838 108.365C393.532 108.956 425.658 76.6916 413.987 47.3064C409.364 35.6705 399.093 26.9785 387.767 21.5957C365.901 11.2276 338.075 12.6351 319.097 27.6231C300.12 42.6112 292.63 71.4806 304.43 92.5606C316.231 113.641 347.451 121.935 361.849 108.365L361.838 108.365Z" fill="#FFE999"/>
</g>
<g opacity="0.3">
<mask id="mask0_378_11212" style="mask-type:luminance" maskUnits="userSpaceOnUse" x="0" y="344" width="60" height="60">
<path d="M24.7569 403.731L59.2944 379.399L34.9626 344.861L0.425048 369.193L24.7569 403.731Z" fill="white"/>
</mask>
<g mask="url(#mask0_378_11212)">
<path d="M13.7412 371.017C15.7613 371.388 17.9186 369.958 18.3498 367.95C19.075 364.612 15.5256 361.009 17.0348 357.972C17.9626 356.107 20.4718 355.551 22.4254 356.327C24.3799 357.105 25.765 358.822 26.7932 360.655C28.4006 363.561 29.2985 366.833 30.1252 370.064C30.8786 372.944 31.5791 376.309 29.8163 378.673C28.3796 380.627 25.7398 381.186 23.3387 381.396C20.0967 381.661 16.7779 381.442 13.554 380.796C11.8156 380.45 10.0515 379.943 8.66825 378.853C7.26382 377.734 6.34503 375.868 6.77736 374.173C7.15521 372.65 8.55231 371.576 10.0653 371.228C11.6082 370.859 13.2145 370.894 13.7412 371.017Z" fill="#F08200"/>
<path d="M34.7396 375.307C34.2397 377.037 36.7767 379.353 40.4051 380.48C44.0335 381.607 47.3792 381.119 47.8791 379.389C48.3789 377.66 45.8427 375.343 42.2143 374.216C38.5859 373.089 35.2394 373.578 34.7396 375.307Z" fill="#F08200"/>
<path d="M34.1024 365.712C34.5305 367.479 37.8509 368.236 41.5201 367.403C45.1883 366.57 47.8153 364.462 47.3871 362.696C46.9597 360.928 43.6386 360.171 39.9701 361.004C36.3019 361.837 33.675 363.945 34.1024 365.712Z" fill="#F08200"/>
<path d="M29.0351 384.281C27.9019 385.665 29.3605 388.775 32.2935 391.229C35.2265 393.682 38.5229 394.549 39.6562 393.165C40.7895 391.781 39.3308 388.671 36.3978 386.217C33.4649 383.764 30.1684 382.897 29.0351 384.281Z" fill="#F08200"/>
<path d="M18.3182 392.427C18.9619 396.186 20.9203 399.011 22.6921 398.738C24.4649 398.464 25.3795 395.194 24.7358 391.435C24.0918 387.675 22.1335 384.849 20.3617 385.123C18.5891 385.397 17.6745 388.667 18.3182 392.427Z" fill="#F08200"/>
</g>
<mask id="mask1_378_11212" style="mask-type:luminance" maskUnits="userSpaceOnUse" x="3" y="223" width="59" height="60">
<path d="M27.4027 282.025L61.9402 257.693L37.6083 223.155L3.0708 247.487L27.4027 282.025Z" fill="white"/>
</mask>
<g mask="url(#mask1_378_11212)">
<path d="M16.3862 249.311C18.4064 249.683 20.5637 248.253 20.9948 246.244C21.72 242.906 18.1714 239.304 19.6796 236.266C20.6076 234.401 23.1169 233.845 25.0712 234.622C27.0257 235.399 28.4106 237.115 29.4383 238.949C31.0464 241.855 31.9441 245.126 32.7703 248.358C33.5241 251.237 34.2249 254.603 32.4613 256.967C31.0254 258.921 28.3856 259.48 25.9846 259.69C22.7423 259.955 19.4227 259.735 16.1991 259.091C14.4607 258.745 12.6973 258.237 11.314 257.147C9.90962 256.028 8.99083 254.162 9.42315 252.467C9.80101 250.944 11.1981 249.87 12.7111 249.522C14.2532 249.153 15.8603 249.188 16.3862 249.311Z" fill="#F08200"/>
<path d="M37.3856 253.601C36.8857 255.331 39.4227 257.647 43.0503 258.774C46.6787 259.902 50.0252 259.413 50.5251 257.683C51.0249 255.954 48.4879 253.638 44.8595 252.51C41.2311 251.383 37.8854 251.872 37.3856 253.601Z" fill="#F08200"/>
<path d="M36.7483 244.006C37.1765 245.772 40.4969 246.53 44.1651 245.697C47.8343 244.864 50.4613 242.756 50.0331 240.989C49.605 239.222 46.2845 238.465 42.6161 239.297C38.9471 240.131 36.3202 242.239 36.7483 244.006Z" fill="#F08200"/>
<path d="M31.6809 262.575C30.5476 263.959 32.0063 267.069 34.9392 269.523C37.8719 271.976 41.1686 272.843 42.3016 271.458C43.4349 270.074 41.9755 266.964 39.0428 264.511C36.1098 262.058 32.8142 261.191 31.6809 262.575Z" fill="#F08200"/>
<path d="M20.9636 270.721C21.6074 274.48 23.5665 277.305 25.3383 277.032C27.1108 276.757 28.0257 273.488 27.3817 269.728C26.738 265.969 24.7797 263.143 23.0071 263.417C21.2353 263.691 20.3207 266.961 20.9636 270.721Z" fill="#F08200"/>
</g>
<mask id="mask2_378_11212" style="mask-type:luminance" maskUnits="userSpaceOnUse" x="87" y="293" width="60" height="60">
<path d="M111.837 352.141L146.374 327.81L122.042 293.272L87.5046 317.604L111.837 352.141Z" fill="white"/>
</mask>
<g mask="url(#mask2_378_11212)">
<path d="M100.82 319.427C102.84 319.799 104.998 318.369 105.429 316.36C106.154 313.022 102.605 309.419 104.114 306.382C105.041 304.517 107.551 303.961 109.505 304.738C111.459 305.516 112.844 307.232 113.872 309.065C115.48 311.972 116.378 315.242 117.204 318.475C117.958 321.354 118.659 324.719 116.895 327.084C115.459 329.038 112.819 329.595 110.418 329.806C107.176 330.071 103.857 329.852 100.633 329.206C98.8944 328.86 97.1305 328.354 95.748 327.264C94.3433 326.144 93.4248 324.279 93.8571 322.583C94.235 321.061 95.6321 319.987 97.1448 319.638C98.6872 319.27 100.294 319.304 100.82 319.427Z" fill="#F08200"/>
<path d="M121.819 323.718C121.319 325.448 123.856 327.763 127.484 328.891C131.113 330.018 134.459 329.529 134.959 327.8C135.458 326.07 132.922 323.754 129.293 322.627C125.665 321.5 122.318 321.988 121.819 323.718Z" fill="#F08200"/>
<path d="M121.182 314.122C121.609 315.89 124.931 316.647 128.599 315.814C132.267 314.981 134.894 312.873 134.467 311.105C134.038 309.339 130.718 308.581 127.049 309.415C123.381 310.247 120.754 312.355 121.182 314.122Z" fill="#F08200"/>
<path d="M116.114 332.691C114.981 334.075 116.44 337.185 119.373 339.639C122.306 342.092 125.602 342.959 126.735 341.575C127.868 340.192 126.41 337.081 123.477 334.627C120.544 332.174 117.247 331.307 116.114 332.691Z" fill="#F08200"/>
<path d="M105.398 340.837C106.041 344.597 108 347.422 109.772 347.148C111.544 346.874 112.459 343.604 111.816 339.845C111.172 336.085 109.214 333.26 107.441 333.534C105.669 333.807 104.754 337.077 105.398 340.837Z" fill="#F08200"/>
</g>
<mask id="mask3_378_11212" style="mask-type:luminance" maskUnits="userSpaceOnUse" x="111" y="410" width="60" height="60">
<path d="M135.995 469.663L170.533 445.331L146.201 410.794L111.664 435.125L135.995 469.663Z" fill="white"/>
</mask>
<g mask="url(#mask3_378_11212)">
<path d="M124.979 436.949C126.999 437.321 129.156 435.89 129.588 433.882C130.313 430.544 126.764 426.941 128.273 423.904C129.2 422.039 131.71 421.483 133.663 422.26C135.618 423.037 137.003 424.754 138.031 426.587C139.639 429.494 140.536 432.765 141.363 435.996C142.116 438.876 142.817 442.242 141.054 444.605C139.618 446.56 136.978 447.118 134.577 447.328C131.335 447.593 128.016 447.374 124.792 446.729C123.053 446.383 121.289 445.875 119.906 444.786C118.502 443.666 117.583 441.8 118.015 440.105C118.393 438.582 119.79 437.508 121.303 437.16C122.846 436.791 124.453 436.826 124.979 436.949Z" fill="#F08200"/>
<path d="M145.978 441.239C145.479 442.969 148.015 445.285 151.643 446.412C155.272 447.54 158.618 447.051 159.117 445.321C159.617 443.592 157.081 441.276 153.453 440.149C149.824 439.021 146.477 439.51 145.978 441.239Z" fill="#F08200"/>
<path d="M145.341 431.644C145.769 433.411 149.089 434.168 152.758 433.336C156.427 432.502 159.054 430.395 158.626 428.627C158.198 426.86 154.877 426.103 151.209 426.937C147.54 427.769 144.913 429.877 145.341 431.644Z" fill="#F08200"/>
<path d="M140.273 450.213C139.14 451.597 140.599 454.708 143.532 457.161C146.464 459.614 149.761 460.481 150.894 459.097C152.027 457.713 150.569 454.603 147.636 452.149C144.703 449.696 141.406 448.829 140.273 450.213Z" fill="#F08200"/>
<path d="M129.556 458.359C130.2 462.119 132.159 464.944 133.931 464.67C135.703 464.396 136.618 461.126 135.975 457.367C135.331 453.608 133.372 450.781 131.6 451.055C129.827 451.33 128.913 454.599 129.556 458.359Z" fill="#F08200"/>
</g>
<mask id="mask4_378_11212" style="mask-type:luminance" maskUnits="userSpaceOnUse" x="254" y="347" width="58" height="58">
<path d="M274.287 404.289L311.599 384.472L291.782 347.16L254.47 366.977L274.287 404.289Z" fill="white"/>
</mask>
<g mask="url(#mask4_378_11212)">
<path d="M267.45 370.455C269.408 371.076 271.728 369.928 272.407 367.988C273.544 364.768 270.474 360.749 272.351 357.925C273.505 356.191 276.064 355.953 277.906 356.969C279.746 357.985 280.903 359.862 281.697 361.808C282.932 364.891 283.41 368.251 283.828 371.56C284.209 374.513 284.49 377.937 282.441 380.063C280.771 381.822 278.083 382.046 275.674 381.954C272.424 381.811 269.159 381.178 266.041 380.134C264.359 379.573 262.673 378.849 261.437 377.595C260.184 376.308 259.506 374.342 260.146 372.715C260.712 371.251 262.233 370.36 263.777 370.205C265.355 370.032 266.944 370.267 267.45 370.455Z" fill="#F08200"/>
<path d="M287.748 377.339C287.035 378.994 289.263 381.608 292.718 383.182C296.181 384.753 299.563 384.687 300.269 383.036C300.983 381.381 298.755 378.767 295.299 377.193C291.844 375.62 288.462 375.686 287.748 377.339Z" fill="#F08200"/>
<path d="M288.316 367.74C288.522 369.546 291.721 370.714 295.463 370.347C299.205 369.98 302.08 368.216 301.874 366.41C301.668 364.605 298.47 363.437 294.727 363.804C290.985 364.17 288.11 365.934 288.316 367.74Z" fill="#F08200"/>
<path d="M280.964 385.529C279.667 386.76 280.725 390.029 283.328 392.83C285.93 395.631 289.092 396.904 290.387 395.673C291.684 394.442 290.63 391.172 288.026 388.371C285.424 385.57 282.261 384.298 280.964 385.529Z" fill="#F08200"/>
<path d="M269.312 392.269C269.48 396.08 271.07 399.129 272.862 399.079C274.655 399.028 275.971 395.899 275.804 392.088C275.636 388.278 274.046 385.229 272.254 385.279C270.461 385.329 269.144 388.459 269.312 392.269Z" fill="#F08200"/>
</g>
<mask id="mask5_378_11212" style="mask-type:luminance" maskUnits="userSpaceOnUse" x="397" y="380" width="58" height="58">
<path d="M416.846 437.975L454.157 418.158L434.34 380.847L397.028 400.664L416.846 437.975Z" fill="white"/>
</mask>
<g mask="url(#mask5_378_11212)">
<path d="M410.013 404.14C411.97 404.761 414.29 403.613 414.973 401.672C416.11 398.451 413.038 394.433 414.918 391.609C416.068 389.875 418.624 389.638 420.472 390.652C422.312 391.668 423.47 393.545 424.263 395.492C425.49 398.577 425.976 401.934 426.387 405.246C426.775 408.196 427.048 411.623 425.004 413.748C423.333 415.507 420.645 415.73 418.237 415.638C414.986 415.496 411.719 414.864 408.604 413.818C406.921 413.258 405.239 412.533 404.001 411.28C402.75 409.992 402.068 408.027 402.707 406.4C403.275 404.936 404.797 404.044 406.337 403.89C407.921 403.715 409.51 403.951 410.013 404.14Z" fill="#F08200"/>
<path d="M430.307 411.026C429.601 412.678 431.821 415.295 435.284 416.866C438.74 418.439 442.122 418.373 442.835 416.719C443.549 415.065 441.321 412.451 437.865 410.877C434.402 409.306 431.021 409.372 430.307 411.026Z" fill="#F08200"/>
<path d="M423.525 419.214C422.228 420.445 423.29 423.713 425.894 426.514C428.49 429.317 431.656 430.588 432.953 429.357C434.25 428.126 433.196 424.856 430.592 422.055C427.988 419.254 424.822 417.983 423.525 419.214Z" fill="#F08200"/>
<path d="M411.873 425.955C412.042 429.765 413.635 432.813 415.422 432.764C417.216 432.714 418.536 429.583 418.367 425.773C418.198 421.963 416.612 418.912 414.818 418.963C413.024 419.014 411.704 422.145 411.873 425.955Z" fill="#F08200"/>
</g>
<mask id="mask6_378_11212" style="mask-type:luminance" maskUnits="userSpaceOnUse" x="247" y="476" width="58" height="58">
<path d="M267.419 533.359L304.731 513.542L284.914 476.231L247.602 496.048L267.419 533.359Z" fill="white"/>
</mask>
<g mask="url(#mask6_378_11212)">
<path d="M260.584 499.525C262.542 500.147 264.861 498.997 265.541 497.059C266.677 493.837 263.607 489.82 265.485 486.995C266.638 485.26 269.198 485.023 271.039 486.038C272.88 487.054 274.04 488.93 274.83 490.878C276.062 493.962 276.543 497.32 276.959 500.63C277.345 503.581 277.62 507.008 275.574 509.133C273.905 510.892 271.216 511.115 268.807 511.024C265.557 510.881 262.292 510.248 259.174 509.204C257.493 508.643 255.806 507.919 254.571 506.665C253.318 505.378 252.639 503.412 253.28 501.784C253.846 500.321 255.367 499.43 256.911 499.274C258.488 499.102 260.077 499.337 260.584 499.525Z" fill="#F08200"/>
<path d="M280.881 506.41C280.169 508.064 282.395 510.679 285.854 512.252C289.313 513.823 292.694 513.758 293.406 512.105C294.118 510.451 291.892 507.836 288.433 506.263C284.974 504.691 281.593 504.757 280.881 506.41Z" fill="#F08200"/>
<path d="M281.45 496.81C281.653 498.617 284.853 499.784 288.597 499.417C292.341 499.049 295.211 497.287 295.008 495.48C294.805 493.673 291.605 492.506 287.861 492.874C284.117 493.241 281.247 495.003 281.45 496.81Z" fill="#F08200"/>
<path d="M274.097 514.599C272.8 515.83 273.858 519.099 276.461 521.9C279.064 524.701 282.225 525.974 283.523 524.742C284.821 523.511 283.763 520.243 281.16 517.441C278.557 514.64 275.395 513.367 274.097 514.599Z" fill="#F08200"/>
<path d="M262.446 521.339C262.614 525.15 264.204 528.198 265.996 528.148C267.789 528.098 269.105 524.969 268.937 521.158C268.77 517.348 267.18 514.3 265.387 514.349C263.595 514.399 262.278 517.529 262.446 521.339Z" fill="#F08200"/>
</g>
<mask id="mask7_378_11212" style="mask-type:luminance" maskUnits="userSpaceOnUse" x="365" y="499" width="51" height="51">
<path d="M374.689 549.595L415.883 540.216L406.504 499.022L365.31 508.401L374.689 549.595Z" fill="white"/>
</mask>
<g mask="url(#mask7_378_11212)">
<path d="M376.932 515.149C378.654 516.262 381.195 515.759 382.358 514.064C384.301 511.252 382.384 506.572 384.937 504.335C386.498 502.964 389.033 503.403 390.545 504.864C392.058 506.325 392.69 508.438 392.942 510.525C393.324 513.825 392.911 517.192 392.443 520.497C392.047 523.446 391.419 526.824 388.889 528.341C386.819 529.602 384.166 529.115 381.863 528.398C378.761 527.411 375.773 525.948 373.041 524.124C371.567 523.142 370.123 522.005 369.26 520.471C368.385 518.902 368.246 516.826 369.29 515.422C370.221 514.156 371.917 513.695 373.453 513.947C375.02 514.192 376.488 514.837 376.932 515.149Z" fill="#F08200"/>
<path d="M394.724 527.099C393.599 528.511 395.068 531.616 397.997 534.037C400.925 536.458 404.207 537.278 405.325 535.869C406.442 534.459 404.981 531.352 402.052 528.931C399.123 526.509 395.842 525.69 394.724 527.099Z" fill="#F08200"/>
<path d="M397.783 517.981C397.506 519.778 400.286 521.742 403.997 522.365C407.708 522.989 410.938 522.038 411.215 520.241C411.492 518.443 408.704 516.481 404.993 515.858C401.29 515.232 398.052 516.185 397.783 517.981Z" fill="#F08200"/>
<path d="M386.033 533.232C384.461 534.08 384.627 537.513 386.411 540.895C388.187 544.281 390.906 546.336 392.485 545.484C394.056 544.636 393.89 541.204 392.107 537.821C390.331 534.436 387.612 532.381 386.033 533.232Z" fill="#F08200"/>
<path d="M373.028 536.692C372.19 540.416 372.929 543.774 374.674 544.193C376.419 544.613 378.509 541.935 379.339 538.215C380.17 534.493 379.439 531.133 377.694 530.713C375.949 530.294 373.859 532.971 373.028 536.692Z" fill="#F08200"/>
</g>
</g>
<defs>
<clipPath id="clip0_378_11212">
<rect width="428" height="859" fill="white" transform="translate(428.072 859) rotate(-180)"/>
</clipPath>
</defs>
</svg>
