<svg width="78" height="80" viewBox="0 0 78 80" fill="none" xmlns="http://www.w3.org/2000/svg">
<path d="M69.6114 47.2484C71.6596 50.4242 72.5066 61.895 68.6566 68.7838C68.5026 69.0682 67.4708 66.5402 67.1166 64.818C66.3466 66.0978 65.592 67.3934 64.7758 68.6574H12.4466C10.6756 65.371 9.998 62.5586 9.8748 58.814C9.151 59.2722 8.4272 60.157 7.8728 61.263C7.5648 59.3512 7.7034 57.3604 8.3502 55.3696C7.4108 55.8594 6.456 56.3334 5.5166 56.8232C7.1336 48.2912 9.7978 39.9804 13.4322 32.1436C12.154 33.2812 10.8758 34.403 9.5976 35.5406C11.0606 32.8388 12.8316 30.3108 15.2186 28.1146C13.7864 27.925 12.3542 27.7512 10.922 27.5616C12.4774 27.5142 13.6786 26.029 14.0482 24.4806C14.4024 22.9322 14.1252 21.3206 13.9404 19.7248C13.386 15.048 13.6324 10.3238 13.8788 5.61537C20.8704 10.3554 26.3528 17.418 29.7562 24.449C35.485 21.9684 42.0454 21.5418 48.421 23.2008C48.2978 21.1942 48.6982 19.156 49.5606 17.339C49.6684 18.2712 49.7762 19.2034 49.8994 20.1356C53.195 13.7366 57.5378 7.89057 62.6814 2.91357C63.7902 9.29677 64.3446 15.7906 64.3138 22.2844C64.7604 21.8104 65.207 21.3364 65.6536 20.8466C65.8076 24.3542 65.592 27.8776 65.0376 31.3536C65.438 31.1008 65.8384 30.848 66.2388 30.611C66.1156 31.6222 65.9924 32.6334 66.3928 33.9448C67.8404 39.1114 69.75 44.1516 72.0908 48.9706C70.8896 48.2122 70.2274 48.0542 69.6114 47.2484Z" fill="white"/>
<path d="M68.6259 69.8739C68.5643 69.8739 68.5181 69.8739 68.4565 69.8581C67.8559 69.7633 67.5171 69.3051 66.9319 67.7883C66.8857 67.6619 66.8395 67.5197 66.7779 67.3933C66.4083 68.0095 66.0233 68.6257 65.6383 69.2419L65.3303 69.7159H11.8307L11.5381 69.1629C10.1367 66.5717 9.35127 64.1701 9.01247 61.3103C8.93547 61.4525 8.85847 61.5789 8.78147 61.7369L7.36467 64.6441L6.84107 61.4367C6.62547 60.0779 6.61007 58.7033 6.81027 57.3445C6.53307 57.4867 6.24047 57.6289 5.96327 57.7869L4.08447 58.7507L4.48487 56.6335C5.82467 49.5867 7.87287 42.6821 10.5833 36.0777C10.4755 36.1726 10.3677 36.2673 10.2753 36.3621L5.85547 40.2805L8.70447 35.0507C10.0289 32.6175 11.4149 30.6267 12.9703 28.9203L10.7989 28.636L10.8913 26.5187C11.9539 26.4871 12.7855 25.3337 13.0319 24.2593C13.3091 23.0901 13.1397 21.8104 12.9703 20.4515C12.9395 20.2619 12.9241 20.0723 12.8933 19.8827C12.3235 15.1111 12.5699 10.2605 12.8317 5.58375L12.9241 3.73515L14.4333 4.76215C20.8243 9.09135 26.4145 15.601 30.2337 23.1376C35.5313 21.0677 41.5373 20.6411 47.3585 21.9051C47.4355 20.1829 47.8667 18.4765 48.6059 16.9123L50.1459 13.6576L50.5155 16.8176C53.6417 11.4139 57.4763 6.50015 61.9423 2.18675L63.3283 0.84375L63.6671 2.77135C64.6373 8.34875 65.1763 14.0367 65.2995 19.709L66.5469 18.3659L66.6547 20.8465C66.7779 23.6589 66.6701 26.5029 66.3467 29.3153L67.5171 28.5886L67.2399 30.7689C67.1167 31.7327 67.0089 32.5543 67.3477 33.6446C68.7953 38.7637 70.6741 43.7565 72.9841 48.5123L74.6627 51.9725L71.7521 50.0449C72.9379 55.2589 72.6453 63.8067 69.5653 69.3051C69.3651 69.6685 69.0109 69.8739 68.6259 69.8739ZM13.0627 67.5987H64.2215C64.7913 66.6824 65.3611 65.7343 65.9001 64.8179L67.5787 61.9897L68.1177 64.5967C68.2409 65.1814 68.4257 65.8133 68.6259 66.3979C71.1977 59.8725 70.4431 50.5031 68.7337 47.8329L69.9349 46.9323C68.1023 42.8243 66.5623 38.5741 65.3457 34.2607C65.1609 33.6603 65.0685 33.1073 65.0377 32.586L63.6055 33.4707L63.9751 31.1955C64.3755 28.636 64.5911 26.0447 64.6219 23.4693L63.2359 24.9545L63.2513 22.3001C63.2667 16.5489 62.8355 10.7819 61.9577 5.09395C57.4917 9.67595 53.7341 14.9058 50.7773 20.6411L49.4375 23.2481L49.5145 24.5912L48.1439 24.2277C42.0147 22.6319 35.6237 23.0585 30.1413 25.4286L29.2481 25.8077L28.8169 24.9072C25.4443 17.9235 20.5163 11.8405 14.8029 7.55875C14.6027 11.5403 14.4795 15.6167 14.9569 19.5826C14.9723 19.7722 15.0031 19.9459 15.0339 20.1355C15.2187 21.6208 15.4189 23.1533 15.0647 24.7017C14.8953 25.4601 14.5411 26.2185 14.0483 26.8663L17.6211 27.3246L16.2197 28.6043L14.3717 32.586C11.0761 39.6959 8.58127 47.1851 6.96427 54.8797C7.27227 54.7217 7.58027 54.5637 7.90367 54.4057L10.1367 53.2681L9.35127 55.6855C9.07407 56.5545 8.88927 57.4077 8.81227 58.2767C8.98167 58.1345 9.16647 57.9923 9.35127 57.8817L10.8605 56.9179L10.9221 58.7507C11.0145 62.2583 11.6305 64.7863 13.0627 67.5987Z" fill="#7F1C0B"/>
<path d="M34.2531 62.8112C33.5139 62.8112 32.7901 62.6532 32.1279 62.3372C30.2799 61.4524 29.3097 59.5406 28.6013 57.7868L30.5109 56.9652C31.0653 58.3398 31.8045 59.825 33.0057 60.4096C34.1145 60.9468 35.6545 60.6624 36.9481 59.6986C38.2417 58.719 39.1811 57.2496 40.0897 55.8276L41.8145 56.9968C40.8597 58.4978 39.7663 60.22 38.1647 61.4208C36.9481 62.3372 35.5621 62.8112 34.2531 62.8112Z" fill="#7F1C0B"/>
<path d="M34.2531 62.8112C33.5139 62.8112 32.7901 62.6532 32.1279 62.3372C30.2799 61.4524 29.3097 59.5406 28.6013 57.7868L30.5109 56.9652C31.0653 58.3398 31.8045 59.825 33.0057 60.4096C34.1145 60.9468 35.6545 60.6624 36.9481 59.6986C38.2417 58.719 39.1811 57.2496 40.0897 55.8276L41.8145 56.9968C40.8597 58.4978 39.7663 60.22 38.1647 61.4208C36.9481 62.3372 35.5621 62.8112 34.2531 62.8112Z" fill="#934156"/>
<path d="M47.651 62.2742C46.4652 62.2742 45.2332 61.9108 44.0782 61.1682C42.3996 60.0938 41.183 58.4822 40.105 57.0444L41.7374 55.7488C42.7538 57.0918 43.801 58.4822 45.1562 59.3512C46.5114 60.2202 48.0668 60.3782 49.1294 59.7462C50.2844 59.0668 50.9158 57.5342 51.3624 56.1122L53.3336 56.7758C52.7638 58.577 51.9322 60.5678 50.1612 61.5948C49.422 62.053 48.5596 62.2742 47.651 62.2742Z" fill="#934156"/>
<path d="M53.3181 49.2867C55.9122 49.2867 58.0151 47.1291 58.0151 44.4677C58.0151 41.8062 55.9122 39.6487 53.3181 39.6487C50.724 39.6487 48.6211 41.8062 48.6211 44.4677C48.6211 47.1291 50.724 49.2867 53.3181 49.2867Z" fill="#7F1C0B"/>
<path d="M53.3182 50.3452C53.2412 50.3452 53.1642 50.3452 53.0872 50.3452C49.9302 50.2188 47.4662 47.4696 47.5894 44.2306C47.7126 40.9916 50.3922 38.4636 53.5492 38.6058C56.7062 38.7322 59.1702 41.4814 59.047 44.7204C58.9238 47.8646 56.3674 50.3452 53.3182 50.3452ZM53.3182 40.7072C51.3624 40.7072 49.7454 42.2872 49.6684 44.3096C49.5914 46.3794 51.1622 48.1332 53.1796 48.2122C55.197 48.307 56.9064 46.6796 56.9834 44.6098C57.0604 42.54 55.4896 40.7862 53.4722 40.7072C53.4106 40.7072 53.3644 40.7072 53.3182 40.7072Z" fill="#7F1C0B"/>
<path d="M24.7358 25.8236C23.0264 22.2528 20.932 18.8558 18.4988 15.7432C18.9608 19.788 19.4382 23.8328 19.9002 27.8934C21.5172 27.3246 23.1342 26.7558 24.7358 25.8236Z" fill="#FFB0E7"/>
<path d="M19.0225 29.3154L17.0513 12.1724L19.3151 15.0796C21.7791 18.2554 23.9197 21.7156 25.6753 25.3496L26.1065 26.2502L25.2595 26.74C23.5809 27.7196 21.8869 28.3042 20.2545 28.873L19.0225 29.3154ZM19.9773 19.5984L20.7627 26.4556C21.6405 26.1396 22.4875 25.792 23.3345 25.3812C22.3489 23.3746 21.2247 21.447 19.9773 19.5984Z" fill="#D683AD"/>
<path d="M53.4414 25.9183C54.7812 21.7945 56.66 17.8445 59.0008 14.2263C59.278 18.9979 59.5552 23.7695 59.8324 28.5411C57.5378 27.8143 55.1816 27.2297 53.4414 25.9183Z" fill="#FFB0E7"/>
<path d="M60.9721 30.0263L59.5399 29.5681C59.1857 29.4575 58.8469 29.3469 58.4927 29.2363C56.5061 28.6201 54.4579 27.9881 52.8255 26.7715L52.2095 26.3133L52.4559 25.5707C53.8265 21.3521 55.7361 17.3389 58.1385 13.6259L59.8479 10.9873L60.9721 30.0263ZM54.6889 25.4917C55.8439 26.1869 57.2453 26.6451 58.7237 27.1033L58.1693 17.6549C56.7833 20.1513 55.6129 22.7741 54.6889 25.4917Z" fill="#D683AD"/>
<path d="M40.7827 56.5229C42.1225 55.7645 43.1851 54.5005 43.7395 53.0153C43.8473 52.7151 43.9397 52.3675 43.7857 52.0831C43.6471 51.8145 43.3237 51.6881 43.0311 51.6091C41.2755 51.1509 39.3813 51.2299 37.6873 51.8777C37.2099 52.0515 36.6709 52.3675 36.6093 52.8889C36.5631 53.2997 36.8249 53.6631 37.0867 53.9633C37.7951 54.7849 38.6421 55.4801 39.5661 56.0015C39.8587 56.1753 40.1821 56.2385 40.4901 56.3649C40.5209 56.3965 40.5671 56.4439 40.7827 56.5229Z" fill="#FFB0E7"/>
<path d="M40.9059 57.6605L40.4901 57.5341C40.2899 57.4709 40.1667 57.4077 40.0589 57.3445C39.9973 57.3287 39.9511 57.3129 39.8895 57.2813C39.6277 57.2023 39.3505 57.1075 39.0425 56.9337C38.0107 56.3333 37.0713 55.5749 36.2859 54.6585C36.0549 54.3899 35.4543 53.6789 35.5621 52.7467C35.6391 52.1621 35.9933 51.3563 37.3177 50.8665C39.2119 50.1555 41.3371 50.0449 43.2775 50.5663C43.5547 50.6453 44.3093 50.8349 44.6789 51.5459C45.0793 52.3043 44.7867 53.0943 44.6943 53.3629C44.0629 55.0535 42.8155 56.5387 41.2755 57.4235L40.9059 57.6605ZM37.6719 53.0469C37.7027 53.0943 37.7643 53.1733 37.8413 53.2681C38.4727 53.9949 39.2119 54.6111 40.0435 55.0851C40.1513 55.1483 40.3207 55.1957 40.5055 55.2589C40.5671 55.2747 40.6287 55.3063 40.6903 55.3221C41.6297 54.6743 42.3689 53.7105 42.7693 52.6361C41.2139 52.2253 39.5353 52.3043 38.0261 52.8731C37.8567 52.9363 37.7489 52.9995 37.6719 53.0469Z" fill="#934156"/>
<path d="M54.4406 43.1891C54.4746 42.3433 53.5995 41.6196 52.4863 41.5726C51.373 41.5256 50.443 42.1732 50.4091 43.0189C50.3751 43.8647 51.2502 44.5884 52.3634 44.6354C53.4767 44.6824 54.4067 44.0349 54.4406 43.1891Z" fill="white"/>
<path d="M55.4896 46.5374C55.9659 46.5374 56.352 46.1413 56.352 45.6526C56.352 45.164 55.9659 44.7678 55.4896 44.7678C55.0133 44.7678 54.6272 45.164 54.6272 45.6526C54.6272 46.1413 55.0133 46.5374 55.4896 46.5374Z" fill="white"/>
<path d="M25.3056 50.9141C27.8997 50.9141 30.0026 48.7566 30.0026 46.0951C30.0026 43.4337 27.8997 41.2761 25.3056 41.2761C22.7116 41.2761 20.6086 43.4337 20.6086 46.0951C20.6086 48.7566 22.7116 50.9141 25.3056 50.9141Z" fill="#7F1C0B"/>
<path d="M25.3056 51.9727C25.2286 51.9727 25.1516 51.9727 25.0592 51.9727C23.5346 51.9095 22.1178 51.2301 21.086 50.0767C20.0542 48.9233 19.5152 47.4223 19.5768 45.8581C19.7 42.6191 22.3796 40.0911 25.5366 40.2333C28.6936 40.3597 31.1576 43.1089 31.019 46.3479C30.9574 47.9121 30.2952 49.3657 29.171 50.4243C28.1084 51.4197 26.7532 51.9727 25.3056 51.9727ZM25.3056 42.3347C23.3498 42.3347 21.7328 43.9147 21.6558 45.9371C21.6096 46.9325 21.9638 47.8963 22.626 48.6389C23.2882 49.3815 24.1968 49.8081 25.167 49.8397C26.1372 49.8871 27.0766 49.5237 27.8004 48.8443C28.5242 48.1649 28.94 47.2327 28.9708 46.2373C29.0478 44.1675 27.477 42.4137 25.4596 42.3347C25.398 42.3347 25.3518 42.3347 25.3056 42.3347Z" fill="#7F1C0B"/>
<path d="M25.8823 44.3263C25.9162 43.4805 25.0412 42.7568 23.9279 42.7098C22.8146 42.6628 21.8846 43.3104 21.8507 44.1561C21.8168 45.0019 22.6918 45.7256 23.8051 45.7726C24.9184 45.8196 25.8484 45.1721 25.8823 44.3263Z" fill="white"/>
<path d="M27.6002 47.7225C28.0765 47.7225 28.4626 47.3263 28.4626 46.8377C28.4626 46.349 28.0765 45.9529 27.6002 45.9529C27.1239 45.9529 26.7378 46.349 26.7378 46.8377C26.7378 47.3263 27.1239 47.7225 27.6002 47.7225Z" fill="white"/>
<path d="M60.8488 39.8065C58.3694 35.5721 53.0102 34.1974 48.883 36.7412C44.7558 39.285 43.416 44.7835 45.8954 49.0179C48.3748 53.2523 61.203 57.8027 61.203 57.8027C61.203 57.8027 63.3282 44.0567 60.8488 39.8065ZM54.1498 51.0877C50.5308 51.5933 47.2044 48.9862 46.7116 45.2732C46.2188 41.5602 48.7598 38.1475 52.3788 37.6419C55.9978 37.1363 59.3242 39.7432 59.817 43.4562C60.3098 47.1692 57.7842 50.5821 54.1498 51.0877Z" fill="#BDC1C6"/>
<path d="M14.0481 68.7522C14.1097 64.8338 16.8355 62.0214 20.2697 60.315C24.0273 58.4664 28.7705 58.656 32.1893 61.105C35.6081 63.5698 37.4099 68.3256 36.1625 72.4178C34.9305 76.51 30.5415 79.433 26.4451 78.6114C22.3487 77.7898 19.3149 72.797 20.0695 68.768C16.8201 68.768 16.6815 68.7522 14.0481 68.7522Z" fill="white"/>
<path d="M27.8158 79.8121C27.2922 79.8121 26.7686 79.7647 26.2604 79.6541C22.164 78.8325 18.8222 74.2031 18.93 69.8265C17.9444 69.8265 17.313 69.8265 16.7124 69.8107C15.9886 69.8107 15.2956 69.8107 14.0482 69.8107H13.001L13.0164 68.7363C13.078 64.8337 15.4958 61.4999 19.8232 59.3669C24.0582 57.2813 29.1402 57.6289 32.79 60.2517C36.6708 63.0483 38.5034 68.2939 37.1636 72.7495C35.9008 76.8575 31.8506 79.8121 27.8158 79.8121ZM15.1724 67.6935C15.7884 67.6935 16.235 67.6935 16.7124 67.6935C17.5132 67.6935 18.3602 67.7093 20.0696 67.7093H21.317L21.086 68.9733C20.4238 72.5599 23.2266 76.9049 26.6454 77.5843C30.1566 78.2795 34.0682 75.7831 35.177 72.1175C36.2396 68.5783 34.715 64.2333 31.6042 61.9897C28.6166 59.8409 24.243 59.5565 20.7164 61.2787C18.8222 62.2109 15.7576 64.2175 15.1724 67.6935Z" fill="#7F1C0B"/>
<path d="M67.6092 68.7522C67.5476 64.8338 64.8218 62.0214 61.3876 60.315C57.63 58.4664 52.8868 58.656 49.468 61.105C46.0492 63.5698 44.2474 68.3256 45.4948 72.4178C46.7268 76.51 51.1158 79.433 55.2122 78.6114C59.3086 77.7898 62.3424 72.797 61.5878 68.768C64.8372 68.768 64.9758 68.7522 67.6092 68.7522Z" fill="white"/>
<path d="M53.8418 79.8123C49.807 79.8123 45.7414 76.8577 44.494 72.7339C43.1542 68.2941 44.9868 63.0327 48.8676 60.2361C52.5174 57.6133 57.5994 57.2656 61.8344 59.3512C66.1618 61.4842 68.5796 64.818 68.6412 68.7206L68.6566 69.7951H67.6094C66.362 69.7951 65.669 69.7951 64.9452 69.7951C64.3446 69.7951 63.7132 69.7951 62.7276 69.8109C62.8354 74.1875 59.509 78.8168 55.3972 79.6384C54.889 79.7648 54.3654 79.8123 53.8418 79.8123ZM56.0286 60.1571C53.8726 60.1571 51.732 60.7733 50.0534 61.9899C46.9426 64.2335 45.4026 68.5784 46.4806 72.1176C47.5894 75.7832 51.501 78.2954 55.0122 77.5844C58.431 76.905 61.2338 72.56 60.5716 68.9734L60.3406 67.7094H61.588C63.282 67.7094 64.129 67.7094 64.9452 67.6936C65.4226 67.6936 65.8846 67.6936 66.4852 67.6936C65.9 64.2334 62.8354 62.2111 60.9412 61.2789C59.4012 60.5205 57.7072 60.1571 56.0286 60.1571Z" fill="#7F1C0B"/>
</svg>
