<svg width="429" height="446" viewBox="0 0 429 446" fill="none" xmlns="http://www.w3.org/2000/svg">
<g opacity="0.3">
<mask id="mask0_378_11214" style="mask-type:luminance" maskUnits="userSpaceOnUse" x="357" y="18" width="49" height="49">
<path d="M357.196 25.2382L363.805 66.9659L405.532 60.3569L398.923 18.6292L357.196 25.2382Z" fill="white"/>
</mask>
<g mask="url(#mask0_378_11214)">
<path d="M391.415 29.7757C390.19 31.425 390.522 33.9916 392.136 35.2645C394.812 37.3875 399.61 35.7902 401.67 38.4838C402.935 40.1393 402.328 42.6367 400.769 44.0477C399.21 45.4587 397.059 45.9453 394.959 46.0596C391.643 46.2212 388.31 45.5841 385.045 44.901C382.129 44.3081 378.799 43.4526 377.455 40.828C376.334 38.6769 376.997 36.0618 377.867 33.8137C379.058 30.7868 380.719 27.9045 382.72 25.295C383.797 23.8883 385.03 22.5281 386.618 21.767C388.242 21.001 390.322 20.9987 391.652 22.1342C392.853 23.1448 393.201 24.8728 392.846 26.3835C392.496 27.9307 391.757 29.3577 391.415 29.7757Z" fill="#F08200"/>
<path d="M378.305 46.7309C376.972 45.5199 373.775 46.7751 371.163 49.5343C368.552 52.2945 367.515 55.5129 368.847 56.7238C370.179 57.9355 373.376 56.6797 375.988 53.9205C378.599 51.1609 379.637 47.9419 378.305 46.7309Z" fill="#F08200"/>
<path d="M387.197 50.3906C385.423 49.9948 383.279 52.642 382.408 56.3018C381.539 59.9619 382.273 63.2491 384.047 63.6442C385.822 64.0392 387.966 61.3927 388.836 57.7325C389.706 54.0728 388.972 50.7857 387.197 50.3906Z" fill="#F08200"/>
<path d="M372.766 37.654C372.024 36.0264 368.589 35.9641 365.094 37.5146C361.598 39.0651 359.367 41.6417 360.109 43.2687C360.851 44.8964 364.287 44.9591 367.782 43.4082C371.277 41.8577 373.509 39.2814 372.766 37.654Z" fill="#F08200"/>
<path d="M370.181 24.4435C366.522 23.3632 363.122 23.8752 362.587 25.5865C362.051 27.2986 364.583 29.5608 368.241 30.6411C371.899 31.7213 375.299 31.209 375.834 29.4976C376.37 27.7866 373.838 25.5233 370.181 24.4435Z" fill="#F08200"/>
</g>
<mask id="mask1_378_11214" style="mask-type:luminance" maskUnits="userSpaceOnUse" x="292" y="245" width="47" height="47">
<path d="M296.39 245.457L292.849 287.556L334.948 291.097L338.489 248.998L296.39 245.457Z" fill="white"/>
</mask>
<g mask="url(#mask1_378_11214)">
<path d="M328.538 258.031C326.954 259.341 326.665 261.913 327.927 263.533C330.02 266.234 335.06 265.828 336.418 268.935C337.251 270.844 336.066 273.124 334.215 274.123C332.364 275.121 330.159 275.08 328.093 274.69C324.834 274.056 321.75 272.642 318.742 271.199C316.051 269.927 313.021 268.302 312.343 265.432C311.768 263.075 313.036 260.694 314.417 258.718C316.297 256.064 318.597 253.661 321.163 251.605C322.545 250.495 324.067 249.469 325.791 249.109C327.551 248.753 329.57 249.247 330.592 250.667C331.516 251.935 331.442 253.696 330.737 255.079C330.029 256.498 328.97 257.707 328.538 258.031Z" fill="#F08200"/>
<path d="M311.759 271.367C310.754 269.873 307.35 270.329 304.155 272.385C300.961 274.442 299.185 277.32 300.19 278.814C301.195 280.308 304.599 279.852 307.793 277.796C310.988 275.739 312.764 272.861 311.759 271.367Z" fill="#F08200"/>
<path d="M319.522 277.044C317.892 276.237 315.179 278.295 313.46 281.641C311.742 284.987 311.67 288.355 313.299 289.162C314.928 289.97 317.642 287.911 319.361 284.565C321.079 281.219 321.151 277.851 319.522 277.044Z" fill="#F08200"/>
<path d="M308.548 261.231C308.215 259.473 304.894 258.593 301.129 259.264C297.365 259.936 294.583 261.905 294.915 263.663C295.248 265.421 298.569 266.301 302.334 265.629C306.098 264.957 308.88 262.988 308.548 261.231Z" fill="#F08200"/>
<path d="M309.189 247.785C305.894 245.863 302.471 245.549 301.542 247.083C300.613 248.617 302.532 251.419 305.826 253.341C309.121 255.263 312.544 255.577 313.473 254.043C314.401 252.509 312.484 249.707 309.189 247.785Z" fill="#F08200"/>
</g>
<mask id="mask2_378_11214" style="mask-type:luminance" maskUnits="userSpaceOnUse" x="379" y="154" width="47" height="47">
<path d="M383.247 154.383L379.706 196.482L421.805 200.023L425.347 157.924L383.247 154.383Z" fill="white"/>
</mask>
<g mask="url(#mask2_378_11214)">
<path d="M415.395 166.956C413.812 168.266 413.522 170.838 414.785 172.459C416.877 175.159 421.918 174.754 423.276 177.861C424.109 179.77 422.923 182.05 421.073 183.049C419.222 184.047 417.016 184.006 414.95 183.616C411.691 182.981 408.608 181.567 405.6 180.124C402.909 178.852 399.879 177.227 399.201 174.357C398.626 172.001 399.894 169.619 401.275 167.644C403.154 164.989 405.455 162.586 408.021 160.53C409.402 159.421 410.925 158.394 412.648 158.034C414.408 157.678 416.428 158.172 417.45 159.593C418.374 160.86 418.3 162.621 417.594 164.004C416.886 165.423 415.827 166.632 415.395 166.956Z" fill="#F08200"/>
<path d="M398.617 180.292C397.612 178.798 394.208 179.254 391.013 181.311C387.818 183.367 386.042 186.246 387.047 187.74C388.052 189.234 391.456 188.777 394.651 186.721C397.846 184.665 399.622 181.786 398.617 180.292Z" fill="#F08200"/>
<path d="M406.38 185.969C404.75 185.162 402.037 187.22 400.318 190.567C398.6 193.913 398.527 197.281 400.156 198.088C401.786 198.895 404.5 196.837 406.218 193.49C407.936 190.144 408.009 186.776 406.38 185.969Z" fill="#F08200"/>
<path d="M395.405 170.156C395.073 168.398 391.752 167.518 387.987 168.19C384.223 168.862 381.44 170.83 381.773 172.588C382.106 174.346 385.427 175.226 389.191 174.554C392.956 173.883 395.737 171.914 395.405 170.156Z" fill="#F08200"/>
<path d="M396.047 156.71C392.752 154.788 389.329 154.474 388.4 156.008C387.471 157.542 389.39 160.344 392.684 162.266C395.979 164.188 399.402 164.502 400.331 162.968C401.259 161.434 399.341 158.632 396.047 156.71Z" fill="#F08200"/>
</g>
<mask id="mask3_378_11214" style="mask-type:luminance" maskUnits="userSpaceOnUse" x="292" y="106" width="47" height="47">
<path d="M296.39 106.699L292.849 148.798L334.948 152.339L338.489 110.24L296.39 106.699Z" fill="white"/>
</mask>
<g mask="url(#mask3_378_11214)">
<path d="M328.538 119.273C326.954 120.583 326.665 123.155 327.927 124.775C330.02 127.476 335.06 127.07 336.418 130.177C337.251 132.086 336.066 134.366 334.215 135.365C332.364 136.363 330.159 136.322 328.093 135.932C324.834 135.297 321.75 133.884 318.742 132.441C316.051 131.169 313.021 129.544 312.343 126.673C311.768 124.317 313.036 121.936 314.417 119.96C316.297 117.306 318.597 114.903 321.163 112.847C322.545 111.737 324.067 110.711 325.791 110.351C327.551 109.995 329.57 110.489 330.592 111.909C331.516 113.177 331.442 114.938 330.737 116.32C330.029 117.74 328.97 118.949 328.538 119.273Z" fill="#F08200"/>
<path d="M311.759 132.609C310.754 131.115 307.35 131.571 304.155 133.627C300.961 135.684 299.185 138.562 300.19 140.056C301.195 141.55 304.599 141.094 307.793 139.038C310.988 136.981 312.764 134.103 311.759 132.609Z" fill="#F08200"/>
<path d="M319.522 138.286C317.892 137.479 315.179 139.537 313.46 142.883C311.742 146.229 311.67 149.597 313.299 150.404C314.928 151.212 317.642 149.153 319.361 145.807C321.079 142.461 321.151 139.093 319.522 138.286Z" fill="#F08200"/>
<path d="M308.548 122.473C308.215 120.715 304.894 119.835 301.129 120.506C297.365 121.178 294.583 123.147 294.915 124.905C295.248 126.662 298.569 127.542 302.334 126.871C306.098 126.199 308.88 124.23 308.548 122.473Z" fill="#F08200"/>
<path d="M309.189 109.026C305.894 107.105 302.471 106.791 301.542 108.325C300.613 109.859 302.532 112.661 305.826 114.583C309.121 116.505 312.544 116.819 313.473 115.285C314.401 113.751 312.484 110.949 309.189 109.026Z" fill="#F08200"/>
</g>
<mask id="mask4_378_11214" style="mask-type:luminance" maskUnits="userSpaceOnUse" x="229" y="197" width="46" height="46">
<path d="M232.709 197.094L229.168 239.193L271.267 242.734L274.808 200.635L232.709 197.094Z" fill="white"/>
</mask>
<g mask="url(#mask4_378_11214)">
<path d="M264.857 209.668C263.274 210.977 262.984 213.55 264.247 215.17C266.339 217.871 271.38 217.465 272.738 220.572C273.571 222.481 272.386 224.762 270.535 225.76C268.684 226.758 266.478 226.717 264.413 226.326C261.153 225.692 258.069 224.279 255.061 222.836C252.371 221.564 249.342 219.939 248.663 217.069C248.088 214.712 249.356 212.331 250.736 210.355C252.616 207.701 254.917 205.298 257.483 203.242C258.864 202.132 260.386 201.106 262.11 200.746C263.871 200.389 265.89 200.884 266.912 202.304C267.837 203.572 267.762 205.333 267.056 206.716C266.348 208.135 265.289 209.344 264.857 209.668Z" fill="#F08200"/>
<path d="M248.079 223.004C247.074 221.51 243.67 221.966 240.475 224.023C237.28 226.079 235.505 228.958 236.509 230.451C237.514 231.946 240.918 231.489 244.113 229.433C247.308 227.376 249.084 224.498 248.079 223.004Z" fill="#F08200"/>
<path d="M255.842 228.681C254.212 227.873 251.499 229.932 249.78 233.278C248.062 236.625 247.99 239.992 249.619 240.799C251.248 241.606 253.962 239.548 255.68 236.202C257.399 232.856 257.471 229.488 255.842 228.681Z" fill="#F08200"/>
<path d="M244.867 212.868C244.534 211.11 241.213 210.23 237.448 210.902C233.685 211.573 230.903 213.543 231.235 215.3C231.568 217.057 234.888 217.938 238.653 217.266C242.417 216.594 245.199 214.625 244.867 212.868Z" fill="#F08200"/>
<path d="M245.509 199.422C242.214 197.5 238.791 197.186 237.862 198.72C236.934 200.254 238.852 203.056 242.146 204.977C245.441 206.9 248.864 207.214 249.793 205.68C250.721 204.145 248.803 201.344 245.509 199.422Z" fill="#F08200"/>
</g>
<mask id="mask5_378_11214" style="mask-type:luminance" maskUnits="userSpaceOnUse" x="122" y="238" width="53" height="52">
<path d="M132.988 238.411L122.936 279.446L163.971 289.498L174.023 248.463L132.988 238.411Z" fill="white"/>
</mask>
<g mask="url(#mask5_378_11214)">
<path d="M162.786 255.837C161.019 256.884 160.332 259.379 161.326 261.177C162.973 264.17 168.015 264.554 168.873 267.835C169.399 269.851 167.873 271.919 165.89 272.616C163.905 273.314 161.733 272.93 159.753 272.223C156.633 271.089 153.806 269.212 151.06 267.319C148.6 265.643 145.861 263.567 145.637 260.626C145.436 258.209 147.059 256.054 148.731 254.317C151.001 251.987 153.647 249.972 156.502 248.341C158.04 247.46 159.703 246.683 161.462 246.596C163.256 246.517 165.174 247.32 165.962 248.882C166.678 250.279 166.33 252.006 165.418 253.262C164.497 254.554 163.264 255.583 162.786 255.837Z" fill="#F08200"/>
<path d="M144.136 266.398C143.377 264.766 139.942 264.686 136.467 266.22C132.991 267.754 130.789 270.321 131.549 271.953C132.308 273.585 135.742 273.665 139.218 272.131C142.694 270.597 144.896 268.03 144.136 266.398Z" fill="#F08200"/>
<path d="M150.921 273.213C149.437 272.163 146.436 273.773 144.217 276.812C141.999 279.85 141.404 283.165 142.887 284.215C144.37 285.267 147.372 283.656 149.59 280.618C151.808 277.58 152.404 274.265 150.921 273.213Z" fill="#F08200"/>
<path d="M142.541 255.885C142.487 254.097 139.343 252.71 135.52 252.788C131.697 252.865 128.643 254.377 128.697 256.165C128.752 257.953 131.896 259.34 135.719 259.263C139.542 259.185 142.596 257.673 142.541 255.885Z" fill="#F08200"/>
<path d="M145.269 242.703C142.314 240.292 138.981 239.448 137.825 240.819C136.668 242.19 138.127 245.256 141.082 247.667C144.038 250.079 147.371 250.922 148.527 249.552C149.683 248.18 148.224 245.114 145.269 242.703Z" fill="#F08200"/>
</g>
<mask id="mask6_378_11214" style="mask-type:luminance" maskUnits="userSpaceOnUse" x="176" y="321" width="52" height="52">
<path d="M186.747 321.673L176.695 362.708L217.73 372.76L227.782 331.725L186.747 321.673Z" fill="white"/>
</mask>
<g mask="url(#mask6_378_11214)">
<path d="M216.545 339.098C214.778 340.145 214.091 342.641 215.086 344.438C216.732 347.431 221.774 347.816 222.633 351.097C223.158 353.112 221.632 355.18 219.648 355.879C217.664 356.577 215.493 356.193 213.513 355.485C210.392 354.351 207.566 352.475 204.819 350.581C202.36 348.906 199.62 346.829 199.396 343.888C199.195 341.471 200.818 339.316 202.49 337.579C204.761 335.25 207.407 333.234 210.261 331.602C211.799 330.721 213.462 329.945 215.221 329.858C217.015 329.779 218.933 330.582 219.721 332.145C220.437 333.541 220.089 335.268 219.177 336.525C218.257 337.816 217.022 338.846 216.545 339.098Z" fill="#F08200"/>
<path d="M197.895 349.66C197.136 348.028 193.701 347.949 190.226 349.482C186.75 351.016 184.548 353.583 185.307 355.215C186.067 356.848 189.501 356.927 192.977 355.393C196.453 353.859 198.655 351.293 197.895 349.66Z" fill="#F08200"/>
<path d="M204.68 356.476C203.196 355.425 200.195 357.036 197.977 360.074C195.758 363.112 195.163 366.427 196.646 367.478C198.13 368.529 201.131 366.918 203.349 363.88C205.568 360.841 206.164 357.527 204.68 356.476Z" fill="#F08200"/>
<path d="M196.3 339.147C196.245 337.359 193.102 335.973 189.279 336.05C185.457 336.128 182.401 337.64 182.457 339.428C182.512 341.216 185.655 342.602 189.478 342.524C193.301 342.447 196.355 340.935 196.3 339.147Z" fill="#F08200"/>
<path d="M199.028 325.965C196.073 323.554 192.74 322.711 191.584 324.081C190.428 325.453 191.886 328.518 194.842 330.93C197.797 333.341 201.13 334.185 202.286 332.813C203.442 331.443 201.983 328.377 199.028 325.965Z" fill="#F08200"/>
</g>
<mask id="mask7_378_11214" style="mask-type:luminance" maskUnits="userSpaceOnUse" x="44" y="360" width="52" height="52">
<path d="M54.581 360.635L44.5293 401.669L85.5639 411.721L95.6157 370.686L54.581 360.635Z" fill="white"/>
</mask>
<g mask="url(#mask7_378_11214)">
<path d="M84.3793 378.06C82.6123 379.107 81.9254 381.602 82.9206 383.4C84.567 386.393 89.6091 386.777 90.4671 390.058C90.9932 392.074 89.4663 394.141 87.4827 394.84C85.4987 395.537 83.3272 395.153 81.3476 394.447C78.2262 393.312 75.4 391.436 72.6534 389.542C70.1937 387.867 67.4542 385.79 67.2304 382.849C67.0297 380.432 68.653 378.277 70.3246 376.541C72.5947 374.211 75.2413 372.196 78.0959 370.564C79.6338 369.683 81.2964 368.906 83.0548 368.819C84.8497 368.741 86.7675 369.544 87.5555 371.106C88.271 372.502 87.9234 374.23 87.0119 375.486C86.0909 376.777 84.8566 377.807 84.3793 378.06Z" fill="#F08200"/>
<path d="M65.7294 388.621C64.9699 386.989 61.5366 386.909 58.0601 388.443C54.5842 389.977 52.3823 392.544 53.1418 394.177C53.9024 395.809 57.3356 395.888 60.8115 394.354C64.2874 392.82 66.49 390.253 65.7294 388.621Z" fill="#F08200"/>
<path d="M72.5147 395.437C71.0308 394.385 68.0296 395.997 65.8116 399.035C63.5929 402.073 62.9971 405.387 64.4811 406.439C65.9647 407.49 68.9656 405.88 71.184 402.841C73.4027 399.803 73.9984 396.488 72.5147 395.437Z" fill="#F08200"/>
<path d="M64.1354 378.108C64.0805 376.32 60.9367 374.934 57.1137 375.012C53.2906 375.089 50.2364 376.601 50.2912 378.388C50.3461 380.176 53.4895 381.563 57.3125 381.486C61.1356 381.409 64.1902 379.896 64.1354 378.108Z" fill="#F08200"/>
<path d="M66.8622 364.926C63.9071 362.515 60.5743 361.671 59.4181 363.043C58.2623 364.413 59.7206 367.48 62.6758 369.891C65.6309 372.302 68.9637 373.146 70.1199 371.775C71.2764 370.404 69.8181 367.338 66.8622 364.926Z" fill="#F08200"/>
</g>
<mask id="mask8_378_11214" style="mask-type:luminance" maskUnits="userSpaceOnUse" x="-19" y="299" width="47" height="46">
<path d="M-18.4338 302.666L-15.0715 344.779L27.0423 341.417L23.68 299.303L-18.4338 302.666Z" fill="white"/>
</mask>
<g mask="url(#mask8_378_11214)">
<path d="M15.3321 309.836C13.9832 311.386 14.1166 313.971 15.6259 315.364C18.13 317.688 23.0371 316.467 24.8833 319.311C26.0167 321.06 25.2182 323.503 23.5542 324.788C21.8908 326.075 19.708 326.393 17.6066 326.345C14.2866 326.249 11.0141 325.357 7.81191 324.424C4.94961 323.606 1.69595 322.496 0.55922 319.775C-0.392061 317.544 0.471384 314.987 1.51204 312.814C2.93436 309.889 4.81285 307.143 7.00959 304.697C8.19229 303.377 9.52705 302.116 11.1691 301.481C12.8475 300.842 14.9211 301.001 16.1606 302.236C17.2788 303.336 17.4921 305.085 17.0212 306.565C16.5535 308.08 15.7057 309.446 15.3321 309.836Z" fill="#F08200"/>
<path d="M0.949692 325.727C-0.285517 324.416 -3.56967 325.421 -6.38676 327.97C-9.20464 330.519 -10.4876 333.648 -9.25235 334.958C-8.01808 336.269 -4.73392 335.265 -1.91682 332.716C0.901059 330.166 2.18396 327.037 0.949692 325.727Z" fill="#F08200"/>
<path d="M9.53309 330.063C7.79426 329.532 5.45213 332.004 4.30112 335.587C3.15106 339.168 3.62797 342.502 5.36664 343.034C7.10546 343.565 9.44774 341.091 10.5978 337.51C11.7486 333.929 11.2718 330.595 9.53309 330.063Z" fill="#F08200"/>
<path d="M-5.42646 302.878C-8.99071 301.518 -12.4197 301.765 -13.0861 303.431C-13.7522 305.095 -11.4033 307.547 -7.84002 308.907C-4.27654 310.267 -0.846581 310.019 -0.180422 308.354C0.485899 306.689 -1.86298 304.237 -5.42646 302.878Z" fill="#F08200"/>
</g>
</g>
</svg>
