<svg width="429" height="718" viewBox="0 0 429 718" fill="none" xmlns="http://www.w3.org/2000/svg">
<g clip-path="url(#clip0_378_11215)">
<path d="M175.094 189.39C143.64 155.213 106.833 124.209 62.807 109.372C18.7806 94.5364 -33.5742 98.3368 -69.3005 128.037C-97.6185 151.572 -112.144 187.663 -121.815 223.172C-133.645 266.62 -139.391 314.873 -119.355 355.205C-102.651 388.818 -69.3004 414.202 -61.5355 450.921C-52.9537 491.535 -78.4551 530.854 -85.8632 571.693C-93.2526 612.392 -81.8343 650.478 -37.1028 676.998C-6.45594 704.803 22.8207 702.374 58.4257 681.28C68.5184 675.302 84.516 671.931 95.5289 667.906C110.374 662.481 138.238 662.782 153.196 667.906C214.995 689.057 253.368 723.293 318.474 717.916C357.928 714.66 385.544 696.429 403.947 661.398C422.35 626.369 433.233 619.176 437.711 579.867C438.885 569.582 440.068 558.997 444.951 549.876C461.025 519.819 504.479 521.62 533.914 504.429C547.604 496.434 558.307 484.056 566.627 470.552C592.889 427.903 595.828 371.833 574.157 326.678C559.05 295.184 530.985 268.44 496.667 261.834C451.636 253.154 408.276 279.166 366.757 298.619C325.228 318.072 271.043 329.858 237.354 298.76C205.468 269.322 202.886 219.597 175.103 189.408L175.094 189.39Z" fill="#FFE999"/>
</g>
<g opacity="0.3">
<mask id="mask0_378_11215" style="mask-type:luminance" maskUnits="userSpaceOnUse" x="6" y="205" width="59" height="59">
<path d="M28.2001 263.562L64.458 241.877L42.7729 205.619L6.51498 227.304L28.2001 263.562Z" fill="white"/>
</mask>
<g mask="url(#mask0_378_11215)">
<path d="M19.6577 230.117C21.6445 230.638 23.9026 229.373 24.4825 227.403C25.4549 224.128 22.1844 220.271 23.9162 217.355C24.9806 215.564 27.5244 215.196 29.4145 216.117C31.3056 217.038 32.5586 218.854 33.447 220.759C34.833 223.776 35.4841 227.106 36.0672 230.39C36.6034 233.318 37.0508 236.726 35.1163 238.952C33.5378 240.793 30.8636 241.153 28.4535 241.184C25.2007 241.206 21.9076 240.74 18.7408 239.855C17.0332 239.38 15.3119 238.743 14.0138 237.553C12.6969 236.332 11.92 234.402 12.4777 232.744C12.9682 231.254 14.4416 230.287 15.9764 230.053C17.5425 229.8 19.1417 229.955 19.6577 230.117Z" fill="#F08200"/>
<path d="M40.2772 235.964C39.6496 237.651 42.0066 240.15 45.5407 241.545C49.0748 242.94 52.4477 242.703 53.0753 241.015C53.7029 239.328 51.3466 236.828 47.8125 235.434C44.2784 234.039 40.9048 234.276 40.2772 235.964Z" fill="#F08200"/>
<path d="M40.3582 226.347C40.6532 228.141 43.9078 229.144 47.629 228.588C51.3491 228.031 54.1261 226.125 53.8311 224.331C53.5368 222.537 50.2815 221.534 46.5611 222.09C42.8409 222.647 40.0639 224.553 40.3582 226.347Z" fill="#F08200"/>
<path d="M33.9184 244.486C32.685 245.781 33.9073 248.992 36.6489 251.658C39.3905 254.323 42.613 255.434 43.8464 254.138C45.0799 252.843 43.8576 249.632 41.116 246.967C38.3744 244.301 35.1519 243.19 33.9184 244.486Z" fill="#F08200"/>
<path d="M22.6235 251.809C22.9847 255.606 24.7266 258.57 26.5139 258.429C28.3022 258.288 29.4584 255.096 29.0972 251.299C28.7357 247.501 26.9939 244.538 25.2066 244.678C23.4185 244.819 22.2623 248.012 22.6235 251.809Z" fill="#F08200"/>
</g>
<mask id="mask1_378_11215" style="mask-type:luminance" maskUnits="userSpaceOnUse" x="18" y="84" width="59" height="59">
<path d="M39.926 142.394L76.1838 120.708L54.4987 84.4506L18.2408 106.136L39.926 142.394Z" fill="white"/>
</mask>
<g mask="url(#mask1_378_11215)">
<path d="M31.3826 108.948C33.3694 109.47 35.6275 108.205 36.2074 106.234C37.1798 102.96 33.91 99.1022 35.6409 96.1855C36.7055 94.3954 39.2493 94.028 41.1401 94.9485C43.0312 95.8697 44.2841 97.6844 45.1719 99.5904C46.5586 102.608 47.2095 105.937 47.7921 109.222C48.3288 112.149 48.7764 115.557 46.8412 117.783C45.2634 119.624 42.5892 119.985 40.1792 120.016C36.9262 120.037 33.6323 119.571 30.4658 118.687C28.7581 118.212 27.0375 117.574 25.7395 116.384C24.4226 115.163 23.6456 113.234 24.2034 111.575C24.6938 110.085 26.1672 109.118 27.702 108.885C29.2673 108.632 30.8674 108.787 31.3826 108.948Z" fill="#F08200"/>
<path d="M52.0028 114.795C51.3752 116.482 53.7322 118.981 57.2655 120.376C60.7996 121.771 64.1732 121.534 64.8008 119.846C65.4284 118.159 63.0714 115.66 59.5373 114.265C56.0032 112.87 52.6304 113.107 52.0028 114.795Z" fill="#F08200"/>
<path d="M52.084 105.178C52.379 106.972 55.6336 107.975 59.3538 107.418C63.0749 106.862 65.8519 104.956 65.5569 103.162C65.2619 101.368 62.0073 100.365 58.2869 100.921C54.5659 101.479 51.789 103.384 52.084 105.178Z" fill="#F08200"/>
<path d="M45.6442 123.317C44.4108 124.613 45.6331 127.824 48.3747 130.489C51.1161 133.154 54.3388 134.265 55.572 132.969C56.8055 131.674 55.5824 128.463 52.841 125.798C50.0994 123.133 46.8777 122.022 45.6442 123.317Z" fill="#F08200"/>
<path d="M34.3485 130.64C34.7097 134.437 36.4524 137.401 38.2397 137.26C40.0278 137.119 41.1842 133.927 40.8228 130.13C40.4616 126.333 38.7197 123.369 36.9316 123.51C35.1443 123.651 33.9881 126.843 34.3485 130.64Z" fill="#F08200"/>
</g>
<mask id="mask2_378_11215" style="mask-type:luminance" maskUnits="userSpaceOnUse" x="97" y="160" width="59" height="59">
<path d="M118.889 218.619L155.147 196.934L133.462 160.676L97.2037 182.361L118.889 218.619Z" fill="white"/>
</mask>
<g mask="url(#mask2_378_11215)">
<path d="M110.346 185.174C112.332 185.695 114.59 184.43 115.17 182.459C116.143 179.184 112.873 175.327 114.604 172.411C115.668 170.62 118.212 170.253 120.103 171.174C121.993 172.095 123.246 173.91 124.135 175.815C125.521 178.833 126.172 182.162 126.755 185.447C127.292 188.374 127.739 191.783 125.804 194.009C124.226 195.85 121.552 196.209 119.142 196.24C115.889 196.262 112.595 195.796 109.428 194.911C107.721 194.437 106 193.8 104.702 192.61C103.385 191.388 102.609 189.459 103.166 187.801C103.657 186.311 105.13 185.344 106.665 185.109C108.23 184.857 109.83 185.012 110.346 185.174Z" fill="#F08200"/>
<path d="M130.966 191.02C130.338 192.708 132.694 195.206 136.228 196.602C139.762 197.997 143.136 197.759 143.764 196.072C144.39 194.384 142.034 191.885 138.5 190.49C134.966 189.096 131.592 189.332 130.966 191.02Z" fill="#F08200"/>
<path d="M131.047 181.403C131.341 183.198 134.596 184.201 138.317 183.644C142.037 183.088 144.814 181.182 144.519 179.387C144.224 177.593 140.97 176.59 137.249 177.147C133.529 177.703 130.752 179.609 131.047 181.403Z" fill="#F08200"/>
<path d="M124.606 199.542C123.373 200.838 124.596 204.048 127.338 206.714C130.079 209.379 133.301 210.49 134.534 209.195C135.768 207.899 134.545 204.688 131.804 202.023C129.062 199.357 125.84 198.247 124.606 199.542Z" fill="#F08200"/>
<path d="M113.311 206.866C113.673 210.662 115.415 213.626 117.203 213.485C118.99 213.345 120.147 210.152 119.786 206.355C119.425 202.558 117.683 199.594 115.895 199.735C114.107 199.875 112.95 203.068 113.311 206.866Z" fill="#F08200"/>
</g>
<mask id="mask3_378_11215" style="mask-type:luminance" maskUnits="userSpaceOnUse" x="112" y="279" width="59" height="59">
<path d="M134.205 337.616L170.463 315.931L148.778 279.673L112.52 301.358L134.205 337.616Z" fill="white"/>
</mask>
<g mask="url(#mask3_378_11215)">
<path d="M125.662 304.171C127.649 304.693 129.907 303.427 130.487 301.457C131.459 298.182 128.19 294.325 129.921 291.409C130.985 289.618 133.529 289.251 135.419 290.172C137.31 291.093 138.563 292.908 139.451 294.813C140.837 297.831 141.488 301.16 142.071 304.444C142.608 307.372 143.055 310.781 141.121 313.006C139.542 314.848 136.868 315.208 134.459 315.238C131.206 315.26 127.912 314.794 124.745 313.909C123.038 313.435 121.316 312.797 120.018 311.607C118.702 310.386 117.925 308.456 118.482 306.798C118.973 305.308 120.446 304.341 121.981 304.107C123.547 303.855 125.147 304.009 125.662 304.171Z" fill="#F08200"/>
<path d="M146.282 310.018C145.655 311.706 148.011 314.204 151.545 315.599C155.08 316.995 158.453 316.757 159.08 315.069C159.707 313.382 157.351 310.883 153.817 309.488C150.283 308.093 146.909 308.33 146.282 310.018Z" fill="#F08200"/>
<path d="M146.363 300.401C146.658 302.195 149.913 303.198 153.634 302.642C157.354 302.085 160.131 300.179 159.837 298.385C159.542 296.591 156.286 295.588 152.566 296.145C148.846 296.701 146.069 298.607 146.363 300.401Z" fill="#F08200"/>
<path d="M139.923 318.54C138.69 319.835 139.912 323.046 142.654 325.712C145.395 328.378 148.618 329.488 149.851 328.193C151.085 326.897 149.862 323.686 147.121 321.021C144.379 318.355 141.157 317.245 139.923 318.54Z" fill="#F08200"/>
<path d="M128.628 325.863C128.99 329.661 130.731 332.624 132.52 332.483C134.307 332.343 135.463 329.15 135.103 325.353C134.741 321.556 132.999 318.592 131.211 318.733C129.423 318.874 128.267 322.066 128.628 325.863Z" fill="#F08200"/>
</g>
<mask id="mask4_378_11215" style="mask-type:luminance" maskUnits="userSpaceOnUse" x="260" y="227" width="56" height="56">
<path d="M276.992 282.751L315.679 265.775L298.703 227.088L260.016 244.063L276.992 282.751Z" fill="white"/>
</mask>
<g mask="url(#mask4_378_11215)">
<path d="M272.701 248.5C274.606 249.266 277.005 248.294 277.827 246.411C279.202 243.284 276.441 239.047 278.523 236.372C279.803 234.728 282.373 234.682 284.134 235.832C285.893 236.983 286.907 238.941 287.553 240.941C288.554 244.108 288.78 247.494 288.95 250.825C289.109 253.798 289.134 257.234 286.932 259.201C285.135 260.831 282.438 260.853 280.043 260.581C276.813 260.196 273.603 259.321 270.572 258.047C268.937 257.362 267.309 256.515 266.171 255.172C265.017 253.795 264.488 251.784 265.248 250.208C265.922 248.791 267.505 248.016 269.056 247.976C270.642 247.922 272.209 248.275 272.701 248.5Z" fill="#F08200"/>
<path d="M292.428 256.881C291.593 258.478 293.619 261.251 296.948 263.079C300.284 264.904 303.661 265.09 304.489 263.497C305.324 261.9 303.297 259.127 299.969 257.299C296.641 255.472 293.263 255.285 292.428 256.881Z" fill="#F08200"/>
<path d="M293.711 247.351C293.782 249.168 296.884 250.571 300.643 250.485C304.402 250.398 307.401 248.853 307.33 247.037C307.259 245.222 304.157 243.819 300.398 243.905C296.639 243.991 293.64 245.535 293.711 247.351Z" fill="#F08200"/>
<path d="M285.051 264.541C283.665 265.672 284.476 269.011 286.863 271.999C289.249 274.986 292.307 276.491 293.69 275.361C295.076 274.231 294.269 270.89 291.881 267.903C289.495 264.916 286.437 263.41 285.051 264.541Z" fill="#F08200"/>
<path d="M272.929 270.393C272.811 274.205 274.169 277.364 275.96 277.448C277.751 277.532 279.298 274.51 279.416 270.697C279.532 266.885 278.174 263.726 276.384 263.642C274.592 263.558 273.045 266.581 272.929 270.393Z" fill="#F08200"/>
</g>
<mask id="mask5_378_11215" style="mask-type:luminance" maskUnits="userSpaceOnUse" x="399" y="271" width="57" height="56">
<path d="M416.637 326.987L455.324 310.011L438.349 271.324L399.661 288.3L416.637 326.987Z" fill="white"/>
</mask>
<g mask="url(#mask5_378_11215)">
<path d="M412.35 292.736C414.256 293.502 416.654 292.53 417.48 290.645C418.855 287.519 416.092 283.283 418.177 280.606C419.453 278.963 422.02 278.918 423.787 280.067C425.546 281.218 426.56 283.176 427.207 285.176C428.199 288.345 428.433 291.729 428.596 295.062C428.762 298.033 428.779 301.471 426.582 303.436C424.784 305.066 422.087 305.088 419.693 304.817C416.461 304.432 413.25 303.557 410.223 302.282C408.586 301.598 406.963 300.749 405.822 299.407C404.671 298.03 404.137 296.019 404.895 294.444C405.571 293.027 407.156 292.251 408.703 292.213C410.295 292.157 411.862 292.51 412.35 292.736Z" fill="#F08200"/>
<path d="M424.699 308.777C423.314 309.908 424.128 313.246 426.516 316.233C428.895 319.222 431.958 320.727 433.343 319.596C434.728 318.465 433.921 315.126 431.534 312.138C429.147 309.15 426.084 307.646 424.699 308.777Z" fill="#F08200"/>
<path d="M412.576 314.629C412.46 318.441 413.821 321.599 415.607 321.684C417.4 321.768 418.95 318.744 419.066 314.932C419.181 311.12 417.828 307.96 416.035 307.877C414.242 307.793 412.692 310.817 412.576 314.629Z" fill="#F08200"/>
</g>
<mask id="mask6_378_11215" style="mask-type:luminance" maskUnits="userSpaceOnUse" x="243" y="355" width="57" height="56">
<path d="M260.506 410.948L299.193 393.972L282.217 355.285L243.53 372.261L260.506 410.948Z" fill="white"/>
</mask>
<g mask="url(#mask6_378_11215)">
<path d="M256.217 376.697C258.122 377.464 260.521 376.491 261.343 374.608C262.717 371.481 259.956 367.245 262.039 364.568C263.319 362.925 265.889 362.879 267.649 364.029C269.409 365.18 270.426 367.137 271.068 369.138C272.066 372.306 272.296 375.691 272.463 379.022C272.628 381.994 272.646 385.432 270.447 387.398C268.651 389.027 265.953 389.049 263.558 388.778C260.328 388.393 257.119 387.518 254.088 386.244C252.453 385.56 250.825 384.711 249.687 383.369C248.533 381.992 248.003 379.981 248.764 378.405C249.438 376.988 251.02 376.213 252.572 376.173C254.157 376.119 255.725 376.472 256.217 376.697Z" fill="#F08200"/>
<path d="M275.942 385.078C275.109 386.675 277.134 389.448 280.465 391.275C283.797 393.101 287.174 393.288 288.008 391.693C288.841 390.097 286.816 387.323 283.485 385.496C280.153 383.67 276.776 383.483 275.942 385.078Z" fill="#F08200"/>
<path d="M277.227 375.548C277.294 377.365 280.398 378.768 284.159 378.681C287.92 378.595 290.914 377.051 290.846 375.235C290.778 373.418 287.675 372.015 283.913 372.102C280.152 372.188 277.159 373.731 277.227 375.548Z" fill="#F08200"/>
<path d="M268.567 392.738C267.181 393.869 267.992 397.208 270.378 400.196C272.765 403.183 275.822 404.688 277.208 403.557C278.594 402.426 277.784 399.088 275.397 396.1C273.01 393.112 269.953 391.607 268.567 392.738Z" fill="#F08200"/>
<path d="M256.444 398.59C256.327 402.402 257.685 405.561 259.476 405.645C261.267 405.729 262.814 402.706 262.931 398.894C263.048 395.082 261.691 391.923 259.899 391.839C258.108 391.755 256.561 394.777 256.444 398.59Z" fill="#F08200"/>
</g>
<mask id="mask7_378_11215" style="mask-type:luminance" maskUnits="userSpaceOnUse" x="359" y="387" width="50" height="49">
<path d="M366.264 435.148L408.043 428.87L401.766 387.091L359.987 393.369L366.264 435.148Z" fill="white"/>
</mask>
<g mask="url(#mask7_378_11215)">
<path d="M371.073 400.965C372.707 402.204 375.279 401.892 376.565 400.289C378.712 397.629 377.151 392.819 379.863 390.779C381.522 389.529 384.018 390.155 385.417 391.725C386.816 393.296 387.288 395.45 387.384 397.55C387.518 400.869 386.855 404.196 386.142 407.457C385.527 410.368 384.648 413.689 382.012 415.014C379.853 416.117 377.244 415.433 375.002 414.545C371.982 413.33 369.111 411.647 366.523 409.625C365.126 408.536 363.771 407.294 363.025 405.699C362.27 404.069 362.286 401.989 363.432 400.667C364.455 399.474 366.18 399.141 367.693 399.507C369.238 399.869 370.654 400.621 371.073 400.965Z" fill="#F08200"/>
<path d="M387.923 414.21C386.696 415.534 387.929 418.74 390.669 421.373C393.408 424.006 396.619 425.07 397.839 423.747C399.059 422.425 397.834 419.217 395.094 416.584C392.354 413.951 389.143 412.889 387.923 414.21Z" fill="#F08200"/>
<path d="M391.654 405.346C391.244 407.118 393.87 409.284 397.524 410.183C401.178 411.081 404.47 410.374 404.88 408.603C405.29 406.83 402.657 404.666 399.003 403.768C395.356 402.867 392.057 403.576 391.654 405.346Z" fill="#F08200"/>
<path d="M378.798 419.677C377.168 420.406 377.077 423.841 378.603 427.348C380.122 430.856 382.679 433.108 384.317 432.377C385.948 431.649 386.039 428.214 384.513 424.708C382.994 421.199 380.436 418.947 378.798 419.677Z" fill="#F08200"/>
<path d="M365.571 422.157C364.458 425.808 364.943 429.211 366.652 429.76C368.361 430.309 370.645 427.795 371.752 424.146C372.858 420.497 372.38 417.092 370.671 416.543C368.962 415.995 366.678 418.508 365.571 422.157Z" fill="#F08200"/>
</g>
</g>
<defs>
<clipPath id="clip0_378_11215">
<rect width="428" height="618" fill="white" transform="translate(0.0717773 100)"/>
</clipPath>
</defs>
</svg>
