<svg width="429" height="852" viewBox="0 0 429 852" fill="none" xmlns="http://www.w3.org/2000/svg">
<g clip-path="url(#clip0_378_11213)">
<path d="M-382.2 72.3637C-414.563 100.81 -404.422 154.826 -380.063 190.37C-341.697 246.356 -268.246 281.598 -203.676 260.678C-143.337 241.123 -106.919 181.969 -67.3223 132.425C-26.9228 81.8701 24.0872 36.3603 86.5938 19.6199C149.1 2.87951 224.24 21.7463 258.708 76.5123C276.521 104.813 283.129 140.837 308.165 162.998C349.055 199.199 414.448 179.561 465.354 199.345C499.271 212.521 525.151 244.542 530.925 280.472C536.7 316.403 522.149 354.918 494.059 378.048C456.453 409.028 397.063 414.74 374.205 457.769C349.847 503.633 383.732 557.461 390.872 608.901C401.357 684.515 341.852 762.828 266.192 772.96C175.127 785.166 96.4019 712.023 38.9609 640.298C27.9855 626.59 16.812 612.362 1.5528 603.669C-25.7762 588.117 -61.4541 593.985 -87.8242 611.132C-114.194 628.279 -132.82 654.912 -148.757 682.034C-198.422 766.56 -228.18 861.571 -277.731 946.159C-301.036 985.936 -329.251 1023.83 -366.712 1050.68C-435.899 1100.25 -531.749 1105.52 -610.078 1072.23C-688.406 1038.95 -749.089 970.634 -782.286 892.259" fill="#FFE999"/>
<path d="M145.919 795.053C138.008 786.662 126.824 781.137 115.286 781.126C103.747 781.116 92.1258 786.985 86.2055 796.888C80.2853 806.78 80.869 820.466 88.4152 829.191C93.0326 834.528 99.7346 837.727 106.635 839.238C118.934 841.917 132.828 839.073 141.583 830.035C150.338 820.998 154.309 803.976 145.908 795.064L145.919 795.053Z" fill="#FFE999"/>
</g>
<g opacity="0.3">
<mask id="mask0_378_11213" style="mask-type:luminance" maskUnits="userSpaceOnUse" x="-18" y="297" width="59" height="59">
<path d="M4.27239 355.349L40.5303 333.663L18.8451 297.406L-17.4128 319.091L4.27239 355.349Z" fill="white"/>
</mask>
<g mask="url(#mask0_378_11213)">
<path d="M-4.26999 321.903C-2.28325 322.425 -0.025148 321.16 0.55476 319.189C1.52718 315.914 -1.74334 312.057 -0.011509 309.141C1.0529 307.35 3.5967 306.983 5.48677 307.903C7.37782 308.825 8.63088 310.64 9.51929 312.545C10.9052 315.563 11.5563 318.892 12.1395 322.176C12.6757 325.105 13.123 328.512 11.1886 330.738C9.61003 332.579 6.93584 332.94 4.52577 332.971C1.273 332.993 -2.02017 332.526 -5.18689 331.642C-6.89453 331.167 -8.61586 330.529 -9.91388 329.339C-11.2308 328.118 -12.0077 326.189 -11.45 324.53C-10.9595 323.04 -9.48612 322.073 -7.95134 321.84C-6.38525 321.587 -4.786 321.741 -4.26999 321.903Z" fill="#F08200"/>
<path d="M16.3495 327.75C15.7219 329.437 18.0789 331.936 21.613 333.331C25.147 334.726 28.5199 334.489 29.1475 332.801C29.7751 331.114 27.4189 328.615 23.8848 327.22C20.3507 325.825 16.9771 326.063 16.3495 327.75Z" fill="#F08200"/>
<path d="M16.4304 318.133C16.7255 319.927 19.9801 320.931 23.7012 320.374C27.4214 319.817 30.1984 317.911 29.9033 316.117C29.6091 314.323 26.3537 313.32 22.6334 313.877C18.9132 314.434 16.1362 316.339 16.4304 318.133Z" fill="#F08200"/>
<path d="M9.99068 336.272C8.75722 337.568 9.97955 340.779 12.7211 343.444C15.4627 346.11 18.6852 347.22 19.9187 345.925C21.1521 344.629 19.9298 341.418 17.1882 338.753C14.4466 336.087 11.2241 334.977 9.99068 336.272Z" fill="#F08200"/>
<path d="M-1.30425 343.595C-0.943028 347.392 0.798888 350.356 2.5862 350.215C4.37448 350.075 5.53065 346.882 5.16943 343.085C4.80801 339.288 3.06615 336.324 1.27885 336.465C-0.509236 336.606 -1.66547 339.798 -1.30425 343.595Z" fill="#F08200"/>
</g>
<mask id="mask1_378_11213" style="mask-type:luminance" maskUnits="userSpaceOnUse" x="-6" y="176" width="59" height="59">
<path d="M15.9982 234.18L52.2561 212.495L30.571 176.237L-5.68692 197.922L15.9982 234.18Z" fill="white"/>
</mask>
<g mask="url(#mask1_378_11213)">
<path d="M7.45488 200.735C9.44163 201.256 11.6997 199.991 12.2796 198.02C13.252 194.746 9.9823 190.889 11.7132 187.972C12.7778 186.182 15.3215 185.814 17.2124 186.735C19.1034 187.656 20.3563 189.471 21.2442 191.377C22.6309 194.394 23.2818 197.723 23.8643 201.008C24.4011 203.935 24.8487 207.344 22.9134 209.57C21.3357 211.411 18.6615 211.771 16.2514 211.802C12.9985 211.823 9.70455 211.357 6.53803 210.473C4.83039 209.998 3.10977 209.361 1.81174 208.171C0.49482 206.949 -0.282091 205.02 0.275624 203.362C0.766109 201.872 2.23951 200.905 3.77429 200.671C5.33961 200.418 6.93964 200.573 7.45488 200.735Z" fill="#F08200"/>
<path d="M28.0751 206.581C27.4475 208.269 29.8044 210.768 33.3378 212.163C36.8718 213.558 40.2455 213.32 40.8731 211.633C41.5007 209.945 39.1437 207.446 35.6096 206.051C32.0755 204.657 28.7027 204.894 28.0751 206.581Z" fill="#F08200"/>
<path d="M28.1563 196.965C28.4513 198.759 31.7059 199.762 35.426 199.205C39.1472 198.648 41.9242 196.743 41.6292 194.949C41.3342 193.155 38.0795 192.152 34.3591 192.708C30.6382 193.265 27.8613 195.171 28.1563 196.965Z" fill="#F08200"/>
<path d="M21.7165 215.104C20.4831 216.399 21.7054 219.61 24.447 222.276C27.1884 224.94 30.411 226.052 31.6443 224.755C32.8777 223.46 31.6547 220.249 28.9133 217.584C26.1717 214.919 22.95 213.808 21.7165 215.104Z" fill="#F08200"/>
<path d="M10.4208 222.427C10.782 226.223 12.5247 229.187 14.312 229.046C16.1 228.905 17.2565 225.714 16.8951 221.916C16.5338 218.119 14.7919 215.155 13.0039 215.296C11.2165 215.437 10.0603 218.629 10.4208 222.427Z" fill="#F08200"/>
</g>
<mask id="mask2_378_11213" style="mask-type:luminance" maskUnits="userSpaceOnUse" x="73" y="252" width="59" height="59">
<path d="M94.9611 310.405L131.219 288.72L109.534 252.462L73.276 274.147L94.9611 310.405Z" fill="white"/>
</mask>
<g mask="url(#mask2_378_11213)">
<path d="M86.4179 276.96C88.4046 277.481 90.6627 276.217 91.2424 274.245C92.2148 270.97 88.9451 267.113 90.6761 264.197C91.7405 262.406 94.2845 262.04 96.1754 262.96C98.0656 263.882 99.3185 265.696 100.207 267.601C101.593 270.62 102.245 273.948 102.827 277.233C103.364 280.16 103.812 283.569 101.876 285.795C100.298 287.636 97.6243 287.996 95.2142 288.026C91.9614 288.049 88.6675 287.582 85.5008 286.698C83.7931 286.223 82.072 285.586 80.7747 284.396C79.4576 283.174 78.6809 281.245 79.2386 279.587C79.7291 278.097 81.2025 277.13 82.7371 276.896C84.3026 276.644 85.9026 276.798 86.4179 276.96Z" fill="#F08200"/>
<path d="M107.038 282.807C106.41 284.494 108.766 286.993 112.301 288.388C115.835 289.783 119.208 289.546 119.836 287.858C120.463 286.17 118.107 283.672 114.572 282.277C111.038 280.882 107.664 281.119 107.038 282.807Z" fill="#F08200"/>
<path d="M107.119 273.189C107.413 274.984 110.669 275.987 114.389 275.43C118.109 274.874 120.886 272.968 120.592 271.173C120.297 269.379 117.042 268.376 113.321 268.934C109.601 269.49 106.824 271.395 107.119 273.189Z" fill="#F08200"/>
<path d="M100.679 291.328C99.4452 292.624 100.668 295.835 103.41 298.5C106.151 301.166 109.373 302.276 110.607 300.981C111.84 299.686 110.618 296.475 107.876 293.809C105.135 291.144 101.912 290.033 100.679 291.328Z" fill="#F08200"/>
<path d="M89.3838 298.652C89.745 302.449 91.4869 305.413 93.275 305.272C95.0623 305.131 96.2193 301.938 95.858 298.141C95.4968 294.345 93.7549 291.381 91.9668 291.522C90.1793 291.662 89.0223 294.854 89.3838 298.652Z" fill="#F08200"/>
</g>
<mask id="mask3_378_11213" style="mask-type:luminance" maskUnits="userSpaceOnUse" x="88" y="371" width="59" height="59">
<path d="M110.277 429.402L146.535 407.717L124.85 371.459L88.5921 393.145L110.277 429.402Z" fill="white"/>
</mask>
<g mask="url(#mask3_378_11213)">
<path d="M101.734 395.957C103.721 396.479 105.979 395.214 106.559 393.243C107.532 389.968 104.262 386.111 105.993 383.195C107.057 381.404 109.601 381.037 111.491 381.958C113.382 382.879 114.635 384.694 115.524 386.599C116.91 389.618 117.561 392.947 118.144 396.231C118.68 399.159 119.128 402.567 117.193 404.792C115.615 406.634 112.94 406.994 110.531 407.025C107.278 407.047 103.984 406.58 100.817 405.696C99.1098 405.221 97.3884 404.583 96.0904 403.393C94.7743 402.172 93.9974 400.243 94.5543 398.584C95.0448 397.094 96.5182 396.128 98.053 395.894C99.6191 395.641 101.219 395.795 101.734 395.957Z" fill="#F08200"/>
<path d="M122.354 401.804C121.727 403.492 124.083 405.99 127.618 407.385C131.152 408.781 134.525 408.543 135.152 406.855C135.78 405.168 133.424 402.669 129.89 401.275C126.355 399.879 122.982 400.117 122.354 401.804Z" fill="#F08200"/>
<path d="M122.435 392.188C122.73 393.982 125.985 394.985 129.706 394.428C133.426 393.871 136.203 391.966 135.909 390.171C135.614 388.377 132.359 387.374 128.639 387.931C124.918 388.488 122.141 390.393 122.435 392.188Z" fill="#F08200"/>
<path d="M115.996 410.326C114.762 411.622 115.984 414.833 118.726 417.498C121.468 420.164 124.69 421.274 125.924 419.979C127.157 418.684 125.935 415.473 123.193 412.807C120.451 410.141 117.229 409.031 115.996 410.326Z" fill="#F08200"/>
<path d="M104.7 417.649C105.062 421.447 106.804 424.411 108.592 424.27C110.379 424.129 111.535 420.936 111.175 417.139C110.814 413.343 109.071 410.378 107.283 410.519C105.495 410.66 104.339 413.852 104.7 417.649Z" fill="#F08200"/>
</g>
<mask id="mask4_378_11213" style="mask-type:luminance" maskUnits="userSpaceOnUse" x="236" y="318" width="56" height="57">
<path d="M253.064 374.537L291.751 357.561L274.776 318.874L236.088 335.85L253.064 374.537Z" fill="white"/>
</mask>
<g mask="url(#mask4_378_11213)">
<path d="M248.773 340.287C250.679 341.053 253.077 340.08 253.899 338.197C255.274 335.07 252.513 330.834 254.595 328.158C255.875 326.514 258.445 326.468 260.206 327.619C261.965 328.77 262.979 330.727 263.626 332.728C264.626 335.895 264.852 339.28 265.022 342.611C265.181 345.584 265.206 349.02 263.005 350.987C261.208 352.617 258.51 352.639 256.115 352.368C252.885 351.982 249.676 351.108 246.644 349.833C245.009 349.148 243.382 348.301 242.243 346.958C241.09 345.581 240.561 343.57 241.321 341.995C241.994 340.577 243.577 339.802 245.129 339.763C246.714 339.708 248.282 340.062 248.773 340.287Z" fill="#F08200"/>
<path d="M268.5 348.668C267.665 350.264 269.692 353.038 273.02 354.865C276.356 356.69 279.733 356.877 280.561 355.283C281.396 353.686 279.369 350.913 276.041 349.085C272.713 347.259 269.335 347.072 268.5 348.668Z" fill="#F08200"/>
<path d="M269.783 339.138C269.854 340.954 272.956 342.357 276.715 342.271C280.474 342.184 283.473 340.64 283.402 338.823C283.332 337.008 280.23 335.605 276.47 335.691C272.711 335.777 269.712 337.321 269.783 339.138Z" fill="#F08200"/>
<path d="M261.124 356.328C259.738 357.459 260.549 360.798 262.935 363.785C265.321 366.773 268.38 368.278 269.763 367.148C271.148 366.017 270.341 362.677 267.953 359.69C265.568 356.702 262.509 355.197 261.124 356.328Z" fill="#F08200"/>
<path d="M249.001 362.179C248.883 365.992 250.241 369.151 252.032 369.235C253.824 369.319 255.37 366.296 255.488 362.483C255.605 358.671 254.247 355.512 252.456 355.428C250.664 355.344 249.118 358.367 249.001 362.179Z" fill="#F08200"/>
</g>
<mask id="mask5_378_11213" style="mask-type:luminance" maskUnits="userSpaceOnUse" x="375" y="363" width="57" height="56">
<path d="M392.71 418.774L431.397 401.798L414.421 363.111L375.734 380.087L392.71 418.774Z" fill="white"/>
</mask>
<g mask="url(#mask5_378_11213)">
<path d="M388.422 384.522C390.328 385.288 392.727 384.316 393.553 382.432C394.927 379.305 392.164 375.069 394.249 372.393C395.525 370.75 398.092 370.704 399.859 371.853C401.618 373.004 402.632 374.962 403.279 376.962C404.272 380.131 404.505 383.515 404.668 386.848C404.835 389.819 404.851 393.257 402.655 395.223C400.856 396.853 398.159 396.874 395.765 396.603C392.534 396.218 389.323 395.344 386.295 394.069C384.658 393.384 383.035 392.535 381.894 391.193C380.743 389.816 380.209 387.806 380.968 386.231C381.643 384.813 383.228 384.037 384.776 383.999C386.368 383.943 387.935 384.296 388.422 384.522Z" fill="#F08200"/>
<path d="M408.145 392.904C407.318 394.499 409.337 397.274 412.673 399.1C416.001 400.927 419.379 401.113 420.214 399.518C421.049 397.921 419.022 395.148 415.694 393.32C412.358 391.495 408.981 391.309 408.145 392.904Z" fill="#F08200"/>
<path d="M409.436 383.372C409.499 385.191 412.601 386.594 416.368 386.505C420.127 386.419 423.118 384.876 423.055 383.058C422.984 381.243 419.882 379.839 416.123 379.926C412.356 380.014 409.365 381.556 409.436 383.372Z" fill="#F08200"/>
<path d="M400.771 400.564C399.386 401.694 400.201 405.032 402.588 408.02C404.968 411.009 408.03 412.513 409.415 411.382C410.801 410.251 409.994 406.912 407.606 403.924C405.219 400.937 402.156 399.433 400.771 400.564Z" fill="#F08200"/>
<path d="M388.648 406.415C388.532 410.227 389.893 413.385 391.679 413.471C393.472 413.554 395.022 410.531 395.138 406.719C395.254 402.907 393.9 399.746 392.107 399.663C390.314 399.58 388.764 402.603 388.648 406.415Z" fill="#F08200"/>
</g>
<mask id="mask6_378_11213" style="mask-type:luminance" maskUnits="userSpaceOnUse" x="219" y="447" width="57" height="56">
<path d="M236.578 502.734L275.265 485.758L258.289 447.071L219.602 464.047L236.578 502.734Z" fill="white"/>
</mask>
<g mask="url(#mask6_378_11213)">
<path d="M232.289 468.483C234.195 469.25 236.593 468.277 237.415 466.395C238.79 463.267 236.028 459.031 238.111 456.355C239.391 454.711 241.961 454.666 243.722 455.815C245.482 456.966 246.498 458.923 247.141 460.925C248.138 464.092 248.368 467.477 248.535 470.809C248.7 473.78 248.718 477.218 246.52 479.184C244.723 480.814 242.025 480.836 239.63 480.564C236.4 480.179 233.191 479.304 230.16 478.03C228.525 477.346 226.897 476.498 225.759 475.155C224.606 473.778 224.076 471.767 224.836 470.191C225.51 468.775 227.093 467.999 228.644 467.959C230.23 467.905 231.797 468.258 232.289 468.483Z" fill="#F08200"/>
<path d="M252.015 476.865C251.181 478.461 253.206 481.235 256.538 483.062C259.87 484.887 263.246 485.074 264.08 483.479C264.914 481.883 262.888 479.109 259.557 477.282C256.225 475.456 252.848 475.269 252.015 476.865Z" fill="#F08200"/>
<path d="M253.299 467.334C253.367 469.152 256.47 470.554 260.231 470.468C263.993 470.381 266.986 468.837 266.918 467.021C266.851 465.204 263.747 463.801 259.985 463.888C256.225 463.974 253.231 465.517 253.299 467.334Z" fill="#F08200"/>
<path d="M244.639 484.524C243.253 485.655 244.064 488.994 246.45 491.982C248.837 494.969 251.895 496.475 253.281 495.344C254.667 494.213 253.856 490.874 251.469 487.886C249.083 484.899 246.025 483.394 244.639 484.524Z" fill="#F08200"/>
<path d="M232.516 490.376C232.399 494.189 233.757 497.348 235.548 497.432C237.34 497.515 238.886 494.493 239.003 490.681C239.121 486.868 237.763 483.71 235.971 483.625C234.18 483.541 232.634 486.564 232.516 490.376Z" fill="#F08200"/>
</g>
<mask id="mask7_378_11213" style="mask-type:luminance" maskUnits="userSpaceOnUse" x="336" y="478" width="49" height="49">
<path d="M342.337 526.934L384.115 520.657L377.838 478.878L336.059 485.155L342.337 526.934Z" fill="white"/>
</mask>
<g mask="url(#mask7_378_11213)">
<path d="M347.146 492.751C348.779 493.99 351.351 493.678 352.637 492.075C354.785 489.415 353.223 484.606 355.936 482.565C357.595 481.315 360.09 481.942 361.489 483.512C362.888 485.082 363.361 487.237 363.456 489.336C363.59 492.656 362.927 495.982 362.214 499.243C361.599 502.154 360.72 505.476 358.084 506.8C355.925 507.903 353.316 507.219 351.074 506.332C348.054 505.117 345.184 503.434 342.595 501.411C341.198 500.322 339.844 499.08 339.097 497.486C338.342 495.856 338.358 493.775 339.504 492.453C340.527 491.261 342.253 490.927 343.766 491.293C345.31 491.655 346.726 492.407 347.146 492.751Z" fill="#F08200"/>
<path d="M363.996 505.996C362.768 507.321 364.001 510.526 366.741 513.16C369.481 515.793 372.692 516.856 373.912 515.534C375.131 514.211 373.906 511.004 371.166 508.37C368.426 505.737 365.216 504.675 363.996 505.996Z" fill="#F08200"/>
<path d="M367.726 497.133C367.316 498.904 369.942 501.07 373.596 501.969C377.25 502.868 380.542 502.161 380.953 500.389C381.363 498.617 378.729 496.453 375.075 495.554C371.429 494.653 368.129 495.362 367.726 497.133Z" fill="#F08200"/>
<path d="M354.87 511.464C353.24 512.192 353.149 515.628 354.675 519.134C356.194 522.642 358.752 524.895 360.389 524.163C362.02 523.435 362.111 520 360.585 516.494C359.066 512.985 356.509 510.733 354.87 511.464Z" fill="#F08200"/>
<path d="M341.644 513.943C340.53 517.594 341.016 520.998 342.725 521.546C344.433 522.095 346.718 519.581 347.824 515.933C348.93 512.284 348.452 508.878 346.743 508.33C345.034 507.781 342.75 510.294 341.644 513.943Z" fill="#F08200"/>
</g>
</g>
<defs>
<clipPath id="clip0_378_11213">
<rect width="428" height="840" fill="white" transform="translate(0.0717773)"/>
</clipPath>
</defs>
</svg>
