<svg width="429" height="608" viewBox="0 0 429 608" fill="none" xmlns="http://www.w3.org/2000/svg">
<g opacity="0.3">
<mask id="mask0_319_1886" style="mask-type:luminance" maskUnits="userSpaceOnUse" x="369" y="111" width="49" height="50">
<path d="M369.029 118.346L375.638 160.073L417.365 153.464L410.756 111.737L369.029 118.346Z" fill="white"/>
</mask>
<g mask="url(#mask0_319_1886)">
<path d="M403.248 122.883C402.023 124.532 402.355 127.099 403.969 128.372C406.645 130.495 411.443 128.898 413.503 131.591C414.768 133.247 414.161 135.744 412.602 137.155C411.043 138.566 408.892 139.053 406.792 139.167C403.476 139.329 400.143 138.692 396.878 138.008C393.962 137.416 390.632 136.56 389.288 133.935C388.167 131.784 388.83 129.169 389.7 126.921C390.891 123.894 392.552 121.012 394.553 118.402C395.63 116.996 396.863 115.636 398.451 114.874C400.075 114.108 402.155 114.106 403.485 115.242C404.686 116.252 405.034 117.98 404.679 119.491C404.329 121.038 403.59 122.465 403.248 122.883Z" fill="#F08200"/>
<path d="M390.138 139.838C388.805 138.627 385.608 139.883 382.996 142.642C380.385 145.402 379.348 148.62 380.68 149.831C382.012 151.043 385.209 149.787 387.821 147.028C390.432 144.268 391.47 141.049 390.138 139.838Z" fill="#F08200"/>
<path d="M399.03 143.498C397.256 143.102 395.112 145.75 394.241 149.409C393.372 153.069 394.106 156.357 395.88 156.752C397.655 157.147 399.799 154.5 400.669 150.84C401.539 147.18 400.805 143.893 399.03 143.498Z" fill="#F08200"/>
<path d="M384.599 130.761C383.857 129.134 380.422 129.072 376.927 130.622C373.431 132.173 371.2 134.749 371.942 136.376C372.684 138.004 376.12 138.067 379.615 136.516C383.11 134.965 385.342 132.389 384.599 130.761Z" fill="#F08200"/>
<path d="M382.014 117.551C378.355 116.471 374.955 116.983 374.42 118.694C373.884 120.406 376.416 122.668 380.074 123.749C383.732 124.829 387.132 124.317 387.667 122.605C388.203 120.894 385.671 118.631 382.014 117.551Z" fill="#F08200"/>
</g>
<mask id="mask1_319_1886" style="mask-type:luminance" maskUnits="userSpaceOnUse" x="304" y="338" width="47" height="47">
<path d="M308.223 338.565L304.682 380.664L346.781 384.205L350.322 342.106L308.223 338.565Z" fill="white"/>
</mask>
<g mask="url(#mask1_319_1886)">
<path d="M340.371 351.138C338.787 352.448 338.498 355.02 339.76 356.641C341.853 359.341 346.893 358.936 348.251 362.043C349.084 363.952 347.899 366.232 346.048 367.231C344.197 368.229 341.992 368.188 339.926 367.798C336.667 367.163 333.583 365.749 330.575 364.306C327.884 363.034 324.854 361.409 324.176 358.539C323.601 356.183 324.869 353.801 326.25 351.826C328.13 349.171 330.43 346.768 332.996 344.712C334.378 343.603 335.9 342.576 337.624 342.216C339.384 341.86 341.403 342.354 342.425 343.775C343.349 345.043 343.275 346.803 342.57 348.186C341.862 349.605 340.803 350.814 340.371 351.138Z" fill="#F08200"/>
<path d="M323.592 364.474C322.587 362.98 319.183 363.436 315.988 365.493C312.794 367.549 311.018 370.428 312.023 371.922C313.028 373.416 316.432 372.959 319.626 370.903C322.821 368.847 324.597 365.968 323.592 364.474Z" fill="#F08200"/>
<path d="M331.355 370.151C329.725 369.344 327.012 371.402 325.293 374.749C323.575 378.095 323.503 381.463 325.132 382.27C326.761 383.077 329.475 381.019 331.194 377.672C332.912 374.326 332.984 370.958 331.355 370.151Z" fill="#F08200"/>
<path d="M320.381 354.338C320.048 352.58 316.727 351.7 312.962 352.372C309.198 353.044 306.416 355.012 306.748 356.77C307.081 358.528 310.402 359.408 314.167 358.736C317.931 358.065 320.713 356.096 320.381 354.338Z" fill="#F08200"/>
<path d="M321.022 340.892C317.727 338.97 314.304 338.656 313.375 340.19C312.446 341.724 314.365 344.526 317.659 346.449C320.954 348.37 324.377 348.684 325.306 347.15C326.234 345.616 324.317 342.814 321.022 340.892Z" fill="#F08200"/>
</g>
<mask id="mask2_319_1886" style="mask-type:luminance" maskUnits="userSpaceOnUse" x="391" y="247" width="47" height="47">
<path d="M395.08 247.49L391.539 289.589L433.638 293.13L437.18 251.031L395.08 247.49Z" fill="white"/>
</mask>
<g mask="url(#mask2_319_1886)">
<path d="M427.228 260.064C425.645 261.373 425.355 263.946 426.618 265.566C428.71 268.266 433.751 267.861 435.109 270.968C435.942 272.877 434.756 275.157 432.906 276.156C431.055 277.154 428.849 277.113 426.783 276.723C423.524 276.088 420.441 274.674 417.433 273.231C414.742 271.96 411.712 270.335 411.034 267.464C410.459 265.108 411.727 262.727 413.108 260.751C414.987 258.097 417.288 255.693 419.854 253.638C421.235 252.528 422.758 251.502 424.481 251.142C426.241 250.786 428.261 251.28 429.283 252.7C430.207 253.968 430.133 255.728 429.427 257.111C428.719 258.531 427.66 259.74 427.228 260.064Z" fill="#F08200"/>
<path d="M410.45 273.4C409.445 271.906 406.041 272.362 402.846 274.418C399.651 276.475 397.875 279.353 398.88 280.847C399.885 282.341 403.289 281.885 406.484 279.829C409.679 277.772 411.455 274.894 410.45 273.4Z" fill="#F08200"/>
<path d="M418.213 279.077C416.583 278.269 413.87 280.328 412.151 283.674C410.433 287.02 410.36 290.388 411.989 291.195C413.619 292.002 416.333 289.944 418.051 286.598C419.769 283.252 419.842 279.884 418.213 279.077Z" fill="#F08200"/>
<path d="M407.238 263.264C406.906 261.506 403.585 260.626 399.82 261.297C396.056 261.969 393.273 263.938 393.606 265.696C393.939 267.453 397.26 268.333 401.024 267.662C404.789 266.99 407.57 265.021 407.238 263.264Z" fill="#F08200"/>
<path d="M407.88 249.817C404.585 247.896 401.162 247.582 400.233 249.116C399.304 250.649 401.223 253.452 404.517 255.374C407.812 257.296 411.235 257.61 412.164 256.076C413.092 254.542 411.174 251.74 407.88 249.817Z" fill="#F08200"/>
</g>
<mask id="mask3_319_1886" style="mask-type:luminance" maskUnits="userSpaceOnUse" x="304" y="199" width="47" height="47">
<path d="M308.223 199.807L304.682 241.906L346.781 245.447L350.322 203.348L308.223 199.807Z" fill="white"/>
</mask>
<g mask="url(#mask3_319_1886)">
<path d="M340.371 212.38C338.787 213.69 338.498 216.262 339.76 217.883C341.853 220.583 346.893 220.178 348.251 223.285C349.084 225.194 347.899 227.474 346.048 228.473C344.197 229.471 341.992 229.43 339.926 229.039C336.667 228.405 333.583 226.991 330.575 225.548C327.884 224.276 324.854 222.651 324.176 219.781C323.601 217.425 324.869 215.043 326.25 213.068C328.13 210.413 330.43 208.01 332.996 205.954C334.378 204.845 335.9 203.818 337.624 203.458C339.384 203.102 341.403 203.596 342.425 205.017C343.349 206.284 343.275 208.045 342.57 209.428C341.862 210.847 340.803 212.056 340.371 212.38Z" fill="#F08200"/>
<path d="M323.592 225.716C322.587 224.222 319.183 224.678 315.988 226.735C312.794 228.791 311.018 231.669 312.023 233.164C313.028 234.658 316.432 234.201 319.626 232.145C322.821 230.089 324.597 227.21 323.592 225.716Z" fill="#F08200"/>
<path d="M331.355 231.393C329.725 230.586 327.012 232.644 325.293 235.991C323.575 239.337 323.503 242.704 325.132 243.512C326.761 244.319 329.475 242.261 331.194 238.914C332.912 235.568 332.984 232.2 331.355 231.393Z" fill="#F08200"/>
<path d="M320.381 215.58C320.048 213.822 316.727 212.942 312.962 213.614C309.198 214.286 306.416 216.254 306.748 218.012C307.081 219.77 310.402 220.65 314.167 219.978C317.931 219.307 320.713 217.338 320.381 215.58Z" fill="#F08200"/>
<path d="M321.022 202.134C317.727 200.212 314.304 199.898 313.375 201.432C312.446 202.966 314.365 205.768 317.659 207.691C320.954 209.612 324.377 209.926 325.306 208.392C326.234 206.858 324.317 204.056 321.022 202.134Z" fill="#F08200"/>
</g>
<mask id="mask4_319_1886" style="mask-type:luminance" maskUnits="userSpaceOnUse" x="241" y="290" width="46" height="46">
<path d="M244.542 290.201L241.001 332.3L283.1 335.842L286.641 293.742L244.542 290.201Z" fill="white"/>
</mask>
<g mask="url(#mask4_319_1886)">
<path d="M276.69 302.776C275.107 304.084 274.817 306.657 276.08 308.277C278.172 310.978 283.213 310.573 284.571 313.679C285.404 315.589 284.219 317.869 282.368 318.868C280.517 319.866 278.311 319.825 276.246 319.434C272.986 318.799 269.902 317.386 266.894 315.943C264.204 314.671 261.175 313.046 260.496 310.176C259.921 307.82 261.189 305.438 262.57 303.463C264.449 300.808 266.75 298.405 269.316 296.349C270.697 295.24 272.219 294.213 273.943 293.854C275.704 293.497 277.723 293.991 278.745 295.412C279.67 296.679 279.595 298.44 278.889 299.823C278.181 301.242 277.122 302.451 276.69 302.776Z" fill="#F08200"/>
<path d="M259.912 316.111C258.907 314.618 255.503 315.074 252.308 317.13C249.113 319.186 247.338 322.065 248.342 323.559C249.347 325.053 252.751 324.597 255.946 322.54C259.141 320.484 260.917 317.606 259.912 316.111Z" fill="#F08200"/>
<path d="M267.675 321.788C266.046 320.98 263.332 323.039 261.613 326.385C259.895 329.732 259.823 333.099 261.452 333.907C263.081 334.714 265.795 332.656 267.513 329.309C269.232 325.963 269.304 322.595 267.675 321.788Z" fill="#F08200"/>
<path d="M256.7 305.975C256.367 304.218 253.046 303.338 249.281 304.009C245.518 304.68 242.736 306.65 243.068 308.407C243.401 310.164 246.721 311.045 250.486 310.374C254.25 309.702 257.032 307.733 256.7 305.975Z" fill="#F08200"/>
<path d="M257.342 292.529C254.047 290.607 250.624 290.293 249.695 291.827C248.767 293.361 250.685 296.163 253.979 298.085C257.274 300.007 260.697 300.321 261.626 298.787C262.554 297.252 260.636 294.451 257.342 292.529Z" fill="#F08200"/>
</g>
<mask id="mask5_319_1886" style="mask-type:luminance" maskUnits="userSpaceOnUse" x="134" y="331" width="52" height="52">
<path d="M144.821 331.519L134.769 372.553L175.804 382.605L185.856 341.57L144.821 331.519Z" fill="white"/>
</mask>
<g mask="url(#mask5_319_1886)">
<path d="M174.619 348.944C172.852 349.991 172.165 352.487 173.159 354.284C174.806 357.277 179.848 357.661 180.706 360.942C181.232 362.958 179.706 365.026 177.723 365.724C175.738 366.422 173.566 366.038 171.586 365.331C168.466 364.196 165.639 362.32 162.893 360.427C160.433 358.751 157.694 356.674 157.47 353.734C157.269 351.317 158.892 349.161 160.564 347.425C162.834 345.095 165.48 343.08 168.335 341.448C169.873 340.567 171.536 339.791 173.295 339.703C175.089 339.625 177.007 340.428 177.795 341.99C178.511 343.386 178.163 345.114 177.251 346.37C176.33 347.662 175.097 348.691 174.619 348.944Z" fill="#F08200"/>
<path d="M155.969 359.505C155.21 357.873 151.775 357.794 148.3 359.328C144.824 360.862 142.622 363.428 143.382 365.061C144.141 366.693 147.575 366.773 151.051 365.239C154.527 363.705 156.729 361.138 155.969 359.505Z" fill="#F08200"/>
<path d="M162.754 366.321C161.27 365.27 158.269 366.881 156.05 369.919C153.832 372.957 153.237 376.272 154.72 377.323C156.203 378.374 159.205 376.763 161.423 373.725C163.641 370.687 164.237 367.372 162.754 366.321Z" fill="#F08200"/>
<path d="M154.374 348.993C154.32 347.205 151.176 345.818 147.353 345.895C143.53 345.972 140.476 347.485 140.53 349.273C140.585 351.06 143.729 352.447 147.552 352.37C151.375 352.293 154.429 350.78 154.374 348.993Z" fill="#F08200"/>
<path d="M157.102 335.811C154.147 333.399 150.814 332.556 149.658 333.926C148.501 335.297 149.96 338.363 152.915 340.774C155.871 343.186 159.204 344.03 160.36 342.659C161.516 341.288 160.057 338.222 157.102 335.811Z" fill="#F08200"/>
</g>
<mask id="mask6_319_1886" style="mask-type:luminance" maskUnits="userSpaceOnUse" x="188" y="414" width="52" height="52">
<path d="M198.58 414.781L188.528 455.815L229.563 465.867L239.615 424.833L198.58 414.781Z" fill="white"/>
</mask>
<g mask="url(#mask6_319_1886)">
<path d="M228.378 432.206C226.611 433.253 225.924 435.748 226.919 437.546C228.565 440.539 233.607 440.923 234.466 444.204C234.991 446.22 233.465 448.288 231.481 448.986C229.497 449.684 227.326 449.3 225.346 448.592C222.225 447.459 219.399 445.582 216.652 443.688C214.193 442.013 211.453 439.936 211.229 436.995C211.028 434.579 212.651 432.423 214.323 430.687C216.594 428.357 219.24 426.342 222.094 424.71C223.632 423.829 225.295 423.053 227.054 422.966C228.848 422.887 230.766 423.69 231.554 425.252C232.27 426.648 231.922 428.376 231.01 429.632C230.09 430.923 228.855 431.953 228.378 432.206Z" fill="#F08200"/>
<path d="M209.728 442.768C208.969 441.135 205.534 441.056 202.059 442.589C198.583 444.123 196.381 446.691 197.14 448.323C197.9 449.955 201.334 450.035 204.81 448.5C208.286 446.966 210.488 444.4 209.728 442.768Z" fill="#F08200"/>
<path d="M216.513 449.583C215.029 448.532 212.028 450.143 209.81 453.181C207.591 456.22 206.996 459.534 208.479 460.585C209.963 461.636 212.964 460.025 215.182 456.988C217.401 453.949 217.997 450.634 216.513 449.583Z" fill="#F08200"/>
<path d="M208.133 432.255C208.078 430.467 204.935 429.08 201.112 429.157C197.29 429.235 194.234 430.747 194.29 432.535C194.345 434.323 197.488 435.709 201.311 435.632C205.134 435.554 208.188 434.043 208.133 432.255Z" fill="#F08200"/>
<path d="M210.861 419.072C207.906 416.661 204.573 415.818 203.417 417.189C202.261 418.56 203.719 421.626 206.675 424.037C209.63 426.449 212.963 427.292 214.119 425.921C215.275 424.55 213.816 421.484 210.861 419.072Z" fill="#F08200"/>
</g>
<mask id="mask7_319_1886" style="mask-type:luminance" maskUnits="userSpaceOnUse" x="56" y="453" width="52" height="52">
<path d="M66.414 453.742L56.3623 494.777L97.397 504.828L107.449 463.794L66.414 453.742Z" fill="white"/>
</mask>
<g mask="url(#mask7_319_1886)">
<path d="M96.2123 471.167C94.4453 472.214 93.7584 474.71 94.7536 476.508C96.4 479.501 101.442 479.885 102.3 483.166C102.826 485.181 101.299 487.249 99.3157 487.947C97.3317 488.645 95.1602 488.261 93.1806 487.554C90.0592 486.419 87.233 484.544 84.4864 482.65C82.0267 480.975 79.2872 478.898 79.0634 475.956C78.8627 473.54 80.486 471.385 82.1576 469.649C84.4277 467.319 87.0743 465.303 89.9289 463.672C91.4668 462.79 93.1294 462.014 94.8878 461.927C96.6827 461.849 98.6005 462.651 99.3885 464.213C100.104 465.61 99.7564 467.337 98.8449 468.594C97.9239 469.885 96.6896 470.914 96.2123 471.167Z" fill="#F08200"/>
<path d="M77.5624 481.729C76.8029 480.096 73.3696 480.017 69.8931 481.551C66.4172 483.085 64.2153 485.652 64.9748 487.284C65.7354 488.916 69.1686 488.996 72.6445 487.462C76.1204 485.927 78.323 483.361 77.5624 481.729Z" fill="#F08200"/>
<path d="M84.3478 488.545C82.8638 487.493 79.8626 489.104 77.6446 492.142C75.4259 495.18 74.8301 498.495 76.3141 499.547C77.7977 500.598 80.7986 498.987 83.017 495.948C85.2357 492.91 85.8314 489.596 84.3478 488.545Z" fill="#F08200"/>
<path d="M75.9684 471.216C75.9136 469.428 72.7697 468.042 68.9467 468.119C65.1236 468.196 62.0694 469.708 62.1243 471.496C62.1791 473.284 65.3225 474.671 69.1455 474.593C72.9686 474.516 76.0232 473.004 75.9684 471.216Z" fill="#F08200"/>
<path d="M78.6952 458.034C75.7401 455.622 72.4073 454.779 71.2511 456.15C70.0953 457.521 71.5536 460.587 74.5088 462.999C77.4639 465.41 80.7967 466.253 81.9529 464.882C83.1094 463.512 81.6511 460.445 78.6952 458.034Z" fill="#F08200"/>
</g>
<mask id="mask8_319_1886" style="mask-type:luminance" maskUnits="userSpaceOnUse" x="-7" y="392" width="46" height="46">
<path d="M-6.6008 395.773L-3.23853 437.887L38.8753 434.525L35.513 392.411L-6.6008 395.773Z" fill="white"/>
</mask>
<g mask="url(#mask8_319_1886)">
<path d="M27.1651 402.944C25.8162 404.493 25.9496 407.078 27.459 408.472C29.963 410.795 34.8702 409.574 36.7163 412.419C37.8497 414.167 37.0512 416.61 35.3872 417.896C33.7238 419.182 31.541 419.501 29.4396 419.452C26.1197 419.357 22.8471 418.464 19.6449 417.531C16.7826 416.713 13.529 415.603 12.3922 412.883C11.4409 410.651 12.3044 408.095 13.345 405.922C14.7674 402.996 16.6459 400.251 18.8426 397.804C20.0253 396.484 21.3601 395.224 23.0021 394.588C24.6805 393.95 26.7541 394.109 27.9936 395.343C29.1118 396.443 29.3251 398.193 28.8543 399.672C28.3865 401.188 27.5387 402.554 27.1651 402.944Z" fill="#F08200"/>
<path d="M12.7827 418.834C11.5475 417.524 8.26334 418.528 5.44624 421.077C2.62837 423.627 1.34545 426.756 2.58066 428.066C3.81493 429.376 7.09909 428.372 9.91619 425.823C12.7341 423.274 14.017 420.145 12.7827 418.834Z" fill="#F08200"/>
<path d="M21.3661 423.17C19.6273 422.639 17.2851 425.112 16.1341 428.694C14.9841 432.275 15.461 435.609 17.1996 436.141C18.9385 436.672 21.2807 434.199 22.4308 430.617C23.5817 427.036 23.1048 423.702 21.3661 423.17Z" fill="#F08200"/>
<path d="M7.96277 409.356C7.3485 407.676 3.92841 407.348 0.32361 408.624C-3.28119 409.899 -5.70524 412.295 -5.09097 413.975C-4.4767 415.655 -1.05661 415.983 2.54819 414.708C6.15299 413.432 8.57704 411.036 7.96277 409.356Z" fill="#F08200"/>
<path d="M6.40655 395.985C2.84229 394.625 -0.586731 394.873 -1.25305 396.538C-1.91921 398.202 0.429677 400.654 3.99299 402.014C7.55647 403.374 10.9864 403.126 11.6526 401.462C12.3189 399.796 9.97003 397.345 6.40655 395.985Z" fill="#F08200"/>
</g>
</g>
</svg>
