<svg width="186" height="118" viewBox="0 0 186 118" fill="none" xmlns="http://www.w3.org/2000/svg">
<path d="M63.7435 54.4985C59.8501 54.4985 56.7566 54.1391 54.4632 53.4383C52.1698 52.7195 50.4809 51.5875 49.3964 49.9882C48.3119 48.4068 47.6008 46.2685 47.2808 43.591C46.9608 40.9135 46.8008 37.6071 46.8008 33.6538C46.8008 29.7185 46.943 26.3581 47.2452 23.5729C47.5475 20.7876 48.223 18.5414 49.2897 16.8163C50.3564 15.0912 52.0276 13.8333 54.2855 13.0427C56.5611 12.252 59.6367 11.8567 63.5302 11.8567C65.1836 11.8567 66.9436 12.0903 68.8281 12.5575C70.7126 13.0247 72.5793 13.7615 74.4283 14.7857C76.2772 15.81 77.9484 17.1577 79.4595 18.8648C80.9707 20.5719 82.1796 22.6384 83.0685 25.0823C83.9752 27.5262 84.4197 30.4013 84.4197 33.7437C84.4197 36.9602 83.9397 39.7275 82.9974 42.0636C82.0552 44.3996 80.8285 46.3763 79.3173 47.9756C77.8062 49.5749 76.135 50.8687 74.2861 51.8211C72.4371 52.7734 70.5882 53.4743 68.7392 53.8876C66.9614 54.2829 65.2724 54.4985 63.7435 54.4985ZM60.0101 43.7707C63.708 44.3457 66.588 43.8605 68.6681 42.3151C70.7304 40.7698 71.7793 38.4337 71.7793 35.307C71.7793 32.4678 70.7482 30.3654 68.6681 28.9997C66.6058 27.634 63.708 27.2387 60.0101 27.8137V43.7707Z" fill="url(#paint0_linear_377_5594)"/>
<path d="M128.617 46.6999C127.55 49.2515 126.075 51.4977 124.19 53.4385C122.306 55.3612 120.101 56.8886 117.594 58.0027C115.088 59.1168 112.403 59.7278 109.541 59.7997C106.767 59.8356 104.154 59.3325 101.701 58.2723C99.2472 57.2121 97.0782 55.7206 95.1937 53.7619C93.3092 51.8032 91.8158 49.539 90.7314 46.9335C89.6469 44.3279 89.0602 41.5066 88.9891 38.4698C88.9535 35.5407 89.4513 32.8094 90.5002 30.2397C91.5492 27.688 93.007 25.4239 94.9093 23.4831C96.7938 21.5245 98.9805 19.997 101.487 18.8829C103.976 17.7688 106.679 17.2118 109.559 17.2118C112.332 17.1758 114.945 17.679 117.399 18.7392C119.852 19.7994 122.021 21.2909 123.906 23.2136C125.79 25.1363 127.284 27.4005 128.404 30.0061C129.506 32.6117 130.075 35.4329 130.128 38.4698C130.181 41.3988 129.684 44.1482 128.617 46.6999Z" fill="url(#paint1_linear_377_5594)"/>
<path d="M56.7213 33.5459V37.9305C56.7213 43.8605 58.268 43.4472 60.3125 43.7167C60.3836 43.7347 60.4547 43.7347 60.5259 43.7527V27.7777C60.5081 27.7777 60.5081 27.7777 60.4903 27.7777C58.3747 27.9215 56.9346 27.5621 56.7213 33.5459ZM83.4954 25.0284C82.5887 22.5845 81.3798 20.518 79.8864 18.8109C78.3753 17.1038 76.7041 15.7381 74.8552 14.7318C73.0062 13.7255 71.1395 12.9708 69.255 12.5035C67.3705 12.0363 65.5927 11.8027 63.9571 11.8027C60.3125 11.8027 57.2546 12.1262 55.0323 12.809C56.0457 12.7372 57.2546 12.7372 58.4102 12.7372C59.9925 12.7372 61.6814 12.9528 63.477 13.402C65.2904 13.8513 67.0683 14.5521 68.8461 15.5224C70.6062 16.4928 72.224 17.8046 73.664 19.4218C75.1041 21.0571 76.2597 23.0337 77.1308 25.3698C78.0019 27.7058 78.4286 30.4552 78.4286 33.6538C78.4286 36.7266 77.9664 39.3681 77.0775 41.6143C76.1708 43.8425 74.9974 45.7293 73.5574 47.2747C72.1173 48.8201 70.5173 50.042 68.7394 50.9405C66.9794 51.857 65.2015 52.5218 63.4415 52.9172C61.6814 53.3305 60.0814 53.6 58.6236 53.6C57.2902 53.6 55.7257 53.5461 54.5879 53.4562C56.8813 54.1571 60.2592 54.6063 64.1348 54.6063C65.6638 54.6063 67.3527 54.2289 69.2017 53.8156C71.0506 53.3844 72.8996 52.7015 74.7485 51.7491C76.5974 50.7967 78.2686 49.5209 79.7798 47.9036C81.2909 46.3043 82.5176 44.3277 83.4599 41.9916C84.4021 39.6556 84.8821 36.8883 84.8821 33.6717C84.8644 30.3474 84.4021 27.4722 83.4954 25.0284Z" fill="url(#paint2_linear_377_5594)"/>
<path d="M128.99 46.6639C127.924 49.2156 126.448 51.4617 124.563 53.4025C122.679 55.3252 120.474 56.8526 117.968 57.9667C115.461 59.0809 112.83 59.8715 109.967 59.9434C107.585 59.9793 104.687 59.5481 102.536 58.7574C102.998 58.7933 104.118 58.8652 104.598 58.8473C107.336 58.7754 109.825 58.0207 112.225 56.9425C114.625 55.8643 116.723 54.4088 118.537 52.5759C120.35 50.725 121.754 48.5866 122.768 46.1428C123.781 43.6989 124.261 41.0753 124.19 38.2721C124.137 35.361 123.603 32.6656 122.537 30.1678C121.488 27.688 120.048 25.5137 118.234 23.6628C116.421 21.8119 114.359 20.3923 112.012 19.386C109.665 18.3797 107.176 17.8946 104.51 17.9305C104.438 17.9305 104.154 17.9305 104.083 17.9305C105.861 17.4273 107.941 17.1578 109.896 17.1578C112.67 17.1219 115.283 17.625 117.737 18.6852C120.19 19.7454 122.359 21.2369 124.243 23.1596C126.128 25.0824 127.621 27.3466 128.741 29.9521C129.844 32.5577 130.413 35.379 130.466 38.4158C130.537 41.3628 130.057 44.0942 128.99 46.6639Z" fill="url(#paint3_linear_377_5594)"/>
<path d="M63.5657 11.8567C65.2191 11.8567 66.9791 12.0903 68.8636 12.5575C70.7481 13.0248 72.6149 13.7615 74.4638 14.7858C76.3127 15.81 77.9839 17.1578 79.4951 18.8649C81.0062 20.572 82.2151 22.6385 83.1041 25.0824C84.0108 27.5262 84.4552 30.4014 84.4552 33.7437C84.4552 36.9603 83.9752 39.7276 83.0329 42.0636C82.0907 44.3997 80.864 46.3763 79.3528 47.9756C77.8417 49.5749 76.1705 50.8687 74.3216 51.8211C72.4726 52.7735 70.6237 53.4743 68.7747 53.8876C66.9258 54.3189 65.2369 54.5345 63.7079 54.5345C59.8145 54.5345 56.721 54.1751 54.4276 53.4743C52.1342 52.7555 50.4453 51.6234 49.3608 50.0241C48.2763 48.4428 47.5652 46.3044 47.2452 43.627C46.9252 40.9495 46.7652 37.6431 46.7652 33.6898C46.7652 29.7544 46.9074 26.3941 47.2096 23.6088C47.5119 20.8236 48.1874 18.5774 49.2541 16.8523C50.3208 15.1272 51.992 13.8693 54.2499 13.0787C56.5788 12.2521 59.6722 11.8567 63.5657 11.8567ZM62.819 44.0043C65.2013 44.0043 67.1391 43.4473 68.6681 42.3152C70.7304 40.7698 71.7793 38.4338 71.7793 35.307C71.7793 32.4679 70.7481 30.3654 68.6681 28.9997C67.2102 28.0473 65.3435 27.5622 63.0679 27.5622C62.1256 27.5622 61.0945 27.652 60.01 27.8137V43.7707C61.0056 43.9325 61.9479 44.0043 62.819 44.0043ZM63.5657 9.82617C59.4056 9.82617 56.1699 10.2574 53.6632 11.12C50.9609 12.0544 48.9341 13.6178 47.6185 15.7382C46.3918 17.7148 45.6096 20.2665 45.2718 23.3393C44.9696 26.1785 44.8096 29.6466 44.8096 33.6359C44.8096 37.6431 44.9696 41.0753 45.3074 43.8067C45.6629 46.8076 46.4985 49.2515 47.7608 51.1023C49.0941 53.061 51.1564 54.4806 53.8765 55.3252C56.3832 56.0979 59.6011 56.4752 63.7435 56.4752C65.4146 56.4752 67.2636 56.2416 69.2547 55.7924C71.2637 55.3252 73.2727 54.5705 75.2638 53.5462C77.3083 52.486 79.175 51.0664 80.8284 49.3054C82.4996 47.5264 83.8685 45.3341 84.8997 42.7644C85.9308 40.1948 86.4642 37.1399 86.4642 33.6898C86.4642 30.1318 85.9664 26.9871 84.9886 24.3276C84.0107 21.6681 82.6596 19.368 80.9884 17.4812C79.3351 15.6124 77.4683 14.085 75.4238 12.9709C73.4327 11.8747 71.3881 11.0661 69.3436 10.5629C67.3169 10.0957 65.3613 9.82617 63.5657 9.82617ZM62.0012 29.6107C62.3745 29.5927 62.7301 29.5748 63.0679 29.5748C64.9346 29.5748 66.4458 29.9521 67.5836 30.6889C69.077 31.6772 69.7881 33.1507 69.7881 35.307C69.7881 37.7869 69.0414 39.5479 67.4947 40.6979C66.3391 41.5605 64.7746 41.9917 62.8368 41.9917C62.5701 41.9917 62.3034 41.9917 62.019 41.9738V29.6107H62.0012Z" fill="#7F1C0B"/>
<path d="M109.843 17.2116C112.509 17.2116 115.016 17.7147 117.381 18.739C119.834 19.7992 122.003 21.2907 123.888 23.2134C125.772 25.1362 127.265 27.4003 128.385 30.0059C129.488 32.6115 130.057 35.4327 130.11 38.4696C130.181 41.3986 129.701 44.13 128.634 46.6997C127.568 49.2514 126.092 51.4976 124.208 53.4383C122.323 55.361 120.119 56.8884 117.612 58.0025C115.105 59.1167 112.421 59.7276 109.558 59.7995C109.452 59.7995 109.363 59.7995 109.256 59.7995C106.589 59.7995 104.083 59.2964 101.718 58.2721C99.2646 57.2119 97.0957 55.7204 95.2112 53.7617C93.3266 51.803 91.8333 49.5389 90.7488 46.9333C89.6643 44.3277 89.0776 41.5065 89.0065 38.4696C88.971 35.5406 89.4688 32.8092 90.5177 30.2395C91.5666 27.6878 93.0244 25.4237 94.9267 23.483C96.8112 21.5243 98.9979 19.9969 101.505 18.8827C103.994 17.7686 106.696 17.2116 109.576 17.2116C109.647 17.2116 109.736 17.2116 109.843 17.2116ZM109.843 15.199C109.736 15.199 109.629 15.199 109.523 15.199C106.376 15.199 103.389 15.8279 100.651 17.0498C97.9312 18.2718 95.5134 19.9609 93.4689 22.0813C91.4066 24.2017 89.7888 26.6995 88.651 29.4848C87.5131 32.2881 86.9442 35.3249 86.9976 38.5055V38.5235V38.5415C87.0865 41.8299 87.7265 44.9207 88.8998 47.7419C90.0732 50.5631 91.7088 53.0789 93.7711 55.1993C95.8334 57.3377 98.2512 58.9909 100.918 60.1589C103.514 61.273 106.305 61.848 109.22 61.848C109.327 61.848 109.452 61.848 109.558 61.848H109.576H109.594C112.687 61.7582 115.656 61.0933 118.394 59.8714C121.132 58.6494 123.55 56.9783 125.612 54.8758C127.674 52.7734 129.31 50.2936 130.466 47.5083C131.639 44.705 132.19 41.6502 132.101 38.4516C132.048 35.1452 131.426 32.0545 130.217 29.2332C129.026 26.412 127.372 23.9142 125.31 21.8118C123.248 19.7093 120.847 18.0561 118.163 16.9061C115.55 15.756 112.758 15.199 109.843 15.199Z" fill="#7F1C0B"/>
<path d="M22.4446 105.604C21.129 105.748 19.9201 105.334 18.8179 104.364C17.7156 103.412 16.7378 102.082 15.9022 100.393C15.0666 98.7037 14.3377 96.8528 13.7155 94.8043C13.0932 92.7557 12.5954 90.6892 12.2043 88.5868C11.8132 86.4844 11.5287 84.5975 11.351 82.8725C11.1198 80.6981 11.0487 78.3801 11.1376 75.9003C11.2265 73.4384 11.5643 71.0665 12.1865 68.8203C12.8088 66.5741 13.7866 64.6872 15.12 63.1598C16.4533 61.6324 18.2845 60.7519 20.6135 60.5003C22.2135 60.3206 23.6713 60.698 24.9869 61.6144C26.3025 62.5309 27.547 63.8606 28.7026 65.6217C29.876 67.3827 31.0138 69.3953 32.1516 71.6954C33.2894 73.9955 34.4983 76.4394 35.7961 79.009C35.245 75.3612 35.0139 72.0009 35.1028 68.946C35.1917 65.8912 35.7784 63.3934 36.8451 61.4707C37.9295 59.5479 39.6185 58.4518 41.9474 58.2002C43.9386 57.9846 45.592 58.5057 46.9431 59.7456C48.2943 60.9855 49.3965 62.6387 50.2499 64.7412C51.1033 66.8256 51.7788 69.0718 52.2766 71.4797C52.7566 73.8877 53.1122 76.1878 53.3433 78.3621C53.5211 80.1051 53.5922 82.0459 53.5567 84.1663C53.5211 86.2867 53.3256 88.4251 52.9522 90.5814C52.5789 92.7378 51.9744 94.7504 51.1388 96.6012C50.3032 98.4521 49.2188 99.9975 47.8676 101.219C46.5165 102.441 44.8275 103.16 42.8008 103.376C40.9874 103.573 39.3696 103.142 37.9651 102.118C36.5606 101.076 35.245 99.6381 34.0539 97.8052C32.8627 95.9723 31.7071 93.9238 30.6227 91.6596C29.5382 89.3954 28.4004 87.1492 27.227 84.903C27.5826 87.85 27.867 90.5455 28.0804 93.0073C28.2937 95.4692 28.2937 97.5896 28.0804 99.3865C27.867 101.183 27.3159 102.603 26.4447 103.681C25.6092 104.777 24.258 105.406 22.4446 105.604Z" fill="url(#paint4_linear_377_5594)"/>
<path d="M98.8552 86.9335C97.7885 89.4852 96.3129 91.7314 94.4284 93.6721C92.5439 95.5948 90.3394 97.1223 87.8327 98.2364C85.3259 99.3505 82.6414 99.9615 79.7791 100.033C77.0057 100.069 74.3923 99.5661 71.9389 98.5059C69.4854 97.4457 67.3165 95.9542 65.432 93.9955C63.5475 92.0548 62.0541 89.7727 60.9696 87.1671C59.8852 84.5615 59.2985 81.7403 59.2274 78.7034C59.1918 75.7744 59.6896 73.043 60.7385 70.4734C61.7874 67.9217 63.2453 65.6575 65.1298 63.7168C67.0143 61.7761 69.201 60.2307 71.7077 59.1166C74.1967 58.0025 76.899 57.4454 79.7791 57.4454C82.5525 57.4095 85.1659 57.9126 87.6193 58.9728C90.0727 60.033 92.2417 61.5245 94.1262 63.4472C96.0107 65.37 97.5041 67.6342 98.6241 70.2398C99.7264 72.8453 100.295 75.6666 100.349 78.7034C100.42 81.6325 99.9219 84.3638 98.8552 86.9335Z" fill="url(#paint5_linear_377_5594)"/>
<path d="M133.399 105.658C129.079 106.934 125.168 107.257 121.63 106.574C118.11 105.909 115.123 104.364 112.67 101.938C110.234 99.5122 108.438 96.3316 107.283 92.3963C106.181 88.6227 105.843 85.1905 106.269 82.1177C106.696 79.0449 107.656 76.3494 109.167 74.0134C110.661 71.6774 112.51 69.7366 114.696 68.1733C116.883 66.6099 119.212 65.4599 121.683 64.7411C124.919 63.7707 127.835 63.4293 130.43 63.6989C133.026 63.9684 135.159 64.6692 136.83 65.8372C138.502 66.9873 139.586 68.3889 140.066 70.0242C140.582 71.7852 140.653 73.2407 140.297 74.3908C139.942 75.5588 139.337 76.4752 138.466 77.1581C137.595 77.8409 136.635 78.3441 135.604 78.6496C134.288 79.0449 133.221 79.2066 132.386 79.1347C131.55 79.0629 130.697 79.0089 129.861 78.973C129.008 78.9371 127.923 79.0988 126.626 79.4941C124.119 80.2309 122.341 81.5966 121.31 83.5553C120.261 85.5139 120.154 87.9219 120.99 90.7611C121.47 92.4322 122.234 93.726 123.23 94.6066C124.243 95.4871 125.399 96.0441 126.697 96.2418C127.995 96.4574 129.292 96.3676 130.608 95.9722C131.924 95.5769 132.955 95.0917 133.737 94.4987C134.501 93.9057 135.053 93.3667 135.355 92.8455C135.657 92.3244 135.799 91.983 135.728 91.7853C133.15 92.558 130.981 92.8635 129.221 92.7377C127.461 92.6119 126.323 91.6595 125.826 89.8985C125.399 88.425 125.559 87.0234 126.306 85.7296C127.052 84.4178 128.848 83.3576 131.657 82.513C134.395 81.7044 136.635 81.3809 138.395 81.5606C140.155 81.7403 141.542 82.4232 142.573 83.5912C143.604 84.7592 144.439 86.4484 145.079 88.6227C145.755 90.9587 145.684 93.2948 144.848 95.6128C144.013 97.9309 142.608 99.9974 140.617 101.794C138.59 103.573 136.19 104.867 133.399 105.658Z" fill="url(#paint6_linear_377_5594)"/>
<path d="M164.315 99.638C162.928 99.8895 161.524 100.123 160.084 100.321C158.644 100.518 157.31 100.572 156.066 100.483C154.821 100.375 153.772 100.015 152.901 99.4044C152.03 98.7754 151.479 97.7871 151.23 96.4394C150.91 94.6784 151.284 93.3306 152.332 92.3603C153.381 91.4079 154.733 90.6532 156.404 90.0961C156.03 88.7125 155.675 87.203 155.337 85.5498C154.999 83.8966 154.661 82.1176 154.306 80.1949C153.986 78.4338 153.701 76.7627 153.452 75.1814C153.204 73.6 153.008 72.1445 152.848 70.7968C150.786 70.9226 148.972 70.7249 147.372 70.2038C145.79 69.6647 144.812 68.3888 144.439 66.3403C144.172 64.8309 144.35 63.573 144.99 62.6206C145.63 61.6503 146.59 60.8776 147.852 60.3025C149.115 59.7275 150.519 59.2423 152.066 58.865C153.612 58.4876 155.159 58.1641 156.706 57.8766C158.253 57.5891 159.817 57.3375 161.417 57.1219C163.017 56.9063 164.493 56.8524 165.862 56.9422C167.231 57.0321 168.386 57.4274 169.346 58.0923C170.306 58.7571 170.929 59.8533 171.195 61.3807C171.444 62.7464 171.302 63.8785 170.769 64.7949C170.235 65.7114 169.435 66.4841 168.368 67.0591C167.284 67.6521 166.093 68.1552 164.777 68.5685C165.133 69.8623 165.471 71.2819 165.791 72.8453C166.111 74.3907 166.431 76.0798 166.768 77.8768C167.124 79.7995 167.408 81.5965 167.657 83.2497C167.906 84.9209 168.084 86.4663 168.226 87.8858C170.04 87.7601 171.64 87.9398 173.026 88.4609C174.413 88.964 175.266 90.1141 175.586 91.929C175.835 93.2947 175.658 94.4088 175.071 95.3073C174.484 96.2058 173.613 96.9245 172.457 97.4636C171.302 98.0027 170.022 98.434 168.617 98.7574C167.16 99.0809 165.737 99.3684 164.315 99.638Z" fill="url(#paint7_linear_377_5594)"/>
<path d="M53.3603 78.38C53.1292 76.2057 52.7736 73.9056 52.2936 71.4977C51.8136 69.0897 51.138 66.8435 50.2669 64.7591C49.4135 62.6746 48.1513 59.9073 46.8001 58.6674C45.4489 57.4275 43.0311 58.0205 41.0577 58.2181C38.9599 58.4338 37.3598 59.3502 36.2753 60.9495C36.8087 60.7339 37.3954 60.6081 38.0354 60.5362C39.831 60.3385 41.3244 60.8057 42.5511 61.9199C43.76 63.034 44.7556 64.5434 45.5378 66.4123C46.3023 68.2991 46.9246 70.3296 47.3512 72.504C47.7957 74.6783 48.1157 76.7448 48.3113 78.7035C48.4713 80.2848 48.5424 82.0278 48.5068 83.9326C48.4713 85.8374 48.2935 87.7781 47.9557 89.7188C47.6179 91.6595 47.0846 93.4745 46.3201 95.1456C45.5734 96.8168 44.5956 98.2184 43.3689 99.3146C42.16 100.411 40.631 101.076 38.7999 101.255C37.6087 101.381 36.5065 101.219 35.5109 100.752C36.0087 101.255 36.5242 101.705 37.0576 102.1C38.4621 103.142 40.9866 103.555 42.8 103.358C44.8267 103.142 46.5156 102.423 47.8668 101.201C49.218 99.9795 50.3024 98.4341 51.138 96.5832C51.9736 94.7323 52.5781 92.7197 52.9514 90.5634C53.3247 88.407 53.5203 86.2687 53.5559 84.1482C53.627 82.0817 53.5559 80.141 53.3603 78.38ZM35.7953 78.9371C35.582 78.5238 32.5419 71.5695 32.3463 71.1562C31.2085 68.8561 29.8574 66.574 28.684 64.8309C27.5106 63.0699 26.1773 61.812 24.8794 60.8956C23.5638 59.9791 21.306 59.7096 19.706 59.8893C17.377 60.1409 15.4569 61.4347 14.1236 62.9621C10.799 66.7717 10.8701 73.5102 11.119 78.4339C11.1546 74.9478 12.1146 71.4617 13.8569 68.4428C15.1547 66.1966 17.217 64.2379 20.026 64.3817C21.3416 64.4536 22.6749 65.1005 23.6527 65.981C24.8972 67.0951 26.7639 69.1257 27.6529 70.5273C28.7373 72.1985 31.4752 76.5471 32.933 78.362C34.8175 80.6981 36.382 82.8544 36.5065 83.6092C36.0798 81.327 36.0976 80.9317 35.7953 78.9371ZM28.9151 92.2166C28.7907 90.797 27.7951 87.221 27.6173 85.6397C26.9595 84.3279 25.4128 81.5786 24.7194 80.2848C25.0394 82.9443 25.5728 88.6766 25.7684 90.8868C25.9639 93.1151 25.9639 95.0198 25.7684 96.6371C25.5728 98.2544 25.075 99.5482 24.2928 100.501C23.5105 101.453 22.3016 102.028 20.6482 102.208C19.4748 102.333 18.3726 101.956 17.377 101.094C16.3814 100.231 15.5103 99.0271 14.7458 97.5176C13.9991 96.0082 13.3413 94.319 12.7724 92.4682C12.2035 90.6173 11.759 88.7485 11.4035 86.8617C11.279 86.2147 11.1724 85.6038 11.0835 85.0108C11.2079 85.8194 11.3501 86.646 11.5102 87.5265C11.9013 89.629 12.3991 91.6955 13.0213 93.744C13.6435 95.7925 14.7991 99.5302 15.6347 101.219C16.4703 102.908 17.6614 104.059 18.7637 105.029C19.866 105.999 21.3416 105.748 22.6572 105.604C24.4705 105.406 25.8217 104.777 26.6928 103.717C27.564 102.657 28.3995 100.447 28.6129 98.6497C28.8084 97.284 29.2351 95.9004 28.9151 92.2166Z" fill="url(#paint8_linear_377_5594)"/>
<path d="M126.678 96.2059C125.38 95.9902 124.225 95.4511 123.211 94.5706C122.198 93.6901 121.451 92.3963 120.971 90.7251C120.136 87.886 120.26 85.478 121.291 83.5193C122.251 81.7224 123.834 80.4286 126.038 79.6559C125.149 79.6199 124.047 79.7996 122.696 80.195C120.1 80.9677 118.251 82.3693 117.167 84.3998C116.082 86.4304 115.976 88.9282 116.829 91.8752C117.327 93.6183 118.109 94.948 119.158 95.8645C120.207 96.7809 121.398 97.3559 122.749 97.5716C124.083 97.7872 125.452 97.6973 126.803 97.284C127.798 96.9786 128.652 96.6371 129.345 96.2238C128.456 96.3496 127.567 96.3496 126.678 96.2059ZM140.332 69.9164C139.852 68.2811 138.785 66.8795 137.096 65.7294C135.425 64.5794 133.292 63.8606 130.696 63.5911C129.327 63.4473 125.718 62.7645 123.976 64.0762C124.172 64.0942 125.789 64.0942 126.909 64.22C128.189 64.3638 130.376 64.813 132.118 66.017C133.861 67.2209 134.963 68.6585 135.461 70.3656C135.994 72.1805 136.065 73.69 135.71 74.8939C135.336 76.0979 134.714 77.0683 133.807 77.7691C133.078 78.3441 132.278 78.7933 131.425 79.1168C132.225 79.1348 134.643 79.4762 135.834 79.1168C136.883 78.8113 137.843 77.7331 138.714 77.0503C139.585 76.3674 140.19 75.451 140.545 74.283C140.919 73.1329 140.83 71.6774 140.332 69.9164ZM145.274 88.5688C144.634 86.3945 143.799 84.7053 142.768 83.5373C141.736 82.3693 140.35 81.6864 138.59 81.5067C136.865 81.327 133.114 81.4169 130.678 82.7826C131.834 82.6209 133.043 82.6568 133.95 82.7466C135.763 82.9263 137.203 83.6451 138.27 84.8491C139.336 86.071 140.208 87.8141 140.865 90.0782C141.576 92.5041 141.488 94.9121 140.634 97.338C139.763 99.7459 138.305 101.884 136.243 103.753C135.425 104.49 134.536 105.155 133.594 105.73C135.905 104.939 139.088 103.304 140.812 101.758C142.803 99.9615 144.208 97.895 145.043 95.5769C145.879 93.2409 145.968 90.9048 145.274 88.5688Z" fill="url(#paint9_linear_377_5594)"/>
<path d="M175.533 91.9112C175.213 90.1143 174.359 88.9642 172.973 88.4431C171.586 87.9399 170.004 87.7423 168.173 87.8681C168.03 86.4485 167.853 84.9031 167.604 83.2319C167.373 81.5607 167.07 79.7638 166.715 77.841C166.395 76.0441 166.057 74.3729 165.737 72.8095C165.417 71.2462 165.079 69.8266 164.724 68.5328C166.039 68.1195 167.23 67.6163 168.315 67.0233C169.399 66.4303 170.199 65.6756 170.715 64.7592C171.248 63.8427 171.39 62.6927 171.142 61.327C170.875 59.8175 170.253 58.7214 169.293 58.0385C168.333 57.3737 167.177 56.9783 165.808 56.8885C165.453 56.8705 165.097 56.8525 164.724 56.8525C164.724 56.8525 164.741 56.8525 164.741 56.8705C165.773 57.5893 166.448 58.7753 166.75 60.4285C167.017 61.902 166.857 63.1419 166.288 64.1482C165.719 65.1545 164.848 65.9811 163.675 66.61C162.501 67.2569 161.204 67.796 159.781 68.2453C160.172 69.6469 160.528 71.1923 160.884 72.8814C161.239 74.5706 161.577 76.3855 161.932 78.3262C162.306 80.4107 162.626 82.3514 162.892 84.1663C163.159 85.9812 163.355 87.6524 163.497 89.1978C165.47 89.054 167.195 89.2697 168.688 89.8088C170.182 90.3658 171.106 91.6057 171.462 93.5644C171.728 95.0379 171.55 96.2598 170.893 97.2302C170.626 97.6435 170.306 98.0029 169.933 98.3443C170.804 98.0927 171.604 97.7693 172.368 97.4279C173.524 96.8888 174.377 96.17 174.982 95.2715C175.622 94.391 175.782 93.2589 175.533 91.9112Z" fill="url(#paint10_linear_377_5594)"/>
<path d="M99.406 87.0235C98.3215 89.6111 96.8282 91.8752 94.9259 93.8339C93.0236 95.7926 90.7835 97.32 88.259 98.4521C85.7167 99.5842 83.0144 100.195 80.1165 100.267C77.6987 100.303 75.4053 99.9256 73.2363 99.135C73.6986 99.1709 74.1786 99.1709 74.6764 99.1709C77.432 99.099 80.0276 98.506 82.4633 97.4278C84.8989 96.3497 87.0145 94.8762 88.8457 93.0073C90.6769 91.1385 92.0991 88.9642 93.1303 86.5023C94.1614 84.0225 94.6414 81.381 94.5525 78.5418C94.517 75.5948 93.9658 72.8634 92.8814 70.3477C91.8147 67.8319 90.3568 65.6396 88.5435 63.7708C86.7123 61.902 84.6144 60.4644 82.2499 59.4401C79.8854 58.4159 77.3431 57.9307 74.6764 57.9666C74.6053 57.9666 74.5341 57.9666 74.463 57.9666C76.2586 57.4455 78.1431 57.1939 80.1343 57.1939C82.9433 57.158 85.5745 57.6611 88.0634 58.7393C90.5346 59.7995 92.7391 61.309 94.6414 63.2677C96.5437 65.2263 98.0726 67.5085 99.1749 70.132C100.295 72.7556 100.864 75.6128 100.917 78.7035C100.971 81.6505 100.473 84.4358 99.406 87.0235Z" fill="url(#paint11_linear_377_5594)"/>
<path d="M42.8182 58.2001C44.436 58.2001 45.8227 58.7212 46.9605 59.7814C48.3117 61.0213 49.4139 62.6745 50.2673 64.777C51.1206 66.8614 51.7962 69.1076 52.294 71.5156C52.774 73.9235 53.1296 76.2236 53.3607 78.3979C53.5385 80.141 53.6096 82.0817 53.574 84.2021C53.5385 86.3225 53.3429 88.4609 52.9696 90.6172C52.5962 92.7736 51.9918 94.7862 51.1562 96.637C50.3206 98.4879 49.2361 100.033 47.885 101.255C46.5338 102.477 44.8449 103.196 42.8182 103.412C42.5337 103.448 42.2493 103.465 41.9826 103.465C40.507 103.465 39.1736 103.034 37.9825 102.154C36.578 101.111 35.2624 99.6739 34.0712 97.841C32.8801 96.0081 31.7245 93.9596 30.64 91.6954C29.5555 89.4312 28.4177 87.185 27.2444 84.9388C27.5999 87.8859 27.8844 90.5813 28.0977 93.0431C28.3111 95.505 28.3111 97.6254 28.0977 99.4223C27.8844 101.219 27.3333 102.639 26.4621 103.717C25.591 104.777 24.2398 105.406 22.4264 105.604C22.2664 105.622 22.0887 105.622 21.9286 105.622C20.8086 105.622 19.7597 105.209 18.7997 104.364C17.6974 103.412 16.7196 102.082 15.884 100.393C15.0484 98.7036 14.3195 96.8527 13.6973 94.8041C13.075 92.7556 12.5773 90.6891 12.1861 88.5867C11.795 86.4842 11.5106 84.5974 11.3328 82.8723C11.1017 80.698 11.0305 78.3799 11.1194 75.9001C11.2083 73.4383 11.5461 71.0663 12.1684 68.8201C12.7906 66.5739 13.7684 64.6871 15.1018 63.1597C16.4351 61.6323 18.2663 60.7518 20.5953 60.5002C20.8442 60.4822 21.0931 60.4643 21.342 60.4643C22.6576 60.4643 23.8665 60.8596 24.9687 61.6323C26.2843 62.5487 27.5288 63.8785 28.6844 65.6395C29.8578 67.4005 30.9956 69.4131 32.1334 71.7132C33.2712 74.0133 34.4801 76.4572 35.778 79.0269C35.2268 75.379 34.9957 72.0187 35.0846 68.9639C35.1735 65.909 35.7602 63.4113 36.8269 61.4885C37.9113 59.5658 39.6003 58.4696 41.9292 58.2181C42.267 58.2181 42.5515 58.2001 42.8182 58.2001ZM42.8182 56.1875C42.4804 56.1875 42.1248 56.2055 41.7515 56.2414C38.8003 56.5469 36.5069 58.0384 35.1202 60.5182C33.8757 62.7284 33.2001 65.5497 33.1112 68.9279C33.1112 69.0178 33.1112 69.1076 33.1112 69.1975C32.2045 67.4904 31.28 65.927 30.3556 64.5254C29.0578 62.5667 27.6355 61.0393 26.1243 59.9791C24.6843 58.9728 23.0842 58.4696 21.3597 58.4696C21.0397 58.4696 20.7197 58.4876 20.3997 58.5235C17.573 58.829 15.2973 59.9431 13.6262 61.8479C12.0972 63.591 10.9594 65.7653 10.2661 68.299C9.60828 70.689 9.23493 73.2227 9.14604 75.8462C9.05715 78.3979 9.12826 80.8238 9.37716 83.1059C9.55494 84.867 9.85717 86.8436 10.2483 88.964C10.6572 91.1204 11.1728 93.2947 11.8128 95.3971C12.4706 97.5535 13.2351 99.5302 14.124 101.309C15.084 103.214 16.2218 104.759 17.5196 105.891C18.853 107.041 20.3464 107.634 21.9464 107.634C22.1775 107.634 22.4087 107.616 22.6576 107.598C25.0043 107.347 26.7999 106.466 28.0088 104.993C29.1289 103.627 29.8222 101.848 30.0889 99.6739C30.2489 98.3621 30.3022 96.8886 30.2489 95.2714C30.96 96.5831 31.6889 97.8051 32.4356 98.9551C33.7512 100.986 35.2446 102.621 36.8447 103.789C38.3736 104.921 40.1159 105.478 42.0181 105.478C42.3559 105.478 42.7115 105.46 43.0671 105.424C45.5205 105.155 47.6005 104.274 49.2539 102.765C50.8006 101.363 52.0629 99.5841 53.0051 97.4816C53.8941 95.487 54.5518 93.2947 54.9607 90.9766C55.3519 88.7304 55.5652 86.4663 55.6008 84.256C55.6363 82.0637 55.5652 80.0331 55.3697 78.2002C55.1385 75.972 54.7652 73.6 54.2674 71.1382C53.7518 68.6045 53.0407 66.2145 52.134 64.0222C51.174 61.6682 49.8939 59.7455 48.3294 58.3079C46.7827 56.8883 44.9516 56.1875 42.8182 56.1875Z" fill="#7F1C0B"/>
<path d="M80.082 57.4274C82.7487 57.4274 85.2554 57.9305 87.62 58.9548C90.0734 60.015 92.2423 61.5065 94.1268 63.4292C96.0113 65.352 97.5047 67.6161 98.6247 70.2217C99.727 72.8273 100.296 75.6486 100.349 78.6854C100.438 81.6145 99.9403 84.3458 98.8736 86.9155C97.8069 89.4672 96.3313 91.7134 94.4468 93.6541C92.5623 95.5768 90.3578 97.1042 87.8511 98.2184C85.3443 99.3325 82.6598 99.9434 79.7975 100.015C79.6908 100.015 79.6019 100.015 79.4953 100.015C76.8285 100.015 74.3218 99.5122 71.9573 98.4879C69.5039 97.4277 67.3349 95.9362 65.4504 93.9775C63.5659 92.0368 62.0725 89.7547 60.9881 87.1491C59.9036 84.5435 59.3169 81.7223 59.2458 78.6854C59.2102 75.7564 59.708 73.025 60.7569 70.4553C61.8059 67.9037 63.2637 65.6395 65.1482 63.6988C67.0327 61.7581 69.2194 60.2127 71.7262 59.0986C74.2151 57.9844 76.9174 57.4274 79.7975 57.4274C79.8686 57.4274 79.9753 57.4274 80.082 57.4274ZM80.082 55.4148C79.9753 55.4148 79.8686 55.4148 79.7619 55.4148C76.6152 55.4148 73.6284 56.0437 70.8906 57.2657C68.1883 58.4876 65.7704 60.1767 63.7081 62.2971C61.6459 64.4176 60.028 66.9153 58.8902 69.7006C57.7524 72.5039 57.1835 75.5407 57.2368 78.7214V78.7393V78.7573C57.3257 82.0457 57.9657 85.1365 59.1391 87.9577C60.3125 90.779 61.9481 93.2947 64.0104 95.4151C66.0726 97.5355 68.4727 99.2067 71.1572 100.375C73.7529 101.489 76.5441 102.064 79.4775 102.064C79.5842 102.064 79.7086 102.064 79.8153 102.064H79.8331H79.8508C82.9443 101.974 85.9132 101.309 88.6511 100.087C91.3712 98.8653 93.8068 97.1941 95.8691 95.0917C97.9314 92.9892 99.567 90.5094 100.723 87.7241C101.896 84.9029 102.447 81.866 102.358 78.6674C102.305 75.379 101.683 72.2703 100.474 69.449C99.2648 66.6278 97.6291 64.13 95.5669 62.0276C93.469 59.9072 91.069 58.254 88.4022 57.1039C85.7888 55.9898 82.9976 55.4148 80.082 55.4148Z" fill="#7F1C0B"/>
<path d="M128.705 63.609C129.292 63.609 129.878 63.645 130.447 63.6989C133.043 63.9684 135.176 64.6692 136.847 65.8373C138.519 66.9873 139.603 68.3889 140.083 70.0242C140.599 71.7852 140.67 73.2407 140.314 74.3908C139.959 75.5588 139.354 76.4753 138.483 77.1581C137.612 77.8409 136.652 78.3441 135.621 78.6496C134.501 78.973 133.558 79.1527 132.794 79.1527C132.652 79.1527 132.527 79.1527 132.403 79.1348C131.567 79.0629 130.714 79.009 129.878 78.973C129.789 78.973 129.701 78.973 129.612 78.973C128.812 78.973 127.816 79.1527 126.625 79.4941C124.118 80.2309 122.34 81.5966 121.309 83.5553C120.26 85.514 120.154 87.9219 120.989 90.7611C121.469 92.4322 122.234 93.7261 123.229 94.6066C124.243 95.4871 125.398 96.0441 126.696 96.2418C127.14 96.3137 127.603 96.3496 128.047 96.3496C128.901 96.3496 129.754 96.2238 130.607 95.9723C131.923 95.5769 132.954 95.0917 133.736 94.4987C134.501 93.9058 135.052 93.3667 135.354 92.8456C135.656 92.3244 135.799 91.983 135.727 91.7853C133.523 92.4323 131.638 92.7737 130.038 92.7737C129.754 92.7737 129.487 92.7557 129.221 92.7377C127.46 92.6119 126.323 91.6596 125.825 89.8985C125.398 88.425 125.558 87.0234 126.305 85.7296C127.052 84.4178 128.847 83.3576 131.656 82.513C133.896 81.8482 135.816 81.5067 137.399 81.5067C137.754 81.5067 138.074 81.5247 138.394 81.5606C140.136 81.7403 141.541 82.4232 142.572 83.5912C143.603 84.7592 144.439 86.4484 145.079 88.6227C145.754 90.9587 145.683 93.2948 144.848 95.6129C144.012 97.9309 142.608 99.9974 140.616 101.794C138.625 103.591 136.243 104.885 133.452 105.676C130.607 106.52 127.941 106.934 125.452 106.934C124.154 106.934 122.891 106.826 121.7 106.592C118.18 105.927 115.193 104.382 112.74 101.956C110.304 99.5302 108.509 96.3496 107.353 92.4143C106.251 88.6407 105.913 85.2085 106.34 82.1357C106.767 79.0629 107.727 76.3674 109.238 74.0314C110.731 71.6953 112.58 69.7546 114.767 68.1913C116.954 66.6279 119.282 65.4779 121.754 64.7591C124.225 63.9864 126.572 63.609 128.705 63.609ZM128.705 61.5964C126.394 61.5964 123.834 62.0097 121.131 62.8004C118.465 63.5911 115.922 64.8489 113.558 66.5201C111.176 68.2272 109.131 70.3656 107.513 72.8993C105.86 75.469 104.793 78.4699 104.313 81.8122C103.851 85.1546 104.206 88.8922 105.38 92.9354C106.624 97.1942 108.598 100.698 111.282 103.358C114.002 106.053 117.362 107.796 121.274 108.551C122.589 108.803 123.976 108.928 125.398 108.928C128.065 108.928 130.945 108.479 133.95 107.581C137.007 106.718 139.692 105.263 141.896 103.268C144.119 101.255 145.737 98.9013 146.679 96.2777C147.657 93.5643 147.746 90.779 146.946 88.0297C146.217 85.5319 145.257 83.6451 144.03 82.2255C142.661 80.6622 140.83 79.7637 138.572 79.5301H138.554C138.945 79.2965 139.336 79.0269 139.692 78.7394C140.883 77.805 141.736 76.5292 142.216 74.9658C142.697 73.4025 142.608 71.5875 141.985 69.4312C141.381 67.3467 140.03 65.5677 137.967 64.1481C136.03 62.8184 133.558 61.9738 130.643 61.6863C130.021 61.6324 129.363 61.5964 128.705 61.5964ZM127.052 94.2472C127.034 94.2472 126.998 94.2472 126.98 94.2292C126.056 94.0854 125.238 93.6901 124.509 93.0612C123.798 92.4322 123.247 91.4619 122.874 90.1681C122.198 87.832 122.251 85.9632 123.034 84.4897C123.816 83.0162 125.167 82.0099 127.158 81.4169C128.385 81.0575 129.149 80.9677 129.576 80.9677C129.629 80.9677 129.683 80.9677 129.736 80.9677C129.754 80.9677 129.772 80.9677 129.789 80.9677C127.158 81.92 125.434 83.142 124.545 84.6874C123.531 86.4484 123.283 88.443 123.869 90.4376C124.42 92.2885 125.523 93.5823 127.052 94.2472Z" fill="#7F1C0B"/>
<path d="M164.51 56.9064C164.955 56.9064 165.399 56.9244 165.826 56.9603C167.195 57.0501 168.351 57.4455 169.311 58.1104C170.271 58.7752 170.893 59.8714 171.16 61.3988C171.408 62.7645 171.266 63.8966 170.733 64.813C170.2 65.7295 169.399 66.5022 168.333 67.0772C167.248 67.6702 166.057 68.1733 164.742 68.5866C165.097 69.8804 165.435 71.3 165.755 72.8634C166.075 74.4088 166.395 76.0979 166.733 77.8949C167.088 79.8176 167.373 81.6146 167.622 83.2678C167.871 84.939 168.048 86.4843 168.191 87.9039C168.564 87.886 168.919 87.868 169.275 87.868C170.644 87.868 171.888 88.0657 172.991 88.479C174.377 88.9821 175.231 90.1322 175.551 91.9471C175.8 93.3128 175.622 94.4269 175.035 95.3254C174.449 96.2239 173.577 96.9426 172.422 97.4817C171.266 98.0208 169.986 98.4521 168.582 98.7755C167.177 99.099 165.755 99.3865 164.333 99.656C162.946 99.9076 161.541 100.141 160.101 100.339C159.141 100.483 158.217 100.537 157.346 100.537C156.919 100.537 156.492 100.519 156.084 100.483C154.839 100.375 153.79 100.015 152.919 99.4045C152.048 98.7755 151.497 97.7872 151.248 96.4395C150.928 94.6785 151.301 93.3308 152.35 92.3604C153.399 91.408 154.75 90.6533 156.421 90.0962C156.048 88.7126 155.692 87.2031 155.355 85.5499C155.017 83.8967 154.679 82.1177 154.323 80.195C154.003 78.434 153.719 76.7628 153.47 75.1815C153.221 73.6001 153.026 72.1446 152.866 70.7969C152.457 70.8149 152.048 70.8328 151.657 70.8328C150.092 70.8328 148.67 70.6172 147.408 70.1859C145.825 69.6468 144.848 68.371 144.474 66.3225C144.208 64.813 144.385 63.5551 145.025 62.6028C145.665 61.6324 146.625 60.8597 147.888 60.2847C149.15 59.7096 150.554 59.2245 152.101 58.8471C153.648 58.4697 155.195 58.1463 156.741 57.8588C158.288 57.5713 159.853 57.3197 161.453 57.1041C162.484 56.9783 163.533 56.9064 164.51 56.9064ZM164.51 54.8938C163.444 54.8938 162.306 54.9657 161.133 55.1274C159.497 55.343 157.879 55.5946 156.332 55.8821C154.768 56.1696 153.186 56.5111 151.603 56.8884C149.932 57.2837 148.386 57.8049 147.017 58.4518C145.417 59.1885 144.19 60.2128 143.336 61.4886C142.394 62.9082 142.11 64.6513 142.483 66.6998C143.123 70.2039 145.15 71.5696 146.75 72.1087C148.066 72.5579 149.523 72.7915 151.106 72.8454C151.212 73.69 151.355 74.5705 151.497 75.4869C151.746 77.0683 152.03 78.7754 152.35 80.5544C152.706 82.4951 153.043 84.31 153.399 85.9632C153.612 86.9695 153.826 87.9578 154.057 88.8743C152.901 89.4134 151.888 90.0962 151.035 90.8689C149.932 91.8752 148.741 93.7081 149.31 96.7989C149.648 98.6857 150.483 100.123 151.799 101.058C152.955 101.884 154.359 102.387 155.959 102.513C156.421 102.549 156.901 102.567 157.381 102.567C158.341 102.567 159.373 102.495 160.421 102.351C161.879 102.154 163.319 101.902 164.724 101.651C166.164 101.381 167.622 101.076 169.062 100.752C170.608 100.393 172.031 99.9076 173.311 99.3146C174.786 98.6138 175.942 97.6614 176.724 96.4575C177.613 95.1097 177.898 93.4745 177.56 91.5877C176.991 88.4251 175.16 87.1312 173.72 86.5922C172.6 86.1789 171.355 85.9452 170.04 85.8734C169.933 84.9569 169.808 83.9866 169.666 82.9803C169.417 81.2911 169.115 79.4582 168.777 77.5355C168.457 75.7565 168.119 74.0494 167.799 72.4681C167.622 71.5696 167.426 70.707 167.213 69.8984C167.977 69.5929 168.688 69.2515 169.364 68.8921C170.768 68.1194 171.835 67.0952 172.546 65.8552C173.311 64.5075 173.542 62.8903 173.204 61.0574C172.831 59.0088 171.924 57.4634 170.52 56.4751C169.257 55.5946 167.764 55.0915 166.039 54.9657C165.506 54.9118 165.008 54.8938 164.51 54.8938Z" fill="#7F1C0B"/>
<path d="M83.5126 69.8265C85.9483 68.8921 88.9172 69.8804 90.4817 72.0008C92.0462 74.1212 92.1885 77.1401 91.0151 79.4941C89.8417 81.8482 87.4772 83.5014 84.8993 83.9865C85.9483 83.8967 87.015 83.8068 88.0639 84.0045C89.095 84.2022 90.1262 84.7053 90.7129 85.5858C91.2995 86.4663 91.3707 87.7602 90.6595 88.5508C89.7173 89.647 88.0106 89.4134 86.6238 89.0719C84.206 88.4789 81.8059 87.832 79.5836 87.2031C77.3613 86.0351 75.9213 83.5732 75.7257 81.0395C75.5124 78.5058 76.4369 75.9541 78.0014 73.9595C79.5481 71.9649 81.6992 70.5273 83.5126 69.8265Z" fill="white"/>
<path d="M82.7122 68.0297C81.4855 65.6577 79.2277 63.8788 76.6498 63.2139C74.0897 62.567 71.263 63.0701 69.0585 64.5616C69.6274 64.5436 70.1963 64.7413 70.6407 65.1007C67.8495 65.8015 65.5561 68.0477 64.4183 70.7252C63.2805 73.4026 63.2094 76.4754 63.8494 79.3146C63.8672 78.3982 64.3472 77.5177 65.0939 76.9966C64.2405 82.8906 66.7117 89.162 71.3341 92.8637C70.4452 91.6058 69.894 90.0964 69.7518 88.551C71.103 91.6777 74.0186 93.9419 77.2543 94.9302C80.4721 95.9185 83.9745 95.7388 87.2457 94.8943C85.1478 94.6966 83.0322 94.1934 81.2899 93.0075C79.5477 91.8215 78.2321 89.8448 78.2498 87.7244C78.7121 89.0721 80.1166 90.0065 81.5033 89.8987C78.9432 88.2096 78.0543 84.418 79.5654 81.7405C80.3299 80.3748 81.5922 79.3685 82.4989 78.1107C84.5967 75.1996 84.3122 71.1205 82.7122 68.0297Z" fill="white"/>
<path d="M88.1349 83.5734C87.9393 83.5374 87.7437 83.5015 87.5482 83.4835C89.2016 82.621 90.5883 81.2733 91.3883 79.674C92.6683 77.1223 92.4372 73.9237 90.8194 71.7494C89.5571 70.0423 87.4771 69.054 85.4503 69.054C84.8637 69.054 84.2948 69.1438 83.7258 69.3055C83.6014 69.3415 83.4947 69.3774 83.3703 69.4313C83.2281 69.4852 83.0858 69.5391 82.9436 69.611C83.0325 69.8806 83.1214 70.1501 83.1925 70.4196C83.3525 70.3478 83.4947 70.2939 83.6547 70.222C83.7614 70.186 83.8681 70.1501 83.9747 70.1142C86.1259 69.4673 88.7393 70.3478 90.1438 72.2525C91.5661 74.1933 91.7794 77.0325 90.6416 79.2966C89.5749 81.453 87.3348 83.0882 84.8281 83.5554L84.9348 84.382C85.9481 84.2922 86.9971 84.2023 87.9749 84.4C88.5971 84.5078 89.7171 84.8492 90.3572 85.8016C90.8905 86.5923 90.8727 87.6345 90.3394 88.2635C89.5216 89.1979 87.9749 88.9643 86.6948 88.6408C84.5436 88.1197 82.1969 87.4908 79.7257 86.7899C79.6546 86.754 79.6013 86.7181 79.5479 86.6821C79.1746 86.4665 78.819 86.1969 78.499 85.9094C78.5879 86.3766 78.7124 86.8259 78.8901 87.2572C79.0501 87.365 79.2279 87.4548 79.3879 87.5447L79.4235 87.5626L79.4591 87.5806C79.6546 87.6345 79.8324 87.6884 80.028 87.7423C82.3214 88.3892 84.5081 88.9643 86.517 89.4494C87.1215 89.5932 87.8504 89.737 88.5615 89.737C89.4505 89.737 90.3394 89.5213 90.9616 88.8025C91.7439 87.9041 91.7794 86.4126 91.0327 85.3164C90.4638 84.4359 89.4149 83.807 88.1349 83.5734ZM77.8057 86.4126C77.9834 86.5923 78.179 86.754 78.3746 86.8978L77.8057 85.2446V86.4126Z" fill="#7F1C0B"/>
<path d="M87.2636 94.4809C84.828 94.2472 82.9435 93.6543 81.5035 92.6659C80.2945 91.8393 79.3878 90.6893 78.9434 89.4673C79.6545 90.0603 80.579 90.4018 81.5035 90.3299L82.7302 90.24L81.699 89.5572C81.0057 89.1079 80.4545 88.479 80.0456 87.7602C79.8501 87.4188 79.6901 87.0774 79.5656 86.7C79.0323 85.1546 79.0856 83.3756 79.9034 81.9381C80.3301 81.1834 80.9168 80.5365 81.539 79.8536C81.9657 79.3684 82.4279 78.8833 82.819 78.3442C84.4369 76.1159 84.8458 73.0611 83.9924 70.0961C83.9213 69.8266 83.8324 69.557 83.7257 69.3055C83.548 68.8023 83.3346 68.3171 83.0857 67.832C81.8057 65.3701 79.4412 63.4833 76.7566 62.8184C74.0899 62.1356 71.1209 62.6567 68.8275 64.2201L67.6364 65.0287L69.0764 64.9928C69.2364 64.9928 69.3786 64.9928 69.5386 65.0287C67.1564 65.9631 65.1474 67.9757 64.0451 70.5633C62.9607 73.115 62.7473 76.2597 63.4407 79.4044L64.1874 82.7826L64.2585 79.3145C64.2585 78.9372 64.3652 78.5778 64.5252 78.2363C64.1696 83.8968 66.6408 89.665 71.0676 93.205L73.3432 95.0379L71.6543 92.648C71.3165 92.1807 71.032 91.6776 70.8187 91.1385C72.3654 93.0613 74.5699 94.5527 77.1122 95.3434C78.6056 95.8106 80.2056 96.0262 81.8946 96.0262C83.6368 96.0262 85.4502 95.7926 87.317 95.3074L89.6281 94.7145L87.2636 94.4809ZM77.3611 94.5348C74.0543 93.5105 71.352 91.2284 70.1253 88.3892L69.0942 86.0351L69.3253 88.6048C69.3964 89.4134 69.5742 90.1861 69.8409 90.9408C66.4452 87.275 64.7741 82.0639 65.4852 77.0683L65.6274 76.1159L64.8452 76.655C64.4896 76.8886 64.2052 77.2121 63.974 77.5715C63.6896 75.1635 63.974 72.8455 64.8096 70.8868C65.9474 68.2093 68.223 66.1428 70.7653 65.4959L71.5654 65.2982L70.9254 64.7771C70.712 64.5974 70.4809 64.4716 70.232 64.3638C72.1698 63.3755 74.4632 63.088 76.5611 63.6271C77.7878 63.9325 78.9434 64.5255 79.939 65.3162C80.9345 66.1069 81.7701 67.0952 82.3568 68.2273C82.5879 68.6765 82.8013 69.1437 82.9613 69.6109C83.0502 69.8805 83.1391 70.15 83.2102 70.4196C83.9569 73.115 83.6013 75.8823 82.1435 77.877C81.7879 78.3801 81.3434 78.8473 80.9345 79.3145C80.3123 79.9974 79.6545 80.7161 79.1923 81.5607C78.4456 82.8725 78.25 84.4718 78.5345 85.9633C78.6234 86.4305 78.7478 86.8797 78.9256 87.311C79.1923 88.0118 79.5834 88.6587 80.0634 89.2158C79.4056 88.8743 78.8723 88.3173 78.6411 87.6165L78.41 86.9336L77.8411 85.2804V86.4305V87.7423C77.8233 89.8627 79.0678 92.019 81.0768 93.3847C82.1435 94.1035 83.4057 94.6246 84.9169 94.966C82.179 95.3614 79.6012 95.2176 77.3611 94.5348Z" fill="#7F1C0B"/>
<path d="M69.9296 81.5068C69.894 81.4709 69.8584 81.417 69.8407 81.381C69.7695 81.2912 69.6807 81.1654 69.5918 81.0216C69.4851 80.806 69.414 80.5904 69.3429 80.3927L69.3073 80.2849C69.2184 79.9794 69.1651 79.656 69.1295 79.3325C69.1118 79.3505 69.094 79.3864 69.0762 79.4044C69.0406 79.4583 69.0051 79.4942 68.9695 79.5302C68.934 79.5661 68.9162 79.602 68.8806 79.638L68.2762 80.5185L68.1162 79.4583C68.0984 79.3325 68.0984 79.2067 68.1339 79.063C68.1517 79.009 68.1517 78.9372 68.1517 78.8833C68.1517 78.8114 68.1695 78.7575 68.1695 78.6856C68.2051 78.5059 68.2584 78.3262 68.3117 78.1824C68.3651 78.0027 68.4184 77.841 68.4184 77.7152L69.254 77.6973C69.254 77.841 69.2362 77.9848 69.2006 78.1285C69.3073 78.0746 69.414 78.0746 69.5384 78.1106L69.7162 78.1645L69.7873 78.3442C69.894 78.5957 69.9118 78.8473 69.9296 79.0809V79.1348C69.9473 79.4403 69.9829 79.7638 70.0718 80.0153L70.1073 80.1232C70.1607 80.3029 70.214 80.4646 70.2851 80.6083C70.3207 80.6802 70.374 80.7521 70.4451 80.8419C70.4807 80.8959 70.534 80.9498 70.5696 81.0037L69.9296 81.5068Z" fill="#7F1C0B"/>
<path d="M74.5163 90.6713L74.0363 90.3658C73.8229 90.2221 73.7163 89.9705 73.6274 89.7728C73.6096 89.7369 73.5918 89.701 73.574 89.665C73.5385 89.5752 73.4851 89.4853 73.4496 89.4134C73.3607 89.2517 73.2718 89.072 73.1829 88.8923C73.094 88.6947 73.0051 88.479 72.934 88.2275L72.9162 88.1735C72.8629 88.0298 72.8096 87.8681 72.8096 87.6884L73.6452 87.6345C73.6452 87.7063 73.6807 87.8142 73.7163 87.922L73.734 87.9759C73.7518 88.0478 73.7874 88.1196 73.8052 88.1915C73.8229 88.0837 73.8407 87.9759 73.8763 87.8681C73.894 87.7602 73.9296 87.5805 74.0896 87.4727C74.2318 87.3649 74.4274 87.3469 74.6407 87.4548L74.3385 88.2275C74.3918 88.2275 74.4985 88.2275 74.5874 88.1556C74.6763 88.0837 74.7119 87.9938 74.7119 87.9938C74.7119 88.0118 74.7119 88.0298 74.6941 88.0478C74.6941 88.0837 74.6763 88.1017 74.6763 88.1196C74.6407 88.2634 74.6052 88.4431 74.6052 88.6228C74.6052 88.8744 74.5874 89.1439 74.623 89.4134V89.5033C74.623 89.5931 74.6407 89.683 74.6585 89.7728V89.8088C74.6763 89.8986 74.7119 90.0424 74.6763 90.1861L74.5163 90.6713Z" fill="#7F1C0B"/>
<path d="M71.8681 72.3422C71.8148 72.3422 71.7436 72.3422 71.6725 72.3242L71.4592 72.2883L71.3703 72.0906C71.2814 71.893 71.3525 71.6953 71.5303 71.4797C71.5836 71.4258 71.637 71.3718 71.6903 71.3179C71.7259 71.3 71.7436 71.264 71.7614 71.2461C71.957 71.0484 72.1881 70.8507 72.4548 70.671C72.8637 70.4015 73.3081 70.2038 73.8059 70.0601L73.8948 70.0241C73.9837 70.0062 74.0548 69.9702 74.1437 69.9522C74.1259 69.9343 74.1082 69.9163 74.0904 69.9163C73.8059 69.7007 73.5037 69.485 73.1837 69.2874L72.917 69.1077C72.8992 69.1077 72.8815 69.0897 72.8637 69.0717C72.7215 68.9999 72.4726 68.8741 72.4192 68.6045L72.3481 68.317L72.597 68.1553C72.7748 68.0475 72.9881 68.0654 73.1481 68.0834C73.1659 68.0834 73.1837 68.0834 73.2015 68.0834C73.3615 68.1014 73.5037 68.1014 73.6637 68.1193C73.7348 68.1193 73.8059 68.1373 73.8948 68.1373C74.0726 68.1553 74.2326 68.1733 74.4104 68.1912C74.5348 68.2092 74.6415 68.2451 74.7482 68.2631C74.7837 68.2811 74.8371 68.2811 74.8726 68.299C75.0504 68.3529 75.2815 68.4069 75.4949 68.5326C75.5482 68.5686 75.6015 68.5866 75.6549 68.6225C75.8504 68.7303 76.046 68.8381 76.2238 68.9819C76.4193 69.1256 76.5971 69.3053 76.7749 69.5569C76.8282 69.6288 76.9705 69.8085 76.9349 70.078L76.1171 69.9343C76.0993 70.0062 76.1349 70.0601 76.1349 70.078L76.1171 70.0601C75.9571 69.8624 75.8327 69.7366 75.7082 69.6288C75.5838 69.521 75.4238 69.4311 75.246 69.3413C75.1926 69.3053 75.1393 69.2874 75.086 69.2514C74.9793 69.1796 74.8371 69.1436 74.6771 69.1077C74.6237 69.0897 74.5704 69.0717 74.5171 69.0717C74.4459 69.0538 74.3748 69.0358 74.3215 69.0178C74.4104 69.0897 74.5171 69.1616 74.6059 69.2335C74.8371 69.4132 75.0682 69.5929 75.2993 69.7905C75.4771 69.9343 75.6726 70.1679 75.6193 70.4195L75.566 70.707L75.2815 70.7609C75.086 70.7968 74.9082 70.7609 74.7482 70.7429L74.6593 70.7249C74.5171 70.707 74.3393 70.7609 74.1437 70.8148L74.037 70.8507C73.6281 70.9765 73.2548 71.1382 72.917 71.3539C72.9703 71.3539 73.0237 71.3539 73.0592 71.3359C73.1837 71.3179 73.3081 71.3179 73.4326 71.3C74.1259 71.2281 74.7126 71.1921 75.2815 71.1921H75.5304C75.9038 71.1921 76.2771 71.1742 76.6682 71.1562L76.7038 72.0008C76.3127 72.0187 75.9215 72.0188 75.5482 72.0367H75.2993C74.7482 72.0547 74.1793 72.0727 73.5215 72.1445C73.397 72.1625 73.2548 72.1625 73.1304 72.1805C72.8459 72.1984 72.5792 72.2164 72.3125 72.2703C72.277 72.2703 72.2414 72.2883 72.2059 72.2883C72.117 72.3242 72.0103 72.3422 71.8681 72.3422Z" fill="#7F1C0B"/>
<path d="M76.0273 76.8527L76.0629 76.3676C76.0807 76.1879 76.1518 76.0082 76.2407 75.8285C76.4007 75.487 76.5785 75.1995 76.774 74.948C76.9874 74.6604 77.2363 74.3909 77.4496 74.1573C77.5918 73.9956 77.7518 73.8698 77.9118 73.762L78.4274 74.4268C78.303 74.5167 78.1785 74.6245 78.0718 74.7503C77.8763 74.9659 77.6452 75.2175 77.4496 75.4691C77.4141 75.505 77.3963 75.5589 77.3607 75.5949C77.5918 75.505 77.823 75.4331 78.0541 75.3433L78.2674 75.2714C78.4985 75.1816 78.7474 75.1097 78.9963 75.0378C79.0141 75.0378 79.0141 75.0378 79.0319 75.0198C79.103 75.0019 79.2097 74.9659 79.3341 74.948C79.4586 74.5886 79.5474 74.2292 79.5652 73.8698L80.4008 73.9417C80.3297 74.7503 80.0452 75.487 79.7608 76.2058L79.7075 76.3496L78.9252 76.0621C78.943 76.0082 78.9608 75.9722 78.9785 75.9183C78.8363 75.9722 78.6941 76.0082 78.5341 76.0621C78.463 76.08 78.3919 76.116 78.3207 76.1339C78.0541 76.2238 77.7341 76.3316 77.4318 76.4574C77.2896 76.5113 77.1296 76.5832 76.9696 76.6551C76.9518 76.6551 76.934 76.673 76.9163 76.673C76.8274 76.7269 76.6851 76.7988 76.5429 76.7988L76.0273 76.8527Z" fill="#7F1C0B"/>
<path d="M106.234 28.6043C108.491 27.5261 111.105 27.2566 113.7 27.7956C113.629 27.005 113.754 26.1964 114.056 25.4596C114.109 25.819 114.18 26.1964 114.234 26.5557C115.461 23.9681 117.096 21.5961 119.087 19.5476C119.638 22.0454 119.958 24.615 120.047 27.1667C120.225 26.969 120.385 26.7714 120.563 26.5737C120.687 27.9574 120.652 29.359 120.492 30.7247C120.652 30.6169 120.812 30.5091 120.954 30.4012C120.918 30.7966 120.883 31.2099 121.061 31.713C121.718 33.7256 122.572 35.6843 123.585 37.5531C123.194 37.4453 122.839 37.2117 122.572 36.9062C123.336 38.254 123.496 39.9611 122.981 41.4346C122.945 41.2908 122.91 41.1471 122.874 41.0033C121.256 45.0285 117.345 47.9935 113.167 48.5505C109.86 50.7248 105.149 50.4014 102.162 47.7958C102.34 48.263 102.5 48.7302 102.678 49.1974C100.385 47.5981 98.8556 44.9386 98.6422 42.1354C98.4467 42.5846 98.2333 43.0339 98.0378 43.4831C97.8778 42.7284 97.9133 41.9377 98.1444 41.1471C97.7711 41.3627 97.3978 41.5604 97.0244 41.776C97.54 38.3797 98.4645 35.0554 99.7978 31.8927C99.3 32.3599 98.8022 32.8271 98.3222 33.2943C98.8734 32.1982 99.5312 31.1739 100.456 30.2575C99.8689 30.2036 99.3 30.1676 98.7134 30.1137C99.3356 30.0778 99.7978 29.4668 99.9223 28.8379C100.047 28.2269 99.9045 27.58 99.7978 26.969C99.4956 25.1362 99.5134 23.2673 99.5489 21.3985C102.447 23.1775 104.758 25.8729 106.234 28.6043Z" fill="white"/>
<path d="M108.225 50.4194C106.394 50.4194 104.58 49.9342 103.034 48.9639L103.514 50.3116L102.447 49.5569C100.438 48.1552 98.998 45.9989 98.4468 43.6089L97.8957 44.8309L97.629 43.573C97.5224 43.0339 97.4868 42.4948 97.5579 41.9557L96.4912 42.5487L96.6157 41.7042C97.0423 38.9009 97.7535 36.1336 98.7313 33.4741L96.9001 35.2171L97.9668 33.0967C98.4646 32.1084 98.9802 31.2998 99.5846 30.5989L98.7135 30.5271V29.6825C99.1402 29.6466 99.4602 29.1794 99.5313 28.7481C99.6202 28.2809 99.5313 27.7777 99.4424 27.2566L99.4069 27.023C99.1046 25.1362 99.1224 23.2314 99.158 21.3805L99.1757 20.6438L99.798 21.0212C102.429 22.6204 104.776 25.1003 106.429 28.0113C108.527 27.1128 110.927 26.8433 113.274 27.2386C113.274 26.5558 113.416 25.8729 113.701 25.244L114.27 23.9322L114.465 25.1721C115.638 22.9798 117.096 20.9852 118.821 19.2062L119.354 18.6492L119.514 19.4039C119.994 21.5962 120.296 23.8244 120.439 26.0706L120.919 25.5136L121.008 26.4839C121.096 27.598 121.096 28.7121 121.025 29.8263L121.488 29.5208L121.416 30.3833C121.381 30.7607 121.363 31.1021 121.505 31.5154C122.163 33.51 122.999 35.4507 124.012 37.3016L124.492 38.1821L123.532 37.9126C123.87 39.0806 123.852 40.3744 123.443 41.5245L122.963 42.9081L122.803 42.2253C120.936 45.7293 117.292 48.3529 113.381 48.91C111.816 49.9522 110.021 50.4194 108.225 50.4194ZM101.22 46.4302L102.429 47.4904C105.274 49.9702 109.789 50.2936 112.936 48.2091L113.007 48.1552L113.096 48.1373C117.167 47.5802 120.936 44.6512 122.483 40.8416L122.839 39.9611C122.892 38.9728 122.679 37.9845 122.199 37.1219L122.679 36.7805C121.879 35.1992 121.203 33.546 120.634 31.8568C120.545 31.6232 120.51 31.4076 120.492 31.2099L119.923 31.5873L120.03 30.6888C120.154 29.6825 120.19 28.6403 120.154 27.616L119.621 28.227L119.585 27.1847C119.496 24.9206 119.23 22.6384 118.785 20.4102C117.061 22.297 115.638 24.4174 114.554 26.7355L114.056 27.7777L114.11 28.3168L113.558 28.191C111.069 27.6699 108.527 27.9394 106.358 28.9637L106.003 29.1254L105.807 28.784C104.349 26.0886 102.269 23.7525 99.9046 22.1712C99.8869 23.7525 99.9046 25.3518 100.154 26.9152L100.189 27.1308C100.296 27.7058 100.385 28.3168 100.278 28.9278C100.225 29.2333 100.1 29.5387 99.9046 29.7903L101.345 29.9161L100.811 30.4372L100.136 32.0365C98.9268 34.8937 98.0557 37.8946 97.5224 40.9674L98.7668 40.2846L98.4824 41.2549C98.4646 41.3268 98.4468 41.3987 98.4291 41.4706L98.8913 40.4643L99.0157 42.0995C99.1757 44.2558 100.171 46.3583 101.718 47.8857L101.22 46.4302Z" fill="#7F1C0B"/>
<path d="M108.563 43.6808C108.314 43.6808 108.047 43.6269 107.798 43.5191C107.051 43.1956 106.625 42.4589 106.305 41.776L107.051 41.4166C107.3 41.9557 107.62 42.5307 108.118 42.7284C108.58 42.9261 109.185 42.7823 109.683 42.387C110.18 41.9737 110.536 41.3807 110.874 40.8057L111.585 41.2369C111.229 41.8479 110.82 42.5487 110.198 43.0519C109.789 43.3933 109.185 43.6808 108.563 43.6808Z" fill="#7F1C0B"/>
<path d="M109.132 43.1596C109.132 43.9862 109.434 44.9745 109.985 45.5855C110.554 46.1785 111.479 46.4481 112.225 46.1066C112.741 45.873 113.096 45.3878 113.292 44.8667C113.488 44.3456 113.594 43.3753 113.576 42.8182C113.576 42.8182 111.852 42.0814 111.23 41.1111C110.465 42.6385 109.132 43.1596 109.132 43.1596Z" fill="#FFB0E7"/>
<path d="M111.532 46.6818C110.874 46.6818 110.198 46.3943 109.7 45.8732C109.096 45.2443 108.723 44.1841 108.723 43.1598V43.1418L109.132 43.1598L108.972 42.7824C108.989 42.7824 110.18 42.2793 110.874 40.9136L111.212 40.2847L111.603 40.8956C112.047 41.5964 113.309 42.2434 113.754 42.441L114.003 42.5488V42.8184C114.021 43.4293 113.914 44.4536 113.683 45.0286C113.434 45.7115 112.954 46.2506 112.385 46.5021C112.136 46.61 111.834 46.6818 111.532 46.6818ZM109.558 43.4293C109.612 44.1481 109.896 44.8669 110.287 45.2982C110.767 45.8013 111.514 45.981 112.065 45.7295C112.438 45.5677 112.741 45.1904 112.918 44.7232C113.061 44.3278 113.167 43.609 113.185 43.0879C112.758 42.8903 111.905 42.4231 111.318 41.8301C110.696 42.7285 109.949 43.2137 109.558 43.4293Z" fill="#934156"/>
<path d="M111.655 41.5504L110.821 41.6072L110.99 44.1351L111.823 44.0783L111.655 41.5504Z" fill="#934156"/>
<path d="M108.563 43.6808C108.314 43.6808 108.047 43.6269 107.798 43.5191C107.051 43.1956 106.625 42.4589 106.305 41.776L107.051 41.4166C107.3 41.9557 107.62 42.5307 108.118 42.7284C108.58 42.9261 109.185 42.7823 109.683 42.387C110.18 41.9737 110.536 41.3807 110.874 40.8057L111.585 41.2369C111.229 41.8479 110.82 42.5487 110.198 43.0519C109.789 43.3933 109.185 43.6808 108.563 43.6808Z" fill="#934156"/>
<path d="M113.914 43.2317C113.469 43.2317 113.007 43.1059 112.563 42.8543C111.869 42.459 111.354 41.848 110.909 41.2909L111.549 40.7519C111.976 41.273 112.42 41.7941 112.971 42.1175C113.523 42.441 114.163 42.4769 114.572 42.2074C115.034 41.9199 115.247 41.3089 115.407 40.7339L116.207 40.9675C116.012 41.6863 115.709 42.4949 115.016 42.9262C114.696 43.1418 114.323 43.2317 113.914 43.2317Z" fill="#934156"/>
<path d="M107.104 37.2119C107.104 38.4877 106.073 39.53 104.811 39.53C103.549 39.53 102.518 38.4877 102.518 37.2119C102.518 35.936 103.549 34.8938 104.811 34.8938C106.055 34.8938 107.104 35.936 107.104 37.2119Z" fill="#7F1C0B"/>
<path d="M118.306 36.1157C118.306 37.3915 117.274 38.4338 116.012 38.4338C114.75 38.4338 113.719 37.3915 113.719 36.1157C113.719 34.8398 114.75 33.7976 116.012 33.7976C117.274 33.7976 118.306 34.8219 118.306 36.1157Z" fill="#7F1C0B"/>
<path d="M104.243 29.2332C103.496 27.8496 102.607 26.5378 101.576 25.3518C101.825 26.9511 102.074 28.5324 102.341 30.1317C102.981 29.8622 103.621 29.6106 104.243 29.2332Z" fill="#FFB0E7"/>
<path d="M115.763 28.784C116.243 27.1308 116.918 25.5494 117.807 24.0759C118.003 25.9627 118.181 27.8316 118.376 29.7184C117.434 29.4668 116.474 29.2691 115.763 28.784Z" fill="#FFB0E7"/>
<path d="M108.242 50.024C108.26 48.82 109.113 47.9934 110.18 47.4723C111.353 46.8973 112.829 46.9691 113.896 47.7239C114.962 48.4786 115.514 49.9341 115.14 51.192C114.749 52.4499 113.38 53.3484 112.118 53.0968C110.838 52.8452 109.896 51.3897 110.127 50.1677C109.504 50.3295 108.829 50.0779 108.242 50.024Z" fill="white"/>
<path d="M116.651 47.077C116.847 45.3519 117.967 44.0581 119.3 42.9619C120.243 42.1892 121.505 41.6681 122.678 41.9556C124.029 42.2791 125.025 43.6987 124.883 45.0823C124.74 46.466 123.46 47.652 122.074 47.6699C120.687 47.6879 119.371 46.5738 119.176 45.1901C118.536 45.8191 117.629 47.1848 116.651 47.077Z" fill="white"/>
<path d="M112.563 53.5461C112.385 53.5461 112.207 53.5282 112.047 53.4922C110.767 53.2407 109.736 51.9289 109.683 50.6171C109.327 50.6171 108.99 50.5632 108.67 50.4913C108.51 50.4554 108.35 50.4374 108.207 50.4194L107.834 50.3655V49.9882C107.852 48.7662 108.598 47.742 110.003 47.0591C111.354 46.4122 112.972 46.52 114.145 47.3466C115.39 48.2271 115.976 49.8803 115.55 51.282C115.141 52.6297 113.861 53.5461 112.563 53.5461ZM110.661 49.5569L110.536 50.2218C110.341 51.246 111.159 52.468 112.207 52.6656C113.256 52.8813 114.43 52.1265 114.768 51.0484C115.088 50.0061 114.625 48.7123 113.683 48.0474C112.776 47.4005 111.443 47.3287 110.376 47.8318C109.416 48.299 108.847 48.91 108.705 49.6467C108.741 49.6467 108.776 49.6647 108.812 49.6647C109.221 49.7366 109.647 49.8264 110.021 49.7186L110.661 49.5569Z" fill="#7F1C0B"/>
<path d="M111.176 41.0752C111.709 40.7518 112.1 40.2306 112.296 39.6376C112.331 39.5119 112.367 39.3861 112.296 39.2603C112.225 39.1525 112.1 39.1165 111.976 39.0806C111.265 38.9189 110.5 38.9907 109.842 39.2783C109.647 39.3501 109.451 39.4939 109.434 39.6916C109.416 39.8533 109.522 39.997 109.647 40.1049C109.949 40.4103 110.287 40.6799 110.678 40.8775C110.803 40.9315 110.927 40.9674 111.051 41.0033C111.069 41.0393 111.087 41.0572 111.176 41.0752Z" fill="#FFB0E7"/>
<path d="M111.229 41.5244L111.052 41.4705C110.981 41.4525 110.927 41.4346 110.874 41.3986C110.856 41.3986 110.821 41.3807 110.803 41.3807C110.696 41.3447 110.589 41.3267 110.465 41.2549C110.038 41.0392 109.647 40.7517 109.327 40.4103C109.238 40.3025 108.972 40.0329 109.007 39.6735C109.025 39.4399 109.149 39.1165 109.683 38.9008C110.429 38.5954 111.283 38.5055 112.065 38.6852C112.172 38.7032 112.474 38.7751 112.652 39.0446C112.829 39.3321 112.723 39.6556 112.687 39.7634C112.456 40.4462 111.994 41.0392 111.389 41.4166L111.229 41.5244ZM109.878 39.7634C109.896 39.7814 109.914 39.8173 109.949 39.8532C110.216 40.1408 110.518 40.3564 110.856 40.5361C110.909 40.5541 110.963 40.572 111.052 40.59C111.069 40.59 111.105 40.608 111.123 40.608C111.478 40.3384 111.763 39.9431 111.905 39.5118C111.283 39.3681 110.607 39.4399 110.003 39.6915C109.932 39.7095 109.896 39.7454 109.878 39.7634Z" fill="#934156"/>
<path d="M104.19 37.1218C104.632 37.1218 104.99 36.8483 104.99 36.5109C104.99 36.1734 104.632 35.8999 104.19 35.8999C103.748 35.8999 103.39 36.1734 103.39 36.5109C103.39 36.8483 103.748 37.1218 104.19 37.1218Z" fill="white"/>
<path d="M115.62 36.1875C116.062 36.1875 116.42 35.914 116.42 35.5765C116.42 35.2391 116.062 34.9656 115.62 34.9656C115.178 34.9656 114.82 35.2391 114.82 35.5765C114.82 35.914 115.178 36.1875 115.62 36.1875Z" fill="white"/>
<path d="M116.9 36.8884C117.087 36.8884 117.238 36.7356 117.238 36.547C117.238 36.3584 117.087 36.2056 116.9 36.2056C116.714 36.2056 116.562 36.3584 116.562 36.547C116.562 36.7356 116.714 36.8884 116.9 36.8884Z" fill="white"/>
<path d="M105.736 37.8047C105.923 37.8047 106.074 37.6518 106.074 37.4632C106.074 37.2747 105.923 37.1218 105.736 37.1218C105.55 37.1218 105.398 37.2747 105.398 37.4632C105.398 37.6518 105.55 37.8047 105.736 37.8047Z" fill="white"/>
<path d="M118.945 34.139C117.879 32.5037 115.71 32.0545 114.092 33.1327C112.474 34.2108 112.029 36.4031 113.096 38.0384C114.163 39.6736 119.372 41.2549 119.372 41.2549C119.372 41.2549 120.012 35.7742 118.945 34.139ZM116.438 38.7032C114.998 38.9548 113.612 37.9845 113.363 36.5289C113.114 35.0734 114.074 33.6718 115.514 33.4202C116.954 33.1686 118.341 34.139 118.59 35.5945C118.856 37.05 117.896 38.4517 116.438 38.7032Z" fill="#BDC1C6"/>
<path d="M102.002 30.7069L100.936 23.9683L101.896 25.0824C102.945 26.2863 103.851 27.6161 104.616 29.0357L104.811 29.3771L104.473 29.5927C103.816 30.006 103.14 30.2756 102.5 30.5272L102.002 30.7069ZM102.233 26.8434L102.66 29.5388C102.998 29.3951 103.336 29.2513 103.673 29.0716C103.247 28.2989 102.767 27.5442 102.233 26.8434Z" fill="#D683AD"/>
<path d="M118.838 30.2755L118.251 30.1138C118.109 30.0779 117.967 30.0419 117.825 30.006C117.025 29.7904 116.189 29.5747 115.514 29.1255L115.265 28.9638L115.354 28.6763C115.834 26.9871 116.545 25.3698 117.434 23.8604L118.074 22.7822L118.838 30.2755ZM116.242 28.5864C116.722 28.838 117.291 28.9997 117.896 29.1614L117.522 25.4417C117.007 26.448 116.58 27.5082 116.242 28.5864Z" fill="#D683AD"/>
<path d="M122.039 48.1013C120.723 48.1013 119.496 47.2208 118.981 46.0168L118.963 46.0348C118.323 46.7356 117.541 47.5981 116.598 47.5083L116.189 47.4723L116.243 47.0591C116.474 45.0285 117.861 43.6448 119.052 42.6745C120.243 41.7041 121.612 41.3088 122.785 41.5783C124.35 41.9557 125.47 43.555 125.292 45.1543C125.114 46.7536 123.692 48.0833 122.092 48.1193C122.074 48.1013 122.056 48.1013 122.039 48.1013ZM119.496 44.3636L119.603 45.1363C119.763 46.3043 120.901 47.2927 122.074 47.2567C123.247 47.2387 124.35 46.2145 124.474 45.0465C124.599 43.8605 123.745 42.6385 122.59 42.369C121.647 42.1534 120.545 42.4768 119.567 43.2854C118.216 44.3996 117.452 45.4238 117.167 46.5379C117.576 46.3223 118.003 45.8551 118.358 45.4598C118.554 45.2441 118.732 45.0465 118.91 44.8847L119.496 44.3636Z" fill="#7F1C0B"/>
<path d="M29.0045 43.4292C28.2934 42.7105 27.0133 42.6745 26.2666 43.3574C25.0221 44.4894 25.431 46.9333 23.9554 47.724C23.0488 48.2091 21.8754 47.724 21.3065 46.8614C20.7376 46.0169 20.6665 44.9207 20.7731 43.8965C20.9509 42.2792 21.5198 40.7158 22.1065 39.1884C22.6221 37.8227 23.2976 36.2773 24.6844 35.8281C25.8222 35.4507 27.0489 35.9719 28.08 36.5649C29.4667 37.3735 30.7468 38.3978 31.8668 39.5658C32.4713 40.1947 33.0402 40.8955 33.2891 41.7221C33.538 42.5667 33.378 43.573 32.7202 44.1301C32.1335 44.6332 31.2623 44.6691 30.5512 44.3816C29.8223 44.0941 29.1823 43.6269 29.0045 43.4292Z" fill="#9D3C27"/>
<path d="M21.7316 35.7882C22.4265 35.2365 22.0606 33.5935 20.9144 32.1184C19.7681 30.6434 18.2755 29.8948 17.5805 30.4466C16.8856 30.9983 17.2515 32.6413 18.3978 34.1164C19.5441 35.5914 21.0367 36.3399 21.7316 35.7882Z" fill="#9D3C27"/>
<path d="M19.2717 39.8175C19.6021 38.9891 18.4746 37.749 16.7534 37.0477C15.0322 36.3463 13.3691 36.4494 13.0387 37.2778C12.7083 38.1063 13.8357 39.3464 15.5569 40.0477C17.2781 40.749 18.9413 40.646 19.2717 39.8175Z" fill="#9D3C27"/>
<path d="M26.596 33.8031C27.4487 33.5687 27.745 31.9114 27.2579 30.1016C26.7708 28.2917 25.6846 27.0146 24.832 27.2491C23.9793 27.4835 23.683 29.1408 24.1701 30.9506C24.6572 32.7605 25.7434 34.0376 26.596 33.8031Z" fill="#9D3C27"/>
<path d="M33.2498 33.5655C34.0606 31.8783 34.0735 30.1942 33.2786 29.804C32.4837 29.4138 31.1821 30.4652 30.3713 32.1523C29.5606 33.8395 29.5477 35.5236 30.3426 35.9139C31.1374 36.3041 32.4391 35.2527 33.2498 33.5655Z" fill="#9D3C27"/>
<path d="M152.972 42.6926C152.777 41.7402 151.763 41.0574 150.821 41.2191C149.257 41.4887 148.35 43.663 146.75 43.5372C145.79 43.4653 145.079 42.459 145.061 41.4707C145.043 40.5003 145.541 39.5659 146.145 38.8112C147.106 37.5893 148.35 36.6549 149.594 35.7204C150.697 34.8759 152.03 33.9954 153.363 34.3547C154.466 34.6423 155.195 35.6845 155.71 36.7088C156.421 38.0924 156.937 39.5659 157.257 41.0754C157.417 41.884 157.524 42.7465 157.31 43.5552C157.079 44.3638 156.439 45.0826 155.621 45.1904C154.892 45.2803 154.164 44.867 153.755 44.256C153.292 43.663 153.026 42.9442 152.972 42.6926Z" fill="#9D3C27"/>
<path d="M150.992 32.7926C151.832 32.7077 152.371 31.198 152.195 29.4205C152.019 27.6431 151.195 26.271 150.355 26.3558C149.515 26.4407 148.976 27.9504 149.152 29.7279C149.328 31.5053 150.152 32.8774 150.992 32.7926Z" fill="#9D3C27"/>
<path d="M146.977 34.7601C147.663 34.2633 147.386 32.683 146.357 31.2305C145.328 29.778 143.938 29.0033 143.251 29.5001C142.564 29.9969 142.842 31.5771 143.871 33.0297C144.899 34.4822 146.29 35.2569 146.977 34.7601Z" fill="#9D3C27"/>
<path d="M158.326 31.0638C158.85 29.3575 158.62 27.7693 157.814 27.5166C157.007 27.2639 155.929 28.4423 155.406 30.1487C154.882 31.855 155.112 33.4432 155.918 33.6959C156.725 33.9486 157.803 32.7702 158.326 31.0638Z" fill="#9D3C27"/>
<path d="M161.411 36.9588C162.916 36.0213 163.776 34.6724 163.333 33.9458C162.89 33.2192 161.311 33.3902 159.806 34.3277C158.302 35.2652 157.441 36.6142 157.884 37.3407C158.328 38.0673 159.906 37.8963 161.411 36.9588Z" fill="#9D3C27"/>
<defs>
<linearGradient id="paint0_linear_377_5594" x1="65.6491" y1="17.935" x2="65.6491" y2="55.1405" gradientUnits="userSpaceOnUse">
<stop stop-color="#FFD828"/>
<stop offset="1" stop-color="#E28800"/>
</linearGradient>
<linearGradient id="paint1_linear_377_5594" x1="109.541" y1="17.9352" x2="109.541" y2="55.1406" gradientUnits="userSpaceOnUse">
<stop stop-color="#FFD828"/>
<stop offset="1" stop-color="#E28800"/>
</linearGradient>
<linearGradient id="paint2_linear_377_5594" x1="69.7106" y1="17.9166" x2="69.7106" y2="55.2578" gradientUnits="userSpaceOnUse">
<stop stop-color="#E28800"/>
<stop offset="1" stop-color="#9D3C27"/>
</linearGradient>
<linearGradient id="paint3_linear_377_5594" x1="116.501" y1="17.8971" x2="116.501" y2="55.266" gradientUnits="userSpaceOnUse">
<stop stop-color="#E28800"/>
<stop offset="1" stop-color="#9D3C27"/>
</linearGradient>
<linearGradient id="paint4_linear_377_5594" x1="32.3541" y1="58.0517" x2="32.3541" y2="99.226" gradientUnits="userSpaceOnUse">
<stop stop-color="#FFD828"/>
<stop offset="1" stop-color="#E28800"/>
</linearGradient>
<linearGradient id="paint5_linear_377_5594" x1="79.7774" y1="58.0516" x2="79.7774" y2="99.2259" gradientUnits="userSpaceOnUse">
<stop stop-color="#FFD828"/>
<stop offset="1" stop-color="#E28800"/>
</linearGradient>
<linearGradient id="paint6_linear_377_5594" x1="125.806" y1="58.0517" x2="125.806" y2="99.2259" gradientUnits="userSpaceOnUse">
<stop stop-color="#FFD828"/>
<stop offset="1" stop-color="#E28800"/>
</linearGradient>
<linearGradient id="paint7_linear_377_5594" x1="159.98" y1="58.0516" x2="159.98" y2="99.2258" gradientUnits="userSpaceOnUse">
<stop stop-color="#FFD828"/>
<stop offset="1" stop-color="#E28800"/>
</linearGradient>
<linearGradient id="paint8_linear_377_5594" x1="32.306" y1="57.7624" x2="32.306" y2="99.279" gradientUnits="userSpaceOnUse">
<stop stop-color="#E28800"/>
<stop offset="1" stop-color="#9D3C27"/>
</linearGradient>
<linearGradient id="paint9_linear_377_5594" x1="130.997" y1="57.8575" x2="130.997" y2="98.1873" gradientUnits="userSpaceOnUse">
<stop stop-color="#E28800"/>
<stop offset="1" stop-color="#9D3C27"/>
</linearGradient>
<linearGradient id="paint10_linear_377_5594" x1="167.732" y1="57.9853" x2="167.732" y2="97.129" gradientUnits="userSpaceOnUse">
<stop stop-color="#E28800"/>
<stop offset="1" stop-color="#9D3C27"/>
</linearGradient>
<linearGradient id="paint11_linear_377_5594" x1="87.0687" y1="57.9337" x2="87.0687" y2="95.5562" gradientUnits="userSpaceOnUse">
<stop stop-color="#E28800"/>
<stop offset="1" stop-color="#9D3C27"/>
</linearGradient>
</defs>
</svg>
