<svg width="1728" height="77" viewBox="0 0 1728 77" fill="none" xmlns="http://www.w3.org/2000/svg">
<g opacity="0.2">
<g clip-path="url(#clip0_377_118)">
<path d="M34.2778 26.4507C35.7175 25.8506 36.5011 24.0401 35.9467 22.5753C35.0314 20.1373 31.2855 19.3032 30.993 16.7329C30.8142 15.1539 32.1824 13.7568 33.7473 13.4438C35.3122 13.1307 36.9023 13.655 38.3133 14.4025C40.5359 15.596 42.4573 17.3178 44.3169 19.0441C45.9847 20.5748 47.8193 22.4388 47.672 24.6837C47.5637 26.5308 46.1133 27.9832 44.6714 29.1142C42.7164 30.6286 40.5124 31.8652 38.1933 32.7894C36.9438 33.289 35.6114 33.696 34.2811 33.5721C32.925 33.4378 31.5703 32.6245 31.1459 31.3599C30.7583 30.2283 31.2048 28.9611 32.0247 28.1106C32.8547 27.2347 33.8921 26.5903 34.2778 26.4507Z" fill="#D66A1C"/>
<path d="M49.4188 20.4865C49.8143 21.8011 52.3848 22.2317 55.1601 21.4482C57.9355 20.6646 59.8647 18.9637 59.4691 17.6491C59.0736 16.3344 56.5031 15.9039 53.7278 16.6874C50.9524 17.4709 49.0232 19.1718 49.4188 20.4865Z" fill="#D66A1C"/>
<path d="M45.054 14.6073C46.0555 15.5611 48.4824 14.6684 50.4747 12.6133C52.4669 10.5582 53.27 8.11893 52.2685 7.16508C51.267 6.21124 48.8401 7.10398 46.8478 9.15908C44.8556 11.2142 44.0525 13.6534 45.054 14.6073Z" fill="#D66A1C"/>
<path d="M49.4877 28.598C49.3371 29.9542 51.5494 31.3405 54.429 31.6945C57.3087 32.0485 59.7652 31.2361 59.9158 29.8799C60.0664 28.5238 57.8541 27.1375 54.9744 26.7835C52.0948 26.4295 49.6383 27.2419 49.4877 28.598Z" fill="#D66A1C"/>
<path d="M46.0249 38.2588C47.9858 40.3987 50.3987 41.3953 51.4141 40.4847C52.4295 39.5741 51.663 37.1012 49.702 34.9613C47.741 32.8214 45.3282 31.8248 44.3128 32.7354C43.2974 33.646 44.0639 36.1189 46.0249 38.2588Z" fill="#D66A1C"/>
</g>
<g clip-path="url(#clip1_377_118)">
<path d="M121.368 74.3097C122.807 73.7097 123.591 71.8991 123.037 70.4343C122.121 67.9963 118.375 67.1622 118.083 64.5919C117.904 63.0129 119.272 61.6159 120.837 61.3028C122.402 60.9897 123.992 61.5141 125.403 62.2615C127.626 63.455 129.547 65.1768 131.407 66.9031C133.075 68.4339 134.909 70.2978 134.762 72.5427C134.654 74.3898 133.203 75.8422 131.761 76.9732C129.806 78.4876 127.602 79.7242 125.283 80.6484C124.034 81.148 122.701 81.555 121.371 81.4311C120.015 81.2968 118.66 80.4835 118.236 79.2189C117.848 78.0873 118.295 76.8201 119.115 75.9696C119.945 75.0937 120.982 74.4493 121.368 74.3097Z" fill="#D66A1C"/>
<path d="M136.509 68.3455C136.904 69.6602 139.475 70.0907 142.25 69.3072C145.025 68.5236 146.955 66.8227 146.559 65.5081C146.163 64.1934 143.593 63.7629 140.818 64.5464C138.042 65.3299 136.113 67.0308 136.509 68.3455Z" fill="#D66A1C"/>
<path d="M132.144 62.4663C133.145 63.4201 135.572 62.5274 137.565 60.4723C139.557 58.4172 140.36 55.9779 139.358 55.0241C138.357 54.0702 135.93 54.963 133.938 57.0181C131.945 59.0732 131.142 61.5124 132.144 62.4663Z" fill="#D66A1C"/>
<path d="M136.578 76.457C136.427 77.8132 138.639 79.1995 141.519 79.5535C144.399 79.9075 146.855 79.0951 147.006 77.739C147.156 76.3828 144.944 74.9965 142.064 74.6425C139.185 74.2885 136.728 75.1009 136.578 76.457Z" fill="#D66A1C"/>
</g>
<g clip-path="url(#clip2_377_118)">
<path d="M362.722 26.4507C364.162 25.8506 364.945 24.0401 364.391 22.5753C363.476 20.1373 359.73 19.3032 359.437 16.7329C359.259 15.1539 360.627 13.7568 362.192 13.4438C363.757 13.1307 365.347 13.655 366.758 14.4025C368.98 15.596 370.902 17.3178 372.761 19.0441C374.429 20.5748 376.264 22.4388 376.116 24.6837C376.008 26.5308 374.558 27.9832 373.116 29.1142C371.161 30.6286 368.957 31.8652 366.638 32.7894C365.388 33.289 364.056 33.696 362.725 33.5721C361.369 33.4378 360.015 32.6245 359.59 31.3599C359.203 30.2283 359.649 28.9611 360.469 28.1106C361.299 27.2347 362.336 26.5903 362.722 26.4507Z" fill="#D66A1C"/>
<path d="M377.863 20.4865C378.259 21.8011 380.829 22.2317 383.604 21.4482C386.38 20.6646 388.309 18.9637 387.913 17.6491C387.518 16.3344 384.947 15.9039 382.172 16.6874C379.397 17.4709 377.468 19.1718 377.863 20.4865Z" fill="#D66A1C"/>
<path d="M373.498 14.6073C374.5 15.5611 376.927 14.6684 378.919 12.6133C380.911 10.5582 381.714 8.11893 380.713 7.16508C379.711 6.21124 377.284 7.10398 375.292 9.15908C373.3 11.2142 372.497 13.6534 373.498 14.6073Z" fill="#D66A1C"/>
<path d="M377.932 28.598C377.781 29.9542 379.994 31.3405 382.873 31.6945C385.753 32.0485 388.21 31.2361 388.36 29.8799C388.511 28.5238 386.298 27.1375 383.419 26.7835C380.539 26.4295 378.083 27.2419 377.932 28.598Z" fill="#D66A1C"/>
<path d="M374.469 38.2588C376.43 40.3987 378.843 41.3953 379.858 40.4847C380.874 39.5741 380.107 37.1012 378.146 34.9613C376.185 32.8214 373.773 31.8248 372.757 32.7354C371.742 33.646 372.508 36.1189 374.469 38.2588Z" fill="#D66A1C"/>
</g>
<g clip-path="url(#clip3_377_118)">
<path d="M188.542 27.9791C189.982 27.3791 190.766 25.5686 190.211 24.1037C189.296 21.6658 185.55 20.8316 185.258 18.2613C185.079 16.6823 186.447 15.2853 188.012 14.9722C189.577 14.6591 191.167 15.1835 192.578 15.9309C194.801 17.1244 196.722 18.8462 198.582 20.5726C200.249 22.1033 202.084 23.9673 201.937 26.2122C201.828 28.0592 200.378 29.5117 198.936 30.6426C196.981 32.1571 194.777 33.3937 192.458 34.3179C191.208 34.8175 189.876 35.2245 188.546 35.1006C187.19 34.9662 185.835 34.1529 185.411 32.8883C185.023 31.7567 185.469 30.4895 186.289 29.639C187.119 28.7631 188.157 28.1187 188.542 27.9791Z" fill="#D66A1C"/>
<path d="M203.683 22.0149C204.079 23.3296 206.649 23.7601 209.425 22.9766C212.2 22.1931 214.129 20.4922 213.734 19.1775C213.338 17.8629 210.768 17.4323 207.992 18.2158C205.217 18.9994 203.288 20.7003 203.683 22.0149Z" fill="#D66A1C"/>
<path d="M199.319 16.1357C200.32 17.0896 202.747 16.1968 204.739 14.1417C206.732 12.0866 207.535 9.64738 206.533 8.69353C205.532 7.73968 203.105 8.63242 201.112 10.6875C199.12 12.7426 198.317 15.1819 199.319 16.1357Z" fill="#D66A1C"/>
<path d="M203.752 30.1265C203.602 31.4826 205.814 32.8689 208.694 33.2229C211.573 33.5769 214.03 32.7645 214.18 31.4084C214.331 30.0522 212.119 28.6659 209.239 28.3119C206.359 27.9579 203.903 28.7703 203.752 30.1265Z" fill="#D66A1C"/>
<path d="M200.29 39.7873C202.25 41.9272 204.663 42.9237 205.679 42.0131C206.694 41.1025 205.928 38.6296 203.967 36.4897C202.006 34.3498 199.593 33.3533 198.577 34.2639C197.562 35.1745 198.329 37.6474 200.29 39.7873Z" fill="#D66A1C"/>
</g>
<g clip-path="url(#clip4_377_118)">
<path d="M267.166 69.0004C268.605 68.4003 269.389 66.5898 268.834 65.125C267.919 62.687 264.173 61.8529 263.881 59.2826C263.702 57.7036 265.07 56.3065 266.635 55.9935C268.2 55.6804 269.79 56.2047 271.201 56.9521C273.424 58.1457 275.345 59.8675 277.205 61.5938C278.872 63.1245 280.707 64.9885 280.56 67.2334C280.451 69.0804 279.001 70.5329 277.559 71.6639C275.604 73.1783 273.4 74.4149 271.081 75.3391C269.832 75.8387 268.499 76.2457 267.169 76.1218C265.813 75.9875 264.458 75.1742 264.034 73.9096C263.646 72.778 264.093 71.5107 264.912 70.6603C265.742 69.7843 266.78 69.1399 267.166 69.0004Z" fill="#D66A1C"/>
<path d="M282.306 63.0362C282.702 64.3508 285.273 64.7814 288.048 63.9979C290.823 63.2143 292.752 61.5134 292.357 60.1988C291.961 58.8841 289.391 58.4535 286.615 59.2371C283.84 60.0206 281.911 61.7215 282.306 63.0362Z" fill="#D66A1C"/>
<path d="M277.942 57.157C278.943 58.1108 281.37 57.2181 283.362 55.163C285.355 53.1079 286.158 50.6686 285.156 49.7148C284.155 48.7609 281.728 49.6537 279.736 51.7088C277.743 53.7639 276.94 56.2031 277.942 57.157Z" fill="#D66A1C"/>
<path d="M282.375 71.1477C282.225 72.5038 284.437 73.8902 287.317 74.2442C290.196 74.5982 292.653 73.7858 292.803 72.4296C292.954 71.0735 290.742 69.6872 287.862 69.3332C284.982 68.9792 282.526 69.7916 282.375 71.1477Z" fill="#D66A1C"/>
<path d="M278.913 80.8085C280.874 82.9484 283.286 83.9449 284.302 83.0344C285.317 82.1238 284.551 79.6509 282.59 77.511C280.629 75.3711 278.216 74.3745 277.2 75.2851C276.185 76.1957 276.952 78.6686 278.913 80.8085Z" fill="#D66A1C"/>
</g>
<g clip-path="url(#clip5_377_118)">
<path d="M449.812 74.3097C451.252 73.7097 452.035 71.8991 451.481 70.4343C450.566 67.9963 446.82 67.1622 446.527 64.5919C446.348 63.0129 447.717 61.6159 449.281 61.3028C450.846 60.9897 452.437 61.5141 453.848 62.2615C456.07 63.455 457.991 65.1768 459.851 66.9031C461.519 68.4339 463.354 70.2978 463.206 72.5427C463.098 74.3898 461.647 75.8422 460.206 76.9732C458.251 78.4876 456.047 79.7242 453.728 80.6484C452.478 81.148 451.146 81.555 449.815 81.4311C448.459 81.2968 447.105 80.4835 446.68 79.2189C446.293 78.0873 446.739 76.8201 447.559 75.9696C448.389 75.0937 449.426 74.4493 449.812 74.3097Z" fill="#D66A1C"/>
<path d="M464.953 68.3455C465.349 69.6602 467.919 70.0907 470.694 69.3072C473.47 68.5236 475.399 66.8227 475.003 65.5081C474.608 64.1934 472.037 63.7629 469.262 64.5464C466.487 65.3299 464.557 67.0308 464.953 68.3455Z" fill="#D66A1C"/>
<path d="M460.588 62.4663C461.59 63.4201 464.017 62.5274 466.009 60.4723C468.001 58.4172 468.804 55.9779 467.803 55.0241C466.801 54.0702 464.374 54.963 462.382 57.0181C460.39 59.0732 459.587 61.5124 460.588 62.4663Z" fill="#D66A1C"/>
<path d="M465.022 76.457C464.871 77.8132 467.084 79.1995 469.963 79.5535C472.843 79.9075 475.299 79.0951 475.45 77.739C475.601 76.3828 473.388 74.9965 470.509 74.6425C467.629 74.2885 465.172 75.1009 465.022 76.457Z" fill="#D66A1C"/>
</g>
<g clip-path="url(#clip6_377_118)">
<path d="M687.309 26.4507C688.749 25.8506 689.532 24.0401 688.978 22.5753C688.063 20.1373 684.317 19.3032 684.024 16.7329C683.845 15.1539 685.214 13.7568 686.779 13.4438C688.343 13.1307 689.934 13.655 691.345 14.4025C693.567 15.596 695.489 17.3178 697.348 19.0441C699.016 20.5748 700.851 22.4388 700.703 24.6837C700.595 26.5308 699.145 27.9832 697.703 29.1142C695.748 30.6286 693.544 31.8652 691.225 32.7894C689.975 33.289 688.643 33.696 687.312 33.5721C685.956 33.4378 684.602 32.6245 684.177 31.3599C683.79 30.2283 684.236 28.9611 685.056 28.1106C685.886 27.2347 686.923 26.5903 687.309 26.4507Z" fill="#D66A1C"/>
<path d="M702.45 20.4865C702.846 21.8011 705.416 22.2317 708.191 21.4482C710.967 20.6646 712.896 18.9637 712.5 17.6491C712.105 16.3344 709.534 15.9039 706.759 16.6874C703.984 17.4709 702.054 19.1718 702.45 20.4865Z" fill="#D66A1C"/>
<path d="M698.085 14.6073C699.087 15.5611 701.514 14.6684 703.506 12.6133C705.498 10.5582 706.301 8.11893 705.3 7.16508C704.298 6.21124 701.871 7.10398 699.879 9.15908C697.887 11.2142 697.084 13.6534 698.085 14.6073Z" fill="#D66A1C"/>
<path d="M702.519 28.598C702.368 29.9542 704.581 31.3405 707.46 31.6945C710.34 32.0485 712.796 31.2361 712.947 29.8799C713.098 28.5238 710.885 27.1375 708.006 26.7835C705.126 26.4295 702.67 27.2419 702.519 28.598Z" fill="#D66A1C"/>
<path d="M699.056 38.2588C701.017 40.3987 703.43 41.3953 704.445 40.4847C705.461 39.5741 704.694 37.1012 702.733 34.9613C700.772 32.8214 698.359 31.8248 697.344 32.7354C696.329 33.646 697.095 36.1189 699.056 38.2588Z" fill="#D66A1C"/>
</g>
<g clip-path="url(#clip7_377_118)">
<path d="M513.129 27.9791C514.569 27.3791 515.353 25.5686 514.798 24.1037C513.883 21.6658 510.137 20.8316 509.845 18.2613C509.666 16.6823 511.034 15.2853 512.599 14.9722C514.164 14.6591 515.754 15.1835 517.165 15.9309C519.387 17.1244 521.309 18.8462 523.168 20.5726C524.836 22.1033 526.671 23.9673 526.524 26.2122C526.415 28.0592 524.965 29.5117 523.523 30.6426C521.568 32.1571 519.364 33.3937 517.045 34.3179C515.795 34.8175 514.463 35.2245 513.133 35.1006C511.777 34.9662 510.422 34.1529 509.997 32.8883C509.61 31.7567 510.056 30.4895 510.876 29.639C511.706 28.7631 512.744 28.1187 513.129 27.9791Z" fill="#D66A1C"/>
<path d="M528.27 22.0149C528.666 23.3296 531.236 23.7601 534.012 22.9766C536.787 22.1931 538.716 20.4922 538.321 19.1775C537.925 17.8629 535.355 17.4323 532.579 18.2158C529.804 18.9994 527.875 20.7003 528.27 22.0149Z" fill="#D66A1C"/>
<path d="M523.906 16.1357C524.907 17.0896 527.334 16.1968 529.326 14.1417C531.318 12.0866 532.122 9.64738 531.12 8.69353C530.119 7.73968 527.692 8.63242 525.699 10.6875C523.707 12.7426 522.904 15.1819 523.906 16.1357Z" fill="#D66A1C"/>
<path d="M528.339 30.1265C528.189 31.4826 530.401 32.8689 533.281 33.2229C536.16 33.5769 538.617 32.7645 538.767 31.4084C538.918 30.0522 536.706 28.6659 533.826 28.3119C530.946 27.9579 528.49 28.7703 528.339 30.1265Z" fill="#D66A1C"/>
<path d="M524.876 39.7873C526.837 41.9272 529.25 42.9237 530.266 42.0131C531.281 41.1025 530.515 38.6296 528.554 36.4897C526.593 34.3498 524.18 33.3533 523.164 34.2639C522.149 35.1745 522.915 37.6474 524.876 39.7873Z" fill="#D66A1C"/>
</g>
<g clip-path="url(#clip8_377_118)">
<path d="M591.752 69.0004C593.192 68.4003 593.976 66.5898 593.421 65.125C592.506 62.687 588.76 61.8529 588.468 59.2826C588.289 57.7036 589.657 56.3065 591.222 55.9935C592.787 55.6804 594.377 56.2047 595.788 56.9521C598.01 58.1457 599.932 59.8675 601.792 61.5938C603.459 63.1245 605.294 64.9885 605.147 67.2334C605.038 69.0804 603.588 70.5329 602.146 71.6639C600.191 73.1783 597.987 74.4149 595.668 75.3391C594.418 75.8387 593.086 76.2457 591.756 76.1218C590.4 75.9875 589.045 75.1742 588.621 73.9096C588.233 72.778 588.679 71.5107 589.499 70.6603C590.329 69.7843 591.367 69.1399 591.752 69.0004Z" fill="#D66A1C"/>
<path d="M606.893 63.0362C607.289 64.3508 609.859 64.7814 612.635 63.9979C615.41 63.2143 617.339 61.5134 616.944 60.1988C616.548 58.8841 613.978 58.4535 611.202 59.2371C608.427 60.0206 606.498 61.7215 606.893 63.0362Z" fill="#D66A1C"/>
<path d="M602.529 57.157C603.53 58.1108 605.957 57.2181 607.949 55.163C609.942 53.1079 610.745 50.6686 609.743 49.7148C608.742 48.7609 606.315 49.6537 604.322 51.7088C602.33 53.7639 601.527 56.2031 602.529 57.157Z" fill="#D66A1C"/>
<path d="M606.962 71.1477C606.812 72.5038 609.024 73.8902 611.904 74.2442C614.783 74.5982 617.24 73.7858 617.39 72.4296C617.541 71.0735 615.329 69.6872 612.449 69.3332C609.569 68.9792 607.113 69.7916 606.962 71.1477Z" fill="#D66A1C"/>
<path d="M603.499 80.8085C605.46 82.9484 607.873 83.9449 608.889 83.0344C609.904 82.1238 609.138 79.6509 607.177 77.511C605.216 75.3711 602.803 74.3745 601.787 75.2851C600.772 76.1957 601.539 78.6686 603.499 80.8085Z" fill="#D66A1C"/>
</g>
<g clip-path="url(#clip9_377_118)">
<path d="M774.399 74.3097C775.839 73.7097 776.622 71.8991 776.068 70.4343C775.153 67.9963 771.407 67.1622 771.114 64.5919C770.935 63.0129 772.304 61.6159 773.868 61.3028C775.433 60.9897 777.023 61.5141 778.434 62.2615C780.657 63.455 782.578 65.1768 784.438 66.9031C786.106 68.4339 787.94 70.2978 787.793 72.5427C787.685 74.3898 786.234 75.8422 784.793 76.9732C782.837 78.4876 780.633 79.7242 778.314 80.6484C777.065 81.148 775.732 81.555 774.402 81.4311C773.046 81.2968 771.691 80.4835 771.267 79.2189C770.879 78.0873 771.326 76.8201 772.146 75.9696C772.976 75.0937 774.013 74.4493 774.399 74.3097Z" fill="#D66A1C"/>
<path d="M789.54 68.3455C789.935 69.6602 792.506 70.0907 795.281 69.3072C798.057 68.5236 799.986 66.8227 799.59 65.5081C799.195 64.1934 796.624 63.7629 793.849 64.5464C791.074 65.3299 789.144 67.0308 789.54 68.3455Z" fill="#D66A1C"/>
<path d="M785.175 62.4663C786.177 63.4201 788.604 62.5274 790.596 60.4723C792.588 58.4172 793.391 55.9779 792.39 55.0241C791.388 54.0702 788.961 54.963 786.969 57.0181C784.977 59.0732 784.174 61.5124 785.175 62.4663Z" fill="#D66A1C"/>
<path d="M789.609 76.457C789.458 77.8132 791.67 79.1995 794.55 79.5535C797.43 79.9075 799.886 79.0951 800.037 77.739C800.187 76.3828 797.975 74.9965 795.096 74.6425C792.216 74.2885 789.759 75.1009 789.609 76.457Z" fill="#D66A1C"/>
</g>
<g clip-path="url(#clip10_377_118)">
<path d="M1010.06 26.4507C1011.5 25.8506 1012.28 24.0401 1011.73 22.5753C1010.81 20.1373 1007.07 19.3032 1006.77 16.7329C1006.6 15.1539 1007.96 13.7568 1009.53 13.4438C1011.09 13.1307 1012.68 13.655 1014.1 14.4025C1016.32 15.596 1018.24 17.3178 1020.1 19.0441C1021.77 20.5748 1023.6 22.4388 1023.45 24.6837C1023.35 26.5308 1021.9 27.9832 1020.45 29.1142C1018.5 30.6286 1016.29 31.8652 1013.98 32.7894C1012.73 33.289 1011.39 33.696 1010.06 33.5721C1008.71 33.4378 1007.35 32.6245 1006.93 31.3599C1006.54 30.2283 1006.99 28.9611 1007.81 28.1106C1008.64 27.2347 1009.67 26.5903 1010.06 26.4507Z" fill="#D66A1C"/>
<path d="M1025.2 20.4865C1025.6 21.8011 1028.17 22.2317 1030.94 21.4482C1033.72 20.6646 1035.65 18.9637 1035.25 17.6491C1034.86 16.3344 1032.28 15.9039 1029.51 16.6874C1026.73 17.4709 1024.8 19.1718 1025.2 20.4865Z" fill="#D66A1C"/>
<path d="M1020.84 14.6073C1021.84 15.5611 1024.26 14.6684 1026.26 12.6133C1028.25 10.5582 1029.05 8.11893 1028.05 7.16508C1027.05 6.21124 1024.62 7.10398 1022.63 9.15908C1020.64 11.2142 1019.83 13.6534 1020.84 14.6073Z" fill="#D66A1C"/>
<path d="M1025.27 28.598C1025.12 29.9542 1027.33 31.3405 1030.21 31.6945C1033.09 32.0485 1035.55 31.2361 1035.7 29.8799C1035.85 28.5238 1033.64 27.1375 1030.76 26.7835C1027.88 26.4295 1025.42 27.2419 1025.27 28.598Z" fill="#D66A1C"/>
<path d="M1021.81 38.2588C1023.77 40.3987 1026.18 41.3953 1027.2 40.4847C1028.21 39.5741 1027.45 37.1012 1025.48 34.9613C1023.52 32.8214 1021.11 31.8248 1020.1 32.7354C1019.08 33.646 1019.85 36.1189 1021.81 38.2588Z" fill="#D66A1C"/>
</g>
<g clip-path="url(#clip11_377_118)">
<path d="M835.88 27.9791C837.32 27.3791 838.104 25.5686 837.549 24.1037C836.634 21.6658 832.888 20.8316 832.596 18.2613C832.417 16.6823 833.785 15.2853 835.35 14.9722C836.915 14.6591 838.505 15.1835 839.916 15.9309C842.138 17.1244 844.06 18.8462 845.919 20.5726C847.587 22.1033 849.422 23.9673 849.275 26.2122C849.166 28.0592 847.716 29.5117 846.274 30.6426C844.319 32.1571 842.115 33.3937 839.796 34.3179C838.546 34.8175 837.214 35.2245 835.884 35.1006C834.528 34.9662 833.173 34.1529 832.748 32.8883C832.361 31.7567 832.807 30.4895 833.627 29.639C834.457 28.7631 835.495 28.1187 835.88 27.9791Z" fill="#D66A1C"/>
<path d="M851.021 22.0149C851.417 23.3296 853.987 23.7601 856.763 22.9766C859.538 22.1931 861.467 20.4922 861.072 19.1775C860.676 17.8629 858.106 17.4323 855.33 18.2158C852.555 18.9994 850.626 20.7003 851.021 22.0149Z" fill="#D66A1C"/>
<path d="M846.657 16.1357C847.658 17.0896 850.085 16.1968 852.077 14.1417C854.069 12.0866 854.873 9.64738 853.871 8.69353C852.87 7.73968 850.443 8.63242 848.45 10.6875C846.458 12.7426 845.655 15.1819 846.657 16.1357Z" fill="#D66A1C"/>
<path d="M851.09 30.1265C850.94 31.4826 853.152 32.8689 856.032 33.2229C858.911 33.5769 861.368 32.7645 861.518 31.4084C861.669 30.0522 859.457 28.6659 856.577 28.3119C853.697 27.9579 851.241 28.7703 851.09 30.1265Z" fill="#D66A1C"/>
<path d="M847.627 39.7873C849.588 41.9272 852.001 42.9237 853.017 42.0131C854.032 41.1025 853.266 38.6296 851.305 36.4897C849.344 34.3498 846.931 33.3533 845.915 34.2639C844.9 35.1745 845.666 37.6474 847.627 39.7873Z" fill="#D66A1C"/>
</g>
<g clip-path="url(#clip12_377_118)">
<path d="M914.503 69.0004C915.943 68.4003 916.727 66.5898 916.172 65.125C915.257 62.687 911.511 61.8529 911.219 59.2826C911.04 57.7036 912.408 56.3065 913.973 55.9935C915.538 55.6804 917.128 56.2047 918.539 56.9521C920.761 58.1457 922.683 59.8675 924.542 61.5938C926.21 63.1245 928.045 64.9885 927.898 67.2334C927.789 69.0804 926.339 70.5329 924.897 71.6639C922.942 73.1783 920.738 74.4149 918.419 75.3391C917.169 75.8387 915.837 76.2457 914.507 76.1218C913.151 75.9875 911.796 75.1742 911.372 73.9096C910.984 72.778 911.43 71.5107 912.25 70.6603C913.08 69.7843 914.118 69.1399 914.503 69.0004Z" fill="#D66A1C"/>
<path d="M929.644 63.0362C930.04 64.3508 932.61 64.7814 935.386 63.9979C938.161 63.2143 940.09 61.5134 939.695 60.1988C939.299 58.8841 936.729 58.4535 933.953 59.2371C931.178 60.0206 929.249 61.7215 929.644 63.0362Z" fill="#D66A1C"/>
<path d="M925.28 57.157C926.281 58.1108 928.708 57.2181 930.7 55.163C932.692 53.1079 933.496 50.6686 932.494 49.7148C931.493 48.7609 929.066 49.6537 927.073 51.7088C925.081 53.7639 924.278 56.2031 925.28 57.157Z" fill="#D66A1C"/>
<path d="M929.713 71.1477C929.563 72.5038 931.775 73.8902 934.655 74.2442C937.534 74.5982 939.991 73.7858 940.141 72.4296C940.292 71.0735 938.08 69.6872 935.2 69.3332C932.32 68.9792 929.864 69.7916 929.713 71.1477Z" fill="#D66A1C"/>
<path d="M926.25 80.8085C928.211 82.9484 930.624 83.9449 931.64 83.0344C932.655 82.1238 931.889 79.6509 929.928 77.511C927.967 75.3711 925.554 74.3745 924.538 75.2851C923.523 76.1957 924.289 78.6686 926.25 80.8085Z" fill="#D66A1C"/>
</g>
<g clip-path="url(#clip13_377_118)">
<path d="M1097.15 74.3097C1098.59 73.7097 1099.37 71.8991 1098.82 70.4343C1097.9 67.9963 1094.16 67.1622 1093.86 64.5919C1093.69 63.0129 1095.05 61.6159 1096.62 61.3028C1098.18 60.9897 1099.77 61.5141 1101.18 62.2615C1103.41 63.455 1105.33 65.1768 1107.19 66.9031C1108.86 68.4339 1110.69 70.2978 1110.54 72.5427C1110.44 74.3898 1108.98 75.8422 1107.54 76.9732C1105.59 78.4876 1103.38 79.7242 1101.06 80.6484C1099.82 81.148 1098.48 81.555 1097.15 81.4311C1095.8 81.2968 1094.44 80.4835 1094.02 79.2189C1093.63 78.0873 1094.08 76.8201 1094.9 75.9696C1095.73 75.0937 1096.76 74.4493 1097.15 74.3097Z" fill="#D66A1C"/>
<path d="M1112.29 68.3455C1112.69 69.6602 1115.26 70.0907 1118.03 69.3072C1120.81 68.5236 1122.74 66.8227 1122.34 65.5081C1121.95 64.1934 1119.37 63.7629 1116.6 64.5464C1113.82 65.3299 1111.89 67.0308 1112.29 68.3455Z" fill="#D66A1C"/>
<path d="M1107.93 62.4663C1108.93 63.4201 1111.35 62.5274 1113.35 60.4723C1115.34 58.4172 1116.14 55.9779 1115.14 55.0241C1114.14 54.0702 1111.71 54.963 1109.72 57.0181C1107.73 59.0732 1106.92 61.5124 1107.93 62.4663Z" fill="#D66A1C"/>
<path d="M1112.36 76.457C1112.21 77.8132 1114.42 79.1995 1117.3 79.5535C1120.18 79.9075 1122.64 79.0951 1122.79 77.739C1122.94 76.3828 1120.73 74.9965 1117.85 74.6425C1114.97 74.2885 1112.51 75.1009 1112.36 76.457Z" fill="#D66A1C"/>
</g>
<g clip-path="url(#clip14_377_118)">
<path d="M1340.14 26.4507C1341.58 25.8506 1342.36 24.0401 1341.81 22.5753C1340.89 20.1373 1337.15 19.3032 1336.85 16.7329C1336.67 15.1539 1338.04 13.7568 1339.61 13.4438C1341.17 13.1307 1342.76 13.655 1344.17 14.4025C1346.4 15.596 1348.32 17.3178 1350.18 19.0441C1351.85 20.5748 1353.68 22.4388 1353.53 24.6837C1353.42 26.5308 1351.97 27.9832 1350.53 29.1142C1348.58 30.6286 1346.37 31.8652 1344.05 32.7894C1342.8 33.289 1341.47 33.696 1340.14 33.5721C1338.79 33.4378 1337.43 32.6245 1337.01 31.3599C1336.62 30.2283 1337.07 28.9611 1337.89 28.1106C1338.72 27.2347 1339.75 26.5903 1340.14 26.4507Z" fill="#D66A1C"/>
<path d="M1355.28 20.4865C1355.67 21.8011 1358.25 22.2317 1361.02 21.4482C1363.8 20.6646 1365.73 18.9637 1365.33 17.6491C1364.93 16.3344 1362.36 15.9039 1359.59 16.6874C1356.81 17.4709 1354.88 19.1718 1355.28 20.4865Z" fill="#D66A1C"/>
<path d="M1350.91 14.6073C1351.92 15.5611 1354.34 14.6684 1356.34 12.6133C1358.33 10.5582 1359.13 8.11893 1358.13 7.16508C1357.13 6.21124 1354.7 7.10398 1352.71 9.15908C1350.72 11.2142 1349.91 13.6534 1350.91 14.6073Z" fill="#D66A1C"/>
<path d="M1355.35 28.598C1355.2 29.9542 1357.41 31.3405 1360.29 31.6945C1363.17 32.0485 1365.63 31.2361 1365.78 29.8799C1365.93 28.5238 1363.72 27.1375 1360.84 26.7835C1357.96 26.4295 1355.5 27.2419 1355.35 28.598Z" fill="#D66A1C"/>
<path d="M1351.89 38.2588C1353.85 40.3987 1356.26 41.3953 1357.28 40.4847C1358.29 39.5741 1357.52 37.1012 1355.56 34.9613C1353.6 32.8214 1351.19 31.8248 1350.17 32.7354C1349.16 33.646 1349.93 36.1189 1351.89 38.2588Z" fill="#D66A1C"/>
</g>
<g clip-path="url(#clip15_377_118)">
<path d="M1165.96 27.9791C1167.4 27.3791 1168.18 25.5686 1167.63 24.1037C1166.71 21.6658 1162.97 20.8316 1162.67 18.2613C1162.49 16.6823 1163.86 15.2853 1165.43 14.9722C1166.99 14.6591 1168.58 15.1835 1169.99 15.9309C1172.22 17.1244 1174.14 18.8462 1176 20.5726C1177.67 22.1033 1179.5 23.9673 1179.35 26.2122C1179.24 28.0592 1177.79 29.5117 1176.35 30.6426C1174.4 32.1571 1172.19 33.3937 1169.87 34.3179C1168.62 34.8175 1167.29 35.2245 1165.96 35.1006C1164.61 34.9662 1163.25 34.1529 1162.83 32.8883C1162.44 31.7567 1162.89 30.4895 1163.71 29.639C1164.54 28.7631 1165.57 28.1187 1165.96 27.9791Z" fill="#D66A1C"/>
<path d="M1181.1 22.0149C1181.49 23.3296 1184.07 23.7601 1186.84 22.9766C1189.62 22.1931 1191.55 20.4922 1191.15 19.1775C1190.75 17.8629 1188.18 17.4323 1185.41 18.2158C1182.63 18.9994 1180.7 20.7003 1181.1 22.0149Z" fill="#D66A1C"/>
<path d="M1176.73 16.1357C1177.74 17.0896 1180.16 16.1968 1182.16 14.1417C1184.15 12.0866 1184.95 9.64738 1183.95 8.69353C1182.95 7.73968 1180.52 8.63242 1178.53 10.6875C1176.54 12.7426 1175.73 15.1819 1176.73 16.1357Z" fill="#D66A1C"/>
<path d="M1181.17 30.1265C1181.02 31.4826 1183.23 32.8689 1186.11 33.2229C1188.99 33.5769 1191.45 32.7645 1191.6 31.4084C1191.75 30.0522 1189.54 28.6659 1186.66 28.3119C1183.78 27.9579 1181.32 28.7703 1181.17 30.1265Z" fill="#D66A1C"/>
<path d="M1177.71 39.7873C1179.67 41.9272 1182.08 42.9237 1183.1 42.0131C1184.11 41.1025 1183.34 38.6296 1181.38 36.4897C1179.42 34.3498 1177.01 33.3533 1175.99 34.2639C1174.98 35.1745 1175.75 37.6474 1177.71 39.7873Z" fill="#D66A1C"/>
</g>
<g clip-path="url(#clip16_377_118)">
<path d="M1244.58 69.0004C1246.02 68.4003 1246.8 66.5898 1246.25 65.125C1245.34 62.687 1241.59 61.8529 1241.3 59.2826C1241.12 57.7036 1242.49 56.3065 1244.05 55.9935C1245.62 55.6804 1247.21 56.2047 1248.62 56.9521C1250.84 58.1457 1252.76 59.8675 1254.62 61.5938C1256.29 63.1245 1258.12 64.9885 1257.98 67.2334C1257.87 69.0804 1256.42 70.5329 1254.98 71.6639C1253.02 73.1783 1250.82 74.4149 1248.5 75.3391C1247.25 75.8387 1245.92 76.2457 1244.58 76.1218C1243.23 75.9875 1241.87 75.1742 1241.45 73.9096C1241.06 72.778 1241.51 71.5107 1242.33 70.6603C1243.16 69.7843 1244.2 69.1399 1244.58 69.0004Z" fill="#D66A1C"/>
<path d="M1259.72 63.0362C1260.12 64.3508 1262.69 64.7814 1265.46 63.9979C1268.24 63.2143 1270.17 61.5134 1269.77 60.1988C1269.38 58.8841 1266.81 58.4535 1264.03 59.2371C1261.26 60.0206 1259.33 61.7215 1259.72 63.0362Z" fill="#D66A1C"/>
<path d="M1255.36 57.157C1256.36 58.1108 1258.79 57.2181 1260.78 55.163C1262.77 53.1079 1263.57 50.6686 1262.57 49.7148C1261.57 48.7609 1259.14 49.6537 1257.15 51.7088C1255.16 53.7639 1254.36 56.2031 1255.36 57.157Z" fill="#D66A1C"/>
<path d="M1259.79 71.1477C1259.64 72.5038 1261.85 73.8902 1264.73 74.2442C1267.61 74.5982 1270.07 73.7858 1270.22 72.4296C1270.37 71.0735 1268.16 69.6872 1265.28 69.3332C1262.4 68.9792 1259.94 69.7916 1259.79 71.1477Z" fill="#D66A1C"/>
<path d="M1256.33 80.8085C1258.29 82.9484 1260.7 83.9449 1261.72 83.0344C1262.73 82.1238 1261.97 79.6509 1260.01 77.511C1258.05 75.3711 1255.63 74.3745 1254.62 75.2851C1253.6 76.1957 1254.37 78.6686 1256.33 80.8085Z" fill="#D66A1C"/>
</g>
<g clip-path="url(#clip17_377_118)">
<path d="M1427.23 74.3097C1428.67 73.7097 1429.45 71.8991 1428.9 70.4343C1427.98 67.9963 1424.24 67.1622 1423.94 64.5919C1423.76 63.0129 1425.13 61.6159 1426.7 61.3028C1428.26 60.9897 1429.85 61.5141 1431.26 62.2615C1433.49 63.455 1435.41 65.1768 1437.27 66.9031C1438.93 68.4339 1440.77 70.2978 1440.62 72.5427C1440.51 74.3898 1439.06 75.8422 1437.62 76.9732C1435.67 78.4876 1433.46 79.7242 1431.14 80.6484C1429.89 81.148 1428.56 81.555 1427.23 81.4311C1425.88 81.2968 1424.52 80.4835 1424.1 79.2189C1423.71 78.0873 1424.16 76.8201 1424.97 75.9696C1425.8 75.0937 1426.84 74.4493 1427.23 74.3097Z" fill="#D66A1C"/>
<path d="M1442.37 68.3455C1442.76 69.6602 1445.34 70.0907 1448.11 69.3072C1450.89 68.5236 1452.81 66.8227 1452.42 65.5081C1452.02 64.1934 1449.45 63.7629 1446.68 64.5464C1443.9 65.3299 1441.97 67.0308 1442.37 68.3455Z" fill="#D66A1C"/>
<path d="M1438 62.4663C1439.01 63.4201 1441.43 62.5274 1443.42 60.4723C1445.42 58.4172 1446.22 55.9779 1445.22 55.0241C1444.22 54.0702 1441.79 54.963 1439.8 57.0181C1437.81 59.0732 1437 61.5124 1438 62.4663Z" fill="#D66A1C"/>
<path d="M1442.44 76.457C1442.29 77.8132 1444.5 79.1995 1447.38 79.5535C1450.26 79.9075 1452.72 79.0951 1452.87 77.739C1453.02 76.3828 1450.81 74.9965 1447.93 74.6425C1445.05 74.2885 1442.59 75.1009 1442.44 76.457Z" fill="#D66A1C"/>
</g>
<g clip-path="url(#clip18_377_118)">
<path d="M1662.89 26.4507C1664.33 25.8506 1665.11 24.0401 1664.56 22.5753C1663.64 20.1373 1659.9 19.3032 1659.6 16.7329C1659.43 15.1539 1660.79 13.7568 1662.36 13.4438C1663.92 13.1307 1665.51 13.655 1666.92 14.4025C1669.15 15.596 1671.07 17.3178 1672.93 19.0441C1674.6 20.5748 1676.43 22.4388 1676.28 24.6837C1676.17 26.5308 1674.72 27.9832 1673.28 29.1142C1671.33 30.6286 1669.12 31.8652 1666.8 32.7894C1665.56 33.289 1664.22 33.696 1662.89 33.5721C1661.54 33.4378 1660.18 32.6245 1659.76 31.3599C1659.37 30.2283 1659.82 28.9611 1660.64 28.1106C1661.47 27.2347 1662.5 26.5903 1662.89 26.4507Z" fill="#D66A1C"/>
<path d="M1678.03 20.4865C1678.43 21.8011 1681 22.2317 1683.77 21.4482C1686.55 20.6646 1688.48 18.9637 1688.08 17.6491C1687.68 16.3344 1685.11 15.9039 1682.34 16.6874C1679.56 17.4709 1677.63 19.1718 1678.03 20.4865Z" fill="#D66A1C"/>
<path d="M1673.67 14.6073C1674.67 15.5611 1677.09 14.6684 1679.09 12.6133C1681.08 10.5582 1681.88 8.11893 1680.88 7.16508C1679.88 6.21124 1677.45 7.10398 1675.46 9.15908C1673.47 11.2142 1672.66 13.6534 1673.67 14.6073Z" fill="#D66A1C"/>
<path d="M1678.1 28.598C1677.95 29.9542 1680.16 31.3405 1683.04 31.6945C1685.92 32.0485 1688.38 31.2361 1688.53 29.8799C1688.68 28.5238 1686.47 27.1375 1683.59 26.7835C1680.71 26.4295 1678.25 27.2419 1678.1 28.598Z" fill="#D66A1C"/>
<path d="M1674.64 38.2588C1676.6 40.3987 1679.01 41.3953 1680.03 40.4847C1681.04 39.5741 1680.28 37.1012 1678.31 34.9613C1676.35 32.8214 1673.94 31.8248 1672.93 32.7354C1671.91 33.646 1672.68 36.1189 1674.64 38.2588Z" fill="#D66A1C"/>
</g>
<g clip-path="url(#clip19_377_118)">
<path d="M1488.71 27.9791C1490.15 27.3791 1490.93 25.5686 1490.38 24.1037C1489.46 21.6658 1485.72 20.8316 1485.42 18.2613C1485.25 16.6823 1486.61 15.2853 1488.18 14.9722C1489.74 14.6591 1491.33 15.1835 1492.74 15.9309C1494.97 17.1244 1496.89 18.8462 1498.75 20.5726C1500.42 22.1033 1502.25 23.9673 1502.1 26.2122C1502 28.0592 1500.54 29.5117 1499.1 30.6426C1497.15 32.1571 1494.94 33.3937 1492.62 34.3179C1491.38 34.8175 1490.04 35.2245 1488.71 35.1006C1487.36 34.9662 1486 34.1529 1485.58 32.8883C1485.19 31.7567 1485.64 30.4895 1486.46 29.639C1487.29 28.7631 1488.32 28.1187 1488.71 27.9791Z" fill="#D66A1C"/>
<path d="M1503.85 22.0149C1504.25 23.3296 1506.82 23.7601 1509.59 22.9766C1512.37 22.1931 1514.3 20.4922 1513.9 19.1775C1513.51 17.8629 1510.93 17.4323 1508.16 18.2158C1505.38 18.9994 1503.45 20.7003 1503.85 22.0149Z" fill="#D66A1C"/>
<path d="M1499.49 16.1357C1500.49 17.0896 1502.91 16.1968 1504.91 14.1417C1506.9 12.0866 1507.7 9.64738 1506.7 8.69353C1505.7 7.73968 1503.27 8.63242 1501.28 10.6875C1499.29 12.7426 1498.48 15.1819 1499.49 16.1357Z" fill="#D66A1C"/>
<path d="M1503.92 30.1265C1503.77 31.4826 1505.98 32.8689 1508.86 33.2229C1511.74 33.5769 1514.2 32.7645 1514.35 31.4084C1514.5 30.0522 1512.29 28.6659 1509.41 28.3119C1506.53 27.9579 1504.07 28.7703 1503.92 30.1265Z" fill="#D66A1C"/>
<path d="M1500.46 39.7873C1502.42 41.9272 1504.83 42.9237 1505.85 42.0131C1506.86 41.1025 1506.1 38.6296 1504.13 36.4897C1502.17 34.3498 1499.76 33.3533 1498.75 34.2639C1497.73 35.1745 1498.5 37.6474 1500.46 39.7873Z" fill="#D66A1C"/>
</g>
<g clip-path="url(#clip20_377_118)">
<path d="M1567.33 69.0004C1568.77 68.4003 1569.56 66.5898 1569 65.125C1568.09 62.687 1564.34 61.8529 1564.05 59.2826C1563.87 57.7036 1565.24 56.3065 1566.8 55.9935C1568.37 55.6804 1569.96 56.2047 1571.37 56.9521C1573.59 58.1457 1575.51 59.8675 1577.37 61.5938C1579.04 63.1245 1580.87 64.9885 1580.73 67.2334C1580.62 69.0804 1579.17 70.5329 1577.73 71.6639C1575.77 73.1783 1573.57 74.4149 1571.25 75.3391C1570 75.8387 1568.67 76.2457 1567.34 76.1218C1565.98 75.9875 1564.63 75.1742 1564.2 73.9096C1563.81 72.778 1564.26 71.5107 1565.08 70.6603C1565.91 69.7843 1566.95 69.1399 1567.33 69.0004Z" fill="#D66A1C"/>
<path d="M1582.47 63.0362C1582.87 64.3508 1585.44 64.7814 1588.21 63.9979C1590.99 63.2143 1592.92 61.5134 1592.52 60.1988C1592.13 58.8841 1589.56 58.4535 1586.78 59.2371C1584.01 60.0206 1582.08 61.7215 1582.47 63.0362Z" fill="#D66A1C"/>
<path d="M1578.11 57.157C1579.11 58.1108 1581.54 57.2181 1583.53 55.163C1585.52 53.1079 1586.32 50.6686 1585.32 49.7148C1584.32 48.7609 1581.89 49.6537 1579.9 51.7088C1577.91 53.7639 1577.11 56.2031 1578.11 57.157Z" fill="#D66A1C"/>
<path d="M1582.54 71.1477C1582.39 72.5038 1584.61 73.8902 1587.48 74.2442C1590.36 74.5982 1592.82 73.7858 1592.97 72.4296C1593.12 71.0735 1590.91 69.6872 1588.03 69.3332C1585.15 68.9792 1582.69 69.7916 1582.54 71.1477Z" fill="#D66A1C"/>
<path d="M1579.08 80.8085C1581.04 82.9484 1583.45 83.9449 1584.47 83.0344C1585.49 82.1238 1584.72 79.6509 1582.76 77.511C1580.8 75.3711 1578.38 74.3745 1577.37 75.2851C1576.35 76.1957 1577.12 78.6686 1579.08 80.8085Z" fill="#D66A1C"/>
</g>
</g>
<defs>
<clipPath id="clip0_377_118">
<rect width="32.2053" height="32.0784" fill="white" transform="matrix(-0.371132 0.92858 -0.927168 -0.374644 66.7412 12.9197)"/>
</clipPath>
<clipPath id="clip1_377_118">
<rect width="32.2053" height="32.0784" fill="white" transform="matrix(-0.371132 0.92858 -0.927168 -0.374644 153.831 60.7787)"/>
</clipPath>
<clipPath id="clip2_377_118">
<rect width="32.2053" height="32.0784" fill="white" transform="matrix(-0.371132 0.92858 -0.927168 -0.374644 395.186 12.9197)"/>
</clipPath>
<clipPath id="clip3_377_118">
<rect width="32.2053" height="32.0784" fill="white" transform="matrix(-0.371132 0.92858 -0.927168 -0.374644 221.006 14.4481)"/>
</clipPath>
<clipPath id="clip4_377_118">
<rect width="32.2053" height="32.0784" fill="white" transform="matrix(-0.371132 0.92858 -0.927168 -0.374644 299.629 55.4694)"/>
</clipPath>
<clipPath id="clip5_377_118">
<rect width="32.2053" height="32.0784" fill="white" transform="matrix(-0.371132 0.92858 -0.927168 -0.374644 482.275 60.7787)"/>
</clipPath>
<clipPath id="clip6_377_118">
<rect width="32.2053" height="32.0784" fill="white" transform="matrix(-0.371132 0.92858 -0.927168 -0.374644 719.772 12.9197)"/>
</clipPath>
<clipPath id="clip7_377_118">
<rect width="32.2053" height="32.0784" fill="white" transform="matrix(-0.371132 0.92858 -0.927168 -0.374644 545.593 14.4481)"/>
</clipPath>
<clipPath id="clip8_377_118">
<rect width="32.2053" height="32.0784" fill="white" transform="matrix(-0.371132 0.92858 -0.927168 -0.374644 624.216 55.4694)"/>
</clipPath>
<clipPath id="clip9_377_118">
<rect width="32.2053" height="32.0784" fill="white" transform="matrix(-0.371132 0.92858 -0.927168 -0.374644 806.862 60.7787)"/>
</clipPath>
<clipPath id="clip10_377_118">
<rect width="32.2053" height="32.0784" fill="white" transform="matrix(-0.371132 0.92858 -0.927168 -0.374644 1042.52 12.9197)"/>
</clipPath>
<clipPath id="clip11_377_118">
<rect width="32.2053" height="32.0784" fill="white" transform="matrix(-0.371132 0.92858 -0.927168 -0.374644 868.344 14.4481)"/>
</clipPath>
<clipPath id="clip12_377_118">
<rect width="32.2053" height="32.0784" fill="white" transform="matrix(-0.371132 0.92858 -0.927168 -0.374644 946.967 55.4694)"/>
</clipPath>
<clipPath id="clip13_377_118">
<rect width="32.2053" height="32.0784" fill="white" transform="matrix(-0.371132 0.92858 -0.927168 -0.374644 1129.61 60.7787)"/>
</clipPath>
<clipPath id="clip14_377_118">
<rect width="32.2053" height="32.0784" fill="white" transform="matrix(-0.371132 0.92858 -0.927168 -0.374644 1372.6 12.9197)"/>
</clipPath>
<clipPath id="clip15_377_118">
<rect width="32.2053" height="32.0784" fill="white" transform="matrix(-0.371132 0.92858 -0.927168 -0.374644 1198.42 14.4481)"/>
</clipPath>
<clipPath id="clip16_377_118">
<rect width="32.2053" height="32.0784" fill="white" transform="matrix(-0.371132 0.92858 -0.927168 -0.374644 1277.05 55.4694)"/>
</clipPath>
<clipPath id="clip17_377_118">
<rect width="32.2053" height="32.0784" fill="white" transform="matrix(-0.371132 0.92858 -0.927168 -0.374644 1459.69 60.7787)"/>
</clipPath>
<clipPath id="clip18_377_118">
<rect width="32.2053" height="32.0784" fill="white" transform="matrix(-0.371132 0.92858 -0.927168 -0.374644 1695.35 12.9197)"/>
</clipPath>
<clipPath id="clip19_377_118">
<rect width="32.2053" height="32.0784" fill="white" transform="matrix(-0.371132 0.92858 -0.927168 -0.374644 1521.17 14.4481)"/>
</clipPath>
<clipPath id="clip20_377_118">
<rect width="32.2053" height="32.0784" fill="white" transform="matrix(-0.371132 0.92858 -0.927168 -0.374644 1599.8 55.4694)"/>
</clipPath>
</defs>
</svg>
