<svg width="106" height="104" viewBox="0 0 106 104" fill="none" xmlns="http://www.w3.org/2000/svg">
<path d="M57.7006 72.2259C56.4824 69.6664 53.1257 68.4061 50.5164 69.5436C46.173 71.4235 44.9944 78.2979 40.3549 79.0591C37.5047 79.5251 34.8462 77.1666 34.1377 74.354C33.4293 71.5414 34.2386 68.608 35.469 65.9798C37.4363 61.8385 40.3897 58.1965 43.3568 54.6662C45.986 51.5016 49.2052 48.0045 53.2933 48.0709C56.6558 48.102 59.4223 50.6047 61.6044 53.1206C64.5285 56.5338 66.9707 60.4237 68.856 64.5506C69.8748 66.7739 70.733 69.1562 70.6272 71.582C70.5048 74.0556 69.1499 76.5875 66.8924 77.4712C64.873 78.2761 62.5327 77.5791 60.9155 76.1671C59.2511 74.739 57.9885 72.9135 57.7006 72.2259Z" fill="white"/>
<path d="M45.518 45.2764C47.869 44.4406 48.4203 39.736 46.7494 34.7684C45.0785 29.8008 41.8182 26.4513 39.4672 27.287C37.1163 28.1228 36.565 32.8273 38.2359 37.795C39.9068 42.7626 43.1671 46.1121 45.518 45.2764Z" fill="white"/>
<path d="M35.2371 53.7259C36.8788 51.8225 35.0409 47.4971 31.1319 44.0648C27.223 40.6326 22.7233 39.3933 21.0816 41.2967C19.4399 43.2001 21.2778 47.5255 25.1867 50.9577C29.0956 54.39 33.5953 55.6293 35.2371 53.7259Z" fill="white"/>
<path d="M60.2359 44.4232C62.7111 44.5751 65.0294 40.435 65.4141 35.1762C65.7987 29.9173 64.104 25.531 61.6288 25.3791C59.1536 25.2271 56.8353 29.3672 56.4507 34.6261C56.066 39.8849 57.7608 44.2713 60.2359 44.4232Z" fill="white"/>
<path d="M78.0827 49.8435C81.7914 46.0923 83.3842 41.6232 81.6403 39.8615C79.8965 38.0999 75.4763 39.7128 71.7676 43.4641C68.0589 47.2154 66.4661 51.6844 68.2099 53.4461C69.9538 55.2077 74.374 53.5948 78.0827 49.8435Z" fill="white"/>
</svg>
