<svg width="1129" height="987" viewBox="0 0 1129 987" fill="none" xmlns="http://www.w3.org/2000/svg">
<path d="M1048.55 905.571C1035.52 895.291 1016.95 892.531 1001.5 898.581C986.05 904.631 974.28 919.261 971.7 935.661C970.6 942.611 971.09 949.891 973.73 956.411C978.99 969.381 992.27 977.811 1006.01 980.531C1019.74 983.251 1033.96 981.081 1047.62 978.021C1054.56 976.471 1061.77 974.521 1066.95 969.651C1071.69 965.201 1074.16 958.771 1075.06 952.341C1077.9 931.901 1061.48 915.761 1048.56 905.561L1048.55 905.571Z" fill="#FFE999"/>
<path d="M1447.66 498.638C1397.55 512.583 1364.93 560.547 1343.47 607.952C1322.01 655.358 1306.31 707.058 1271.06 745.33C1222.3 798.297 1166.87 850.681 1095.75 861.705C1042.15 870.007 963.639 840.187 916.09 814.072C854.572 780.288 831.325 705.541 807.131 639.626C749.594 482.916 646.296 330.58 489.692 272.961C416.554 246.052 337.368 241.776 260.784 227.349C184.2 212.922 105.242 185.225 56.2779 124.562C15.2322 73.7091 0.657534 4.57304 8.84154 -60.2773C17.0255 -125.128 46.3394 -185.939 84.6754 -238.866C141.828 -317.763 228.419 -384.424 325.794 -383.294C387.487 -382.575 446.62 -354.871 508.319 -355.095C600.02 -355.44 678.675 -415.853 761.103 -456.052C887.534 -517.707 1037.23 -533.224 1171.6 -491.631C1305.97 -450.038 1422.64 -350.002 1477.71 -220.507C1507.47 -150.512 1520.11 -72.4 1563 -9.58743C1608.64 57.2563 1686.81 104.277 1707.93 182.416C1733.21 275.894 1664.39 369.014 1587.71 428.101C1542.94 462.602 1492.77 486.072 1447.65 498.638L1447.66 498.638Z" fill="#FFE999"/>
</svg>
