<svg width="105" height="95" viewBox="0 0 105 95" fill="none" xmlns="http://www.w3.org/2000/svg">
<g opacity="0.6">
<g clip-path="url(#clip0_63_991)">
<path d="M9.97823 22.8787C11.3786 22.6029 12.89 23.5779 13.2068 24.9699C13.7398 27.2828 11.3052 29.8166 12.3798 31.9138C13.0406 33.2017 14.7889 33.5664 16.1399 33.0094C17.4909 32.4525 18.4384 31.2478 19.1367 29.965C20.2285 27.9319 20.8241 25.6512 21.3702 23.3985C21.8689 21.3914 22.3265 19.0469 21.081 17.4197C20.066 16.0743 18.2271 15.7093 16.557 15.5837C14.3021 15.4279 11.9977 15.609 9.76323 16.0855C8.55849 16.3409 7.33725 16.7087 6.38571 17.4778C5.41975 18.268 4.79761 19.5722 5.11247 20.7464C5.38822 21.8011 6.36832 22.5353 7.42264 22.7639C8.49756 23.0067 9.61371 22.9687 9.97823 22.8787Z" fill="#F08200" fill-opacity="0.6"/>
<path d="M24.5313 19.7152C24.1691 18.5177 25.9114 16.8866 28.4226 16.0719C30.9338 15.2572 33.2632 15.5676 33.6253 16.7651C33.9874 17.9626 32.2452 19.5938 29.734 20.4084C27.2227 21.2231 24.8934 20.9127 24.5313 19.7152Z" fill="#F08200" fill-opacity="0.6"/>
<path d="M24.1718 26.3883C24.4538 25.1567 26.7546 24.6017 29.3107 25.1486C31.8669 25.6955 33.7105 27.1372 33.4286 28.3687C33.1466 29.6003 30.8458 30.1553 28.2896 29.6084C25.7335 29.0615 23.8899 27.6198 24.1718 26.3883Z" fill="#F08200" fill-opacity="0.6"/>
<path d="M20.4896 13.5301C19.6902 12.5783 20.6769 10.4043 22.6934 8.67428C24.7099 6.94423 26.9927 6.31328 27.7921 7.26501C28.5915 8.21675 27.6048 10.3908 25.5883 12.1208C23.5718 13.8509 21.289 14.4818 20.4896 13.5301Z" fill="#F08200" fill-opacity="0.6"/>
<path d="M12.9729 7.96318C13.3875 5.34543 14.7238 3.36516 15.9576 3.54013C17.1913 3.7151 17.8553 5.97905 17.4407 8.59681C17.026 11.2146 15.6898 13.1948 14.456 13.0199C13.2222 12.8449 12.5582 10.5809 12.9729 7.96318Z" fill="#F08200" fill-opacity="0.6"/>
</g>
<g clip-path="url(#clip1_63_991)">
<path d="M21.8693 76.595C23.2697 76.3192 24.781 77.2942 25.0979 78.6862C25.6308 80.9991 23.1963 83.5329 24.2708 85.6301C24.9317 86.918 26.6799 87.2827 28.0309 86.7258C29.382 86.1688 30.3295 84.9641 31.0278 83.6813C32.1196 81.6483 32.7152 79.3676 33.2613 77.1148C33.76 75.1077 34.2176 72.7633 32.972 71.136C31.957 69.7907 30.1181 69.4256 28.448 69.3C26.1931 69.1442 23.8887 69.3253 21.6543 69.8018C20.4495 70.0572 19.2283 70.425 18.2768 71.1941C17.3108 71.9843 16.6887 73.2885 17.0035 74.4628C17.2793 75.5174 18.2594 76.2516 19.3137 76.4802C20.3886 76.723 21.5048 76.685 21.8693 76.595Z" fill="#F08200" fill-opacity="0.6"/>
<path d="M36.4223 73.4315C36.0602 72.234 37.8024 70.6029 40.3136 69.7882C42.8249 68.9735 45.1542 69.2839 45.5163 70.4814C45.8785 71.6789 44.1363 73.3101 41.625 74.1247C39.1138 74.9394 36.7844 74.629 36.4223 73.4315Z" fill="#F08200" fill-opacity="0.6"/>
<path d="M36.0629 80.1046C36.3449 78.873 38.6456 78.318 41.2018 78.8649C43.758 79.4118 45.6016 80.8535 45.3196 82.0851C45.0376 83.3166 42.7369 83.8716 40.1807 83.3247C37.6245 82.7778 35.7809 81.3361 36.0629 80.1046Z" fill="#F08200" fill-opacity="0.6"/>
<path d="M32.3807 67.2464C31.5812 66.2947 32.5679 64.1206 34.5844 62.3906C36.601 60.6605 38.8837 60.0296 39.6832 60.9813C40.4826 61.9331 39.4959 64.1071 37.4794 65.8371C35.4628 67.5672 33.1801 68.1981 32.3807 67.2464Z" fill="#F08200" fill-opacity="0.6"/>
<path d="M24.8639 61.6795C25.2786 59.0617 26.6149 57.0815 27.8486 57.2564C29.0824 57.4314 29.7464 59.6954 29.3317 62.3131C28.9171 64.9309 27.5808 66.9111 26.347 66.7362C25.1133 66.5612 24.4493 64.2972 24.8639 61.6795Z" fill="#F08200" fill-opacity="0.6"/>
</g>
<g clip-path="url(#clip2_63_991)">
<path d="M73.0077 29.8236C74.4081 29.5478 75.9194 30.5227 76.2363 31.9147C76.7692 34.2276 74.3347 36.7614 75.4092 38.8586C76.07 40.1465 77.8183 40.5112 79.1693 39.9543C80.5204 39.3973 81.4679 38.1926 82.1662 36.9098C83.258 34.8768 83.8536 32.5961 84.3997 30.3433C84.8984 28.3362 85.356 25.9918 84.1104 24.3646C83.0954 23.0192 81.2565 22.6541 79.5864 22.5286C77.3315 22.3727 75.0271 22.5539 72.7927 23.0303C71.5879 23.2857 70.3667 23.6535 69.4152 24.4227C68.4492 25.2128 67.8271 26.5171 68.1419 27.6913C68.4177 28.7459 69.3978 29.4801 70.4521 29.7088C71.527 29.9515 72.6432 29.9135 73.0077 29.8236Z" fill="#F08200" fill-opacity="0.6"/>
<path d="M87.5607 26.6601C87.1986 25.4626 88.9408 23.8314 91.452 23.0167C93.9633 22.2021 96.2926 22.5124 96.6547 23.7099C97.0169 24.9074 95.2747 26.5386 92.7634 27.3532C90.2522 28.1679 87.9228 27.8576 87.5607 26.6601Z" fill="#F08200" fill-opacity="0.6"/>
<path d="M87.2013 33.3331C87.4832 32.1016 89.784 31.5465 92.3402 32.0934C94.8964 32.6403 96.74 34.082 96.458 35.3136C96.176 36.5451 93.8753 37.1001 91.3191 36.5532C88.7629 36.0063 86.9193 34.5646 87.2013 33.3331Z" fill="#F08200" fill-opacity="0.6"/>
<path d="M83.519 20.4749C82.7196 19.5232 83.7063 17.3492 85.7228 15.6191C87.7394 13.8891 90.0221 13.2581 90.8215 14.2098C91.621 15.1616 90.6343 17.3356 88.6178 19.0656C86.6012 20.7957 84.3185 21.4266 83.519 20.4749Z" fill="#F08200" fill-opacity="0.6"/>
<path d="M76.0023 14.908C76.417 12.2903 77.7533 10.31 78.987 10.485C80.2208 10.6599 80.8848 12.9239 80.4701 15.5416C80.0555 18.1594 78.7192 20.1397 77.4854 19.9647C76.2517 19.7897 75.5877 17.5258 76.0023 14.908Z" fill="#F08200" fill-opacity="0.6"/>
</g>
</g>
<defs>
<clipPath id="clip0_63_991">
<rect width="29.3566" height="29.3566" fill="white" transform="matrix(-0.824627 -0.565676 -0.565676 0.824627 41.5568 16.6594)"/>
</clipPath>
<clipPath id="clip1_63_991">
<rect width="29.3566" height="29.3566" fill="white" transform="matrix(-0.824627 -0.565676 -0.565676 0.824627 53.4478 70.3757)"/>
</clipPath>
<clipPath id="clip2_63_991">
<rect width="29.3566" height="29.3566" fill="white" transform="matrix(-0.824627 -0.565676 -0.565676 0.824627 104.586 23.6042)"/>
</clipPath>
</defs>
</svg>
