<svg width="113" height="94" viewBox="0 0 113 94" fill="none" xmlns="http://www.w3.org/2000/svg">
<g opacity="0.6">
<g clip-path="url(#clip0_63_972)">
<path d="M83.3078 70.8639C84.7081 71.1397 86.2195 70.1648 86.5364 68.7728C87.0693 66.4599 84.6347 63.9261 85.7093 61.8289C86.3701 60.541 88.1184 60.1763 89.4694 60.7332C90.8204 61.2902 91.7679 62.4949 92.4663 63.7777C93.5581 65.8107 94.1536 68.0914 94.6998 70.3442C95.1985 72.3513 95.6561 74.6957 94.4105 76.3229C93.3955 77.6683 91.5566 78.0334 89.8865 78.1589C87.6316 78.3148 85.3272 78.1336 83.0928 77.6572C81.888 77.4018 80.6668 77.034 79.7152 76.2648C78.7493 75.4747 78.1271 74.1704 78.442 72.9962C78.7178 71.9416 79.6978 71.2074 80.7522 70.9787C81.8271 70.736 82.9432 70.774 83.3078 70.8639Z" fill="#F08200" fill-opacity="0.6"/>
<path d="M97.8606 74.0274C97.4985 75.2249 99.2407 76.8561 101.752 77.6708C104.263 78.4854 106.593 78.1751 106.955 76.9776C107.317 75.7801 105.575 74.1489 103.063 73.3343C100.552 72.5196 98.2228 72.8299 97.8606 74.0274Z" fill="#F08200" fill-opacity="0.6"/>
<path d="M97.5011 67.3544C97.7831 68.5859 100.084 69.141 102.64 68.5941C105.196 68.0472 107.04 66.6055 106.758 65.3739C106.476 64.1424 104.175 63.5874 101.619 64.1343C99.0628 64.6812 97.2192 66.1229 97.5011 67.3544Z" fill="#F08200" fill-opacity="0.6"/>
<path d="M93.8191 80.2126C93.0197 81.1643 94.0064 83.3383 96.0229 85.0684C98.0394 86.7984 100.322 87.4294 101.122 86.4777C101.921 85.5259 100.934 83.3519 98.9178 81.6219C96.9013 79.8918 94.6185 79.2609 93.8191 80.2126Z" fill="#F08200" fill-opacity="0.6"/>
<path d="M86.3022 85.7795C86.7169 88.3972 88.0532 90.3775 89.2869 90.2025C90.5207 90.0276 91.1847 87.7636 90.7701 85.1459C90.3554 82.5281 89.0191 80.5478 87.7854 80.7228C86.5516 80.8978 85.8876 83.1617 86.3022 85.7795Z" fill="#F08200" fill-opacity="0.6"/>
</g>
<g clip-path="url(#clip1_63_972)">
<path d="M66.7174 8.26702C68.1178 8.54282 69.6292 7.56788 69.946 6.1759C70.479 3.86294 68.0444 1.32914 69.119 -0.768065C69.7798 -2.05595 71.5281 -2.42065 72.8791 -1.8637C74.2301 -1.30674 75.1776 -0.102066 75.8759 1.1808C76.9677 3.21381 77.5633 5.4945 78.1094 7.74728C78.6081 9.75439 79.0657 12.0988 77.8201 13.726C76.8052 15.0714 74.9663 15.4364 73.2962 15.562C71.0413 15.7179 68.7369 15.5367 66.5024 15.0603C65.2977 14.8049 64.0765 14.4371 63.1249 13.6679C62.159 12.8777 61.5368 11.5735 61.8517 10.3993C62.1274 9.34464 63.1075 8.6105 64.1618 8.38182C65.2368 8.13903 66.3529 8.17705 66.7174 8.26702Z" fill="#F08200" fill-opacity="0.6"/>
<path d="M81.2703 11.4305C80.9082 12.628 82.6504 14.2592 85.1616 15.0739C87.6729 15.8885 90.0022 15.5782 90.3643 14.3807C90.7265 13.1832 88.9843 11.552 86.473 10.7373C83.9618 9.92267 81.6324 10.233 81.2703 11.4305Z" fill="#F08200" fill-opacity="0.6"/>
<path d="M80.9108 4.75749C81.1928 5.98902 83.4936 6.54403 86.0497 5.99714C88.6059 5.45025 90.4495 4.00855 90.1675 2.77701C89.8856 1.54548 87.5848 0.990464 85.0286 1.53736C82.4724 2.08425 80.6288 3.52595 80.9108 4.75749Z" fill="#F08200" fill-opacity="0.6"/>
<path d="M77.2288 17.6157C76.4294 18.5674 77.416 20.7414 79.4326 22.4715C81.4491 24.2015 83.7319 24.8325 84.5313 23.8807C85.3307 22.929 84.344 20.755 82.3275 19.0249C80.311 17.2949 78.0282 16.6639 77.2288 17.6157Z" fill="#F08200" fill-opacity="0.6"/>
<path d="M69.7119 23.1826C70.1266 25.8003 71.4628 27.7806 72.6966 27.6056C73.9304 27.4306 74.5944 25.1667 74.1797 22.5489C73.7651 19.9312 72.4288 17.9509 71.195 18.1259C69.9613 18.3009 69.2973 20.5648 69.7119 23.1826Z" fill="#F08200" fill-opacity="0.6"/>
</g>
<g clip-path="url(#clip2_63_972)">
<path d="M10.0462 49.0817C11.4465 49.3575 12.9579 48.3826 13.2748 46.9906C13.8077 44.6776 11.3731 42.1438 12.4477 40.0466C13.1085 38.7587 14.8568 38.394 16.2078 38.951C17.5588 39.508 18.5063 40.7126 19.2047 41.9955C20.2965 44.0285 20.892 46.3092 21.4382 48.562C21.9369 50.5691 22.3945 52.9135 21.1489 54.5407C20.1339 55.8861 18.295 56.2511 16.6249 56.3767C14.37 56.5326 12.0656 56.3514 9.83117 55.875C8.62642 55.6196 7.40519 55.2518 6.45365 54.4826C5.48769 53.6924 4.86554 52.3882 5.1804 51.214C5.45615 50.1593 6.43625 49.4252 7.49058 49.1965C8.56549 48.9537 9.68164 48.9917 10.0462 49.0817Z" fill="#F08200" fill-opacity="0.6"/>
<path d="M24.5992 52.2452C24.237 53.4427 25.9793 55.0739 28.4905 55.8886C31.0017 56.7032 33.3311 56.3929 33.6932 55.1954C34.0553 53.9979 32.3131 52.3667 29.8019 51.552C27.2906 50.7374 24.9613 51.0477 24.5992 52.2452Z" fill="#F08200" fill-opacity="0.6"/>
<path d="M24.2397 45.5722C24.5216 46.8037 26.8224 47.3587 29.3786 46.8118C31.9348 46.2649 33.7784 44.8232 33.4964 43.5917C33.2144 42.3602 30.9137 41.8052 28.3575 42.3521C25.8013 42.8989 23.9577 44.3407 24.2397 45.5722Z" fill="#F08200" fill-opacity="0.6"/>
<path d="M20.5577 58.4304C19.7582 59.3821 20.7449 61.5561 22.7614 63.2862C24.778 65.0162 27.0607 65.6472 27.8602 64.6954C28.6596 63.7437 27.6729 61.5697 25.6564 59.8396C23.6398 58.1096 21.3571 57.4786 20.5577 58.4304Z" fill="#F08200" fill-opacity="0.6"/>
<path d="M13.0409 63.9973C13.4555 66.615 14.7918 68.5953 16.0256 68.4203C17.2593 68.2453 17.9234 65.9814 17.5087 63.3636C17.0941 60.7459 15.7578 58.7656 14.524 58.9406C13.2903 59.1156 12.6262 61.3795 13.0409 63.9973Z" fill="#F08200" fill-opacity="0.6"/>
</g>
</g>
<defs>
<clipPath id="clip0_63_972">
<rect width="29.3566" height="29.3566" fill="white" transform="translate(114.886 77.0833) rotate(145.551)"/>
</clipPath>
<clipPath id="clip1_63_972">
<rect width="29.3566" height="29.3566" fill="white" transform="translate(98.2959 14.4863) rotate(145.551)"/>
</clipPath>
<clipPath id="clip2_63_972">
<rect width="29.3566" height="29.3566" fill="white" transform="translate(41.6248 55.301) rotate(145.551)"/>
</clipPath>
</defs>
</svg>
